<?xml version="1.0" encoding="utf-8"?>
<!-- Generator: Adobe Illustrator 17.1.0, SVG Export Plug-In . SVG Version: 6.00 Build 0)  -->
<!DOCTYPE svg PUBLIC "-//W3C//DTD SVG 1.1//EN" "http://www.w3.org/Graphics/SVG/1.1/DTD/svg11.dtd">
<svg version="1.1" id="Lager_1" xmlns="http://www.w3.org/2000/svg" xmlns:xlink="http://www.w3.org/1999/xlink" x="0px" y="0px"
	 viewBox="0 0 595.3 841.9" enable-background="new 0 0 595.3 841.9" xml:space="preserve">
<g>
	<defs>
		<rect id="SVGID_1_" width="595.3" height="841.9"/>
	</defs>
	<clipPath id="SVGID_2_">
		<use xlink:href="#SVGID_1_"  overflow="visible"/>
	</clipPath>
	<g clip-path="url(#SVGID_2_)">
		<defs>
			<path id="SVGID_3_" d="M250.2,815.5c0,20.7,45.9,26.4,102.4,26.4c53.1,0,80.1-1.4,99.6-17.6c0.6-0.5-43-46.3-99.6-46.3
				S250.2,794.8,250.2,815.5"/>
		</defs>
		<clipPath id="SVGID_4_">
			<use xlink:href="#SVGID_3_"  overflow="visible"/>
		</clipPath>
		<defs>
			<filter id="Adobe_OpacityMaskFilter" filterUnits="userSpaceOnUse" x="250.2" y="778" width="202.6" height="63.9">
				<feColorMatrix  type="matrix" values="1 0 0 0 0  0 1 0 0 0  0 0 1 0 0  0 0 0 1 0"/>
			</filter>
		</defs>
		<mask maskUnits="userSpaceOnUse" x="250.2" y="778" width="202.6" height="63.9" id="SVGID_5_">
			<g filter="url(#Adobe_OpacityMaskFilter)">
				
					<radialGradient id="SVGID_6_" cx="0" cy="841.89" r="1" gradientTransform="matrix(100.9215 0 0 -100.9215 393.6035 85836.4609)" gradientUnits="userSpaceOnUse">
					<stop  offset="0" style="stop-color:#595959"/>
					<stop  offset="1" style="stop-color:#000000"/>
				</radialGradient>
				<rect x="250.2" y="778" clip-path="url(#SVGID_4_)" fill="url(#SVGID_6_)" width="202.6" height="63.9"/>
			</g>
		</mask>
		
			<radialGradient id="SVGID_7_" cx="0" cy="841.89" r="1" gradientTransform="matrix(100.9215 0 0 -100.9215 393.6035 85836.4609)" gradientUnits="userSpaceOnUse">
			<stop  offset="0" style="stop-color:#1A171B"/>
			<stop  offset="1" style="stop-color:#1A171B"/>
		</radialGradient>
		<rect x="250.2" y="778" clip-path="url(#SVGID_4_)" mask="url(#SVGID_5_)" fill="url(#SVGID_7_)" width="202.6" height="63.9"/>
	</g>
	<g clip-path="url(#SVGID_2_)">
		<defs>
			<path id="SVGID_8_" d="M350.3,33c0,10.3-21.8,244.9-8.2,312.4c23.4,115.8,35.8,217.8,8.3,297.7C322.8,723,353,824.3,353,824.3
				s51,30.3,99.2,0c0,0,31.7-111.9-8.1-451.2c-16.6-141.4,26.1-136,4-342.4c0,0-11.9-6.8-41.9-6.8C378.6,24,350.3,27.7,350.3,33"/>
		</defs>
		<clipPath id="SVGID_9_">
			<use xlink:href="#SVGID_8_"  overflow="visible"/>
		</clipPath>
		
			<radialGradient id="SVGID_10_" cx="0" cy="841.89" r="1" gradientTransform="matrix(739.6725 0 0 -739.6725 273.1909 622960.4375)" gradientUnits="userSpaceOnUse">
			<stop  offset="0" style="stop-color:#FFBF00"/>
			<stop  offset="1" style="stop-color:#CC6E19"/>
		</radialGradient>
		<rect x="322.8" y="24" clip-path="url(#SVGID_9_)" fill="url(#SVGID_10_)" width="161.2" height="830.7"/>
	</g>
	<g clip-path="url(#SVGID_2_)">
		<defs>
			<rect id="SVGID_11_" width="595.3" height="841.9"/>
		</defs>
		<clipPath id="SVGID_12_">
			<use xlink:href="#SVGID_11_"  overflow="visible"/>
		</clipPath>
		<g clip-path="url(#SVGID_12_)">
			<g>
				<defs>
					<rect id="SVGID_13_" x="349.7" y="28.7" width="47.6" height="619.9"/>
				</defs>
				<clipPath id="SVGID_14_">
					<use xlink:href="#SVGID_13_"  overflow="visible"/>
				</clipPath>
				<g clip-path="url(#SVGID_14_)">
					<defs>
						<path id="SVGID_15_" d="M365.6,32.4c0,0-26.2,241.4-11.4,305.8c14.9,64.4,52.3,160.1,4.9,310.5c0,0,52.9-143.6,33-270.8
							c-19.8-127.2,5.1-348.2,5.1-348.2S380.9,26.3,365.6,32.4"/>
					</defs>
					<clipPath id="SVGID_16_">
						<use xlink:href="#SVGID_15_"  overflow="visible"/>
					</clipPath>
					
						<radialGradient id="SVGID_17_" cx="0" cy="841.89" r="1" gradientTransform="matrix(558.3146 0 0 -558.3146 78.2954 470227.75)" gradientUnits="userSpaceOnUse">
						<stop  offset="0" style="stop-color:#FFBF00"/>
						<stop  offset="1" style="stop-color:#000000"/>
					</radialGradient>
					<rect x="339.4" y="26.3" clip-path="url(#SVGID_16_)" fill="url(#SVGID_17_)" width="72.7" height="622.3"/>
				</g>
			</g>
		</g>
		<g clip-path="url(#SVGID_12_)">
			<g>
				<defs>
					<rect id="SVGID_18_" x="404.2" y="30" width="52.5" height="583.9"/>
				</defs>
				<clipPath id="SVGID_19_">
					<use xlink:href="#SVGID_18_"  overflow="visible"/>
				</clipPath>
				<g clip-path="url(#SVGID_19_)">
					<defs>
						<path id="SVGID_20_" d="M415,30c0,0,9.7,172.1-6.8,231.6c-16.5,59.5,21.2,232.6,48.5,352.4c0,0-23.1-189.2-23.1-296.2
							c0-78.5,29.5-119.8,8.1-287L415,30z"/>
					</defs>
					<clipPath id="SVGID_21_">
						<use xlink:href="#SVGID_20_"  overflow="visible"/>
					</clipPath>
					
						<radialGradient id="SVGID_22_" cx="0" cy="841.89" r="1" gradientTransform="matrix(556.5179 0 0 -556.5179 105.0376 468707.2188)" gradientUnits="userSpaceOnUse">
						<stop  offset="0" style="stop-color:#FFBF00"/>
						<stop  offset="1" style="stop-color:#000000"/>
					</radialGradient>
					<rect x="391.7" y="30" clip-path="url(#SVGID_21_)" fill="url(#SVGID_22_)" width="71.3" height="583.9"/>
				</g>
			</g>
		</g>
		<g clip-path="url(#SVGID_12_)">
			<g>
				<defs>
					<rect id="SVGID_23_" x="349.6" y="43" width="101.6" height="20.6"/>
				</defs>
				<clipPath id="SVGID_24_">
					<use xlink:href="#SVGID_23_"  overflow="visible"/>
				</clipPath>
				<g clip-path="url(#SVGID_24_)">
					<defs>
						<path id="SVGID_25_" d="M349.6,43.6c0,0,27.9,6.9,52.6,6.1c24.7-0.9,47.1-6.7,47.1-6.7l1.9,20.6l-99.8-6.7L349.6,43.6z"/>
					</defs>
					<clipPath id="SVGID_26_">
						<use xlink:href="#SVGID_25_"  overflow="visible"/>
					</clipPath>
					
						<radialGradient id="SVGID_27_" cx="0" cy="841.89" r="1" gradientTransform="matrix(57.9958 0 0 -57.9958 398.374 48878.543)" gradientUnits="userSpaceOnUse">
						<stop  offset="0" style="stop-color:#CC6E19"/>
						<stop  offset="1" style="stop-color:#FFFFFF"/>
					</radialGradient>
					<rect x="349.6" y="43" clip-path="url(#SVGID_26_)" fill="url(#SVGID_27_)" width="101.6" height="20.6"/>
				</g>
			</g>
		</g>
	</g>
	<g clip-path="url(#SVGID_2_)">
		<defs>
			<path id="SVGID_28_" d="M157.1,0c0,0-58.5,127.4,0,286.1L336.7,230h117c0,0,16.7-111.7,0-180.6l-117,0.8L157.1,0z"/>
		</defs>
		<clipPath id="SVGID_29_">
			<use xlink:href="#SVGID_28_"  overflow="visible"/>
		</clipPath>
		
			<linearGradient id="SVGID_30_" gradientUnits="userSpaceOnUse" x1="0" y1="841.89" x2="1" y2="841.89" gradientTransform="matrix(329.9712 0 0 -329.9712 131.061 277942.5)">
			<stop  offset="0" style="stop-color:#B2B2B2"/>
			<stop  offset="0.5843" style="stop-color:#8C8C8C"/>
			<stop  offset="0.8034" style="stop-color:#FFFFFF"/>
			<stop  offset="1" style="stop-color:#B2B2B2"/>
		</linearGradient>
		<rect x="98.6" y="0" clip-path="url(#SVGID_29_)" fill="url(#SVGID_30_)" width="371.7" height="286.1"/>
	</g>
	<g clip-path="url(#SVGID_2_)">
		<defs>
			<rect id="SVGID_31_" width="595.3" height="841.9"/>
		</defs>
		<clipPath id="SVGID_32_">
			<use xlink:href="#SVGID_31_"  overflow="visible"/>
		</clipPath>
		<g clip-path="url(#SVGID_32_)">
			<g>
				<defs>
					<rect id="SVGID_33_" x="133.6" y="2.3" width="43.8" height="281.5"/>
				</defs>
				<clipPath id="SVGID_34_">
					<use xlink:href="#SVGID_33_"  overflow="visible"/>
				</clipPath>
				<g clip-path="url(#SVGID_34_)">
					<defs>
						<path id="SVGID_35_" d="M177.3,7.3l-18.1-5.1c0,0-57.5,125.4,0,281.5l18.2-5.7C129.7,142.9,167.6,31.8,177.3,7.3"/>
					</defs>
					<clipPath id="SVGID_36_">
						<use xlink:href="#SVGID_35_"  overflow="visible"/>
					</clipPath>
					
						<linearGradient id="SVGID_37_" gradientUnits="userSpaceOnUse" x1="0" y1="841.8544" x2="1" y2="841.8544" gradientTransform="matrix(-1.530000e-05 449.3473 449.3473 1.530000e-05 -378145.5312 -68.973)">
						<stop  offset="0" style="stop-color:#FFFFFF"/>
						<stop  offset="0.5056" style="stop-color:#000000"/>
						<stop  offset="1" style="stop-color:#FFFFFF"/>
					</linearGradient>
					<rect x="101.6" y="2.3" clip-path="url(#SVGID_36_)" fill="url(#SVGID_37_)" width="75.7" height="281.5"/>
				</g>
			</g>
		</g>
		<g clip-path="url(#SVGID_32_)">
			<g>
				<defs>
					<rect id="SVGID_38_" x="162" y="11.6" width="293.5" height="259.1"/>
				</defs>
				<clipPath id="SVGID_39_">
					<use xlink:href="#SVGID_38_"  overflow="visible"/>
				</clipPath>
				<g clip-path="url(#SVGID_39_)">
					<defs>
						<path id="SVGID_40_" d="M449.3,53.7L362,54.3l-0.8,0l-0.6-0.2l-23.9,0.2l-0.8,0l-0.7-0.2l-152-42.4
							c-11.7,32.5-41.1,135.7,0.1,259.1L335,223.3l0.8-0.3h0.8h24.4h0.8h86.9C451.6,201.8,462.1,112.9,449.3,53.7"/>
					</defs>
					<clipPath id="SVGID_41_">
						<use xlink:href="#SVGID_40_"  overflow="visible"/>
					</clipPath>
					
						<linearGradient id="SVGID_42_" gradientUnits="userSpaceOnUse" x1="0" y1="841.89" x2="1" y2="841.89" gradientTransform="matrix(227.8897 0 0 -227.8897 79.3618 191999.2344)">
						<stop  offset="0" style="stop-color:#B2B2B2"/>
						<stop  offset="0.3483" style="stop-color:#FFFFFF"/>
						<stop  offset="0.8427" style="stop-color:#000000"/>
						<stop  offset="1" style="stop-color:#000000"/>
					</linearGradient>
					<rect x="142" y="11.6" clip-path="url(#SVGID_41_)" fill="url(#SVGID_42_)" width="320" height="259.1"/>
				</g>
			</g>
		</g>
		<g clip-path="url(#SVGID_32_)">
			<g>
				<defs>
					<rect id="SVGID_43_" x="209" y="197.8" width="239.8" height="65"/>
				</defs>
				<clipPath id="SVGID_44_">
					<use xlink:href="#SVGID_43_"  overflow="visible"/>
				</clipPath>
				<g clip-path="url(#SVGID_44_)">
					<defs>
						<polygon id="SVGID_45_" points="209,262.7 335.8,223.1 448.8,223.1 328.6,197.8 						"/>
					</defs>
					<clipPath id="SVGID_46_">
						<use xlink:href="#SVGID_45_"  overflow="visible"/>
					</clipPath>
					
						<radialGradient id="SVGID_47_" cx="0" cy="841.89" r="1" gradientTransform="matrix(76.4991 0 0 -76.4991 329.3057 64671.1484)" gradientUnits="userSpaceOnUse">
						<stop  offset="0" style="stop-color:#8C8C8C"/>
						<stop  offset="1" style="stop-color:#FFFFFF"/>
					</radialGradient>
					<rect x="209" y="197.8" clip-path="url(#SVGID_46_)" fill="url(#SVGID_47_)" width="239.8" height="65"/>
				</g>
			</g>
		</g>
		<g clip-path="url(#SVGID_32_)">
			<g>
				<defs>
					<rect id="SVGID_48_" x="183.1" y="11.6" width="266.1" height="81.4"/>
				</defs>
				<clipPath id="SVGID_49_">
					<use xlink:href="#SVGID_48_"  overflow="visible"/>
				</clipPath>
				<g clip-path="url(#SVGID_49_)">
					<defs>
						<polygon id="SVGID_50_" points="183.1,11.6 336.7,54.3 449.3,53.7 336.7,93 						"/>
					</defs>
					<clipPath id="SVGID_51_">
						<use xlink:href="#SVGID_50_"  overflow="visible"/>
					</clipPath>
					
						<radialGradient id="SVGID_52_" cx="0" cy="841.89" r="1" gradientTransform="matrix(101.3095 0 0 -101.3094 336.1973 85285.8594)" gradientUnits="userSpaceOnUse">
						<stop  offset="0" style="stop-color:#8C8C8C"/>
						<stop  offset="1" style="stop-color:#FFFFFF"/>
					</radialGradient>
					<rect x="183.1" y="11.6" clip-path="url(#SVGID_51_)" fill="url(#SVGID_52_)" width="266.1" height="81.4"/>
				</g>
			</g>
		</g>
		<g clip-path="url(#SVGID_32_)">
			<g>
				<defs>
					<rect id="SVGID_53_" x="330.9" y="53.6" width="42.5" height="169.5"/>
				</defs>
				<clipPath id="SVGID_54_">
					<use xlink:href="#SVGID_53_"  overflow="visible"/>
				</clipPath>
				<g clip-path="url(#SVGID_54_)">
					<defs>
						<path id="SVGID_55_" d="M340.9,53.8c0,0-18.5,67.3-5,169.3H350c0,0-6.2-105.1,23.4-169.5L340.9,53.8z"/>
					</defs>
					<clipPath id="SVGID_56_">
						<use xlink:href="#SVGID_55_"  overflow="visible"/>
					</clipPath>
					
						<linearGradient id="SVGID_57_" gradientUnits="userSpaceOnUse" x1="0" y1="841.9194" x2="1" y2="841.9194" gradientTransform="matrix(-87.724 -188.2688 -188.2688 87.724 158922.8125 -73572.7031)">
						<stop  offset="0" style="stop-color:#FFFFFF"/>
						<stop  offset="1" style="stop-color:#000000"/>
					</linearGradient>
					<polygon clip-path="url(#SVGID_56_)" fill="url(#SVGID_57_)" points="331.4,242.6 257.4,83.8 364.3,34 438.3,192.8 					"/>
				</g>
			</g>
		</g>
		<g clip-path="url(#SVGID_32_)">
			<g>
				<defs>
					<rect id="SVGID_58_" x="397.3" y="53.7" width="59.4" height="169.4"/>
				</defs>
				<clipPath id="SVGID_59_">
					<use xlink:href="#SVGID_58_"  overflow="visible"/>
				</clipPath>
				<g clip-path="url(#SVGID_59_)">
					<defs>
						<path id="SVGID_60_" d="M397.3,54.6l51.9-1c0,0,17,68.6-0.5,169.4H435C435,223.1,427.6,97.8,397.3,54.6"/>
					</defs>
					<clipPath id="SVGID_61_">
						<use xlink:href="#SVGID_60_"  overflow="visible"/>
					</clipPath>
					
						<radialGradient id="SVGID_62_" cx="0" cy="841.89" r="1" gradientTransform="matrix(187.702 0 0 -187.702 568.2217 158101.1406)" gradientUnits="userSpaceOnUse">
						<stop  offset="0" style="stop-color:#8C8C8C"/>
						<stop  offset="1" style="stop-color:#FFFFFF"/>
					</radialGradient>
					<rect x="397.3" y="53.7" clip-path="url(#SVGID_61_)" fill="url(#SVGID_62_)" width="69" height="169.4"/>
				</g>
			</g>
		</g>
		<g clip-path="url(#SVGID_32_)">
			<g>
				<defs>
					<rect id="SVGID_63_" x="171.7" y="99.7" width="49.5" height="174.7"/>
				</defs>
				<clipPath id="SVGID_64_">
					<use xlink:href="#SVGID_63_"  overflow="visible"/>
				</clipPath>
				<g clip-path="url(#SVGID_64_)">
					<defs>
						<path id="SVGID_65_" d="M194.6,274.4c0,0-31.6-102.1-20.6-174.7c0,0,9.8,107.7,47.2,166.4L194.6,274.4z"/>
					</defs>
					<clipPath id="SVGID_66_">
						<use xlink:href="#SVGID_65_"  overflow="visible"/>
					</clipPath>
					
						<radialGradient id="SVGID_67_" cx="0" cy="841.89" r="1" gradientTransform="matrix(243.5147 0 0 -243.5147 297.1445 205376.8906)" gradientUnits="userSpaceOnUse">
						<stop  offset="0" style="stop-color:#8C8C8C"/>
						<stop  offset="1" style="stop-color:#FFFFFF"/>
					</radialGradient>
					<rect x="163" y="99.7" clip-path="url(#SVGID_66_)" fill="url(#SVGID_67_)" width="58.2" height="174.7"/>
				</g>
			</g>
		</g>
		<g clip-path="url(#SVGID_32_)">
			<g>
				<defs>
					<rect id="SVGID_68_" x="138.1" y="5" width="32.2" height="161.7"/>
				</defs>
				<clipPath id="SVGID_69_">
					<use xlink:href="#SVGID_68_"  overflow="visible"/>
				</clipPath>
				<g clip-path="url(#SVGID_69_)">
					<defs>
						<path id="SVGID_70_" d="M163.9,5c0,0-35.8,93.7-23,161.7c0,0-2.8-84.5,29.4-160.8L163.9,5z"/>
					</defs>
					<clipPath id="SVGID_71_">
						<use xlink:href="#SVGID_70_"  overflow="visible"/>
					</clipPath>
					
						<linearGradient id="SVGID_72_" gradientUnits="userSpaceOnUse" x1="0" y1="841.8805" x2="1" y2="841.8805" gradientTransform="matrix(-45.0261 182.8615 182.8615 45.0261 -153771.7344 -37928.6133)">
						<stop  offset="0" style="stop-color:#FFFFFF"/>
						<stop  offset="1" style="stop-color:#000000"/>
					</linearGradient>
					<polygon clip-path="url(#SVGID_71_)" fill="url(#SVGID_72_)" points="207.9,14.3 167.9,176.6 90.5,157.5 130.5,-4.8 					"/>
				</g>
			</g>
		</g>
		<g clip-path="url(#SVGID_32_)">
			<g>
				<defs>
					<rect id="SVGID_73_" x="283.3" y="50.1" width="53.3" height="173"/>
				</defs>
				<clipPath id="SVGID_74_">
					<use xlink:href="#SVGID_73_"  overflow="visible"/>
				</clipPath>
				<g clip-path="url(#SVGID_74_)">
					<defs>
						<path id="SVGID_75_" d="M336.7,50.1c0,0-21.9,105.3-0.8,173C335.8,223.1,217.2,139.3,336.7,50.1"/>
					</defs>
					<clipPath id="SVGID_76_">
						<use xlink:href="#SVGID_75_"  overflow="visible"/>
					</clipPath>
					
						<radialGradient id="SVGID_77_" cx="0" cy="841.89" r="1" gradientTransform="matrix(103.6088 0 0 -103.6088 377.0889 87370.9922)" gradientUnits="userSpaceOnUse">
						<stop  offset="0" style="stop-color:#8C8C8C"/>
						<stop  offset="0.8652" style="stop-color:#FFFFFF"/>
						<stop  offset="1" style="stop-color:#FFFFFF"/>
					</radialGradient>
					<rect x="217.2" y="50.1" clip-path="url(#SVGID_76_)" fill="url(#SVGID_77_)" width="119.5" height="173"/>
				</g>
			</g>
		</g>
		<g clip-path="url(#SVGID_32_)">
			<g>
				<defs>
					<rect id="SVGID_78_" x="170.2" y="8.5" width="92.2" height="161"/>
				</defs>
				<clipPath id="SVGID_79_">
					<use xlink:href="#SVGID_78_"  overflow="visible"/>
				</clipPath>
				<g clip-path="url(#SVGID_79_)">
					<defs>
						<path id="SVGID_80_" d="M187.6,8.5c0,0-25.3,68.9-14.9,150.8l73,10.2l16.7-140.1L187.6,8.5z"/>
					</defs>
					<clipPath id="SVGID_81_">
						<use xlink:href="#SVGID_80_"  overflow="visible"/>
					</clipPath>
					
						<radialGradient id="SVGID_82_" cx="0" cy="841.89" r="1" gradientTransform="matrix(162.0749 0 0 -162.0749 186.875 136403.6875)" gradientUnits="userSpaceOnUse">
						<stop  offset="0" style="stop-color:#8C8C8C"/>
						<stop  offset="1" style="stop-color:#FFFFFF"/>
					</radialGradient>
					<rect x="162.3" y="8.5" clip-path="url(#SVGID_81_)" fill="url(#SVGID_82_)" width="100.1" height="161"/>
				</g>
			</g>
		</g>
		<g clip-path="url(#SVGID_32_)">
			<g>
				<defs>
					<rect id="SVGID_83_" x="350.3" y="359" width="81.4" height="289.6"/>
				</defs>
				<clipPath id="SVGID_84_">
					<use xlink:href="#SVGID_83_"  overflow="visible"/>
				</clipPath>
				<g clip-path="url(#SVGID_84_)">
					<defs>
						<path id="SVGID_85_" d="M350.3,359c0,0,50.7,189.4,0,289.6C350.3,648.6,533.5,513.1,350.3,359"/>
					</defs>
					<clipPath id="SVGID_86_">
						<use xlink:href="#SVGID_85_"  overflow="visible"/>
					</clipPath>
					
						<radialGradient id="SVGID_87_" cx="0" cy="841.89" r="1" gradientTransform="matrix(101.3097 0 0 -101.3097 332.668 85792.6406)" gradientUnits="userSpaceOnUse">
						<stop  offset="0" style="stop-color:#CC6E19"/>
						<stop  offset="1" style="stop-color:#FFFFFF"/>
					</radialGradient>
					<rect x="350.3" y="359" clip-path="url(#SVGID_86_)" fill="url(#SVGID_87_)" width="183.2" height="289.6"/>
				</g>
			</g>
		</g>
		<g clip-path="url(#SVGID_32_)">
			<g>
				<defs>
					<rect id="SVGID_88_" x="347.3" y="630.2" width="48.1" height="202.4"/>
				</defs>
				<clipPath id="SVGID_89_">
					<use xlink:href="#SVGID_88_"  overflow="visible"/>
				</clipPath>
				<g clip-path="url(#SVGID_89_)">
					<defs>
						<path id="SVGID_90_" d="M358,822.1c0,0-27.9-100.1,6.6-191.9c0,0-9.9,103.1,30.8,202.3C395.4,832.5,375.7,834.8,358,822.1"/>
					</defs>
					<clipPath id="SVGID_91_">
						<use xlink:href="#SVGID_90_"  overflow="visible"/>
					</clipPath>
					
						<radialGradient id="SVGID_92_" cx="0" cy="841.89" r="1" gradientTransform="matrix(280.8219 0 0 -280.8219 417.4619 237339.4844)" gradientUnits="userSpaceOnUse">
						<stop  offset="0" style="stop-color:#CC6E19"/>
						<stop  offset="1" style="stop-color:#FFFFFF"/>
					</radialGradient>
					<rect x="330.1" y="630.2" clip-path="url(#SVGID_91_)" fill="url(#SVGID_92_)" width="65.3" height="204.6"/>
				</g>
			</g>
		</g>
		<g clip-path="url(#SVGID_32_)">
			<g>
				<defs>
					<rect id="SVGID_93_" x="401.3" y="551.9" width="55.7" height="280.6"/>
				</defs>
				<clipPath id="SVGID_94_">
					<use xlink:href="#SVGID_93_"  overflow="visible"/>
				</clipPath>
				<g clip-path="url(#SVGID_94_)">
					<defs>
						<path id="SVGID_95_" d="M401.3,831.4c0,0,15.4,5.9,47-9.5c0,0,22.9-122.8-5.5-269.9C442.8,551.9,439.1,726.8,401.3,831.4"/>
					</defs>
					<clipPath id="SVGID_96_">
						<use xlink:href="#SVGID_95_"  overflow="visible"/>
					</clipPath>
					
						<radialGradient id="SVGID_97_" cx="0" cy="841.89" r="1" gradientTransform="matrix(270.2368 0 0 -270.2368 537.4902 228435.7656)" gradientUnits="userSpaceOnUse">
						<stop  offset="0" style="stop-color:#FFBF00"/>
						<stop  offset="1" style="stop-color:#000000"/>
					</radialGradient>
					<rect x="401.3" y="551.9" clip-path="url(#SVGID_96_)" fill="url(#SVGID_97_)" width="69.9" height="285.3"/>
				</g>
			</g>
		</g>
		<g clip-path="url(#SVGID_32_)">
			<g>
				<defs>
					<rect id="SVGID_98_" x="337.8" y="228.7" width="110" height="25.6"/>
				</defs>
				<clipPath id="SVGID_99_">
					<use xlink:href="#SVGID_98_"  overflow="visible"/>
				</clipPath>
				<g clip-path="url(#SVGID_99_)">
					<defs>
						<path id="SVGID_100_" d="M337.8,254.3c0,0,11.1-19.8,57.6-19.8c46.6,0,49.5,14.3,49.5,14.3l2.8-20.1l-110,1.2L337.8,254.3z"/>
					</defs>
					<clipPath id="SVGID_101_">
						<use xlink:href="#SVGID_100_"  overflow="visible"/>
					</clipPath>
					
						<radialGradient id="SVGID_102_" cx="0" cy="841.89" r="1" gradientTransform="matrix(73.7799 0 0 -73.7799 392.1338 62327.0234)" gradientUnits="userSpaceOnUse">
						<stop  offset="0" style="stop-color:#CC6E19"/>
						<stop  offset="1" style="stop-color:#FFFFFF"/>
					</radialGradient>
					<rect x="337.8" y="228.7" clip-path="url(#SVGID_101_)" fill="url(#SVGID_102_)" width="110" height="25.6"/>
				</g>
			</g>
		</g>
		<g clip-path="url(#SVGID_32_)">
			<g>
				<defs>
					<rect id="SVGID_103_" x="335.8" y="157.5" width="120.4" height="65.6"/>
				</defs>
				<clipPath id="SVGID_104_">
					<use xlink:href="#SVGID_103_"  overflow="visible"/>
				</clipPath>
				<g clip-path="url(#SVGID_104_)">
					<defs>
						<path id="SVGID_105_" d="M335.8,223.1h113c0,0,8.5-39.9,7.3-65.6C456.1,157.5,433.7,199.2,335.8,223.1"/>
					</defs>
					<clipPath id="SVGID_106_">
						<use xlink:href="#SVGID_105_"  overflow="visible"/>
					</clipPath>
					
						<radialGradient id="SVGID_107_" cx="0" cy="841.89" r="1" gradientTransform="matrix(89.6302 0 0 -89.6302 383.3242 75607.375)" gradientUnits="userSpaceOnUse">
						<stop  offset="0" style="stop-color:#8C8C8C"/>
						<stop  offset="1" style="stop-color:#FFFFFF"/>
					</radialGradient>
					<rect x="335.8" y="157.5" clip-path="url(#SVGID_106_)" fill="url(#SVGID_107_)" width="121.5" height="65.6"/>
				</g>
			</g>
		</g>
	</g>
</g>
</svg>
