<?xml version="1.0" encoding="utf-8"?>
<!-- Generator: Adobe Illustrator 17.1.0, SVG Export Plug-In . SVG Version: 6.00 Build 0)  -->
<!DOCTYPE svg PUBLIC "-//W3C//DTD SVG 1.1//EN" "http://www.w3.org/Graphics/SVG/1.1/DTD/svg11.dtd">
<svg version="1.1" id="Lager_1" xmlns="http://www.w3.org/2000/svg" xmlns:xlink="http://www.w3.org/1999/xlink" x="0px" y="0px"
	 viewBox="0 0 841.9 595.3" enable-background="new 0 0 841.9 595.3" xml:space="preserve">
<g>
	<defs>
		<rect id="SVGID_1_" width="841.9" height="595.3"/>
	</defs>
	<clipPath id="SVGID_2_">
		<use xlink:href="#SVGID_1_"  overflow="visible"/>
	</clipPath>
	<g clip-path="url(#SVGID_2_)">
		<defs>
			<path id="SVGID_3_" d="M643,235.2c-12.9,0-23.4,10.5-23.4,23.4v78c0,12.9,10.5,23.4,23.4,23.4h175.5c12.9,0,23.4-10.5,23.4-23.4
				v-78c0-12.9-10.5-23.4-23.4-23.4H643z"/>
		</defs>
		<clipPath id="SVGID_4_">
			<use xlink:href="#SVGID_3_"  overflow="visible"/>
		</clipPath>
		
			<linearGradient id="SVGID_5_" gradientUnits="userSpaceOnUse" x1="0" y1="595.275" x2="1" y2="595.275" gradientTransform="matrix(0 -132.2522 -132.2522 0 79457.1562 354.4293)">
			<stop  offset="0" style="stop-color:#D9DADB"/>
			<stop  offset="0.2527" style="stop-color:#87888A"/>
			<stop  offset="0.5714" style="stop-color:#D9DADB"/>
			<stop  offset="0.8022" style="stop-color:#FFFFFF"/>
			<stop  offset="1" style="stop-color:#B1B3B4"/>
		</linearGradient>
		<rect x="619.6" y="235.2" clip-path="url(#SVGID_4_)" fill="url(#SVGID_5_)" width="222.3" height="124.8"/>
	</g>
	<g clip-path="url(#SVGID_2_)">
		<defs>
			<path id="SVGID_6_" d="M643,235.2c-12.9,0-23.4,10.5-23.4,23.4v78c0,12.9,10.5,23.4,23.4,23.4h175.5c12.9,0,23.4-10.5,23.4-23.4
				v-78c0-12.9-10.5-23.4-23.4-23.4H643z"/>
		</defs>
		<clipPath id="SVGID_7_">
			<use xlink:href="#SVGID_6_"  overflow="visible"/>
		</clipPath>
		
			<linearGradient id="SVGID_8_" gradientUnits="userSpaceOnUse" x1="0" y1="595.275" x2="1" y2="595.275" gradientTransform="matrix(0 -132.2522 -132.2522 0 79457.1562 354.4293)">
			<stop  offset="0" style="stop-color:#D9DADB"/>
			<stop  offset="0.2527" style="stop-color:#87888A"/>
			<stop  offset="0.5714" style="stop-color:#D9DADB"/>
			<stop  offset="0.8022" style="stop-color:#FFFFFF"/>
			<stop  offset="1" style="stop-color:#B1B3B4"/>
		</linearGradient>
		<rect x="619.6" y="235.2" clip-path="url(#SVGID_7_)" fill="url(#SVGID_8_)" width="222.3" height="124.8"/>
	</g>
	<g clip-path="url(#SVGID_2_)">
		<defs>
			<path id="SVGID_9_" d="M11.5,165.7c-6.3,0-11.5,5.1-11.5,11.5v240.9c0,6.3,5.1,11.5,11.5,11.5h781.8c6.3,0,11.5-5.1,11.5-11.5
				V177.2c0-6.3-5.1-11.5-11.5-11.5H11.5z"/>
		</defs>
		<clipPath id="SVGID_10_">
			<use xlink:href="#SVGID_9_"  overflow="visible"/>
		</clipPath>
		
			<linearGradient id="SVGID_11_" gradientUnits="userSpaceOnUse" x1="0" y1="595.275" x2="1" y2="595.275" gradientTransform="matrix(-1.530000e-05 260.0988 260.0988 1.530000e-05 -154427.9688 164.8577)">
			<stop  offset="0" style="stop-color:#C6C7C8"/>
			<stop  offset="0.3956" style="stop-color:#231F20"/>
			<stop  offset="1" style="stop-color:#231F20"/>
		</linearGradient>
		<rect x="0" y="165.7" clip-path="url(#SVGID_10_)" fill="url(#SVGID_11_)" width="804.8" height="263.8"/>
	</g>
	<g clip-path="url(#SVGID_2_)">
		<defs>
			<rect id="SVGID_12_" width="841.9" height="595.3"/>
		</defs>
		<clipPath id="SVGID_13_">
			<use xlink:href="#SVGID_12_"  overflow="visible"/>
		</clipPath>
		<g clip-path="url(#SVGID_13_)">
			<g>
				<defs>
					<rect id="SVGID_14_" x="804.8" y="269.1" width="30.9" height="54.4"/>
				</defs>
				<clipPath id="SVGID_15_">
					<use xlink:href="#SVGID_14_"  overflow="visible"/>
				</clipPath>
				<g clip-path="url(#SVGID_15_)">
					<defs>
						<rect id="SVGID_16_" x="804.8" y="269.1" width="30.9" height="54.4"/>
					</defs>
					<clipPath id="SVGID_17_">
						<use xlink:href="#SVGID_16_"  overflow="visible"/>
					</clipPath>
					
						<linearGradient id="SVGID_18_" gradientUnits="userSpaceOnUse" x1="0" y1="595.275" x2="1" y2="595.275" gradientTransform="matrix(0 63.1879 63.1879 0 -36793.9844 252.9684)">
						<stop  offset="0" style="stop-color:#FFFFFF"/>
						<stop  offset="1" style="stop-color:#000000"/>
					</linearGradient>
					<rect x="804.8" y="269.1" clip-path="url(#SVGID_17_)" fill="url(#SVGID_18_)" width="30.9" height="54.4"/>
				</g>
			</g>
		</g>
	</g>
	<g clip-path="url(#SVGID_2_)">
		<defs>
			<path id="SVGID_19_" d="M684.3,165.7v263.8h109c6.3,0,11.5-5.1,11.5-11.5V177.2c0-6.3-5.1-11.5-11.5-11.5H684.3z"/>
		</defs>
		<clipPath id="SVGID_20_">
			<use xlink:href="#SVGID_19_"  overflow="visible"/>
		</clipPath>
		
			<radialGradient id="SVGID_21_" cx="0" cy="595.275" r="1" gradientTransform="matrix(154.2517 0 0 -154.2517 781.2402 92127.5469)" gradientUnits="userSpaceOnUse">
			<stop  offset="0" style="stop-color:#BED63A"/>
			<stop  offset="1" style="stop-color:#009345"/>
		</radialGradient>
		<rect x="684.3" y="165.7" clip-path="url(#SVGID_20_)" fill="url(#SVGID_21_)" width="120.5" height="263.8"/>
	</g>
	<g clip-path="url(#SVGID_2_)">
		<defs>
			<path id="SVGID_22_" d="M11.5,165.7c-6.3,0-11.5,5.1-11.5,11.5v240.9c0,6.3,5.1,11.5,11.5,11.5H120V165.7H11.5z"/>
		</defs>
		<clipPath id="SVGID_23_">
			<use xlink:href="#SVGID_22_"  overflow="visible"/>
		</clipPath>
		
			<radialGradient id="SVGID_24_" cx="0" cy="595.275" r="1" gradientTransform="matrix(196.6308 0 0 -196.6308 136.1484 117267.1875)" gradientUnits="userSpaceOnUse">
			<stop  offset="0" style="stop-color:#AEDEE4"/>
			<stop  offset="1" style="stop-color:#1B75BB"/>
		</radialGradient>
		<rect y="165.7" clip-path="url(#SVGID_23_)" fill="url(#SVGID_24_)" width="120" height="263.8"/>
	</g>
	<g clip-path="url(#SVGID_2_)">
		<defs>
			<path id="SVGID_25_" d="M11.5,165.7c-6.3,0-11.5,5.1-11.5,11.5v240.9c0,6.3,5.1,11.5,11.5,11.5H23V165.7H11.5z"/>
		</defs>
		<clipPath id="SVGID_26_">
			<use xlink:href="#SVGID_25_"  overflow="visible"/>
		</clipPath>
		
			<linearGradient id="SVGID_27_" gradientUnits="userSpaceOnUse" x1="0" y1="595.275" x2="1" y2="595.275" gradientTransform="matrix(-1.530000e-05 -260.0992 -260.0992 1.530000e-05 154842.0625 423.4866)">
			<stop  offset="0" style="stop-color:#D9DADB"/>
			<stop  offset="0.2527" style="stop-color:#87888A"/>
			<stop  offset="0.5714" style="stop-color:#D9DADB"/>
			<stop  offset="0.8022" style="stop-color:#FFFFFF"/>
			<stop  offset="1" style="stop-color:#B1B3B4"/>
		</linearGradient>
		<rect x="0" y="165.7" clip-path="url(#SVGID_26_)" fill="url(#SVGID_27_)" width="23" height="263.8"/>
	</g>
	<g clip-path="url(#SVGID_2_)">
		<defs>
			<path id="SVGID_28_" d="M782.7,165.7v263.8h10.6c6.3,0,11.5-5.1,11.5-11.5V177.2c0-6.3-5.1-11.5-11.5-11.5H782.7z"/>
		</defs>
		<clipPath id="SVGID_29_">
			<use xlink:href="#SVGID_28_"  overflow="visible"/>
		</clipPath>
		
			<linearGradient id="SVGID_30_" gradientUnits="userSpaceOnUse" x1="0" y1="595.275" x2="1" y2="595.275" gradientTransform="matrix(-1.530000e-05 -439.0172 -439.0172 1.530000e-05 262129.7344 501.4632)">
			<stop  offset="0" style="stop-color:#D9DADB"/>
			<stop  offset="0.2527" style="stop-color:#87888A"/>
			<stop  offset="0.5714" style="stop-color:#D9DADB"/>
			<stop  offset="0.8022" style="stop-color:#FFFFFF"/>
			<stop  offset="1" style="stop-color:#B1B3B4"/>
		</linearGradient>
		<rect x="782.7" y="165.7" clip-path="url(#SVGID_29_)" fill="url(#SVGID_30_)" width="22" height="263.8"/>
	</g>
	<g clip-path="url(#SVGID_2_)">
		<defs>
			<rect id="SVGID_31_" width="841.9" height="595.3"/>
		</defs>
		<clipPath id="SVGID_32_">
			<use xlink:href="#SVGID_31_"  overflow="visible"/>
		</clipPath>
		<g clip-path="url(#SVGID_32_)">
			<g>
				<defs>
					<rect id="SVGID_33_" y="188.4" width="804.8" height="73.5"/>
				</defs>
				<clipPath id="SVGID_34_">
					<use xlink:href="#SVGID_33_"  overflow="visible"/>
				</clipPath>
				<g clip-path="url(#SVGID_34_)">
					<defs>
						<rect id="SVGID_35_" y="188.4" width="804.8" height="73.5"/>
					</defs>
					<clipPath id="SVGID_36_">
						<use xlink:href="#SVGID_35_"  overflow="visible"/>
					</clipPath>
					
						<linearGradient id="SVGID_37_" gradientUnits="userSpaceOnUse" x1="0" y1="595.275" x2="1" y2="595.275" gradientTransform="matrix(-1.530000e-05 193.9717 193.9717 1.530000e-05 -115064.1094 70.8113)">
						<stop  offset="0" style="stop-color:#FFFFFF"/>
						<stop  offset="1" style="stop-color:#000000"/>
					</linearGradient>
					<rect x="0" y="188.4" clip-path="url(#SVGID_36_)" fill="url(#SVGID_37_)" width="804.8" height="73.5"/>
				</g>
			</g>
		</g>
	</g>
	<g clip-path="url(#SVGID_2_)">
		<defs>
			<path id="SVGID_38_" d="M11.5,165.7c-6.3,0-11.5,5.1-11.5,11.5v240.9c0,6.3,5.1,11.5,11.5,11.5H120V165.7H11.5z"/>
		</defs>
		<clipPath id="SVGID_39_">
			<use xlink:href="#SVGID_38_"  overflow="visible"/>
		</clipPath>
		
			<radialGradient id="SVGID_40_" cx="0" cy="595.275" r="1" gradientTransform="matrix(196.6308 0 0 -196.6308 136.1484 117267.1875)" gradientUnits="userSpaceOnUse">
			<stop  offset="0" style="stop-color:#AEDEE4"/>
			<stop  offset="1" style="stop-color:#1B75BB"/>
		</radialGradient>
		<rect y="165.7" clip-path="url(#SVGID_39_)" fill="url(#SVGID_40_)" width="120" height="263.8"/>
	</g>
	<g clip-path="url(#SVGID_2_)">
		<defs>
			<path id="SVGID_41_" d="M11.5,165.7c-6.3,0-11.5,5.1-11.5,11.5v240.9c0,6.3,5.1,11.5,11.5,11.5H23V165.7H11.5z"/>
		</defs>
		<clipPath id="SVGID_42_">
			<use xlink:href="#SVGID_41_"  overflow="visible"/>
		</clipPath>
		
			<linearGradient id="SVGID_43_" gradientUnits="userSpaceOnUse" x1="0" y1="595.275" x2="1" y2="595.275" gradientTransform="matrix(-1.530000e-05 -260.0992 -260.0992 1.530000e-05 154842.0625 423.4866)">
			<stop  offset="0" style="stop-color:#D9DADB"/>
			<stop  offset="0.2527" style="stop-color:#87888A"/>
			<stop  offset="0.5714" style="stop-color:#D9DADB"/>
			<stop  offset="0.8022" style="stop-color:#FFFFFF"/>
			<stop  offset="1" style="stop-color:#B1B3B4"/>
		</linearGradient>
		<rect x="0" y="165.7" clip-path="url(#SVGID_42_)" fill="url(#SVGID_43_)" width="23" height="263.8"/>
	</g>
	<g clip-path="url(#SVGID_2_)">
		<defs>
			<path id="SVGID_44_" d="M782.7,165.7v263.8h10.6c6.3,0,11.5-5.1,11.5-11.5V177.2c0-6.3-5.1-11.5-11.5-11.5H782.7z"/>
		</defs>
		<clipPath id="SVGID_45_">
			<use xlink:href="#SVGID_44_"  overflow="visible"/>
		</clipPath>
		
			<linearGradient id="SVGID_46_" gradientUnits="userSpaceOnUse" x1="0" y1="595.275" x2="1" y2="595.275" gradientTransform="matrix(-1.530000e-05 -439.0172 -439.0172 1.530000e-05 262129.7344 501.4632)">
			<stop  offset="0" style="stop-color:#D9DADB"/>
			<stop  offset="0.2527" style="stop-color:#87888A"/>
			<stop  offset="0.5714" style="stop-color:#D9DADB"/>
			<stop  offset="0.8022" style="stop-color:#FFFFFF"/>
			<stop  offset="1" style="stop-color:#B1B3B4"/>
		</linearGradient>
		<rect x="782.7" y="165.7" clip-path="url(#SVGID_45_)" fill="url(#SVGID_46_)" width="22" height="263.8"/>
	</g>
	<g clip-path="url(#SVGID_2_)">
		<defs>
			<polygon id="SVGID_47_" points="730.8,258.4 730.8,293.1 697.5,293.1 697.5,301.9 730.8,301.9 730.8,336.8 740.3,336.8 
				740.3,301.9 773.6,301.9 773.6,293.1 740.3,293.1 740.3,258.4 			"/>
		</defs>
		<clipPath id="SVGID_48_">
			<use xlink:href="#SVGID_47_"  overflow="visible"/>
		</clipPath>
		
			<linearGradient id="SVGID_49_" gradientUnits="userSpaceOnUse" x1="0" y1="595.2745" x2="1" y2="595.2745" gradientTransform="matrix(96.0067 129.3138 129.3138 -96.0067 -76269.1797 57410.875)">
			<stop  offset="0" style="stop-color:#C6C7C8"/>
			<stop  offset="0.3956" style="stop-color:#231F20"/>
			<stop  offset="1" style="stop-color:#231F20"/>
		</linearGradient>
		<polygon clip-path="url(#SVGID_48_)" fill="url(#SVGID_49_)" points="746.6,222 811.1,309 724.6,373.3 660,286.3 		"/>
	</g>
	<g clip-path="url(#SVGID_2_)">
		<defs>
			<rect id="SVGID_50_" width="841.9" height="595.3"/>
		</defs>
		<clipPath id="SVGID_51_">
			<use xlink:href="#SVGID_50_"  overflow="visible"/>
		</clipPath>
		<g clip-path="url(#SVGID_51_)">
			<g>
				<defs>
					<rect id="SVGID_52_" x="33.3" y="293.1" width="76.1" height="8.8"/>
				</defs>
				<clipPath id="SVGID_53_">
					<use xlink:href="#SVGID_52_"  overflow="visible"/>
				</clipPath>
				<g clip-path="url(#SVGID_53_)">
					<defs>
						<polygon id="SVGID_54_" points="76.1,293.1 109.4,293.1 109.4,301.9 76.1,301.9 66.6,301.9 33.3,301.9 33.3,293.1 66.6,293.1 
													"/>
					</defs>
					<clipPath id="SVGID_55_">
						<use xlink:href="#SVGID_54_"  overflow="visible"/>
					</clipPath>
					
						<linearGradient id="SVGID_56_" gradientUnits="userSpaceOnUse" x1="0" y1="595.275" x2="1" y2="595.275" gradientTransform="matrix(-67.5954 0 0 67.5954 96.4717 -39940.3711)">
						<stop  offset="0" style="stop-color:#C6C7C8"/>
						<stop  offset="0.3956" style="stop-color:#231F20"/>
						<stop  offset="1" style="stop-color:#231F20"/>
					</linearGradient>
					<rect x="33.3" y="293.1" clip-path="url(#SVGID_55_)" fill="url(#SVGID_56_)" width="76.1" height="8.8"/>
				</g>
			</g>
		</g>
		<g clip-path="url(#SVGID_51_)">
			<g>
				<defs>
					<rect id="SVGID_57_" y="188.4" width="804.8" height="73.5"/>
				</defs>
				<clipPath id="SVGID_58_">
					<use xlink:href="#SVGID_57_"  overflow="visible"/>
				</clipPath>
				<g clip-path="url(#SVGID_58_)">
					<defs>
						<rect id="SVGID_59_" y="188.4" width="804.8" height="73.5"/>
					</defs>
					<clipPath id="SVGID_60_">
						<use xlink:href="#SVGID_59_"  overflow="visible"/>
					</clipPath>
					
						<linearGradient id="SVGID_61_" gradientUnits="userSpaceOnUse" x1="0" y1="595.275" x2="1" y2="595.275" gradientTransform="matrix(-1.530000e-05 193.9717 193.9717 1.530000e-05 -115064.1094 70.8113)">
						<stop  offset="0" style="stop-color:#FFFFFF"/>
						<stop  offset="1" style="stop-color:#000000"/>
					</linearGradient>
					<rect x="0" y="188.4" clip-path="url(#SVGID_60_)" fill="url(#SVGID_61_)" width="804.8" height="73.5"/>
				</g>
			</g>
		</g>
		<g opacity="0.6" clip-path="url(#SVGID_51_)">
			<g>
				<defs>
					<rect id="SVGID_62_" y="398.8" width="804.8" height="17.6"/>
				</defs>
				<clipPath id="SVGID_63_">
					<use xlink:href="#SVGID_62_"  overflow="visible"/>
				</clipPath>
				<g clip-path="url(#SVGID_63_)">
					<defs>
						<rect id="SVGID_64_" y="398.8" width="804.8" height="17.6"/>
					</defs>
					<clipPath id="SVGID_65_">
						<use xlink:href="#SVGID_64_"  overflow="visible"/>
					</clipPath>
					
						<linearGradient id="SVGID_66_" gradientUnits="userSpaceOnUse" x1="0" y1="595.275" x2="1" y2="595.275" gradientTransform="matrix(0 -46.5403 -46.5403 0 28106.668 444.6676)">
						<stop  offset="0" style="stop-color:#FFFFFF"/>
						<stop  offset="1" style="stop-color:#000000"/>
					</linearGradient>
					<rect x="0" y="398.8" clip-path="url(#SVGID_65_)" fill="url(#SVGID_66_)" width="804.8" height="17.6"/>
				</g>
			</g>
		</g>
		<g clip-path="url(#SVGID_51_)">
			<g>
				<defs>
					<rect id="SVGID_67_" y="222.2" width="804.8" height="167.5"/>
				</defs>
				<clipPath id="SVGID_68_">
					<use xlink:href="#SVGID_67_"  overflow="visible"/>
				</clipPath>
				<g clip-path="url(#SVGID_68_)">
					<defs>
						<rect id="SVGID_69_" y="222.2" width="804.8" height="167.5"/>
					</defs>
					<clipPath id="SVGID_70_">
						<use xlink:href="#SVGID_69_"  overflow="visible"/>
					</clipPath>
					
						<linearGradient id="SVGID_71_" gradientUnits="userSpaceOnUse" x1="0" y1="595.275" x2="1" y2="595.275" gradientTransform="matrix(0 -127.3153 -127.3153 0 76189.9844 443.3688)">
						<stop  offset="0" style="stop-color:#FFFFFF"/>
						<stop  offset="1" style="stop-color:#000000"/>
					</linearGradient>
					<rect y="222.2" clip-path="url(#SVGID_70_)" fill="url(#SVGID_71_)" width="804.8" height="167.5"/>
				</g>
			</g>
		</g>
	</g>
</g>
</svg>
