<?xml version="1.0" encoding="utf-8"?>
<!-- Generator: Adobe Illustrator 17.1.0, SVG Export Plug-In . SVG Version: 6.00 Build 0)  -->
<!DOCTYPE svg PUBLIC "-//W3C//DTD SVG 1.1//EN" "http://www.w3.org/Graphics/SVG/1.1/DTD/svg11.dtd">
<svg version="1.1"
	 id="svg2" xmlns:cc="http://creativecommons.org/ns#" xmlns:dc="http://purl.org/dc/elements/1.1/" xmlns:inkscape="http://www.inkscape.org/namespaces/inkscape" xmlns:sodipodi="http://sodipodi.sourceforge.net/DTD/sodipodi-0.dtd" xmlns:svg="http://www.w3.org/2000/svg" xmlns:rdf="http://www.w3.org/1999/02/22-rdf-syntax-ns#" sodipodi:docname="bucket.svg" inkscape:version="0.48.3.1 r9886" inkscape:export-ydpi="300" inkscape:export-xdpi="300" inkscape:export-filename="/home/hb205/Masaüstü/bucket.png"
	 xmlns="http://www.w3.org/2000/svg" xmlns:xlink="http://www.w3.org/1999/xlink" x="0px" y="0px" viewBox="0 0 900 900"
	 enable-background="new 0 0 900 900" xml:space="preserve">
<filter  id="filter3835" color-interpolation-filters="sRGB" inkscape:collect="always">
	<feGaussianBlur  stdDeviation="3.9544944" id="feGaussianBlur3837" inkscape:collect="always"></feGaussianBlur>
</filter>
<filter  id="filter3815" color-interpolation-filters="sRGB" inkscape:collect="always">
	<feGaussianBlur  stdDeviation="3.1168626" id="feGaussianBlur3817" inkscape:collect="always"></feGaussianBlur>
</filter>
<filter  id="filter3811" color-interpolation-filters="sRGB" inkscape:collect="always">
	<feGaussianBlur  stdDeviation="3.4956826" id="feGaussianBlur3813" inkscape:collect="always"></feGaussianBlur>
</filter>
<sodipodi:namedview  showgrid="false" inkscape:cy="538.18807" inkscape:cx="108.31517" inkscape:zoom="0.49497475" id="base" bordercolor="#666666" pagecolor="#ffffff" borderopacity="1.0" inkscape:window-maximized="1" inkscape:window-y="25" inkscape:window-x="0" inkscape:window-height="820" inkscape:window-width="1600" inkscape:current-layer="layer2" inkscape:document-units="px" inkscape:pageshadow="2" inkscape:pageopacity="0.0">
	</sodipodi:namedview>
<g id="layer1" transform="translate(0,-152.36218)" inkscape:label="Layer 1" inkscape:groupmode="layer">
</g>
<g id="layer2" transform="translate(0,-152.36218)" inkscape:label="above" inkscape:groupmode="layer">
	<g id="g4097" transform="matrix(1.3419546,0,0,1.3419546,-27.645713,-132.29702)">
		<g id="g3956">
			<g id="g3928">
				<path id="path3916" sodipodi:nodetypes="ccccccccccc" inkscape:connector-curvature="0" d="M118.4,423.5h-2.3l-11.6-50.3
					c-3.2-11.8-3.4-19.3,8.1-10.4c6.6,9.5,13,19,13.6,33.1l-2.8,3.5c-2.7-10.6-4.7-21.3-11.9-30.6c-2.9-3.2-7-9.6-3.5,5.3l10.6,45.5
					h0.5L118.4,423.5z"/>
				
					<linearGradient id="path3918_1_" gradientUnits="userSpaceOnUse" x1="163.9201" y1="600.9985" x2="119.2208" y2="577.2599" gradientTransform="matrix(1.342 0 0 -1.342 -66.3781 1175.4139)">
					<stop  offset="0" style="stop-color:#FFFFFF"/>
					<stop  offset="1" style="stop-color:#FFFFFF;stop-opacity:0"/>
				</linearGradient>
				<path id="path3918" sodipodi:nodetypes="ccccccccccc" inkscape:connector-curvature="0" fill="url(#path3918_1_)" d="
					M118.4,423.5h-2.3l-11.6-50.3c-3.2-11.8-3.4-19.3,8.1-10.4c6.6,9.5,13,19,13.6,33.1l-2.8,3.5c-2.7-10.6-4.7-21.3-11.9-30.6
					c-2.9-3.2-7-9.6-3.5,5.3l10.6,45.5h0.5L118.4,423.5z"/>
			</g>
			<g id="g3942">
				<path id="path3932" sodipodi:nodetypes="ccccccccc" inkscape:connector-curvature="0" d="M633.9,381.9l14.6-43.9
					c-14.3-11.8-25.9-26.5-60.9-15.7l-11.9,41.7l4,0.5l10.6-37.9c24.6-8,40.8-0.5,53.3,13.6l-13.1,40.4L633.9,381.9z"/>
				
					<linearGradient id="path3914_1_" gradientUnits="userSpaceOnUse" x1="529.2953" y1="608.8979" x2="524.7496" y2="610.5394" gradientTransform="matrix(1.342 0 0 -1.342 -66.3781 1175.4139)">
					<stop  offset="0" style="stop-color:#FFFFFF"/>
					<stop  offset="1" style="stop-color:#FFFFFF;stop-opacity:0"/>
				</linearGradient>
				<path id="path3914" sodipodi:nodetypes="ccccccccc" inkscape:connector-curvature="0" fill="url(#path3914_1_)" d="M633.9,381.9
					l14.6-43.9c-14.3-11.8-25.9-26.5-60.9-15.7l-11.9,41.7l4,0.5l10.6-37.9c24.6-8,40.8-0.5,53.3,13.6l-13.1,40.4L633.9,381.9z"/>
			</g>
			
				<linearGradient id="path3005_1_" gradientUnits="userSpaceOnUse" x1="174.1892" y1="420.7038" x2="395.6177" y2="437.8466" gradientTransform="matrix(1.342 0 0 -1.342 -66.3781 1175.4139)">
				<stop  offset="0" style="stop-color:#6F3711"/>
				<stop  offset="7.424746e-02" style="stop-color:#9F4D15"/>
				<stop  offset="0.1058" style="stop-color:#F6A974"/>
				<stop  offset="0.1499" style="stop-color:#6F3711"/>
				<stop  offset="0.2423" style="stop-color:#9F4D15"/>
				<stop  offset="0.4078" style="stop-color:#F6A974"/>
				<stop  offset="0.5943" style="stop-color:#6F3711"/>
				<stop  offset="0.6369" style="stop-color:#9F4D15"/>
				<stop  offset="0.7469" style="stop-color:#F6A974"/>
				<stop  offset="1" style="stop-color:#9F4D15"/>
			</linearGradient>
			<path id="path3005" sodipodi:nodetypes="ccccc" inkscape:connector-curvature="0" fill="url(#path3005_1_)" d="M124.3,428.1
				c46.8,155.2,58.7,224,74.3,302.1c52,38.2,116,49.7,185,50V468.1L124.3,428.1z"/>
			
				<linearGradient id="path3007_1_" gradientUnits="userSpaceOnUse" x1="510.507" y1="425.8434" x2="292.6498" y2="435.8434" gradientTransform="matrix(1.3605 0 0 -1.342 -77.7404 1175.4139)">
				<stop  offset="0" style="stop-color:#6F3711"/>
				<stop  offset="7.424746e-02" style="stop-color:#9F4D15"/>
				<stop  offset="0.1058" style="stop-color:#F6A974"/>
				<stop  offset="0.1499" style="stop-color:#6F3711"/>
				<stop  offset="0.2423" style="stop-color:#9F4D15"/>
				<stop  offset="0.4078" style="stop-color:#F6A974"/>
				<stop  offset="0.5943" style="stop-color:#6F3711"/>
				<stop  offset="0.6369" style="stop-color:#9F4D15"/>
				<stop  offset="0.7469" style="stop-color:#F6A974"/>
				<stop  offset="1" style="stop-color:#9F4D15"/>
			</linearGradient>
			<path id="path3007" sodipodi:nodetypes="ccccc" inkscape:connector-curvature="0" fill="url(#path3007_1_)" d="M379.3,470.2
				l1.4,310c78.2-8.1,158.3-13.4,202.8-71.4c9.4-96.9,35.1-193.8,57.2-290.7C567,458.3,473.9,465.6,379.3,470.2z"/>
			
				<radialGradient id="path3946_1_" cx="427.3329" cy="424.6738" r="130.7126" gradientTransform="matrix(1.3098 8.773591e-03 1.247384e-02 -1.8622 -55.0277 1386.2366)" gradientUnits="userSpaceOnUse">
				<stop  offset="0" style="stop-color:#FFFFFF"/>
				<stop  offset="1" style="stop-color:#FFFFFF;stop-opacity:0"/>
			</radialGradient>
			
				<path id="path3946" sodipodi:nodetypes="ccccc" inkscape:connector-curvature="0" opacity="0.5246" fill="url(#path3946_1_)" enable-background="new    " d="
				M379.3,470.2l1.4,310c78.2-8.1,158.3-13.4,202.8-71.4c9.4-96.9,35.1-193.8,57.2-290.7C567,458.3,473.9,465.6,379.3,470.2z"/>
			<g id="path2997" sodipodi:nodetypes="ccccc" inkscape:connector-curvature="0" filter="url(#filter3811)">
				<path fill="#28170B" d="M164.2,561.6c43.7,121,471.2,62.5,443.8-12.1l0.7,25c-23.8,98.2-417.6,110.4-444.5,12.9L164.2,561.6z"/>
			</g>
			<g id="path2999" sodipodi:nodetypes="ccccc" inkscape:connector-curvature="0" filter="url(#filter3815)">
				<path fill="#28170B" d="M192.5,694.5c38.7,121,416.7,62.5,392.4-12.1l0.6,25c-21,98.2-369.3,110.4-393,12.9V694.5z"/>
			</g>
			<g id="path3829" sodipodi:nodetypes="ccccc" inkscape:connector-curvature="0" filter="url(#filter3835)">
				<path fill="#28170B" d="M124.6,413.7l1.5,39.9c73.8,72.9,444,65.7,516.5-15.2l-0.5-33.3C527.8,478.8,213,485.9,124.6,413.7
					L124.6,413.7z"/>
			</g>
			<path id="path3001" sodipodi:nodetypes="ccccc" inkscape:connector-curvature="0" fill="#552200" d="M117.7,399.8l1.5,39.9
				c76.1,72.9,457.6,65.7,532.4-15.2l-0.5-33.3C533.2,464.9,208.7,472,117.7,399.8L117.7,399.8z"/>
			
				<radialGradient id="path3003_1_" cx="336.3382" cy="647.0872" r="267.1691" gradientTransform="matrix(1.3455 -4.305051e-02 -9.999427e-03 -0.3125 -62.1968 612.6475)" gradientUnits="userSpaceOnUse">
				<stop  offset="0" style="stop-color:#502D16"/>
				<stop  offset="0.889" style="stop-color:#B76631"/>
				<stop  offset="0.9652" style="stop-color:#F2DDD0"/>
				<stop  offset="1" style="stop-color:#502D16"/>
			</radialGradient>
			<path id="path3003" sodipodi:nodetypes="ccc" inkscape:connector-curvature="0" fill="url(#path3003_1_)" d="M116.7,399.9
				c119.3,97.3,434.2,62.3,534.4-10C605.7,328.8,205.7,302,116.7,399.9L116.7,399.9z"/>
			<path id="path3809" sodipodi:nodetypes="ccccc" inkscape:connector-curvature="0" fill="#552200" d="M164.3,568.8
				c43.6,121,470.3,62.5,442.9-12.1l0.7,25c-23.7,98.2-416.8,110.4-443.6,12.9L164.3,568.8z"/>
			<path id="path3819" sodipodi:nodetypes="ccccc" inkscape:connector-curvature="0" fill="#552200" d="M192.5,700.9
				c38.7,121,416.7,62.5,392.4-12.1l0.6,25c-21,98.2-369.3,110.4-393,12.9V700.9z"/>
			
				<linearGradient id="path3847_1_" gradientUnits="userSpaceOnUse" x1="127.6325" y1="579.6714" x2="658.0605" y2="585.1913" gradientTransform="matrix(1.2156 0 0 -1.2156 -13.3033 1104.0723)">
				<stop  offset="0" style="stop-color:#6F3711"/>
				<stop  offset="7.424746e-02" style="stop-color:#9F4D15"/>
				<stop  offset="0.1058" style="stop-color:#F6A974"/>
				<stop  offset="0.1499" style="stop-color:#6F3711"/>
				<stop  offset="0.2423" style="stop-color:#9F4D15"/>
				<stop  offset="0.4078" style="stop-color:#F6A974"/>
				<stop  offset="0.5943" style="stop-color:#6F3711"/>
				<stop  offset="0.6369" style="stop-color:#9F4D15"/>
				<stop  offset="0.7469" style="stop-color:#F6A974"/>
				<stop  offset="1" style="stop-color:#9F4D15"/>
			</linearGradient>
			<path id="path3847" sodipodi:nodetypes="ccc" inkscape:connector-curvature="0" fill="url(#path3847_1_)" d="M141.8,399.1
				c108.1,75.9,393.3,48.6,484-7.8C584.8,343.6,222.5,322.7,141.8,399.1L141.8,399.1z"/>
			
				<linearGradient id="path3863_1_" gradientUnits="userSpaceOnUse" x1="336.5505" y1="543.8522" x2="333.6934" y2="646.7094" gradientTransform="matrix(1.342 0 0 -1.342 -66.3781 1175.4139)">
				<stop  offset="0" style="stop-color:#4D4D4D"/>
				<stop  offset="1" style="stop-color:#4D4D4D;stop-opacity:0"/>
			</linearGradient>
			<path id="path3863" sodipodi:nodetypes="ccc" inkscape:connector-curvature="0" fill="url(#path3863_1_)" d="M141.8,399.1
				c108.1,75.9,393.3,48.6,484-7.8C584.8,343.6,222.5,322.7,141.8,399.1L141.8,399.1z"/>
			
				<radialGradient id="path3881_1_" cx="341.6638" cy="412.4613" r="133.5156" gradientTransform="matrix(0.9145 -0.1693 -0.8162 -4.4099 458.2616 2490.0994)" gradientUnits="userSpaceOnUse">
				<stop  offset="0" style="stop-color:#FFFFFF"/>
				<stop  offset="1" style="stop-color:#FFFFFF;stop-opacity:0"/>
			</radialGradient>
			
				<path id="path3881" inkscape:connector-curvature="0" opacity="0.5287" fill="url(#path3881_1_)" enable-background="new    " d="
				M535.5,432.8c-72,15.3-158,20.8-234.9,15.8l4.8,39.9c78.2,4.5,165.4-0.7,234.3-15.5L535.5,432.8z M553.7,609.1
				c-58.4,20.5-150,32.7-230.6,28.4l2.8,23.1c80.8,5,172.4-5.2,230.2-29.2L553.7,609.1z M565.7,724.8
				c-41.8,29.3-140.8,49.5-226.8,45l2.8,23.1c86.3,5.3,185.2-12.2,225.9-50L565.7,724.8z"/>
			
				<radialGradient id="path3901_1_" cx="374.3276" cy="496.926" r="267.1719" gradientTransform="matrix(1.6698 -0.2998 -8.272513e-02 -0.4608 -172.2304 792.1384)" gradientUnits="userSpaceOnUse">
				<stop  offset="0" style="stop-color:#FFFFFF"/>
				<stop  offset="1" style="stop-color:#FFFFFF;stop-opacity:0"/>
			</radialGradient>
			<path id="path3901" inkscape:connector-curvature="0" fill="url(#path3901_1_)" d="M378.3,335.1
				c-109.8,0.4-219.9,18.9-261.6,64.8c119.3,97.3,434.2,62.3,534.3-10C626.9,357.4,502.8,334.7,378.3,335.1z M378.8,348.5
				c112.7-0.4,225.2,17.4,247.1,42.8c-90.7,56.4-375.9,83.7-484,7.8C179.7,363.3,279.3,348.8,378.8,348.5z"/>
		</g>
	</g>
</g>
</svg>
