<?xml version="1.0" encoding="UTF-8" standalone="no"?>
<svg viewBox="0 0 1052.362179 744.09447" xmlns="http://www.w3.org/2000/svg" xmlns:xlink="http://www.w3.org/1999/xlink">
<defs>
<filter height="1" id="filter4404" width="1" x="0" y="0">
<feGaussianBlur in="SourceAlpha" result="result0" stdDeviation="2.3"/>
<feMorphology in="SourceAlpha" radius="6.6" result="result1"/>
<feGaussianBlur in="result1" stdDeviation="8.9"/>
<feColorMatrix result="result91" values="1 0 0 0 0 0 1 0 0 0 0 0 1 0 0 0 0 0 0.3 0"/>
<feComposite in="result0" in2="result91" operator="out" result="result2"/>
<feGaussianBlur result="result4" stdDeviation="1.7"/>
<feDiffuseLighting result="result92" surfaceScale="10">
<feDistantLight azimuth="225" elevation="45"/>
</feDiffuseLighting>
<feBlend in2="SourceGraphic" mode="multiply" result="result93"/>
<feComposite in2="SourceAlpha" operator="in" result="result3"/>
<feSpecularLighting in="result4" result="result94" specularExponent="17.9" surfaceScale="5">
<feDistantLight azimuth="225" elevation="45"/>
</feSpecularLighting>
<feComposite in2="result3" operator="atop"/>
</filter>
<linearGradient id="linearGradient4856">
<stop offset="0" stop-color="#fff"/>
<stop offset="1" stop-color="#fff" stop-opacity="0"/>
</linearGradient>
<linearGradient id="linearGradient4248">
<stop offset="0"/>
<stop offset="1" stop-color="#784421"/>
</linearGradient>
<linearGradient gradientUnits="userSpaceOnUse" id="linearGradient3923" x1="125.53024" x2="351.83014" y1="601.8653" y2="465.39435">
<stop offset="0" stop-color="#e3e2db"/>
<stop offset="1" stop-color="#e3e2db" stop-opacity="0"/>
</linearGradient>
<linearGradient gradientUnits="userSpaceOnUse" id="linearGradient4152" x1="489.41956" x2="456.03152" y1="615.42847" y2="557.61017">
<stop offset="0"/>
<stop offset="1" stop-opacity="0"/>
</linearGradient>
<linearGradient gradientUnits="userSpaceOnUse" id="linearGradient4074" x1="542.42883" x2="576.97839" xlink:href="#linearGradient4856" y1="231.60867" y2="325.46844"/>
<linearGradient gradientUnits="userSpaceOnUse" id="linearGradient4082" x1="807.88494" x2="769.88038" xlink:href="#linearGradient4856" y1="205.69646" y2="303.58701"/>
<linearGradient gradientUnits="userSpaceOnUse" id="linearGradient4132" x1="252.44603" x2="246.74564" xlink:href="#linearGradient4856" y1="613.79974" y2="582.85474"/>
<linearGradient gradientUnits="userSpaceOnUse" id="linearGradient4142" x1="69.21907" x2="183.22696" xlink:href="#linearGradient4856" y1="633.34399" y2="555.16711"/>
<linearGradient gradientUnits="userSpaceOnUse" id="linearGradient4230" x1="751.73645" x2="753.97589" xlink:href="#linearGradient4248" y1="262.59456" y2="256.2834"/>
<linearGradient gradientUnits="userSpaceOnUse" id="linearGradient4238" x1="740.85363" x2="743.50024" xlink:href="#linearGradient4248" y1="285.48398" y2="277.95131"/>
<linearGradient gradientUnits="userSpaceOnUse" id="linearGradient4246" x1="526.30564" x2="517.66825" xlink:href="#linearGradient4248" y1="373.26206" y2="358.86638"/>
<linearGradient gradientUnits="userSpaceOnUse" id="linearGradient4254" x1="536.09471" x2="527.45732" xlink:href="#linearGradient4248" y1="346.77402" y2="332.95418"/>
<linearGradient gradientUnits="userSpaceOnUse" id="linearGradient4862" x1="382.34897" x2="365.07416" xlink:href="#linearGradient4856" y1="650.81055" y2="540.25183"/>
</defs>
<path d="m145.10834,628.92913c176.75583-25.21339 346.4763-71.53285 507.8792-142.80503 102.15716-50.03704 202.65055-101.47164 267.18362-183.11291 14.51174-33.1136 26.04469-67.12085 25.33637-104.80047-13.84559-28.85616-49.941-37.17403-82.91905-48.36945-113.89266,21.95053-225.44018,63.83475-336.28282,111.71039-86.65079,44.91089-168.6238,96.37066-247.60551,152.01826-73.79824,56.25291-128.96537,122.38221-178.50629,192.32614z" fill="#008000"/>
<path d="m691.37637,215.58652c48.57609,12.33703 101.39276,22.85666 129.48037,43.97447 3.39339,7.57344 2.65459,14.32044-1.62868,20.35855-39.05593,36.04992-82.03027,67.52835-130.29472,92.83499-95.07953,54.87707-181.9033,73.97923-267.91852,89.57762-29.65591-5.12063-67.69889-.56387-78.99118-26.87329l4.88606-13.02947c50.92759-43.41084 101.48668-87.29545 162.8684-117.26525z" fill="#a40"/>
<path d="m691.03073,215.91546c48.5761,12.33703 101.39277,22.85666 129.48038,43.97447 3.39339,7.57344 2.65459,14.32044-1.62868,20.35855-39.05593,36.04992-82.03027,67.52835-130.29473,92.83499-95.07953,54.87707-181.90329,73.97923-267.91851,89.57762-29.65591-5.12063-67.69889-.56387-78.99118-26.87329l4.88606-13.02947c50.92759-43.41084 101.48668-87.29545 162.8684-117.26525z" fill="url(#linearGradient4082)"/>
<path d="m684.04729,269.33309c50.15687-.0181 69.61472,17.91831 108.23266,33.76626-45.85131,39.40695-99.31904,65.48518-150.93271,94.808-70.54982,33.85514-144.64002,51.18847-219.76362,63.69932l-37.47668-3.56078c52.44523-51.86695 92.69587-86.71661 155.80181-120.30807l113.19354-60.26131c11.07489-6.51395 21.40561-9.307 30.945-8.14342z" fill="#ffb380"/>
<path d="m100.16407,607.28503 8.95776,16.28684c12.9726,10.85143 23.45688,15.48208 33.38802,18.72986 182.40616-7.84607 353.21531-66.71897 520.36454-141.69551 107.72269-48.72223 206.83866-104.08392 261.40379-193.8134l11.40079-42.34578-17.10118,39.90276c-68.6835,85.49675-165.85101,135.3885-264.66116,183.22695-164.23865,70.20661-333.166,118.97915-508.14941,140.06683z" fill="#3e4837"/>
<path d="m100.16407,605.65634 21.98723-32.57368c9.05622,15.46053 25.80977,19.37508 43.97447,21.17289 176.97498-17.87163 329.91082-72.43458 478.01876-134.36643 104.18372-47.77781 197.30897-103.72926 266.28984-177.52656 15.10331-27.76364 26.88592-56.43292 25.2446-88.76328-3.49056-11.96281-16.2768-19.27778-25.2446-28.50197 13.7334,8.33435 27.79924,16.50249 32.57368,29.31632 3.95235,47.92682-8.62708,79.32186-22.80158,109.12183-65.98145,81.79016-164.85411,134.80051-267.10418,184.85563-159.5744,69.08139-328.51999,115.51575-506.52073,140.06683z" fill="#0f0"/>
<path d="m738.78573,360.59386 88.67732-61.03763c16.94606,14.91257 38.42909,27.23257 45.49031,47.79362l-64.49259,45.49031c-13.37777-16.90329-45.34227-22.18988-69.67504-32.2463z" fill="#4d4d4d"/>
<path d="m599.43565,230.45702 16.12315,4.60661c-32.18263,12.94502-62.25224,28.7074-89.82897,47.79362l-21.88142-9.21323z" fill="#4d4d4d"/>
<path d="m691.03073,215.91546c48.5761,12.33703 101.39277,22.85666 129.48038,43.97447 3.39339,7.57344 2.65459,14.32044-1.62868,20.35855-39.05593,36.04992-82.03027,67.52835-130.29473,92.83499-95.07953,54.87707-181.90329,73.97923-267.91851,89.57762-29.65591-5.12063-67.69889-.56387-78.99118-26.87329l4.88606-13.02947c50.92759-43.41084 101.48668-87.29545 162.8684-117.26525z" fill="url(#linearGradient4074)"/>
<path d="m532.06392,311.07276 48.94528-36.27708 158.35236,58.73433-53.55189,39.73204z" fill="#333"/>
<path d="m557.4003,263.27914 211.32842,76.58496-6.33409,5.75827-212.48008-78.31244z" fill="#4d4d4d"/>
<path d="m498.86229,297.26291 216.88038,88.32282-6.5903,4.94113-215.08302-88.94045z" fill="#4d4d4d"/>
<path d="m123.05693,616.39201-22.19974-10.83633 10.6077-15.50772 10.6077-15.5077 3.88059,4.53359c5.50161,6.42739 17.97395,12.25064 30.40844,14.19748 8.33143,1.30443 12.08464,1.30813 23.03307.0227 108.17089-12.70023 208.0342-36.78296 324.02622-78.14115 117.13728-41.76654 195.75412-77.5286 268.33527-122.06316 9.50114-5.82974 17.93206-10.97558 18.73537-11.43519 1.68394-.96346 8.20132,2.79571 14.14648,8.15958l4.09051,3.69055 31.03492-21.90731c17.06921-12.04903 31.64341-22.41226 32.3871-23.02942 1.75719-1.45819-.74353-7.65872-5.97097-14.80496l-3.79092-5.18244 6.50817-5.57879c3.57949-3.06833 14.11654-12.79065 23.41568-21.60514l16.90752-16.02635 7.44493-14.67194c12.88727-25.39735 19.20183-47.8226 19.20183-68.19254 0-11.75276-.45344-13.021-7.73165-21.6248-6.52528-7.71375-4.70389-7.76901 3.67465-.11148 10.86734,9.93213 11.37241,11.64631 10.62331,36.05499-.88409,28.80669-4.941,46.1153-17.388,74.18527-6.0785,13.70796-13.38188,23.05807-34.32704,43.94702-46.66313,46.53788-103.84621,84.76911-200.72929,134.2028-38.18487,19.48348-74.43731,34.9533-131.48783,56.10914-117.92612,43.73011-247.3821,77.16075-375.54724,96.98108-18.43977,2.85166-34.46515,5.13843-35.61195,5.08171s-12.07497-4.97947-24.28483-10.93947z" fill="#008000"/>
<path d="m123.05693,616.39201-22.19974-10.83633 10.6077-15.50772 10.6077-15.5077 3.88059,4.53359c5.50161,6.42739 17.97395,12.25064 30.40844,14.19748 8.33143,1.30443 12.08464,1.30813 23.03307.0227 108.17089-12.70023 208.0342-36.78296 324.02622-78.14115 117.13728-41.76654 195.75412-77.5286 268.33527-122.06316 9.50114-5.82974 17.93206-10.97558 18.73537-11.43519 1.68394-.96346 8.20132,2.79571 14.14648,8.15958l4.09051,3.69055 31.03492-21.90731c17.06921-12.04903 31.64341-22.41226 32.3871-23.02942 1.75719-1.45819-.74353-7.65872-5.97097-14.80496l-3.79092-5.18244 6.50817-5.57879c3.57949-3.06833 14.11654-12.79065 23.41568-21.60514l16.90752-16.02635 7.44493-14.67194c12.88727-25.39735 19.20183-47.8226 19.20183-68.19254 0-11.75276-.45344-13.021-7.73165-21.6248-6.52528-7.71375-4.70389-7.76901 3.67465-.11148 10.86734,9.93213 11.37241,11.64631 10.62331,36.05499-.88409,28.80669-4.941,46.1153-17.388,74.18527-6.0785,13.70796-13.38188,23.05807-34.32704,43.94702-46.66313,46.53788-103.84621,84.76911-200.72929,134.2028-38.18487,19.48348-74.43731,34.9533-131.48783,56.10914-117.92612,43.73011-247.3821,77.16075-375.54724,96.98108-18.43977,2.85166-34.46515,5.13843-35.61195,5.08171s-12.07497-4.97947-24.28483-10.93947z" fill="#7fff2a"/>
<path d="m145.10834,628.92913c176.75583-25.21339 346.4763-71.53285 507.8792-142.80503 102.15716-50.03704 202.65055-101.47164 267.18362-183.11291 14.51174-33.1136 26.04469-67.12085 25.33637-104.80047-13.84559-28.85616-49.941-37.17403-82.91905-48.36945-113.89266,21.95053-225.44018,63.83475-336.28282,111.71039-86.65079,44.91089-168.6238,96.37066-247.60551,152.01826-73.79824,56.25291-128.96537,122.38221-178.50629,192.32614z" fill="#008000" filter="url(#filter4404)"/>
<path d="m691.37637,215.58652c48.57609,12.33703 101.39276,22.85666 129.48037,43.97447 3.39339,7.57344 2.65459,14.32044-1.62868,20.35855-39.05593,36.04992-82.03027,67.52835-130.29472,92.83499-95.07953,54.87707-181.9033,73.97923-267.91852,89.57762-29.65591-5.12063-67.69889-.56387-78.99118-26.87329l4.88606-13.02947c50.92759-43.41084 101.48668-87.29545 162.8684-117.26525z" fill="#a40"/>
<path d="m691.03073,215.91546c48.5761,12.33703 101.39277,22.85666 129.48038,43.97447 3.39339,7.57344 2.65459,14.32044-1.62868,20.35855-39.05593,36.04992-82.03027,67.52835-130.29473,92.83499-95.07953,54.87707-181.90329,73.97923-267.91851,89.57762-29.65591-5.12063-67.69889-.56387-78.99118-26.87329l4.88606-13.02947c50.92759-43.41084 101.48668-87.29545 162.8684-117.26525z" fill="url(#linearGradient4082)"/>
<path d="m684.04729,269.33309c50.15687-.0181 69.61472,17.91831 108.23266,33.76626-45.85131,39.40695-99.31904,65.48518-150.93271,94.808-70.54982,33.85514-144.64002,51.18847-219.76362,63.69932l-37.47668-3.56078c52.44523-51.86695 92.69587-86.71661 155.80181-120.30807l113.19354-60.26131c11.07489-6.51395 21.40561-9.307 30.945-8.14342z" fill="#fc0"/>
<path d="m100.16407,607.28503 8.95776,16.28684c12.9726,10.85143 23.45688,15.48208 33.38802,18.72986 182.40616-7.84607 353.21531-66.71897 520.36454-141.69551 107.72269-48.72223 206.83866-104.08392 261.40379-193.8134l11.40079-42.34578-17.10118,39.90276c-68.6835,85.49675-165.85101,135.3885-264.66116,183.22695-164.23865,70.20661-333.166,118.97915-508.14941,140.06683z" fill="#3e4837"/>
<path d="m100.16407,605.65634 21.98723-32.57368c9.05622,15.46053 25.80977,19.37508 43.97447,21.17289 176.97498-17.87163 329.91082-72.43458 478.01876-134.36643 104.18372-47.77781 197.30897-103.72926 266.28984-177.52656 15.10331-27.76364 26.88592-56.43292 25.2446-88.76328-3.49056-11.96281-16.2768-19.27778-25.2446-28.50197 13.7334,8.33435 27.79924,16.50249 32.57368,29.31632 3.95235,47.92682-8.62708,79.32186-22.80158,109.12183-65.98145,81.79016-164.85411,134.80051-267.10418,184.85563-159.5744,69.08139-328.51999,115.51575-506.52073,140.06683z" fill="#0f0"/>
<path d="m738.78573,360.59386 88.67732-61.03763c16.94606,14.91257 38.42909,27.23257 45.49031,47.79362l-64.49259,45.49031c-13.37777-16.90329-45.34227-22.18988-69.67504-32.2463z" fill="#4d4d4d" filter="url(#filter4404)"/>
<path d="m599.43565,230.45702 16.12315,4.60661c-32.18263,12.94502-62.25224,28.7074-89.82897,47.79362l-21.88142-9.21323z" fill="#4d4d4d" filter="url(#filter4404)"/>
<path d="m343.9845,439.2302c73.04546-65.6179 155.24674-129.40238 347.22355-211.58034l1.00769,13.53192c-139.13238,49.49752-241.8963,127.33422-340.38558,206.93774-3.15283-2.6047-5.84345-5.51754-7.84566-8.88932z" fill="url(#linearGradient4254)" filter="url(#filter4404)"/>
<path d="m357.76835,451.64648c104.42749-80.59319 209.38608-163.39506 333.15177-199.30804l.35989,13.38797c-122.32431,28.38176-219.76002,113.50202-320.0877,190.4547-5.48408-1.13301-9.43479-2.84103-13.42396-4.53463z" fill="url(#linearGradient4246)" filter="url(#filter4404)"/>
<path d="m691.00269,227.44132c44.63993,8.99709 88.39646,22.63375 131.50444,45.41832-1.21087,4.01478-3.23744,7.73824-7.12586,10.79675-39.05981-24.79413-79.60895-34.45832-123.22692-42.53919z" fill="url(#linearGradient4230)" filter="url(#filter4404)"/>
<path d="m690.70419,252.48239c39.72299,4.85928 79.67429,18.57994 113.58183,40.81173l-8.70938,7.62971c-29.66172-19.35202-68.6345-35.74497-104.44058-35.05346z" fill="url(#linearGradient4238)" filter="url(#filter4404)"/>
<path d="m532.06392,311.07276 61.16041-30.57669 157.53802,55.47697-60.88097,40.54638z" fill="#333" filter="url(#filter4404)"/>
<path d="m557.4003,263.27914 211.32842,76.58496-6.33409,5.75827-212.48008-78.31244z" fill="#4d4d4d" filter="url(#filter4404)"/>
<path d="m498.86229,297.26291 216.88038,88.32282-6.5903,4.94113-215.08302-88.94045z" fill="#4d4d4d" filter="url(#filter4404)"/>
<path d="m123.05693,616.39201-22.19974-10.83633 10.6077-15.50772 10.6077-15.5077 3.88059,4.53359c5.50161,6.42739 17.97395,12.25064 30.40844,14.19748 8.33143,1.30443 12.08464,1.30813 23.03307.0227 108.17089-12.70023 208.0342-36.78296 324.02622-78.14115 117.13728-41.76654 195.75412-77.5286 268.33527-122.06316 9.50114-5.82974 17.93206-10.97558 18.73537-11.43519 1.68394-.96346 8.20132,2.79571 14.14648,8.15958l4.09051,3.69055 31.03492-21.90731c17.06921-12.04903 31.64341-22.41226 32.3871-23.02942 1.75719-1.45819-.74353-7.65872-5.97097-14.80496l-3.79092-5.18244 6.50817-5.57879c3.57949-3.06833 14.11654-12.79065 23.41568-21.60514l16.90752-16.02635 7.44493-14.67194c12.88727-25.39735 19.20183-47.8226 19.20183-68.19254 0-11.75276-.45344-13.021-7.73165-21.6248-6.52528-7.71375-4.70389-7.76901 3.67465-.11148 10.86734,9.93213 11.37241,11.64631 10.62331,36.05499-.88409,28.80669-4.941,46.1153-17.388,74.18527-6.0785,13.70796-13.38188,23.05807-34.32704,43.94702-46.66313,46.53788-103.84621,84.76911-200.72929,134.2028-38.18487,19.48348-74.43731,34.9533-131.48783,56.10914-117.92612,43.73011-247.3821,77.16075-375.54724,96.98108-18.43977,2.85166-34.46515,5.13843-35.61195,5.08171s-12.07497-4.97947-24.28483-10.93947z" fill="#008000"/>
<path d="m123.05693,616.39201-22.19974-10.83633 10.6077-15.50772 10.6077-15.5077 3.88059,4.53359c5.50161,6.42739 17.97395,12.25064 30.40844,14.19748 8.33143,1.30443 12.08464,1.30813 23.03307.0227 108.17089-12.70023 208.0342-36.78296 324.02622-78.14115 117.13728-41.76654 195.75412-77.5286 268.33527-122.06316 9.50114-5.82974 17.93206-10.97558 18.73537-11.43519 1.68394-.96346 8.20132,2.79571 14.14648,8.15958l4.09051,3.69055 31.03492-21.90731c17.06921-12.04903 31.64341-22.41226 32.3871-23.02942 1.75719-1.45819-.74353-7.65872-5.97097-14.80496l-3.79092-5.18244 6.50817-5.57879c3.57949-3.06833 14.11654-12.79065 23.41568-21.60514l16.90752-16.02635 7.44493-14.67194c12.88727-25.39735 19.20183-47.8226 19.20183-68.19254 0-11.75276-.45344-13.021-7.73165-21.6248-6.52528-7.71375-4.70389-7.76901 3.67465-.11148 10.86734,9.93213 11.37241,11.64631 10.62331,36.05499-.88409,28.80669-4.941,46.1153-17.388,74.18527-6.0785,13.70796-13.38188,23.05807-34.32704,43.94702-46.66313,46.53788-103.84621,84.76911-200.72929,134.2028-38.18487,19.48348-74.43731,34.9533-131.48783,56.10914-117.92612,43.73011-247.3821,77.16075-375.54724,96.98108-18.43977,2.85166-34.46515,5.13843-35.61195,5.08171s-12.07497-4.97947-24.28483-10.93947z" fill="#7fff2a"/>
<path d="m736.57235,193.19211 122.1513-32.57368c18.76671,11.63539 45.41865,15.38555 54.56091,36.64539 7.30538,25.34047-7.86985,45.06079-16.69401,66.36888l-7.32908,8.14342c-52.65419-55.19862-101.96585-55.24556-152.68912-78.58401z" fill="#333" filter="url(#filter4404)"/>
<path d="m306.33983,397.44677c-52.45568,31.95392-127.65057,98.00862-183.68873,177.35464 3.49494,8.09757 34.70867,20.68312 44.33866,19.57812 153.4188-18.96987 274.46358-51.84557 306.3638-94.40666-22.09576-2.69143-24.93079-28.00888-71.93536-28.19359-14.08688-5.25255-34.00305-47.14359-58.26432-49.51614-8.44093-19.96199-42.02691-4.85438-36.81405-24.81637z" fill="url(#linearGradient3923)"/>
<path d="m123.05693,616.39201-22.19974-10.83633 10.6077-15.50772 10.6077-15.5077 3.88059,4.53359c5.50161,6.42739 17.97395,12.25064 30.40844,14.19748 8.33143,1.30443 12.08464,1.30813 23.03307.0227 108.17089-12.70023 208.0342-36.78296 324.02622-78.14115 117.13728-41.76654 195.75412-77.5286 268.33527-122.06316 9.50114-5.82974 17.93206-10.97558 18.73537-11.43519 1.68394-.96346 8.20132,2.79571 14.14648,8.15958l4.09051,3.69055 31.03492-21.90731c17.06921-12.04903 31.64341-22.41226 32.3871-23.02942 1.75719-1.45819-.74353-7.65872-5.97097-14.80496l-3.79092-5.18244 6.50817-5.57879c3.57949-3.06833 14.11654-12.79065 23.41568-21.60514l16.90752-16.02635 7.44493-14.67194c12.88727-25.39735 19.20183-47.8226 19.20183-68.19254 0-11.75276-.45344-13.021-7.73165-21.6248-6.52528-7.71375-4.70389-7.76901 3.67465-.11148 10.86734,9.93213 11.37241,11.64631 10.62331,36.05499-.88409,28.80669-4.941,46.1153-17.388,74.18527-6.0785,13.70796-13.38188,23.05807-34.32704,43.94702-46.66313,46.53788-103.84621,84.76911-200.72929,134.2028-38.18487,19.48348-74.43731,34.9533-131.48783,56.10914-117.92612,43.73011-247.3821,77.16075-375.54724,96.98108-18.43977,2.85166-34.46515,5.13843-35.61195,5.08171s-12.07497-4.97947-24.28483-10.93947z" fill="url(#linearGradient4132)"/>
<path d="m123.05693,616.39201-22.19974-10.83633 10.6077-15.50772 10.6077-15.5077 3.88059,4.53359c5.50161,6.42739 17.97395,12.25064 30.40844,14.19748 8.33143,1.30443 12.08464,1.30813 23.03307.0227 108.17089-12.70023 208.0342-36.78296 324.02622-78.14115 117.13728-41.76654 195.75412-77.5286 268.33527-122.06316 9.50114-5.82974 17.93206-10.97558 18.73537-11.43519 1.68394-.96346 8.20132,2.79571 14.14648,8.15958l4.09051,3.69055 31.03492-21.90731c17.06921-12.04903 31.64341-22.41226 32.3871-23.02942 1.75719-1.45819-.74353-7.65872-5.97097-14.80496l-3.79092-5.18244 6.50817-5.57879c3.57949-3.06833 14.11654-12.79065 23.41568-21.60514l16.90752-16.02635 7.44493-14.67194c12.88727-25.39735 19.20183-47.8226 19.20183-68.19254 0-11.75276-.45344-13.021-7.73165-21.6248-6.52528-7.71375-4.70389-7.76901 3.67465-.11148 10.86734,9.93213 11.37241,11.64631 10.62331,36.05499-.88409,28.80669-4.941,46.1153-17.388,74.18527-6.0785,13.70796-13.38188,23.05807-34.32704,43.94702-46.66313,46.53788-103.84621,84.76911-200.72929,134.2028-38.18487,19.48348-74.43731,34.9533-131.48783,56.10914-117.92612,43.73011-247.3821,77.16075-375.54724,96.98108-18.43977,2.85166-34.46515,5.13843-35.61195,5.08171s-12.07497-4.97947-24.28483-10.93947z" fill="url(#linearGradient4142)"/>
<path d="m100.16407,607.28503 8.95776,16.28684c12.9726,10.85143 23.45688,15.48208 33.38802,18.72986 182.40616-7.84607 353.21531-66.71897 520.36454-141.69551 107.72269-48.72223 206.83866-104.08392 261.40379-193.8134l11.40079-42.34578-17.10118,39.90276c-68.6835,85.49675-165.85101,135.3885-264.66116,183.22695-164.23865,70.20661-333.166,118.97915-508.14941,140.06683z" fill="url(#linearGradient4152)"/>
<path d="m246.45385,438.9063c-20.24368,75.94042 63.5417,102.36458 156.91279,107.6796 9.13025,31.53426 23.80952,14.02494 60.1739,11.51654 29.49326-7.86963 55.29959-15.73927 72.55417-23.6089l6.33409,16.69898c-71.68209,26.67222-147.90575,50.10046-230.3307,69.09921-56.59794,10.10613-113.4774,18.80462-171.59637,21.30559l-33.39795-18.42646-7.48575-18.42645 22.45724-31.09465c37.65652-46.00106 76.15521-91.7615 124.37858-134.74346z" filter="url(#filter4404)" stroke="#000"/>
<path d="m123.05693,616.39201-22.19974-10.83633 10.6077-15.50772 10.6077-15.5077 3.88059,4.53359c5.50161,6.42739 17.97395,12.25064 30.40844,14.19748 8.33143,1.30443 12.08464,1.30813 23.03307.0227 108.17089-12.70023 208.0342-36.78296 324.02622-78.14115 117.13728-41.76654 195.75412-77.5286 268.33527-122.06316 9.50114-5.82974 17.93206-10.97558 18.73537-11.43519 1.68394-.96346 8.20132,2.79571 14.14648,8.15958l4.09051,3.69055 31.03492-21.90731c17.06921-12.04903 31.64341-22.41226 32.3871-23.02942 1.75719-1.45819-.74353-7.65872-5.97097-14.80496l-3.79092-5.18244 6.50817-5.57879c3.57949-3.06833 14.11654-12.79065 23.41568-21.60514l16.90752-16.02635 7.44493-14.67194c12.88727-25.39735 19.20183-47.8226 19.20183-68.19254 0-11.75276-.45344-13.021-7.73165-21.6248-6.52528-7.71375-4.70389-7.76901 3.67465-.11148 10.86734,9.93213 11.37241,11.64631 10.62331,36.05499-.88409,28.80669-4.941,46.1153-17.388,74.18527-6.0785,13.70796-13.38188,23.05807-34.32704,43.94702-46.66313,46.53788-103.84621,84.76911-200.72929,134.2028-38.18487,19.48348-74.43731,34.9533-131.48783,56.10914-117.92612,43.73011-247.3821,77.16075-375.54724,96.98108-18.43977,2.85166-34.46515,5.13843-35.61195,5.08171s-12.07497-4.97947-24.28483-10.93947z" fill="url(#linearGradient4862)" filter="url(#filter4404)"/>
<path d="m100.16407,607.28503 8.95776,16.28684c12.9726,10.85143 23.45688,15.48208 33.38802,18.72986 182.40616-7.84607 353.21531-66.71897 520.36454-141.69551 107.72269-48.72223 206.83866-104.08392 261.40379-193.8134l11.40079-42.34578-17.10118,39.90276c-68.6835,85.49675-165.85101,135.3885-264.66116,183.22695-164.23865,70.20661-333.166,118.97915-508.14941,140.06683z" fill="url(#linearGradient4152)" filter="url(#filter4404)"/>
<path d="m198.08441,481.51749a72.55417,38.00457 0 1,1 -.002-.25226" filter="url(#filter4404)" transform="matrix(.47398,.41145,-.66064,.29519,583.95425,295.7895)"/>
</svg>
