<?xml version="1.0" encoding="utf-8"?>
<!-- Generator: Adobe Illustrator 17.1.0, SVG Export Plug-In . SVG Version: 6.00 Build 0)  -->
<!DOCTYPE svg PUBLIC "-//W3C//DTD SVG 1.1//EN" "http://www.w3.org/Graphics/SVG/1.1/DTD/svg11.dtd">
<svg version="1.1" id="Lager_1" xmlns="http://www.w3.org/2000/svg" xmlns:xlink="http://www.w3.org/1999/xlink" x="0px" y="0px"
	 viewBox="0 0 841.9 595.3" enable-background="new 0 0 841.9 595.3" xml:space="preserve">
<g>
	<defs>
		<rect id="SVGID_1_" width="841.9" height="595.3"/>
	</defs>
	<clipPath id="SVGID_2_">
		<use xlink:href="#SVGID_1_"  overflow="visible"/>
	</clipPath>
	<g clip-path="url(#SVGID_2_)">
		<defs>
			<path id="SVGID_3_" d="M132.8,223.2c-41.1,159.1,54.6,321.4,213.7,362.5C505.7,626.8,668,531.2,709.1,372
				C750.2,212.9,654.5,50.6,495.4,9.5c-25-6.4-50-9.5-74.6-9.5C288.3,0,167.5,89.1,132.8,223.2"/>
		</defs>
		<clipPath id="SVGID_4_">
			<use xlink:href="#SVGID_3_"  overflow="visible"/>
		</clipPath>
		
			<linearGradient id="SVGID_5_" gradientUnits="userSpaceOnUse" x1="0" y1="595.2734" x2="1" y2="595.2734" gradientTransform="matrix(148.8448 -576.2156 -576.2156 -148.8448 343356.1875 89190.0781)">
			<stop  offset="0" style="stop-color:#2B3990"/>
			<stop  offset="0.2786" style="stop-color:#2A3C93"/>
			<stop  offset="0.5241" style="stop-color:#27479A"/>
			<stop  offset="0.757" style="stop-color:#2259A8"/>
			<stop  offset="0.9811" style="stop-color:#1C72BA"/>
			<stop  offset="1" style="stop-color:#1B75BC"/>
		</linearGradient>
		<polygon clip-path="url(#SVGID_4_)" fill="url(#SVGID_5_)" points="-60.1,587.6 132.9,-159.4 901.9,39.2 709,786.3 		"/>
	</g>
	<g clip-path="url(#SVGID_2_)">
		<defs>
			<path id="SVGID_6_" d="M302,24.9c-10.1,4.4-19.8,9.3-29.1,14.6l37.8,66.1c7-4,14.2-7.7,21.8-11c7.5-3.3,15.2-6.1,22.9-8.5
				l-22.7-72.7C322.3,16.7,312.1,20.5,302,24.9"/>
		</defs>
		<clipPath id="SVGID_7_">
			<use xlink:href="#SVGID_6_"  overflow="visible"/>
		</clipPath>
		
			<linearGradient id="SVGID_8_" gradientUnits="userSpaceOnUse" x1="0" y1="595.3126" x2="1" y2="595.3126" gradientTransform="matrix(59.7095 -26.028 -26.028 -59.7095 15781.6279 35617.25)">
			<stop  offset="0" style="stop-color:#FFFFFF"/>
			<stop  offset="0.3605" style="stop-color:#FCFCFC"/>
			<stop  offset="0.5935" style="stop-color:#F4F4F4"/>
			<stop  offset="0.7904" style="stop-color:#E5E5E6"/>
			<stop  offset="0.9663" style="stop-color:#D0D1D3"/>
			<stop  offset="1" style="stop-color:#CBCCCE"/>
		</linearGradient>
		<polygon clip-path="url(#SVGID_7_)" fill="url(#SVGID_8_)" points="239.1,28.2 342.1,-16.7 389,90.9 286,135.8 		"/>
	</g>
	<g clip-path="url(#SVGID_2_)">
		<defs>
			<path id="SVGID_9_" d="M509.4,500.6c-8.3,3.6-16.7,6.7-25.1,9.2l22.7,72.7c11-3.3,22-7.3,32.8-12.1c10.8-4.7,21.2-10,31.2-15.8
				l-37.8-66.1C525.7,493,517.7,497,509.4,500.6"/>
		</defs>
		<clipPath id="SVGID_10_">
			<use xlink:href="#SVGID_9_"  overflow="visible"/>
		</clipPath>
		
			<linearGradient id="SVGID_11_" gradientUnits="userSpaceOnUse" x1="0" y1="595.2516" x2="1" y2="595.2516" gradientTransform="matrix(64.0038 -27.9 -27.9 -64.0038 17100.6445 38648.9375)">
			<stop  offset="0" style="stop-color:#FFFFFF"/>
			<stop  offset="0.3605" style="stop-color:#FCFCFC"/>
			<stop  offset="0.5935" style="stop-color:#F4F4F4"/>
			<stop  offset="0.7904" style="stop-color:#E5E5E6"/>
			<stop  offset="0.9663" style="stop-color:#D0D1D3"/>
			<stop  offset="1" style="stop-color:#CBCCCE"/>
		</linearGradient>
		<polygon clip-path="url(#SVGID_10_)" fill="url(#SVGID_11_)" points="449.9,503.5 557.2,456.7 605.5,567.5 498.2,614.2 		"/>
	</g>
	<g clip-path="url(#SVGID_2_)">
		<defs>
			<path id="SVGID_12_" d="M606.7,177.1c6.5,10,12.3,20.7,17.2,32.1c2,4.5,3.8,9.1,5.4,13.7l72.7-22.7c-2.5-7.2-5.3-14.3-8.4-21.4
				c-6-13.9-13-27-20.8-39.5L606.7,177.1z"/>
		</defs>
		<clipPath id="SVGID_13_">
			<use xlink:href="#SVGID_12_"  overflow="visible"/>
		</clipPath>
		
			<linearGradient id="SVGID_14_" gradientUnits="userSpaceOnUse" x1="0" y1="595.3155" x2="1" y2="595.3155" gradientTransform="matrix(72.5052 -31.6059 -31.6059 -72.5052 19431.2441 43361.3711)">
			<stop  offset="0" style="stop-color:#FFFFFF"/>
			<stop  offset="0.3605" style="stop-color:#FCFCFC"/>
			<stop  offset="0.5935" style="stop-color:#F4F4F4"/>
			<stop  offset="0.7904" style="stop-color:#E5E5E6"/>
			<stop  offset="0.9663" style="stop-color:#D0D1D3"/>
			<stop  offset="1" style="stop-color:#CBCCCE"/>
		</linearGradient>
		<polygon clip-path="url(#SVGID_13_)" fill="url(#SVGID_14_)" points="576.1,152.6 686.9,104.3 732.7,209.5 621.9,257.8 		"/>
	</g>
	<g clip-path="url(#SVGID_2_)">
		<defs>
			<path id="SVGID_15_" d="M133.4,374.4c3.8,14.2,8.7,28.3,14.7,42.1c3.1,7.1,6.4,14,10,20.7l66.1-37.8c-2.2-4.3-4.4-8.8-6.3-13.3
				c-4.9-11.3-8.8-22.8-11.8-34.4L133.4,374.4z"/>
		</defs>
		<clipPath id="SVGID_16_">
			<use xlink:href="#SVGID_15_"  overflow="visible"/>
		</clipPath>
		
			<linearGradient id="SVGID_17_" gradientUnits="userSpaceOnUse" x1="0" y1="595.2447" x2="1" y2="595.2447" gradientTransform="matrix(72.5003 -31.6037 -31.6037 -72.5003 18956.9258 43564.668)">
			<stop  offset="0" style="stop-color:#FFFFFF"/>
			<stop  offset="0.3605" style="stop-color:#FCFCFC"/>
			<stop  offset="0.5935" style="stop-color:#F4F4F4"/>
			<stop  offset="0.7904" style="stop-color:#E5E5E6"/>
			<stop  offset="0.9663" style="stop-color:#D0D1D3"/>
			<stop  offset="1" style="stop-color:#CBCCCE"/>
		</linearGradient>
		<polygon clip-path="url(#SVGID_16_)" fill="url(#SVGID_17_)" points="102.1,365.4 209.8,318.4 255.6,423.6 147.9,470.5 		"/>
	</g>
	<g clip-path="url(#SVGID_2_)">
		<defs>
			<path id="SVGID_18_" d="M619.5,395.7l67.4,35.3c10.3-20.7,18.3-42.5,23.6-65L637,346C633.2,363.3,627.3,379.9,619.5,395.7"/>
		</defs>
		<clipPath id="SVGID_19_">
			<use xlink:href="#SVGID_18_"  overflow="visible"/>
		</clipPath>
		
			<linearGradient id="SVGID_20_" gradientUnits="userSpaceOnUse" x1="0" y1="595.2673" x2="1" y2="595.2673" gradientTransform="matrix(87.3891 -38.0939 -38.0939 -87.3891 23300.168 52426.2422)">
			<stop  offset="0" style="stop-color:#FFFFFF"/>
			<stop  offset="0.3605" style="stop-color:#FCFCFC"/>
			<stop  offset="0.5935" style="stop-color:#F4F4F4"/>
			<stop  offset="0.7904" style="stop-color:#E5E5E6"/>
			<stop  offset="0.9663" style="stop-color:#D0D1D3"/>
			<stop  offset="1" style="stop-color:#CBCCCE"/>
		</linearGradient>
		<polygon clip-path="url(#SVGID_19_)" fill="url(#SVGID_20_)" points="588.3,359.6 696,312.7 741.7,417.5 634,464.4 		"/>
	</g>
	<g clip-path="url(#SVGID_2_)">
		<defs>
			<path id="SVGID_21_" d="M135.8,212.8l73.5,20c4.8-15.8,11.4-31,19.6-45.3l-67.5-35.3C150.6,171.4,142,191.7,135.8,212.8"/>
		</defs>
		<clipPath id="SVGID_22_">
			<use xlink:href="#SVGID_21_"  overflow="visible"/>
		</clipPath>
		
			<linearGradient id="SVGID_23_" gradientUnits="userSpaceOnUse" x1="0" y1="595.2926" x2="1" y2="595.2926" gradientTransform="matrix(87.4831 -38.1349 -38.1349 -87.4831 22837.1543 52290.7852)">
			<stop  offset="0" style="stop-color:#FFFFFF"/>
			<stop  offset="0.3605" style="stop-color:#FCFCFC"/>
			<stop  offset="0.5935" style="stop-color:#F4F4F4"/>
			<stop  offset="0.7904" style="stop-color:#E5E5E6"/>
			<stop  offset="0.9663" style="stop-color:#D0D1D3"/>
			<stop  offset="1" style="stop-color:#CBCCCE"/>
		</linearGradient>
		<polygon clip-path="url(#SVGID_22_)" fill="url(#SVGID_23_)" points="106.2,165 214,118 258.4,219.9 150.6,266.9 		"/>
	</g>
	<g clip-path="url(#SVGID_2_)">
		<defs>
			<path id="SVGID_24_" d="M471,81.9c16.1,3.7,31.7,9.3,46.6,16.5l35.3-67.4c-19.7-9.7-40.5-17.3-61.9-22.5L471,81.9z"/>
		</defs>
		<clipPath id="SVGID_25_">
			<use xlink:href="#SVGID_24_"  overflow="visible"/>
		</clipPath>
		
			<linearGradient id="SVGID_26_" gradientUnits="userSpaceOnUse" x1="0" y1="595.248" x2="1" y2="595.248" gradientTransform="matrix(87.4813 -38.1341 -38.1341 -87.4813 23166.3203 52146.0195)">
			<stop  offset="0" style="stop-color:#FFFFFF"/>
			<stop  offset="0.3605" style="stop-color:#FCFCFC"/>
			<stop  offset="0.5935" style="stop-color:#F4F4F4"/>
			<stop  offset="0.7904" style="stop-color:#E5E5E6"/>
			<stop  offset="0.9663" style="stop-color:#D0D1D3"/>
			<stop  offset="1" style="stop-color:#CBCCCE"/>
		</linearGradient>
		<polygon clip-path="url(#SVGID_25_)" fill="url(#SVGID_26_)" points="438,22.8 539.8,-21.6 585.8,84 484.1,128.4 		"/>
	</g>
	<g clip-path="url(#SVGID_2_)">
		<defs>
			<path id="SVGID_27_" d="M274,556.4c20.1,11.4,41.5,20.4,63.7,26.9l20-73.5c-16.9-5-33.1-12.1-48.3-20.9L274,556.4z"/>
		</defs>
		<clipPath id="SVGID_28_">
			<use xlink:href="#SVGID_27_"  overflow="visible"/>
		</clipPath>
		
			<linearGradient id="SVGID_29_" gradientUnits="userSpaceOnUse" x1="0" y1="595.3121" x2="1" y2="595.3121" gradientTransform="matrix(87.3868 -38.0929 -38.0929 -87.3868 22950.4199 52577.1289)">
			<stop  offset="0" style="stop-color:#FFFFFF"/>
			<stop  offset="0.3605" style="stop-color:#FCFCFC"/>
			<stop  offset="0.5935" style="stop-color:#F4F4F4"/>
			<stop  offset="0.7904" style="stop-color:#E5E5E6"/>
			<stop  offset="0.9663" style="stop-color:#D0D1D3"/>
			<stop  offset="1" style="stop-color:#CBCCCE"/>
		</linearGradient>
		<polygon clip-path="url(#SVGID_28_)" fill="url(#SVGID_29_)" points="239.4,504 344.3,458.2 392.3,568.2 287.4,614 		"/>
	</g>
	<g clip-path="url(#SVGID_2_)">
		<defs>
			<path id="SVGID_30_" d="M199.5,297.6c0,122.3,99.2,221.5,221.5,221.5c122.3,0,221.5-99.2,221.5-221.5
				c0-122.3-99.2-221.5-221.5-221.5C298.6,76.2,199.5,175.3,199.5,297.6"/>
		</defs>
		<clipPath id="SVGID_31_">
			<use xlink:href="#SVGID_30_"  overflow="visible"/>
		</clipPath>
		
			<linearGradient id="SVGID_32_" gradientUnits="userSpaceOnUse" x1="0" y1="595.28" x2="1" y2="595.28" gradientTransform="matrix(248.9142 -366.4381 -366.4381 -248.9142 218429.7812 148654.5156)">
			<stop  offset="0" style="stop-color:#FFFFFF"/>
			<stop  offset="0.6242" style="stop-color:#FFFFFF"/>
			<stop  offset="1" style="stop-color:#CBCCCE"/>
		</linearGradient>
		<polygon clip-path="url(#SVGID_31_)" fill="url(#SVGID_32_)" points="-6.4,379.3 339.3,-129.7 848.3,216 502.6,725 		"/>
	</g>
	<g clip-path="url(#SVGID_2_)">
		<defs>
			<path id="SVGID_33_" d="M667.7,273.9c-0.1,5.3,4.1,7.4,5.8,10.1c-8.5-0.3-13.5-4-15.9-10.4c-0.7-1.9-0.1-5.2-2.7-6.2
				c-0.4,10.7-1.1,25.1,0.4,34.8c1.7-1.7,2-4.2,2.7-6.2c2.6-6.7,7.2-10.3,16.3-10.4c-10.9,4.3-6.6,24.3,7.7,18.2
				c8.8-3.8,14.3-18.8,24.8-19c-10.4-1.1-16.9-14.2-23.6-18.2c-1.9-1.1-3.9-1.6-5.8-1.6C672.3,265,667.8,268.5,667.7,273.9"/>
		</defs>
		<clipPath id="SVGID_34_">
			<use xlink:href="#SVGID_33_"  overflow="visible"/>
		</clipPath>
		
			<linearGradient id="SVGID_35_" gradientUnits="userSpaceOnUse" x1="5.355154e-06" y1="595.2725" x2="1" y2="595.2725" gradientTransform="matrix(0 39.8911 39.8911 0 -23065.7891 264.9968)">
			<stop  offset="0" style="stop-color:#FFFFFF"/>
			<stop  offset="0.3605" style="stop-color:#FCFCFC"/>
			<stop  offset="0.5935" style="stop-color:#F4F4F4"/>
			<stop  offset="0.7904" style="stop-color:#E5E5E6"/>
			<stop  offset="0.9663" style="stop-color:#D0D1D3"/>
			<stop  offset="1" style="stop-color:#CBCCCE"/>
		</linearGradient>
		<rect x="653.8" y="265" clip-path="url(#SVGID_34_)" fill="url(#SVGID_35_)" width="53" height="44.9"/>
	</g>
	<g clip-path="url(#SVGID_2_)">
		<defs>
			<path id="SVGID_36_" d="M418.9,18.7c-1.4,1.8-1.3,3.8-3.1,5.8c-1.1-11.9-18-12.3-21.3-3.9c-1.2,3.1-0.3,8.9,0.8,11.2
				c5.1,10.6,19.2,21.9,20.5,32.9c1.9-1.8,1.6-4,2.7-6.2c4.8-9.9,16.8-19.2,19.3-29.4c2.2-8.9-4-14.8-10.4-14.8
				C424.4,14.4,421.2,15.7,418.9,18.7"/>
		</defs>
		<clipPath id="SVGID_37_">
			<use xlink:href="#SVGID_36_"  overflow="visible"/>
		</clipPath>
		
			<linearGradient id="SVGID_38_" gradientUnits="userSpaceOnUse" x1="0" y1="595.3037" x2="1" y2="595.3037" gradientTransform="matrix(44.3828 0 0 -44.3828 393.9248 26459.75)">
			<stop  offset="0" style="stop-color:#FFFFFF"/>
			<stop  offset="0.3605" style="stop-color:#FCFCFC"/>
			<stop  offset="0.5935" style="stop-color:#F4F4F4"/>
			<stop  offset="0.7904" style="stop-color:#E5E5E6"/>
			<stop  offset="0.9663" style="stop-color:#D0D1D3"/>
			<stop  offset="1" style="stop-color:#CBCCCE"/>
		</linearGradient>
		<rect x="393.3" y="12.2" clip-path="url(#SVGID_37_)" fill="url(#SVGID_38_)" width="46.8" height="52.5"/>
	</g>
	<g clip-path="url(#SVGID_2_)">
		<defs>
			<path id="SVGID_39_" d="M133.4,297.3c8.1,6.5,17.4,11.7,24.8,19c8.3-6.6,17.1-12.6,25.5-19c-9.5-5.1-17.2-12-25.5-18.2
				C150.7,285.9,142.6,292.1,133.4,297.3"/>
		</defs>
		<clipPath id="SVGID_40_">
			<use xlink:href="#SVGID_39_"  overflow="visible"/>
		</clipPath>
		
			<linearGradient id="SVGID_41_" gradientUnits="userSpaceOnUse" x1="-2.464771e-06" y1="595.28" x2="1" y2="595.28" gradientTransform="matrix(0 37.1445 37.1445 0 -21952.8203 279.0671)">
			<stop  offset="0" style="stop-color:#FFFFFF"/>
			<stop  offset="0.3605" style="stop-color:#FCFCFC"/>
			<stop  offset="0.5935" style="stop-color:#F4F4F4"/>
			<stop  offset="0.7904" style="stop-color:#E5E5E6"/>
			<stop  offset="0.9663" style="stop-color:#D0D1D3"/>
			<stop  offset="1" style="stop-color:#CBCCCE"/>
		</linearGradient>
		<rect x="133.4" y="279.1" clip-path="url(#SVGID_40_)" fill="url(#SVGID_41_)" width="50.3" height="37.1"/>
	</g>
	<g clip-path="url(#SVGID_2_)">
		<defs>
			<path id="SVGID_42_" d="M403.4,534c9.6,2.1,17.6,7.9,16.6,19.3c-2.5-5.5-8.3-10.3-15.9-8.9c-16.2,2.9-6.5,31,7.7,20.9
				c0,0.4-0.3,0.5-0.4,0.8c-1,2.2-1.7,2.8-1.9,4.6c-2.2,16.2,24.1,17,22.8,0.8c-0.2-2.3-1.8-4.1-1.9-5.8
				c15.2,8.5,22.4-18.3,7.4-21.3c-7.7-1.5-12.9,3.1-16.3,8.9c0.2-8.4,3-13.9,8.9-16.6c2.7-1.2,6.4-0.7,7.7-3.1
				c-5-0.2-12.2-0.5-19.2-0.5C413.3,533.1,407.6,533.3,403.4,534"/>
		</defs>
		<clipPath id="SVGID_43_">
			<use xlink:href="#SVGID_42_"  overflow="visible"/>
		</clipPath>
		
			<linearGradient id="SVGID_44_" gradientUnits="userSpaceOnUse" x1="0" y1="595.3243" x2="1" y2="595.3243" gradientTransform="matrix(-50.3682 0 0 50.3682 446.1289 -29424.9805)">
			<stop  offset="0" style="stop-color:#FFFFFF"/>
			<stop  offset="0.3605" style="stop-color:#FCFCFC"/>
			<stop  offset="0.5935" style="stop-color:#F4F4F4"/>
			<stop  offset="0.7904" style="stop-color:#E5E5E6"/>
			<stop  offset="0.9663" style="stop-color:#D0D1D3"/>
			<stop  offset="1" style="stop-color:#CBCCCE"/>
		</linearGradient>
		<rect x="388" y="533.1" clip-path="url(#SVGID_43_)" fill="url(#SVGID_44_)" width="64.9" height="54.7"/>
	</g>
	<g clip-path="url(#SVGID_2_)">
		<defs>
			<rect id="SVGID_45_" width="841.9" height="595.3"/>
		</defs>
		<clipPath id="SVGID_46_">
			<use xlink:href="#SVGID_45_"  overflow="visible"/>
		</clipPath>
		<polygon clip-path="url(#SVGID_46_)" fill-rule="evenodd" clip-rule="evenodd" fill="#FFFFFF" points="237.4,113.3 227.4,130.3 
			243.8,119.3 253.7,102.2 		"/>
		<polygon clip-path="url(#SVGID_46_)" fill-rule="evenodd" clip-rule="evenodd" fill="#FFFFFF" points="596.8,107.7 579.8,97.8 
			590.8,114.1 607.8,124.1 		"/>
		<polygon clip-path="url(#SVGID_46_)" fill-rule="evenodd" clip-rule="evenodd" fill="#FFFFFF" points="234.2,484 224.3,465.3 
			240.6,477.4 250.6,496 		"/>
		<polygon clip-path="url(#SVGID_46_)" fill-rule="evenodd" clip-rule="evenodd" fill="#FFFFFF" points="610.8,484.2 593.8,495.1 
			604.8,477.2 621.8,466.3 		"/>
	</g>
	<g clip-path="url(#SVGID_2_)">
		<defs>
			<path id="SVGID_47_" d="M248.1,263.9c-5.9,5.6-8.9,12.9-8.9,21.9c0,8.8,3,16,8.9,21.8c6,5.7,13.6,8.6,22.8,8.6
				c8.2,0,14.4-2.1,18.5-6.4c4.1-4.3,6.6-9.6,7.4-16.1l-1.4-0.2c-1,5.7-2.9,10.3-5.9,13.9c-3,3.6-6.9,5.3-11.8,5.3
				c-5.3,0-9.3-2.8-12-8.4c-2.7-5.6-4.1-12.2-4.1-19.8c0-7.1,1.1-13.2,3.4-18.5c2.3-5.3,5.7-7.9,10.4-7.9c3.6,0,6.6,1.1,8.9,3.2
				c2.3,2.2,4,4.4,5,6.7c1,2.3,2.7,6.8,5.1,13.3h1.4v-25.5h-1.6c-0.2,2-0.6,3.6-1.1,4.7c-0.5,1.1-1.6,1.7-3.2,1.7l-8.6-4.9
				c-2.9-1.3-6.4-2-10.3-2C261.6,255.4,254,258.3,248.1,263.9"/>
		</defs>
		<clipPath id="SVGID_48_">
			<use xlink:href="#SVGID_47_"  overflow="visible"/>
		</clipPath>
		
			<linearGradient id="SVGID_49_" gradientUnits="userSpaceOnUse" x1="0" y1="595.2798" x2="1" y2="595.2798" gradientTransform="matrix(-2.1222 -60.7725 -60.7725 2.1222 36445.8125 -946.9978)">
			<stop  offset="0" style="stop-color:#2B3990"/>
			<stop  offset="0.2786" style="stop-color:#2A3C93"/>
			<stop  offset="0.5241" style="stop-color:#27479A"/>
			<stop  offset="0.757" style="stop-color:#2259A8"/>
			<stop  offset="0.9811" style="stop-color:#1C72BA"/>
			<stop  offset="1" style="stop-color:#1B75BC"/>
		</linearGradient>
		<polygon clip-path="url(#SVGID_48_)" fill="url(#SVGID_49_)" points="239.3,318.2 237.2,255.5 296.8,253.4 299,316.1 		"/>
	</g>
	<g clip-path="url(#SVGID_2_)">
		<defs>
			<path id="SVGID_50_" d="M319.8,275.2l7.1,19.9h-14L319.8,275.2z M324.3,256.1l-15.4,46.2c-0.4,1.1-0.9,2.4-1.4,3.8
				c-0.6,1.4-1.1,2.6-1.5,3.6c-0.5,1-1.2,1.9-2.1,2.5c-0.9,0.7-2.3,1.1-4.1,1.3L295,314v1.3h22.9V314c-0.9-0.1-1.8-0.1-2.7-0.2
				c-0.9-0.1-1.9-0.2-2.8-0.4c-1-0.2-1.8-0.5-2.4-1c-0.6-0.5-0.9-1.3-0.9-2.6c0-1.1,0.3-2.7,0.8-4.6l2.5-8.4h15.2l2.9,8.6
				c0.8,2.2,1.1,3.9,1.1,5.1c0,1.1-0.3,1.9-0.9,2.2c-0.6,0.4-1.6,0.6-2.9,0.8c-1.3,0.2-2.3,0.3-2.8,0.4c-0.5,0-1.1,0-1.7,0v1.3h38.4
				V314l-3.3-0.3c-1.4-0.2-2.5-0.7-3.3-1.4c-0.8-0.7-1.6-1.9-2.3-3.6l-2.5-6.3l-17.1-46.2H324.3z"/>
		</defs>
		<clipPath id="SVGID_51_">
			<use xlink:href="#SVGID_50_"  overflow="visible"/>
		</clipPath>
		
			<linearGradient id="SVGID_52_" gradientUnits="userSpaceOnUse" x1="-9.270615e-06" y1="595.2633" x2="1" y2="595.2633" gradientTransform="matrix(-2.1093 -60.4017 -60.4017 2.1093 36284.2812 -939.1898)">
			<stop  offset="0" style="stop-color:#2B3990"/>
			<stop  offset="0.2786" style="stop-color:#2A3C93"/>
			<stop  offset="0.5241" style="stop-color:#27479A"/>
			<stop  offset="0.757" style="stop-color:#2259A8"/>
			<stop  offset="0.9811" style="stop-color:#1C72BA"/>
			<stop  offset="1" style="stop-color:#1B75BC"/>
		</linearGradient>
		<polygon clip-path="url(#SVGID_51_)" fill="url(#SVGID_52_)" points="295.1,317.6 292.9,256.2 361.6,253.8 363.7,315.2 		"/>
	</g>
	<g clip-path="url(#SVGID_2_)">
		<defs>
			<path id="SVGID_53_" d="M407.9,255.4c0,1.9-0.2,3.6-0.7,4.9c-0.5,1.3-1.5,2-3.1,2l-8.4-4.7c-2.9-1.5-5.9-2.2-9-2.2
				c-5.6,0-10.5,1.8-14.7,5.5c-4.3,3.7-6.4,8.1-6.4,13.4c0,6.7,2,11.3,6.1,13.7c4,2.5,7.9,4.4,11.5,5.9c3.6,1.5,7,2.8,10.3,4.1
				c3.2,1.3,5.5,2.6,6.7,3.9c1.2,1.3,1.9,3.2,1.9,5.5c0,1.9-0.8,3.6-2.5,5c-1.7,1.4-3.8,2.1-6.5,2.1c-4.6,0-8.6-1.2-12.1-3.6
				c-3.5-2.4-6.3-5.3-8.4-8.9c-2.1-3.6-3.6-6.7-4.4-9.3c-0.8-2.6-1.3-4.4-1.7-5.6h-1.4v28.9h1.4c0.4-3.2,0.8-5.4,1.2-6.8
				c0.4-1.3,1.5-2,3.3-2c0.7,0,3.3,1.5,7.9,4.4c4.5,2.9,9.1,4.4,13.8,4.4c5.3,0,10.2-1.7,14.7-5.1c4.5-3.4,6.8-7.8,6.8-13.1
				c0-4.3-1.1-8-3.4-11.2c-2.3-3.2-5.2-5.5-8.7-7.2c-3.5-1.6-6.9-3.1-10.2-4.3c-3.3-1.2-5.9-2.3-7.7-3.1c-1.9-0.8-3.5-1.9-4.9-3.3
				c-1.4-1.4-2.1-3.1-2.1-5.1c0-1.9,0.9-3.6,2.8-4.8c1.9-1.3,3.9-1.9,6.1-1.9c3.3,0,6.1,0.6,8.4,1.8c2.3,1.2,4.7,3.2,7.1,5.9
				c2.4,2.7,4,5.2,4.8,7.4c0.8,2.2,1.4,3.8,1.7,4.7h1.5v-21.4H407.9z"/>
		</defs>
		<clipPath id="SVGID_54_">
			<use xlink:href="#SVGID_53_"  overflow="visible"/>
		</clipPath>
		
			<linearGradient id="SVGID_55_" gradientUnits="userSpaceOnUse" x1="0" y1="595.268" x2="1" y2="595.268" gradientTransform="matrix(-2.1284 -60.9502 -60.9502 2.1284 36672.3672 -950.6757)">
			<stop  offset="0" style="stop-color:#2B3990"/>
			<stop  offset="0.2786" style="stop-color:#2A3C93"/>
			<stop  offset="0.5241" style="stop-color:#27479A"/>
			<stop  offset="0.757" style="stop-color:#2259A8"/>
			<stop  offset="0.9811" style="stop-color:#1C72BA"/>
			<stop  offset="1" style="stop-color:#1B75BC"/>
		</linearGradient>
		<polygon clip-path="url(#SVGID_54_)" fill="url(#SVGID_55_)" points="365.2,317.9 363,255.5 414.1,253.7 416.2,316.1 		"/>
	</g>
	<g clip-path="url(#SVGID_2_)">
		<defs>
			<path id="SVGID_56_" d="M419.9,256.3v1.3l4.4,0.3c1.7,0.2,2.8,0.7,3.4,1.3c0.6,0.7,0.9,1.9,1.1,3.6l0.2,3.7V305l-0.2,3.7
				c-0.2,1.7-0.6,2.9-1.2,3.6c-0.6,0.7-1.7,1.1-3.2,1.3c-1.5,0.2-2.5,0.3-3.2,0.3c-0.6,0-1.2,0-1.5,0v1.3h38.1V314l-4.2-0.2
				c-1.7-0.2-2.8-0.6-3.4-1.3c-0.6-0.6-1-1.8-1.2-3.6l-0.2-3.7v-38.7l0.2-3.7c0.2-1.8,0.5-3.1,1.1-3.7c0.6-0.6,1.7-1,3.4-1.2
				l4.4-0.2v-1.3H419.9z"/>
		</defs>
		<clipPath id="SVGID_57_">
			<use xlink:href="#SVGID_56_"  overflow="visible"/>
		</clipPath>
		
			<linearGradient id="SVGID_58_" gradientUnits="userSpaceOnUse" x1="-9.880171e-06" y1="595.28" x2="1.0001" y2="595.28" gradientTransform="matrix(-2.1014 -60.1772 -60.1772 2.1014 36262.0625 -935.0577)">
			<stop  offset="0" style="stop-color:#2B3990"/>
			<stop  offset="0.2786" style="stop-color:#2A3C93"/>
			<stop  offset="0.5241" style="stop-color:#27479A"/>
			<stop  offset="0.757" style="stop-color:#2259A8"/>
			<stop  offset="0.9811" style="stop-color:#1C72BA"/>
			<stop  offset="1" style="stop-color:#1B75BC"/>
		</linearGradient>
		<polygon clip-path="url(#SVGID_57_)" fill="url(#SVGID_58_)" points="419.7,316.6 417.6,256.4 457.7,255 459.8,315.2 		"/>
	</g>
	<g clip-path="url(#SVGID_2_)">
		<defs>
			<path id="SVGID_59_" d="M509.7,256.3v1.3c0.8,0.1,1.6,0.1,2.5,0.2c0.9,0.1,2.1,0.2,3.5,0.4c1.5,0.2,2.5,0.8,3.3,1.7
				c0.7,0.9,1.2,2.2,1.3,3.9l0.2,3.9v25.8h-0.3L491,256.3h-30.9v1.3h2.4c1.1,0,2.2,0.2,3.4,0.6c1.2,0.4,2.2,1.1,3.2,2
				c1,1,1.8,2,2.5,3.2l0.2,3.7v36.8l-0.2,3.9c-0.3,3.3-1.6,5.1-3.8,5.5c-2.2,0.4-3.7,0.6-4.6,0.6c-0.9,0.1-1.7,0.1-2.4,0.2v1.3h23.4
				V314c-0.4-0.1-1.1-0.1-2.1-0.2c-1.1-0.1-2.3-0.2-3.8-0.4c-1.5-0.2-2.6-0.8-3.3-1.7c-0.7-0.9-1.2-2.2-1.3-4l-0.2-3.9v-37.8h0.3
				l38.4,49.1h9.9V268l0.2-3.9c0.2-1.7,0.6-3.1,1.4-4.1c0.8-1,1.9-1.6,3.4-1.9c1.5-0.2,2.7-0.4,3.5-0.4c0.8-0.1,1.6-0.1,2.3-0.2
				v-1.3H509.7z"/>
		</defs>
		<clipPath id="SVGID_60_">
			<use xlink:href="#SVGID_59_"  overflow="visible"/>
		</clipPath>
		
			<linearGradient id="SVGID_61_" gradientUnits="userSpaceOnUse" x1="0" y1="595.2867" x2="1" y2="595.2867" gradientTransform="matrix(-2.1309 -61.0204 -61.0204 2.1309 36822.2383 -952.3717)">
			<stop  offset="0" style="stop-color:#2B3990"/>
			<stop  offset="0.2786" style="stop-color:#2A3C93"/>
			<stop  offset="0.5241" style="stop-color:#27479A"/>
			<stop  offset="0.757" style="stop-color:#2259A8"/>
			<stop  offset="0.9811" style="stop-color:#1C72BA"/>
			<stop  offset="1" style="stop-color:#1B75BC"/>
		</linearGradient>
		<polygon clip-path="url(#SVGID_60_)" fill="url(#SVGID_61_)" points="460.2,317.8 458.1,256.4 532.9,253.8 535,315.2 		"/>
	</g>
	<g clip-path="url(#SVGID_2_)">
		<defs>
			<path id="SVGID_62_" d="M562,309.7c-1.2-3.3-2-6.8-2.4-10.3c-0.4-3.5-0.6-8-0.6-13.6c0-4,0.2-8,0.5-11.8c0.3-3.9,0.9-7,1.7-9.5
				c0.8-2.4,1.9-4.3,3.4-5.6c1.5-1.3,3.2-1.9,5.2-1.9c3.9,0,6.7,2.3,8.3,6.8c1,2.9,1.6,6.1,1.9,9.6c0.3,3.5,0.5,7.7,0.5,12.5
				c0,4-0.2,8-0.5,11.8c-0.4,3.9-0.9,7-1.7,9.5c-0.8,2.5-1.9,4.3-3.4,5.6c-1.5,1.3-3.2,1.9-5.2,1.9C565.8,314.7,563.2,313,562,309.7
				 M546.7,263.8c-6.4,5.6-9.5,12.9-9.5,22c0,8.8,3.1,16,9.3,21.8c6.2,5.7,14,8.6,23.2,8.6c8.9,0,16.6-2.9,23.1-8.7
				c6.5-5.8,9.8-13,9.8-21.7c0-8.9-3.2-16.2-9.7-21.9c-6.5-5.7-14.2-8.5-23.2-8.5C560.7,255.4,553,258.2,546.7,263.8"/>
		</defs>
		<clipPath id="SVGID_63_">
			<use xlink:href="#SVGID_62_"  overflow="visible"/>
		</clipPath>
		
			<linearGradient id="SVGID_64_" gradientUnits="userSpaceOnUse" x1="0" y1="595.28" x2="1" y2="595.28" gradientTransform="matrix(-2.1219 -60.7647 -60.7647 2.1219 36742.9766 -946.9489)">
			<stop  offset="0" style="stop-color:#2B3990"/>
			<stop  offset="0.2786" style="stop-color:#2A3C93"/>
			<stop  offset="0.5241" style="stop-color:#27479A"/>
			<stop  offset="0.757" style="stop-color:#2259A8"/>
			<stop  offset="0.9811" style="stop-color:#1C72BA"/>
			<stop  offset="1" style="stop-color:#1B75BC"/>
		</linearGradient>
		<polygon clip-path="url(#SVGID_63_)" fill="url(#SVGID_64_)" points="537.2,318.5 535,255.5 602.6,253.2 604.8,316.1 		"/>
	</g>
	<g clip-path="url(#SVGID_2_)">
		<defs>
			<rect id="SVGID_65_" width="841.9" height="595.3"/>
		</defs>
		<clipPath id="SVGID_66_">
			<use xlink:href="#SVGID_65_"  overflow="visible"/>
		</clipPath>
		<path clip-path="url(#SVGID_66_)" fill="#808285" d="M420.9,506.3c-115.1,0-208.7-93.6-208.7-208.7C212.3,182.6,305.9,89,420.9,89
			c115.1,0,208.7,93.6,208.7,208.7C629.6,412.7,536,506.3,420.9,506.3 M420.9,91.9c-113.4,0-205.7,92.3-205.7,205.7
			c0,113.4,92.3,205.7,205.7,205.7c113.4,0,205.7-92.3,205.7-205.7C626.7,184.2,534.4,91.9,420.9,91.9"/>
	</g>
	<g clip-path="url(#SVGID_2_)">
		<defs>
			<path id="SVGID_67_" d="M419.1,184.6c-0.5,0.5-0.7,1.1-0.7,1.9c0,0.8,0.2,1.5,0.7,2c0.5,0.5,1.1,1,1.8,1.4v-6.2
				C420.1,183.8,419.5,184.2,419.1,184.6"/>
		</defs>
		<clipPath id="SVGID_68_">
			<use xlink:href="#SVGID_67_"  overflow="visible"/>
		</clipPath>
		
			<linearGradient id="SVGID_69_" gradientUnits="userSpaceOnUse" x1="1.011619e-04" y1="595.2893" x2="1.0001" y2="595.2893" gradientTransform="matrix(-0.2173 -6.2228 -6.2228 0.2173 4124.1128 60.5744)">
			<stop  offset="0" style="stop-color:#2B3990"/>
			<stop  offset="0.2786" style="stop-color:#2A3C93"/>
			<stop  offset="0.5241" style="stop-color:#27479A"/>
			<stop  offset="0.757" style="stop-color:#2259A8"/>
			<stop  offset="0.9811" style="stop-color:#1C72BA"/>
			<stop  offset="1" style="stop-color:#1B75BC"/>
		</linearGradient>
		<polygon clip-path="url(#SVGID_68_)" fill="url(#SVGID_69_)" points="418.4,190 418.2,183.7 420.9,183.6 421.1,189.9 		"/>
	</g>
	<g clip-path="url(#SVGID_2_)">
		<defs>
			<path id="SVGID_70_" d="M421.3,203.5c0.9-0.1,1.7-0.5,2.3-0.9c0.6-0.5,0.9-1.1,0.9-2c0-0.8-0.2-1.5-0.6-2c-0.4-0.5-1.3-1-2.6-1.6
				V203.5z"/>
		</defs>
		<clipPath id="SVGID_71_">
			<use xlink:href="#SVGID_70_"  overflow="visible"/>
		</clipPath>
		
			<linearGradient id="SVGID_72_" gradientUnits="userSpaceOnUse" x1="0" y1="595.2708" x2="1" y2="595.2708" gradientTransform="matrix(-0.2261 -6.4746 -6.4746 0.2261 4277.1846 68.8547)">
			<stop  offset="0" style="stop-color:#2B3990"/>
			<stop  offset="0.2786" style="stop-color:#2A3C93"/>
			<stop  offset="0.5241" style="stop-color:#27479A"/>
			<stop  offset="0.757" style="stop-color:#2259A8"/>
			<stop  offset="0.9811" style="stop-color:#1C72BA"/>
			<stop  offset="1" style="stop-color:#1B75BC"/>
		</linearGradient>
		<polygon clip-path="url(#SVGID_71_)" fill="url(#SVGID_72_)" points="421.3,203.6 421.1,197 424.6,196.9 424.8,203.5 		"/>
	</g>
	<g clip-path="url(#SVGID_2_)">
		<defs>
			<path id="SVGID_73_" d="M420.7,203.6v-6.8c-0.7-0.3-1.4-0.6-2.2-0.9c-0.7-0.3-1.5-0.7-2.3-1.1c-0.8-0.4-1.5-1.1-2.1-2.1
				c-0.7-1-1-2.1-1-3.3c0-2.1,0.9-3.7,2.6-4.8c1.7-1.1,3.4-1.7,5.1-1.7v-1.7h0.6v1.7h0.5c2,0,3.7,0.4,4.9,1.1
				c1.2,0.7,1.8,1.8,1.8,3.3c0,0.7-0.3,1.4-0.8,1.9c-0.5,0.5-1.2,0.8-2,0.8c-0.8,0-1.4-0.2-2-0.7c-0.6-0.5-0.8-1.1-0.8-1.9
				c0-0.7,0.2-1.3,0.6-1.8c0.4-0.5,0.8-0.7,1.2-0.8c0.4,0,0.6-0.2,0.6-0.4c0-0.2-0.4-0.4-1.1-0.7c-0.7-0.2-1.4-0.3-2.1-0.3l-0.8,0
				v6.6c1.3,0.5,2.5,1,3.8,1.5c1.3,0.6,2.3,1.4,3,2.3c0.7,0.9,1.1,2,1.1,3.2c0,2.3-0.8,4-2.4,5c-1.6,1.1-3.5,1.7-5.7,1.9v2.7h-0.6
				v-2.6l-1.2,0c-1.6,0-3.2-0.4-4.8-1.2c-1.5-0.8-2.3-1.9-2.3-3.4c0-0.8,0.3-1.5,0.9-2.1c0.6-0.6,1.3-0.9,2.1-0.9
				c0.9,0,1.6,0.3,2.1,0.8c0.6,0.5,0.8,1.2,0.8,2.1c0,0.7-0.2,1.3-0.7,1.7c-0.4,0.4-0.9,0.7-1.5,0.7c-0.3,0-0.4,0.1-0.4,0.3
				c0,0.2,0.5,0.5,1.4,0.9c0.9,0.3,1.8,0.5,2.5,0.5L420.7,203.6z M420.9,159.9l-57.2,63h57.2h57.2L420.9,159.9L420.9,159.9
				L420.9,159.9z"/>
		</defs>
		<clipPath id="SVGID_74_">
			<use xlink:href="#SVGID_73_"  overflow="visible"/>
		</clipPath>
		
			<linearGradient id="SVGID_75_" gradientUnits="userSpaceOnUse" x1="-1.103561e-05" y1="595.2631" x2="1" y2="595.2631" gradientTransform="matrix(-2.2657 -64.8823 -64.8823 2.2657 39044.1641 -1123.9274)">
			<stop  offset="0" style="stop-color:#2B3990"/>
			<stop  offset="0.2786" style="stop-color:#2A3C93"/>
			<stop  offset="0.5241" style="stop-color:#27479A"/>
			<stop  offset="0.757" style="stop-color:#2259A8"/>
			<stop  offset="0.9811" style="stop-color:#1C72BA"/>
			<stop  offset="1" style="stop-color:#1B75BC"/>
		</linearGradient>
		<polygon clip-path="url(#SVGID_74_)" fill="url(#SVGID_75_)" points="363.9,226.8 361.6,159.9 478,155.9 480.3,222.8 		"/>
	</g>
	<g clip-path="url(#SVGID_2_)">
		<defs>
			<path id="SVGID_76_" d="M345.4,353.2v1.2c0.5,0,1.3,0.1,2.4,0.2c1.1,0.1,2.2,0.2,3.3,0.3c1.1,0.1,1.9,0.6,2.5,1.3
				c0.6,0.7,0.9,1.8,1.1,3.3l0.1,3.3v34.1l-0.1,3.3c-0.1,1.6-0.5,2.6-1.1,3.2c-0.6,0.6-1.5,1-2.8,1.2c-1.3,0.2-2.3,0.3-2.8,0.3
				c-0.6,0-1.1,0-1.6,0v1.2h34.3V405c-0.8,0-1.5-0.1-2.1-0.1c-0.7,0-1.4-0.1-2.4-0.2c-0.9-0.1-1.7-0.5-2.2-1
				c-0.6-0.6-0.9-1.6-1.1-3.2l-0.1-3.3v-43.9H345.4z"/>
		</defs>
		<clipPath id="SVGID_77_">
			<use xlink:href="#SVGID_76_"  overflow="visible"/>
		</clipPath>
		
			<linearGradient id="SVGID_78_" gradientUnits="userSpaceOnUse" x1="1.122596e-05" y1="595.28" x2="1" y2="595.28" gradientTransform="matrix(-2.300000e-06 -52.9424 -52.9424 2.300000e-06 31878.5234 406.1693)">
			<stop  offset="0" style="stop-color:#2B3990"/>
			<stop  offset="0.2786" style="stop-color:#2A3C93"/>
			<stop  offset="0.5241" style="stop-color:#27479A"/>
			<stop  offset="0.757" style="stop-color:#2259A8"/>
			<stop  offset="0.9811" style="stop-color:#1C72BA"/>
			<stop  offset="1" style="stop-color:#1B75BC"/>
		</linearGradient>
		<rect x="345.4" y="353.2" clip-path="url(#SVGID_77_)" fill="url(#SVGID_78_)" width="35.1" height="52.9"/>
	</g>
	<g clip-path="url(#SVGID_2_)">
		<defs>
			<path id="SVGID_79_" d="M406.2,404c-0.8-1.1-1.5-3-1.9-5.6c-0.4-2.7-0.7-5.5-0.8-8.5c-0.2-3-0.3-6.4-0.3-10.1
				c0-3.4,0.1-6.8,0.3-10.3c0.2-3.5,0.5-6.4,0.8-8.7c0.3-2.3,1-4.1,1.9-5.2c0.9-1.1,2.2-1.7,3.8-1.7c1.7,0,3,0.5,3.9,1.6
				c0.8,1.1,1.5,3,1.9,5.7c0.4,2.7,0.7,5.5,0.8,8.3c0.1,2.9,0.2,6.3,0.2,10.3c0,3.1-0.1,6.5-0.3,10.1c-0.2,3.7-0.5,6.6-0.8,8.9
				c-0.3,2.3-0.9,4-1.9,5.2c-0.9,1.1-2.2,1.7-3.8,1.7C408.3,405.7,407,405.1,406.2,404 M392.3,360.8c-4.8,5.6-7.2,11.9-7.2,18.9
				c0,6.6,2.2,12.8,6.7,18.6c4.5,5.8,10.5,8.7,18.2,8.7c7.3,0,13.3-2.8,17.9-8.4c4.6-5.6,7-11.9,7-18.9c0-6.8-2.3-13.1-7-18.8
				c-4.7-5.7-10.6-8.5-17.9-8.5C403,352.4,397.1,355.2,392.3,360.8"/>
		</defs>
		<clipPath id="SVGID_80_">
			<use xlink:href="#SVGID_79_"  overflow="visible"/>
		</clipPath>
		
			<linearGradient id="SVGID_81_" gradientUnits="userSpaceOnUse" x1="1.367090e-05" y1="595.28" x2="1" y2="595.28" gradientTransform="matrix(-2.400000e-06 -54.6113 -54.6113 2.400000e-06 32919.0742 407.0393)">
			<stop  offset="0" style="stop-color:#2B3990"/>
			<stop  offset="0.2786" style="stop-color:#2A3C93"/>
			<stop  offset="0.5241" style="stop-color:#27479A"/>
			<stop  offset="0.757" style="stop-color:#2259A8"/>
			<stop  offset="0.9811" style="stop-color:#1C72BA"/>
			<stop  offset="1" style="stop-color:#1B75BC"/>
		</linearGradient>
		<rect x="385.1" y="352.4" clip-path="url(#SVGID_80_)" fill="url(#SVGID_81_)" width="49.8" height="54.6"/>
	</g>
	<g clip-path="url(#SVGID_2_)">
		<defs>
			<path id="SVGID_82_" d="M461.2,404c-0.8-1.1-1.5-3-1.8-5.6c-0.4-2.7-0.7-5.5-0.8-8.5c-0.2-3-0.3-6.4-0.3-10.1
				c0-3.4,0.1-6.8,0.3-10.3c0.2-3.5,0.5-6.4,0.8-8.7c0.3-2.3,1-4.1,1.9-5.2c0.9-1.1,2.2-1.7,3.8-1.7c1.7,0,3,0.5,3.9,1.6
				c0.8,1.1,1.5,3,1.9,5.7c0.4,2.7,0.7,5.5,0.8,8.3c0.1,2.9,0.2,6.3,0.2,10.3c0,3.1-0.1,6.5-0.3,10.1c-0.2,3.7-0.5,6.6-0.8,8.9
				c-0.3,2.3-0.9,4-1.9,5.2c-0.9,1.1-2.2,1.7-3.8,1.7C463.3,405.7,462,405.1,461.2,404 M447.4,360.8c-4.8,5.6-7.2,11.9-7.2,18.9
				c0,6.6,2.2,12.8,6.7,18.6c4.5,5.8,10.5,8.7,18.2,8.7c7.3,0,13.3-2.8,17.9-8.4c4.6-5.6,7-11.9,7-18.9c0-6.8-2.3-13.1-7-18.8
				c-4.7-5.7-10.6-8.5-17.9-8.5C458.1,352.4,452.2,355.2,447.4,360.8"/>
		</defs>
		<clipPath id="SVGID_83_">
			<use xlink:href="#SVGID_82_"  overflow="visible"/>
		</clipPath>
		
			<linearGradient id="SVGID_84_" gradientUnits="userSpaceOnUse" x1="1.367090e-05" y1="595.28" x2="1" y2="595.28" gradientTransform="matrix(-2.400000e-06 -54.6113 -54.6113 2.400000e-06 32974.1211 407.0393)">
			<stop  offset="0" style="stop-color:#2B3990"/>
			<stop  offset="0.2786" style="stop-color:#2A3C93"/>
			<stop  offset="0.5241" style="stop-color:#27479A"/>
			<stop  offset="0.757" style="stop-color:#2259A8"/>
			<stop  offset="0.9811" style="stop-color:#1C72BA"/>
			<stop  offset="1" style="stop-color:#1B75BC"/>
		</linearGradient>
		<rect x="440.2" y="352.4" clip-path="url(#SVGID_83_)" fill="url(#SVGID_84_)" width="49.8" height="54.6"/>
	</g>
	<g clip-path="url(#SVGID_2_)">
		<defs>
			<path id="SVGID_85_" d="M516.2,404c-0.8-1.1-1.5-3-1.8-5.6c-0.4-2.7-0.7-5.5-0.8-8.5c-0.2-3-0.3-6.4-0.3-10.1
				c0-3.4,0.1-6.8,0.3-10.3c0.2-3.5,0.5-6.4,0.8-8.7c0.3-2.3,1-4.1,1.9-5.2c0.9-1.1,2.2-1.7,3.8-1.7c1.7,0,3,0.5,3.9,1.6
				c0.8,1.1,1.5,3,1.9,5.7c0.4,2.7,0.7,5.5,0.8,8.3c0.1,2.9,0.2,6.3,0.2,10.3c0,3.1-0.1,6.5-0.3,10.1c-0.2,3.7-0.5,6.6-0.8,8.9
				c-0.3,2.3-0.9,4-1.9,5.2c-0.9,1.1-2.2,1.7-3.8,1.7C518.4,405.7,517.1,405.1,516.2,404 M502.4,360.8c-4.8,5.6-7.2,11.9-7.2,18.9
				c0,6.6,2.2,12.8,6.7,18.6c4.5,5.8,10.5,8.7,18.2,8.7c7.3,0,13.3-2.8,17.9-8.4c4.7-5.6,7-11.9,7-18.9c0-6.8-2.3-13.1-7-18.8
				c-4.7-5.7-10.6-8.5-17.9-8.5C513.1,352.4,507.2,355.2,502.4,360.8"/>
		</defs>
		<clipPath id="SVGID_86_">
			<use xlink:href="#SVGID_85_"  overflow="visible"/>
		</clipPath>
		
			<linearGradient id="SVGID_87_" gradientUnits="userSpaceOnUse" x1="1.367090e-05" y1="595.28" x2="1" y2="595.28" gradientTransform="matrix(-2.400000e-06 -54.6113 -54.6113 2.400000e-06 33029.1641 407.0393)">
			<stop  offset="0" style="stop-color:#2B3990"/>
			<stop  offset="0.2786" style="stop-color:#2A3C93"/>
			<stop  offset="0.5241" style="stop-color:#27479A"/>
			<stop  offset="0.757" style="stop-color:#2259A8"/>
			<stop  offset="0.9811" style="stop-color:#1C72BA"/>
			<stop  offset="1" style="stop-color:#1B75BC"/>
		</linearGradient>
		<rect x="495.2" y="352.4" clip-path="url(#SVGID_86_)" fill="url(#SVGID_87_)" width="49.8" height="54.6"/>
	</g>
	<g clip-path="url(#SVGID_2_)">
		<defs>
			<path id="SVGID_88_" d="M319.7,388.7c3.4,1.4,5.6,2.8,6.7,4.1c1.1,1.3,1.6,3,1.6,5.1c0,2.2-0.8,4-2.4,5.2c-1.6,1.2-3.6,2-6,2.4
				V388.7z M313.9,366.7c-1.2-1.4-1.8-3.1-1.8-5.2c0-2,0.6-3.6,1.8-4.9c1.2-1.3,2.8-2.1,4.8-2.5v16.1
				C316.6,369.2,315,368,313.9,366.7 M318.6,348v4.4c-4.5,0-8.9,1.5-13.3,4.4c-4.4,2.9-6.6,7.1-6.6,12.4c0,3.1,0.9,5.9,2.6,8.5
				c1.7,2.6,3.6,4.4,5.5,5.4c2,1,3.9,1.9,5.8,2.7c1.9,0.8,3.8,1.6,5.6,2.3v17.6l-2.7,0.1c-1.9,0-4.1-0.4-6.5-1.3
				c-2.4-0.9-3.6-1.6-3.6-2.3c0-0.6,0.4-0.9,1.2-0.9c1.4-0.2,2.7-0.8,3.8-1.9c1.2-1.1,1.7-2.5,1.7-4.4c0-2.2-0.7-4-2.2-5.3
				c-1.5-1.3-3.3-2-5.5-2c-2.1,0-3.9,0.8-5.4,2.3c-1.5,1.5-2.2,3.3-2.2,5.4c0,3.8,2,6.7,6,8.7c4,2,8.1,3,12.4,3l3-0.1v6.8h1.5v-7
				c5.7-0.6,10.6-2.2,14.7-5c4.1-2.7,6.2-7.1,6.2-13.1c0-3.2-0.9-5.9-2.8-8.3c-1.9-2.4-4.5-4.3-7.8-5.9c-3.3-1.3-6.5-2.5-9.8-3.9
				v-17l2.2-0.1c1.8,0,3.7,0.3,5.5,0.9c1.8,0.6,2.7,1.2,2.7,1.7c0,0.5-0.5,0.8-1.6,0.9c-1,0.1-2.1,0.8-3.2,2
				c-1.1,1.2-1.6,2.8-1.6,4.7c0,2.1,0.7,3.8,2.2,5c1.5,1.2,3.2,1.8,5.2,1.8s3.7-0.7,5.1-2.1c1.4-1.4,2.1-3,2.1-5
				c0-3.7-1.6-6.5-4.7-8.4c-3.2-1.9-7.4-2.9-12.6-2.9h-1.2V348H318.6z"/>
		</defs>
		<clipPath id="SVGID_89_">
			<use xlink:href="#SVGID_88_"  overflow="visible"/>
		</clipPath>
		
			<linearGradient id="SVGID_90_" gradientUnits="userSpaceOnUse" x1="-1.636206e-06" y1="595.28" x2="1" y2="595.28" gradientTransform="matrix(-2.900000e-06 -65.8682 -65.8682 2.900000e-06 39528.7227 413.8662)">
			<stop  offset="0" style="stop-color:#2B3990"/>
			<stop  offset="0.2786" style="stop-color:#2A3C93"/>
			<stop  offset="0.5241" style="stop-color:#27479A"/>
			<stop  offset="0.757" style="stop-color:#2259A8"/>
			<stop  offset="0.9811" style="stop-color:#1C72BA"/>
			<stop  offset="1" style="stop-color:#1B75BC"/>
		</linearGradient>
		<rect x="296.9" y="348" clip-path="url(#SVGID_89_)" fill="url(#SVGID_90_)" width="43.7" height="65.9"/>
	</g>
	<g clip-path="url(#SVGID_2_)">
		<defs>
			<rect id="SVGID_91_" width="841.9" height="595.3"/>
		</defs>
		<clipPath id="SVGID_92_">
			<use xlink:href="#SVGID_91_"  overflow="visible"/>
		</clipPath>
		<g opacity="0.52" clip-path="url(#SVGID_92_)">
			<g>
				<defs>
					<rect id="SVGID_93_" x="123.8" y="0" width="523.7" height="351.7"/>
				</defs>
				<clipPath id="SVGID_94_">
					<use xlink:href="#SVGID_93_"  overflow="visible"/>
				</clipPath>
				<g clip-path="url(#SVGID_94_)">
					<defs>
						<path id="SVGID_95_" d="M201,300.7c47.1-19.4,97.8-27.6,148-34.4c63.5-8.7,129.8-14.2,187.9-43.7
							c27.4-13.9,52.3-32.5,72.2-56.1c16.3-19.5,28.9-38.4,38.4-61.8c-25.9-29.3-57.9-57.2-95.4-75.2
							c-149.5-71.6-328.9-8.5-400.5,141.1c-27.6,57.6-33.1,122.5-23.4,181.1C149.5,331.1,172.9,312.3,201,300.7"/>
					</defs>
					<clipPath id="SVGID_96_">
						<use xlink:href="#SVGID_95_"  overflow="visible"/>
					</clipPath>
					<defs>
						<filter id="Adobe_OpacityMaskFilter" filterUnits="userSpaceOnUse" x="44.1" y="-142.2" width="677.9" height="593.9">
							<feColorMatrix  type="matrix" values="1 0 0 0 0  0 1 0 0 0  0 0 1 0 0  0 0 0 1 0"/>
						</filter>
					</defs>
					<mask maskUnits="userSpaceOnUse" x="44.1" y="-142.2" width="677.9" height="593.9" id="SVGID_97_">
						<g filter="url(#Adobe_OpacityMaskFilter)">
							
								<linearGradient id="SVGID_98_" gradientUnits="userSpaceOnUse" x1="0" y1="595.2659" x2="1" y2="595.2659" gradientTransform="matrix(-116.4683 592.7316 592.7316 116.4683 -352418.0312 -69336.8047)">
								<stop  offset="0" style="stop-color:#FFFFFF"/>
								<stop  offset="0.1106" style="stop-color:#F1F1F1"/>
								<stop  offset="0.3213" style="stop-color:#CBCBCB"/>
								<stop  offset="0.6102" style="stop-color:#8D8D8D"/>
								<stop  offset="0.9631" style="stop-color:#3A3A3A"/>
								<stop  offset="1" style="stop-color:#303030"/>
							</linearGradient>
							<polygon clip-path="url(#SVGID_96_)" fill="url(#SVGID_98_)" points="722,-27.5 627.8,451.8 44.1,337.1 138.3,-142.2 							
								"/>
						</g>
					</mask>
					
						<linearGradient id="SVGID_99_" gradientUnits="userSpaceOnUse" x1="0" y1="595.2659" x2="1" y2="595.2659" gradientTransform="matrix(-116.4683 592.7316 592.7316 116.4683 -352418.0312 -69336.8047)">
						<stop  offset="0" style="stop-color:#FFFFFF"/>
						<stop  offset="1" style="stop-color:#FFFFFF"/>
					</linearGradient>
					<polygon clip-path="url(#SVGID_96_)" mask="url(#SVGID_97_)" fill="url(#SVGID_99_)" points="722,-27.5 627.8,451.8 
						44.1,337.1 138.3,-142.2 					"/>
				</g>
			</g>
		</g>
	</g>
</g>
</svg>
