<?xml version="1.0" encoding="UTF-8"?>
<!DOCTYPE svg PUBLIC "-//W3C//DTD SVG 1.1//EN" "http://www.w3.org/Graphics/SVG/1.1/DTD/svg11.dtd">
<svg height="708.6614" viewBox="-250 -250 500 500" width="708.6614" xmlns="http://www.w3.org/2000/svg" xmlns:xlink="http://www.w3.org/1999/xlink">
<defs>
<path d="m2.566,16.2 23.954,151.2" id="refwire" stroke="#c0c0c0"/>
<path d="m0,0 15.64,98.77a100,100 0 0,1 -31.28,0z" id="SLICE"/>
<use id="double" transform="scale(1.695)" xlink:href="#SLICE"/>
<use id="outer" transform="scale(1.605)" xlink:href="#SLICE"/>
<use id="triple" transform="scale(1.065)" xlink:href="#SLICE"/>
<use id="inner" transform="scale(.975)" xlink:href="#SLICE"/>
</defs>
<g transform="scale(1,-1)">
<path d="m226,0a226,226 0 1,0 -452,0 226,226 0 1,0 452,0"/>
<g id="dartboard">
<use fill="#f00" xlink:href="#double"/>
<use xlink:href="#outer"/>
<use fill="#f00" xlink:href="#triple"/>
<use xlink:href="#inner"/>
<g transform="rotate(18)">
<use fill="#008000" xlink:href="#double"/>
<use fill="#fff" xlink:href="#outer"/>
<use fill="#008000" xlink:href="#triple"/>
<use fill="#fff" xlink:href="#inner"/>
</g>
<g transform="rotate(36)">
<use fill="#f00" xlink:href="#double"/>
<use xlink:href="#outer"/>
<use fill="#f00" xlink:href="#triple"/>
<use xlink:href="#inner"/>
</g>
<g transform="rotate(54)">
<use fill="#008000" xlink:href="#double"/>
<use fill="#fff" xlink:href="#outer"/>
<use fill="#008000" xlink:href="#triple"/>
<use fill="#fff" xlink:href="#inner"/>
</g>
<g transform="rotate(72)">
<use fill="#f00" xlink:href="#double"/>
<use xlink:href="#outer"/>
<use fill="#f00" xlink:href="#triple"/>
<use xlink:href="#inner"/>
</g>
<g transform="rotate(90)">
<use fill="#008000" xlink:href="#double"/>
<use fill="#fff" xlink:href="#outer"/>
<use fill="#008000" xlink:href="#triple"/>
<use fill="#fff" xlink:href="#inner"/>
</g>
<g transform="rotate(108)">
<use fill="#f00" xlink:href="#double"/>
<use xlink:href="#outer"/>
<use fill="#f00" xlink:href="#triple"/>
<use xlink:href="#inner"/>
</g>
<g transform="rotate(126)">
<use fill="#008000" xlink:href="#double"/>
<use fill="#fff" xlink:href="#outer"/>
<use fill="#008000" xlink:href="#triple"/>
<use fill="#fff" xlink:href="#inner"/>
</g>
<g transform="rotate(144)">
<use fill="#f00" xlink:href="#double"/>
<use xlink:href="#outer"/>
<use fill="#f00" xlink:href="#triple"/>
<use xlink:href="#inner"/>
</g>
<g transform="rotate(162)">
<use fill="#008000" xlink:href="#double"/>
<use fill="#fff" xlink:href="#outer"/>
<use fill="#008000" xlink:href="#triple"/>
<use fill="#fff" xlink:href="#inner"/>
</g>
<g transform="rotate(180)">
<use fill="#f00" xlink:href="#double"/>
<use xlink:href="#outer"/>
<use fill="#f00" xlink:href="#triple"/>
<use xlink:href="#inner"/>
</g>
<g transform="rotate(198)">
<use fill="#008000" xlink:href="#double"/>
<use fill="#fff" xlink:href="#outer"/>
<use fill="#008000" xlink:href="#triple"/>
<use fill="#fff" xlink:href="#inner"/>
</g>
<g transform="rotate(216)">
<use fill="#f00" xlink:href="#double"/>
<use xlink:href="#outer"/>
<use fill="#f00" xlink:href="#triple"/>
<use xlink:href="#inner"/>
</g>
<g transform="rotate(234)">
<use fill="#008000" xlink:href="#double"/>
<use fill="#fff" xlink:href="#outer"/>
<use fill="#008000" xlink:href="#triple"/>
<use fill="#fff" xlink:href="#inner"/>
</g>
<g transform="rotate(252)">
<use fill="#f00" xlink:href="#double"/>
<use xlink:href="#outer"/>
<use fill="#f00" xlink:href="#triple"/>
<use xlink:href="#inner"/>
</g>
<g transform="rotate(270)">
<use fill="#008000" xlink:href="#double"/>
<use fill="#fff" xlink:href="#outer"/>
<use fill="#008000" xlink:href="#triple"/>
<use fill="#fff" xlink:href="#inner"/>
</g>
<g transform="rotate(288)">
<use fill="#f00" xlink:href="#double"/>
<use xlink:href="#outer"/>
<use fill="#f00" xlink:href="#triple"/>
<use xlink:href="#inner"/>
</g>
<g transform="rotate(306)">
<use fill="#008000" xlink:href="#double"/>
<use fill="#fff" xlink:href="#outer"/>
<use fill="#008000" xlink:href="#triple"/>
<use fill="#fff" xlink:href="#inner"/>
</g>
<g transform="rotate(324)">
<use fill="#f00" xlink:href="#double"/>
<use xlink:href="#outer"/>
<use fill="#f00" xlink:href="#triple"/>
<use xlink:href="#inner"/>
</g>
<g transform="rotate(342)">
<use fill="#008000" xlink:href="#double"/>
<use fill="#fff" xlink:href="#outer"/>
<use fill="#008000" xlink:href="#triple"/>
<use fill="#fff" xlink:href="#inner"/>
</g>
<path d="m16.4,0a16.4,16.4 0 1,0 -32.8,0 16.4,16.4 0 1,0 32.8,0" fill="#008000"/>
<path d="m6.85,0a6.85,6.85 0 1,0 -13.7,0 6.85,6.85 0 1,0 13.7,0" fill="#f00"/>
<g id="grid">
<use xlink:href="#refwire"/>
<use transform="rotate(18)" xlink:href="#refwire"/>
<use transform="rotate(36)" xlink:href="#refwire"/>
<use transform="rotate(54)" xlink:href="#refwire"/>
<use transform="rotate(72)" xlink:href="#refwire"/>
<use transform="rotate(90)" xlink:href="#refwire"/>
<use transform="rotate(108)" xlink:href="#refwire"/>
<use transform="rotate(126)" xlink:href="#refwire"/>
<use transform="rotate(144)" xlink:href="#refwire"/>
<use transform="rotate(162)" xlink:href="#refwire"/>
<use transform="rotate(180)" xlink:href="#refwire"/>
<use transform="rotate(198)" xlink:href="#refwire"/>
<use transform="rotate(216)" xlink:href="#refwire"/>
<use transform="rotate(234)" xlink:href="#refwire"/>
<use transform="rotate(252)" xlink:href="#refwire"/>
<use transform="rotate(270)" xlink:href="#refwire"/>
<use transform="rotate(288)" xlink:href="#refwire"/>
<use transform="rotate(306)" xlink:href="#refwire"/>
<use transform="rotate(324)" xlink:href="#refwire"/>
<use transform="rotate(342)" xlink:href="#refwire"/>
<path d="m169.5,0a169.5,169.5 0 1,0 -339,0 169.5,169.5 0 1,0 339,0" fill="none" stroke="#c0c0c0"/>
<path d="m160.5,0a160.5,160.5 0 1,0 -321,0 160.5,160.5 0 1,0 321,0" fill="none" stroke="#c0c0c0"/>
<path d="m106.5,0a106.5,106.5 0 1,0 -213,0 106.5,106.5 0 1,0 213,0" fill="none" stroke="#c0c0c0"/>
<path d="m97.5,0a97.5,97.5 0 1,0 -195,0 97.5,97.5 0 1,0 195,0" fill="none" stroke="#c0c0c0"/>
<path d="m16.4,0a16.4,16.4 0 1,0 -32.8,0 16.4,16.4 0 1,0 32.8,0" fill="none" stroke="#c0c0c0"/>
<path d="m6.85,0a6.85,6.85 0 1,0 -13.7,0 6.85,6.85 0 1,0 13.7,0" fill="none" stroke="#c0c0c0"/>
</g>
</g>
</g>
<g id="numbers" pointer-events="none">
<text fill="#c0c0c0" font-size="30" font-weight="200" text-anchor="middle" transform="rotate(90)" y="-200">6</text>
<text fill="#c0c0c0" font-size="30" font-weight="200" text-anchor="middle" transform="rotate(72)" y="-200">13</text>
<text fill="#c0c0c0" font-size="30" font-weight="200" text-anchor="middle" transform="rotate(54)" y="-200">4</text>
<text fill="#c0c0c0" font-size="30" font-weight="200" text-anchor="middle" transform="rotate(36)" y="-200">18</text>
<text fill="#c0c0c0" font-size="30" font-weight="200" text-anchor="middle" transform="rotate(18)" y="-200">1</text>
<text fill="#c0c0c0" font-size="30" font-weight="200" text-anchor="middle" y="-200">20</text>
<text fill="#c0c0c0" font-size="30" font-weight="200" text-anchor="middle" transform="rotate(342)" y="-200">5</text>
<text fill="#c0c0c0" font-size="30" font-weight="200" text-anchor="middle" transform="rotate(324)" y="-200">12</text>
<text fill="#c0c0c0" font-size="30" font-weight="200" text-anchor="middle" transform="rotate(306)" y="-200">9</text>
<text fill="#c0c0c0" font-size="30" font-weight="200" text-anchor="middle" transform="rotate(288)" y="-200">14</text>
<text fill="#c0c0c0" font-size="30" font-weight="200" text-anchor="middle" transform="rotate(270)" y="-200">11</text>
<text fill="#c0c0c0" font-size="30" font-weight="200" text-anchor="middle" transform="rotate(72)" y="220">8</text>
<text fill="#c0c0c0" font-size="30" font-weight="200" text-anchor="middle" transform="rotate(54)" y="220">16</text>
<text fill="#c0c0c0" font-size="30" font-weight="200" text-anchor="middle" transform="rotate(36)" y="220">7</text>
<text fill="#c0c0c0" font-size="30" font-weight="200" text-anchor="middle" transform="rotate(18)" y="220">19</text>
<text fill="#c0c0c0" font-size="30" font-weight="200" text-anchor="middle" y="220">3</text>
<text fill="#c0c0c0" font-size="30" font-weight="200" text-anchor="middle" transform="rotate(342)" y="220">17</text>
<text fill="#c0c0c0" font-size="30" font-weight="200" text-anchor="middle" transform="rotate(324)" y="220">2</text>
<text fill="#c0c0c0" font-size="30" font-weight="200" text-anchor="middle" transform="rotate(306)" y="220">15</text>
<text fill="#c0c0c0" font-size="30" font-weight="200" text-anchor="middle" transform="rotate(288)" y="220">10</text>
</g>
</svg>
