<?xml version="1.0" encoding="UTF-8" standalone="no"?>
<!DOCTYPE svg PUBLIC "-//W3C//DTD SVG 1.0//EN" "http://www.w3.org/TR/2001/REC-SVG-20010904/DTD/svg10.dtd" [
<!ENTITY ns_flows "http://ns.adobe.com/Flows/1.0/">
	<!ENTITY ns_extend "http://ns.adobe.com/Extensibility/1.0/">
	<!ENTITY ns_ai "http://ns.adobe.com/AdobeIllustrator/10.0/">
	<!ENTITY ns_graphs "http://ns.adobe.com/Graphs/1.0/">
	<!ENTITY ns_vars "http://ns.adobe.com/Variables/1.0/">
	<!ENTITY ns_imrep "http://ns.adobe.com/ImageReplacement/1.0/">
	<!ENTITY ns_sfw "http://ns.adobe.com/SaveForWeb/1.0/">
	<!ENTITY ns_custom "http://ns.adobe.com/GenericCustomNamespace/1.0/">
	<!ENTITY ns_adobe_xpath "http://ns.adobe.com/XPath/1.0/">
	<!ENTITY ns_svg "http://www.w3.org/2000/svg">
	<!ENTITY ns_xlink "http://www.w3.org/1999/xlink">
]>
<svg enable-background="new 0 0 400.603 358.685" height="358.68" viewBox="0 0 400.603 358.685" width="400.6" xml:space="preserve" xmlns="http://www.w3.org/2000/svg">
	
		
		
			
				<g fill-rule="evenodd">
						<path d="m2.133,267.31c25.389-7.521 34.926-51.717 44.33-72.809 1.747-8.061 2.418-30.763 9.403-43.526 4.836-10.881 11.284-9.132 14.105-19.073 2.285-7.256 10.478-16.389 15.181-20.285-2.822-7.388-11.016-15.044-9.001-24.046 .135-1.209 1.478-2.955 2.553-2.82 8.193-.538 15.985,12.895 22.433,19.748 20.553-1.075 42.718-5.24 63.541-1.209 25.12.805 63.542-15.718 87.317-21.225 9.673-13.972 47.957-57.227 55.481-61.795 0,.135-7.927-19.882 20.553-15.314 4.703,2.688 8.598-11.687 20.554,1.613 8.328-1.88 18.135-4.165 24.181.805 2.82,2.688 4.434,9.539 7.389,16.657 10.344,8.463-2.553,8.196 5.775,15.719 4.703,0 7.926,2.551 11.419,6.582 1.21,2.285-2.686,3.762-2.418,6.315 3.628,9.269 7.524,10.344 2.418,16.657-3.358,4.298-16.522,16.389-26.732,8.731-4.434.805-15.45,11.016-26.062-4.971-5.911.27-16.119,13.971-19.479,22.165-1.745,8.195-3.223,13.299-2.013,18.807 .535,6.181 1.478,14.373 2.955,23.643 3.896,14.912 1.881,22.835-.271,34.657-2.417,6.583-19.209,24.582-20.687,39.629-.271,21.092-3.358,38.554-4.836,59.105-.808,11.69-4.3,36.675-4.03,46.885 2.418,4.836 6.313,4.166 7.523,6.316 .537,2.011 0,2.011 0,3.761-9.807,6.851-22.703,2.015-24.987-1.479-2.149-4.03-.133-11.552 0-13.972 .402-4.701 1.074-10.207-.268-11.417-1.21-1.345-2.419-.939-3.629-3.494-.268-4.162 1.881-8.597 2.017-14.238 .672-10.881.269-22.166.672-30.093-.135-2.016 1.208-6.716-.672-8.731-5.374,1.48-11.017,47.151-10.21,63.407 .133,1.88-3.628,27.003.94,36.135 3.896,4.3 8.463,6.315 8.194,6.986 1.88.805 1.075,1.749.134,3.629-5.91,4.296-24.046,4.701-25.658-3.359-1.343-10.747 2.151-18.672 1.344-25.522-.671-7.928-3.493-24.049-4.701-28.213 6.179-10.611-1.074-43.255-1.345-55.077-1.746-9.807-1.746-25.928-9.134-32.509-11.149.539-23.508-4.701-34.659-4.03-4.433-4.971-17.465-7.387-23.508-10.208-8.061-3.629-18.002-14.646-26.732-16.256-.538.135-1.21,0-1.748,0 1.21,4.03-.539,15.986-1.611,18.942-1.748,8.865-3.627,22.163-14.374,34.524-5.374,8.195-5.106,7.12-9.269,11.821-15.449,10.746-15.852,22.032-14.779,27.538 1.345,5.91 4.568,19.882 11.688,21.897 11.015-2.42 16.657,6.312 19.21,9.536-4.298,2.15-4.971,2.016-9.404,2.419-2.955.401-11.956,0-15.046-.134-1.746-2.016-2.015-2.016-4.701-2.955-2.417-1.346-3.627.135-5.911-2.821-1.478-2.688-4.97-6.18-5.373-8.195-3.628-8.731-4.971-10.478-7.254-20.151-2.015-7.387-6.18-14.237-3.896-20.688 1.208-3.49 14.372-9.401 17.194-19.342 2.283-9.672 1.208-27.674-4.837-40.436-5.642,3.896-14.238,17.867-18.268,23.239-4.568,9.271-10.479,13.57-20.554,21.227-6.313,3.896-14.642,15.047-21.358,20.553-3.09,1.745-18.674,18.942-20.957,22.167-3.358,4.7-6.046,29.954-1.075,42.18 1.075,3.09 5.777,4.432 7.523,6.446 .135,1.345.135,2.689.268,4.166-6.716,4.435-19.613,4.029-25.121-1.881-2.417-4.835.672-13.03.808-27.269-1.588-14.54-2.393-33.35-.513-35.09z" fill="#b78551" stroke="#000" stroke-linejoin="round" stroke-miterlimit="2.4142" stroke-width="1.944"></path>
					<path d="m314.06,27.117c-.269,3.896-3.357,8.463-.537,11.284 2.554,5.508 9.672,7.121 13.702,14.509 .673,3.493 9.001,6.986 12.762,12.359 1.88,2.015 6.313,7.253 8.061,7.253 .673,3.225 5.238,5.24 5.105,1.747 10.746,5.508 19.747-4.97 27.806-10.076-1.61,5.24-8.463,11.554-10.88,12.762-11.284,6.448-18.808,5.105-25.256-4.971-4.566.672-11.552,8.061-16.12,15.046-4.971,1.208-3.224-1.343-3.224-2.15 2.419-3.224 10.747-8.194 8.732-13.299-4.031,0-.402-1.208-2.15-1.075-2.686,2.285-9.807,11.016-11.553,11.15-.671-.807 4.971-10.343 7.255-13.701-5.911-1.612-12.896-4.03-19.747-13.836-2.554-3.09-5.644-10.211 2.819-10.479-.402-.807-1.478-2.015-5.373-2.285-1.745-.132-3.09-3.626-4.299-.132-.939,3.625.538,5.641 2.149,8.059 2.149,6.851-2.149,9.404-.671,14.777-1.612,8.866-3.493,17.33-5.373,26.733-1.345,3.762-1.612,4.3-2.554.538-.939-6.582-10.745-16.254-7.253-26.733 .94-5.641 5.238-6.448 8.06-8.732 3.357-2.015 2.688-6.448-1.075-4.835 0-1.478 1.478-5.105 1.345-6.583 1.478-4.03 5.372-11.687 6.986-15.852 .402-.67.939-1.478 1.477-2.148-.27-.405-.537-.808-.941-1.076-2.552.133-6.044,13.837-8.598,15.045-15.313,10.748-28.345,26.33-33.718,47.42 1.074,4.165-2.016,5.777.807,11.418-3.089-3.09-2.822-8.463-3.492-9.134-1.345-2.688-2.418-1.748-3.091.806-1.21,6.716 7.389,15.717 9.672,19.612 0,1.075 2.417,2.822 3.09,7.523-2.553.135-8.061-3.896-10.075-7.121-2.956-6.581-3.358-9.401-5.911-15.717 0-4.03-3.358-5.373-6.716-5.104-4.701.268-8.062,10.477-15.987,10.881-1.072-.672-5.641-3.09-5.506-1.478 .67,6.582 4.164,12.359 6.581,15.85-3.357.135-5.911-4.836-6.985-6.851-.94-2.016-5.104-7.521-8.059-7.926-8.599,1.075-25.121,12.494-33.584,12.091-4.97-6.313-16.792-6.716-23.509-3.627-14.105,4.03-44.466-5.776-58.302-.806-.67-.672 1.478-2.15.94-2.956 15.314-.805 44.871-5.373 63.273-1.075 19.077,2.418 81.407-20.957 87.99-21.09 6.181-9.806 48.36-58.302 56.287-62.735-1.478-3.627-1.881-8.733 1.21-12.224l-.402.67c-.136,2.687-.405,2.82 2.012,4.703 1.345-.27 1.612,12.896 6.181,17.194 2.419,3.09 3.629,4.568 6.046,6.716-5.51-1.853-9.01-9.51-9.41-10.317m-237.64,60.317c.27.94.941,1.21 1.345,2.283 2.417,9.403 7.388,13.569 11.014,19.882 .135,2.015-1.073.808-.94,2.956-5.104.269-11.957,17.194-13.434,21.359-.67,4.166-3.491,4.566-5.911,5.776-10.477,6.986-11.822,21.493-8.329,22.835 7.121,13.434-2.418,1.745-8.464,2.688 1.076-4.703 3.36-11.151 5.643-14.912 2.956-8.866 13.434-10.881 13.702-18.268 3.09-7.791 9.403-15.314 15.717-21.092-3.489-8.75-12.625-14.525-10.343-23.526m-26.597,93.766c3.762,23.376-12.762,52.391-21.896,70.528-6.986,11.417-14.509,20.417-22.032,19.612-2.283-.135-2.418,5.376-2.283,7.391 .805,2.416 2.821,3.221 3.626,4.029 1.075,1.611-1.611.267-1.611,2.013-.402,5.51 1.343,16.121-.807,16.791-1.88,1.21-1.478,21.898-1.746,29.019-.672-.27.135-.94-.402-1.611-2.285-4.971 1.478-21.361.67-26.867-1.88-17.867-2.148-34.255-.133-33.988 23.776-7.791 33.179-44.597 44.598-73.345 .404-1.34 1.748-11.14 2.016-13.56m-31.837,103.97c.806-2.015 1.208-5.641 2.283-6.985 13.702-15.986 27.271-29.014 41.645-43.255 8.596-4.836 15.852-10.611 20.418-20.418 1.075-1.479 14.239-20.017 19.209-22.973 11.687,20.419 11.017,50.646-11.283,60.317-2.283,5.776 6.045,26.463 9.806,34.389 3.896-4.835 5.105-8.865 5.105-10.477 2.148-3.225 1.61-4.835 3.088-6.045-.268-10.746 7.256-20.017 16.389-25.258 4.433-5.236 8.196-10.207 9.806-14.103 9.673-9.54 15.046-37.884 14.776-52.125l3.361.809c6.716.94 21.627,14.908 25.388,15.582 7.523,3.222 18.137,4.701 24.315,10.208 9-.671 27.673,6.315 34.256,5.105 5.238,5.51 8.731,12.226 10.882,31.567 1.342,15.183 4.971,40.57 2.417,53.737 8.329,9.135-3.225-129.23-.808-76.169-4.297-3.091-4.7-8.731-8.193-8.866-1.074.536-2.418,1.075-4.298-.806-.135-5.24 4.701-7.525 5.373-9.671 1.612-2.15 2.687-6.986.537-9.271-1.612-2.15-8.195-7.791-8.463-16.121-1.074,10.88-11.687-3.493-6.851,6.449 12.896,15.447 5.776,26.329-2.286,22.028-40.836-1.34-51.583-29.82-64.479-29.283 1.478,1.478 2.955,3.625 3.761,5.374-17.598-4.704-54.942-4.166-70.524,16.388-18.405,10.345-13.031,25.388-31.301,35.599-14.239,8.061-23.508,28.343-39.494,37.345-4.04,2.43-5.786,13.84-4.846,16.93m270.42-102.36c-2.016,3.09-5.508,8.462-7.793,12.222-4.163,18.808-2.283,30.629-3.625,49.706 2.015,2.686.134,6.445.67,8.73-.268,2.284-.268,8.866-.268,12.091h1.745c-.67-7.521.27-27.808 1.345-26.328 .402,1.206 1.478-.135 1.478,2.146-.136,8.197-2.285,27.139.671,27.81 1.612-1.747 3.492-5.507 2.149-9.268-2.552-1.88-1.074-4.569-.402-6.315 .67,0 1.478,1.611 2.553-1.21 .537-3.76-.538-13.971-.808-16.521 1.21-1.746 2.822.404 2.554,1.074-.807,2.686.269,6.046.537,8.327 .805.944 2.82,1.074 4.165.81 .133,1.074 3.358-1.48 3.493-.405 3.76-10.611 1.207-24.178 8.461-33.854 .672-14.912 23.51-39.762 20.823-41.374-4.299,11.285-20.823,21.626-22.434,26.062-4.434,1.746-7.523,9.402-15.314,10.211 6.852-3.225 6.985-5.915 8.194-8.735-1.075-2.686-6.716,2.82-8.599,2.419-1.073-2.15 1.883-5.105 4.435-6.315s10.612-12.087 10.345-15.178c-2.554.135-6.719,2.551-8.331,4.566-2.53.26-5.22-.68-6.03-.68" fill="#ad7d4c"></path>
					<path d="m303.18,25.639c-2.554.27-6.181,12.896-8.465,14.644-18.403,13.432-30.225,31.434-33.718,47.688 .402,8.329-2.282,4.165.672,11.284-1.88-2.015-2.954-6.045-3.09-9.134-2.016-2.285-1.612-2.285-3.358.133-.537,8.329 4.164,11.553 9.538,20.284 1.746,2.688 2.419,3.09 2.956,7.121 2.014,4.969 6.716,9.404 11.015,11.82-1.745-7.791-2.016-22.701 8.598-14.91 4.298-5.238-1.343-9.671 6.583-15.582 1.746-2.016.134-5.644.805-7.658-2.149-9.269-10.208-15.044-7.388-26.599 1.478-5.373 4.434-5.775 8.194-8.731 3.492-2.956 2.284-6.18-1.075-5.24 .404-1.61 1.075-4.164 1.478-6.178 2.015-5.508 4.567-10.344 6.718-15.852 1.343-2.283.671-1.209 1.745-2.283-.53-.538-.4-.808-1.2-.808m-74.16,75.361c-3.627-1.882-2.283-2.015-5.238-1.882 .402,7.926 7.925,22.703 17.598,24.047 29.419,19.343 24.985,34.522 30.764,62.599 10.746-3.225 21.627-25.524 16.925-38.15-6.985-18.407-20.418-14.777-28.076-27.539-3.09-8.463-6.046-17.06-9.135-25.523 .134-3.896-5.239-4.568-6.18-4.433-5.75-.128-7.37,10.486-16.64,10.886m-135,13.17c.133-2.82 1.879-4.703 6.716-6.046 15.985-4.701 42.853,5.374 58.302.672 5.911-2.687 19.075-2.015 22.702,3.896 5.775,10.879-6.583,38.283-12.359,27.671-19.209-29.552-27.54-28.074-59.108-24.716 5.37-1.61-22.564,42.32-16.251-1.47m214.94-105.32c-.672,2.956.271,3.225 2.418,4.703 1.747,1.478 1.074,11.284 6.045,17.329-2.149-6.583-5.775-21.763-2.015-21.629 3.627,1.075 1.21,8.598 3.09,11.016 3.089-8.194 4.836-7.253 9.135-7.523 1.88.135 3.896-4.433 3.225-6.448-1.478.94-1.478-1.611-4.434-.806-.538.806-.538,2.015-1.612,2.284-2.282.807-5.238-2.418-8.328-2.551-2.95-.137-6.31,2.55-7.51,3.625" fill="#c28d56"></path>
					<path d="m81.123,85.419c-3.09-1.343-4.166,1.612-3.358,4.03 2.283,9.941 6.044,11.284 11.014,20.285 3.36-3.493 6.718-4.298 12.089-5.239-8.061-4.03-11.686-17.594-19.747-19.071m306.56-38.285c1.343,2.283 4.566,1.745 6.582.268v.94c-1.208,1.478-5.373,2.016-6.582-.268v-.94m-33.86,30.224c2.284,7.39 7.522,2.552 11.554-.941-4.16,1.346-8.19,4.569-11.55.941m32.11-6.581c4.703-3.763 6.719-8.329 9.001-2.285 .538-2.148 1.344-3.896-.268-5.104-3.49-.94-8.06,2.821-8.73,7.389m-72.14-43.795c4.836,9 9.136,11.956 17.732,11.553 1.612-.537 2.417-1.477 2.417-3.358 1.478-3.763-2.148-12.091.271-13.434 10.075-4.568 12.761-14.509 17.06-15.18 6.852-.403 15.719-5.373 19.479,6.045 .94,2.955 4.97,4.836 6.851,6.851 .135,3.625-.939,10.611.135,12.492 2.418.807 5.911,6.315 8.193,7.658-.805,1.745-.402,1.208.135,3.224 1.478-.133 2.016-2.687 3.358-2.149 1.21.268 2.016.67 3.492,1.88-3.223,1.208-4.971,5.238-6.715,3.493-.94-1.075-2.688-3.09-4.434-2.956-.404,1.208 2.148,3.09 1.073,5.238-7.254.403-3.088,4.166.271.403 2.685-.133 4.699.134 6.716,1.209 1.882.672 2.552,1.075 2.822,2.956-1.612,7.791-9.674,15.851-17.33,8.328 12.491-8.866 1.478-6.851 0-2.283-1.478,1.61-2.688-3.358-4.971-2.822-2.15.135-2.688,1.478-4.03,3.359 1.745,2.82.402,4.701-1.747.133-.939-1.746-.805,4.703-2.148,4.568-2.553.537-6.718-1.478-6.448-4.163-.135-3.225 6.046,2.013 9.27-3.628 4.029-6.583-9.539-5.238 3.627-13.568-3.895-9.135 4.568-4.164 6.448-8.731-2.015-7.389 1.881-11.419-5.104-15.314-9.404.538-10.882,2.15-17.598,10.208-2.286-.805-1.345-1.746-.672-4.163 1.477-4.835 10.208-10.746 13.701-11.016-.402-6.178-3.493-2.956-6.179-2.686-3.226,4.298-10.614,9.806-12.091,15.044-.806,3.225-1.343,7.389-2.955,9.539-2.956-6.046 2.822-10.479 2.552-15.717-6.178-3.225-17.597,6.984-3.896,4.163 1.344,1.343-4.836,6.583-7.12,14.106-1.343,4.433-5.104,1.478-5.776,5.506-1.207,5.375 11.419,17.599 9.673,21.226-2.822-4.164-10.88-7.792-12.628-11.822-4.03-7.791-11.687-10.074-13.702-14.777-2.81-3.489.55-6.982.28-11.415m27.27-25.253c-5.644,1.61-9.672,19.209-8.732,25.388 .538,3.09 1.075,7.926-.135,9.673-1.342,1.343-5.104,1.746-7.388.403-3.492-3.762-5.509-8.061-4.299-14.776 1.344-2.285 2.419-3.226 4.164-1.21 .135,3.493 4.165,17.062 5.777,6.718-.94-4.971 2.95-25.794 10.61-26.196m-30.23,42.045c-8.73.404-5.238,6.853-2.955,10.479 9.269,11.554 13.032,11.284 19.883,13.704-1.21,1.746-7.926,12.761-7.255,13.567 .941.538 9.537-9.134 11.553-11.016 1.748-.133-1.881,1.075 2.15,1.075 2.015,5.508-8.194,11.418-8.867,13.434-.402,3.358.94,2.956 3.091,2.821-2.418,3.895-3.091,4.97-4.703,8.598-.939,4.298-3.224,12.627-2.015,18.135 .939,7.119 2.417,16.656 3.492,23.241-.805.134-.94,6.312-.805,2.82 .402-3.359-1.21-11.957-2.688-14.241-3.09,16.792 8.463,19.882 2.688,45.002-6.584,13.57-16.121,17.061-22.032,25.122-5.104,3.09-6.448,9.402-13.97,10.076 4.163-2.15 6.582-3.36 8.059-8.6-.402-2.821-6.984,2.82-8.463,2.419 .135,0-1.611-2.686 4.435-6.45 4.028-2.551 10.074-11.687 10.345-14.777-2.824-.266-5.911,2.015-8.465,4.3-1.747,0-4.836-.404-5.91-.67-.538-4.3 6.582-6.449 6.582-13.703-.672-3.762 2.015-7.255-.538-10.344-.94-.94-2.686-1.882-1.881-4.028-5.238-15.316-9.806-22.302-10.478-34.794 .269-7.253 2.015-1.343 5.776-3.358 3.761-2.553 3.358-6.851 3.761-11.687 .94-4.166 3.226.402 4.031-5.374 .94-7.121 6.851-27.405 6.716-35.599-.537-7.121 2.955-7.793.94-14.644-2.821-3.626-2.687-5.641-2.149-8.193 1.076-3.226 2.419,0 4.434.267 1.63.269 4.18.404 5.25,2.417m-31.56,221.66c1.343,8.597 1.343,20.957-.67,32.108-.135.94 1.609,2.552 4.7,3.896 4.567.67.94,6.58 2.955,12.491 3.493-.27 6.448.67 9.002-.536 0-6.18 2.552-25.658.805-18.406-5.104-.135-2.553-6.985-2.553-13.836 .404-2.821-2.82,1.345-4.298-.807-1.613-2.685-1.21-7.254 1.21-10.477 1.072-2.554-1.882-2.554-1.21-5.104 2.015-8.061 4.702-10.076 4.165-18.942-1.612.405-3.09.535-4.3-.805-.134-3.091-1.075-5.105-.402-8.196-.538-1.745-1.479-1.745-2.687-.939 .94,4.97 1.208,10.881.94,16.521-.808,1.75-1.21,2.017-2.553,1.21-1.344,2.42-1.747,4.836.268,6.181 1.478,3.225-.268,7.655-2.015,9.537-2.821-.271-1.074-19.883-.671-28.074-.136-2.285-.808-.674-1.075-2.15-1.77-2.55-2.57,20.43-1.63,26.34m-45.54-91.08c.27,6.18 4.971,12.09 8.598,16.121 2.15,2.285 1.21,7.521-.402,9.271-1.612,2.686-5.643,5.641-5.508,9.671 .939.94 2.149,1.881 4.433.806 3.359,0 4.299,6.446 8.193,8.866 1.883-4.031-.402-6.181-1.478-10.346-1.207-4.836 3.896-9.402 2.688-14.642-1.612-9.671-8.463-14.372-9-23.239-.4-6.18-6.31-4.44-7.52,3.49m-140.65,21.76c16.388-21.897 53.062-22.03 71.332-17.193-15.853-27.27-34.123,4.297-51.721-15.315-2.69-4.03-17.061,16.39-19.611,32.51m47.151,13.03c.268,5.24-2.956,9.536-5.374,12.762 .133,2.15 1.073,3.09 1.073,5.105-7.521,13.702-23.105,24.718-28.479,28.613-1.075,1.61-11.687-.404-8.329,6.581 1.746,1.345 5.374.809 6.314,3.896 .27,4.969-2.016,3.763-.403,9.27 1.478-2.149 3.09-4.7 4.166-5.507 2.686,12.088 5.104,20.688 12.089,24.718-4.568,1.072-5.508,5.237-7.791,8.998-1.21-1.341-2.553-2.146-3.763-3.49-5.506-.807-7.521-4.031-10.344-9.271-.133-3.087-1.478-4.566 1.075-4.835 .135,2.955-.94-25.39-7.253-22.434-2.418-.671-1.746-6.985.672-8.866 8.329-5.776 13.97-7.39 17.597-19.077 2.016-6.58 5.508-.939 9.27-3.625 4.567-1.881 6.851-6.45 4.97-10.477-4.03.4-14.777-8.331.94-8.466 .672-3.355 6.448-4.565 2.955-10.477 8.98-14.5 7.77.95 10.59,6.59m-136.35,58.44c15.449-1.21 26.732-19.346 30.091-34.123-8.329,15.71-16.657,30.76-30.091,34.12m64.749-128.16c-.67,6.851 4.031,9.136 4.031,11.151-1.21,1.61-3.761,3.09-4.971,3.491-3.09.94-6.313,6.718-7.388,8.598-.94-.672-1.478-2.015-1.746-2.956-.942-7.25 4.702-17.05 10.074-20.28m-40.569,112.04c-5.911,9.405-13.567,20.821-22.165,19.882-2.553.27-2.418,6.315-2.283,7.256 .67,2.149 1.88,2.82 3.626,4.03 1.075,1.88-1.611.266-1.611,2.146-.402,5.51 1.478,17.061-.807,16.661-1.88,1.88-1.073,24.717-1.611,28.879 2.686,1.075 6.984,2.955 7.656-.132 .94,3.491 4.568,3.222 7.121,3.087 3.626-.266 4.03-2.955 3.896-5.102 .135,4.161 3.493,3.626 4.836,1.61 .268-3.09-2.688-3.36-5.643-5.642-2.014-.939-3.491-2.015-4.029-3.629-4.703-16.118-.94-31.969.268-44.601-2.149.811-4.298,5.511-6.583,5.511 0,0-3.223-2.016-2.283-4.7 9.671-7.14 15.449-12.24 19.612-25.27m316.49-247.45c.269,3.896-4.433,8.061-6.985,9.134 0,.942-.538,2.419.537,2.15 3.493-1.88 8.329-5.238 9.807-8.731-.94-.941-2.55-2.553-3.36-2.553m-4.56,29.956c-1.881,5.373-2.956,13.166-.671,19.747 2.418,7.121 9.404,11.821 8.731,18.807 .402,3.225 5.509,5.24 5.105,1.612-1.882-3.896-3.36-6.851-2.15-9.671 .537-2.553 3.224-2.15 3.224-4.3-1.343-3.626-1.88-7.926-.538-12.359-2.014-1.745-2.686-.67-3.358,2.15-1.074,2.418 0,6.986.539,10.344-4.031,1.343-2.821-14.509-3.626-19.479-3.493.135-2.42,5.911-4.839,6.448-1.609-3.223-1.88-4.836-.402-8.194 1.61-2.687 1.08-7.791-2.01-5.105" fill="#cd945a"></path>
					<path d="m281.15,327.62c3.493,1.48 11.286,3.091 13.166,2.016-.402-6.314-5.104-9.536 3.626-.806 2.15,1.21 2.688-1.345 4.839-1.88-2.017-3.359-5.106-6.315-8.331-8.33-6.6-1.88-11.57-.4-13.31,9m-27.54,26.07c3.493,1.61 10.613,3.626 12.629,2.551-.27-6.181-5.105-9.537 3.626-.807 2.015,1.345 3.225-.67 5.373-1.209-1.881-3.356-3.223-6.852-8.866-9.001-6.45-1.88-11.01-.53-12.76,8.47m-248.66-22.57c3.493,1.611 10.882,2.956 12.762,1.881-.268-6.315-5.104-9.675 3.627-.81 2.15,1.21 3.358-.805 5.508-1.342-.94-4.569-9.001-10.075-15.047-9.535-4.298,2-6.045,5.9-6.85,9.8m112.17-25.93c3.493.27 11.553,0 12.628.135-3.358-9.136.135-6.314 5.238-.539 2.15,1.21 3.09,0 4.838-.671-3.898-5.374-7.658-9.537-16.257-9.405-4.16,2.16-5.64,6.6-6.45,10.49" fill="#995429"></path>
					<path d="m362.02,28.729c-1.747,0-2.822,3.223-4.971,3.223 .134,1.747.94,2.016 1.881,3.09 2.282.672 4.836-.402 4.836-4.298-.55-1.075-1.21-1.477-1.75-2.015m35.06,18.136c-1.882-2.821-6.315-6.717-11.286-6.986-1.343,1.21-2.82,2.15-4.299,3.359 1.479,3.761 9.942,7.521 13.032,9.269 .14-1.881 2.96-3.762 2.56-5.642"></path>
						<path d="m308.82,8.31c-.537,3.225.405,4.165 2.688,5.24 1.342,2.82.939,10.208 5.641,17.06 2.285,2.688 3.764,4.433 5.913,6.718 3.626.94 7.253,1.343 9.268-.538 .941-1.209.404-5.643.134-9.673-.402-3.896 0-7.791 1.075-11.957 1.345-5.103 4.03-12.492 7.926-14.239" fill="none" stroke="#000" stroke-miterlimit="2.4142" stroke-width=".216"></path>
						<path d="m101.41,191.94c14.644-9.537 34.391-12.762 48.227-11.953" fill="none" stroke="#000" stroke-linecap="round" stroke-linejoin="round" stroke-miterlimit="2.4142" stroke-width=".72"></path>
				</g>
			
		
	
</svg>
