<?xml version="1.0" encoding="utf-8"?>
<!-- Generator: Adobe Illustrator 17.1.0, SVG Export Plug-In . SVG Version: 6.00 Build 0)  -->
<!DOCTYPE svg PUBLIC "-//W3C//DTD SVG 1.1//EN" "http://www.w3.org/Graphics/SVG/1.1/DTD/svg11.dtd">
<svg version="1.1" id="Lager_1" xmlns="http://www.w3.org/2000/svg" xmlns:xlink="http://www.w3.org/1999/xlink" x="0px" y="0px"
	 viewBox="0 0 841.9 595.3" enable-background="new 0 0 841.9 595.3" xml:space="preserve">
<g>
	<defs>
		<rect id="SVGID_1_" width="841.9" height="595.3"/>
	</defs>
	<clipPath id="SVGID_2_">
		<use xlink:href="#SVGID_1_"  overflow="visible"/>
	</clipPath>
	<g clip-path="url(#SVGID_2_)">
		<defs>
			<rect id="SVGID_3_" width="841.9" height="595.3"/>
		</defs>
		<clipPath id="SVGID_4_">
			<use xlink:href="#SVGID_3_"  overflow="visible"/>
		</clipPath>
		<path clip-path="url(#SVGID_4_)" fill="#FF4000" d="M675.6,390.6c0,0-27.5-64.9-13.7-118.6c0,0,69.2,67.6,73.6,122.3
			c0,0,4.4-29.3,36.2-48.7c0,0-38.7,21.2,0,77.4c38.7,56.2-23.7,139.8-23.7,139.8l-70.7-70.7L675.6,390.6z"/>
		<path clip-path="url(#SVGID_4_)" fill="#FF4000" d="M373.6,273.3c0,0-3.8-29.8,34.3-34.3c38.2-4.5,38.2-94.2,38.2-94.2
			s30.1,53,31.1,81.1c0,0,11-26.1,27.5-31.2c16.5-5.1,12.5-34.9,12.5-34.9s20,24.1,20,34.9c0,0,0-18.7-27.5-62.4
			c-27.5-43.7,25-108.6,25-108.6s-26.2,58.7,22.5,92.4c48.7,33.7,82.4,78.6,57.4,136c0,0,26.2-34.9,49.9-43.7c0,0-30,57.4-15,94.8
			C649.4,303.3,386,342,373.6,273.3"/>
		<path clip-path="url(#SVGID_4_)" fill="#FF4000" d="M97.1,545.9c0,0-66.7-61.6-26.8-119c39.9-57.4,0-82.4,0-82.4s27.5,5,30,18.7
			c0,0,12.5-15,1.9-51.8c-10.6-36.8,26.2-73.6,26.2-73.6s-31.5,42.7,0,74.3c31.5,31.5,47.5,34.7,59.3,69.9c0,0,12.5-10-13.1-53
			c-25.6-43.1,15.6-101.7,15.6-101.7s-16.2,57.4,18.1,76.8c0,0-26.8-84.2,16.8-116.7c43.7-32.4,31.2-91.1,31.2-91.1
			s22.5,39.9,14.4,60.5c0,0,35.6-35.6,41.8-83c0,0,34.7,61.3,13.2,101.5c-21,39.2,18.9,56.8,18.9,56.8L226.3,484.2L97.1,545.9z"/>
		<path clip-path="url(#SVGID_4_)" fill="#FF7900" d="M211.2,595.3c0,0-4.9-27.4-61.1-27.4S46.6,499.2,81.5,448
			c34.9-51.2,43.7-92.4,34.9-122.3c0,0,81.1,65.4,74.9,108.6c0,0,36.7-55.1-10-112.8c0,0-12.5-18.2,0-44.5c0,0,3.7,26.8,26.8,26.8
			c0,0-29.3-58,64.3-129.2c0,0,41.2-21.2,33.7-44.9c0,0,14.1,19,2.5,56.2c-12.1,38.7,14.6,24.8,35.8,46c0,0,29.1,11.4,29.1,41.3
			c0,0,16.6-17.5,37.4-17.5c20.8,0,47.4-39.9,37.4-77.4c0,0,27.5,62.4,27.5,97.3c0,0-2.5-44.9,32.5-67.4c0,0,20-12.5,10-30
			c0,0,20,15,10,37.4c-10,22.5,42.2,6.4,6.2-49.9c-36-56.3-15.6-76.8-15.6-76.8s-11.9,36.8,36.8,54.3
			c48.7,17.5,71.1,74.9,58.7,108.6c0,0,8.7-17.5,34.9-25c0,0-18.7,43.7,0,76.1c18.7,32.4,33.7,59.9,26.2,87.4
			c0,0,13.8-38.1-10.3-82.1c0,0,54,27.1,67.7,103.3c0,0,5,34.9-17.5,46.2c-22.5,11.2,28.7,34.9,28.7-28.7c0,0,89.2,68.6-28.4,164.7
			c0,0-16.5-65.4-48.3-16.2c0,0,6.2-41.5-36.5-48.7c-42.8-7.2-51.5-44.9-51.5-44.9s-28.7,8.7-7.5,30c31.2,31.2-18.6,65.1-18.6,65.1
			s1.1-46.6-28.9-57.7c-30-11.1-59.9-51.1-44.9-89.8c0,0-13.7,32.4,0,71.1c13.7,38.7-36.3,50.8-36.3,50.8s-28.2-33.7-28.2-6.7
			c0,0-52.9-122.7-40.4-39l-7.9,27c0,0-17.6-51-57.6-65.1c-42.4-15-40.2-50.5-40.2-50.5s-26.7,25.1-5.5,46.3
			c40.6,40.6-12.1,85.4-12.1,85.4s-19.1-7.9-26.7-7.9c0,0,11.4,25.9-13.5,50.9"/>
		<path clip-path="url(#SVGID_4_)" fill="#FFBF00" d="M211.2,594c0,0,1.3-34.2-34.2-34.2s-71.8-18.1-71.8-81.2
			c0,0,8.1,28.2,37.6,37.6c0,0-37.6-25.5-13.4-73.8c24.2-48.3-8.1-99.3-8.1-99.3s26.8,40.3,32.2,73.8l9.4-24.2
			c0,0,24.2,25.5,17.4,45.6c-6.7,20.1,9.4,65.1,38.2,65.1c0,0-28.2-18.1-14.1-42.3c14.1-24.2,34.9-61.7-12.1-140.9
			c0,0,41.6,60.4,41.6,91.3c0,0,33.5-47,0-80.5c-33.5-33.5-22.8-73.8,26.8-123.5c0,0-25.5,56.4,6.7,73.8c32.2,17.4,45.6,55,45.6,55
			s24.2-48.3-18.8-91.3c-42.9-42.9-1.3-53.7-1.3-53.7s-35.6,20.8,17.4,45.6c53,24.8,51,72.5,51,72.5s0-32.2,40.3-40.3
			c40.3-8.1,47-42.9,47-42.9s32.2,68.4,0,100.6c0,0-5.4,32.2,30.9,6.7c36.2-25.5-24.2-79.2,36.2-118.1c0,0-10.7,38.9,18.8,38.9
			c29.5,0,24.8-85.2-10.7-120.8c0,0,104.7,77.8,52.3,162.4c0,0-39.6,66.4-12.1,93.9c27.5,27.5,44.3-30.9,44.3-59
			c0-28.2,21.5-55.7,27.5-55.7c6,0-23.1,28.5,0,51.7c23.1,23.2,37.6,66.4,3.4,100.6c0,0-42.9,76.5,17.4,83.2
			c60.4,6.7-24.2-55,21.5-89.9c45.6-34.9,0-100.6,0-100.6s67.8,70.5,32.2,118.1s36.2,55,29.5,10.7c0,0,60.4,84.5-24.2,144.9
			c0,0,12.1-25.5-13.4-51c0,0-34.9-2.7-34.9,25.5c0,0-0.7-38.2-29.5-48.3c-28.9-10.1-59-25.5-51-56.4c0,0-40.3,30.9-22.8,48.3
			c0,0,32.9,23.5-10.7,67.1c0,0,20.1-28.2-9.4-57.7c-29.5-29.5-71.1-60.4-40.3-131.5c0,0-53.7,36.2-40.3,83.2
			c13.4,47-20.1,80.5-20.1,80.5s2.7-18.8-9.4-30.9c-12.1-12.1-33.5-4-18.8,24.2c0,0-49.7-26.8-14.8-83.2
			c34.9-56.4-64.4-69.8-33.5,12.1c0,0,18.1,40.9,0,59c0,0,18.8-41.6-52.3-75.1c-71.1-33.5-40.3-44.3-40.3-44.3s-42.9,28.2-21.5,49.7
			c21.5,21.5,21.5,63.1-1.3,85.9c0,0-2.7-25.5-44.3-25.5C207.2,525.6,238.7,566.5,211.2,594"/>
		<path clip-path="url(#SVGID_4_)" fill="#FF4000" d="M356.1,65.7c0,0,14.1,48.3-5,84.9c-19.1,36.6-2.5,61.6,12.5,68.2
			c15,6.7,15,22.5,15,22.5s15-17.5,29.1-17.5c14.1,0,41.6-23.3,22.5-70.7c0,0-35.4,15.8-35.4,35.4c0,0-15.8-2.9-7.9-28.7
			C394.8,134,356.1,65.7,356.1,65.7"/>
		<path clip-path="url(#SVGID_4_)" fill="#FF7900" d="M378.6,241.3c0,0,7.5-20-19.1-39.9c-26.6-20,11.2-57.8,11.2-57.8
			s3.7,53.7,23.7,53.7c20,0,30.8-30,30.8-30s6.7,43.3-17.5,48.3C383.5,220.5,378.6,241.3,378.6,241.3"/>
		<path clip-path="url(#SVGID_4_)" fill="#FFBF00" d="M367.7,164.7c0,0-20.4,19.3,5,36.6C372.7,201.3,362.7,183,367.7,164.7"/>
		<path clip-path="url(#SVGID_4_)" fill="#FFBF00" d="M388.1,216.7c0,0,37-18.7,37-49.5C425.1,167.2,441.4,208.9,388.1,216.7"/>
		<path clip-path="url(#SVGID_4_)" fill="#FFE45C" d="M210.8,587.9c0,0,2-32.4-46.6-46.6c-48.6-14.2-42-36.9-42-36.9
			s9.3,18.5,39.2,18.5c0,0-26.2-27.5-7.5-64.9c0,0-2.4,34.3,30,58.7C216.2,541,210.8,587.9,210.8,587.9"/>
		<path clip-path="url(#SVGID_4_)" fill="#FFE45C" d="M251.5,551.1c0,0,9.8-26.1-23.5-48.6c-33.3-22.5,0.8-45.8,0.8-73.2
			c0,0,11.7,28.1,9.2,39.1C231.3,497.5,278.9,500.1,251.5,551.1"/>
		<path clip-path="url(#SVGID_4_)" fill="#FFE45C" d="M366.9,535c0,0,22.4-44-51.6-98.2c-73.9-54.2-36.6-108.2-36.6-108.2
			s-21.6,42.4,20.8,64.9C341.9,416,385.2,476.7,366.9,535"/>
		<path clip-path="url(#SVGID_4_)" fill="#FFE45C" d="M370.2,371.1c0,0-20-65.7,20.8-78.2c40.8-12.5,58.2-45.8,58.2-45.8
			s11.6,50.8-24.1,59.9C389.4,316.2,370.2,318.8,370.2,371.1"/>
		<path clip-path="url(#SVGID_4_)" fill="#FFE45C" d="M415.2,547.1c0,0-32.9-35-8.4-59.5c24.5-24.5,30.8-78.2,30.8-78.2
			s5,25,11.6,49.9c6.7,25,17.3,47.6-5.9,94.5c0,0,14.6-44-14.9-48.7C399,500.3,401.7,533.6,415.2,547.1"/>
		<path clip-path="url(#SVGID_4_)" fill="#FFE45C" d="M345.4,434.3c0,0-58.8-47-28.4-77.4c30.4-30.4,16.6-76.5,16.6-76.5
			s38.7,60.3,14.1,84.9C323.2,389.8,330.9,419.7,345.4,434.3"/>
		<path clip-path="url(#SVGID_4_)" fill="#FFE45C" d="M552.6,579.3c0,0,33.7-33.1-15.7-83.4c-49.4-50.3-18.8-105.7-18.8-105.7
			s-20,37.3,10.6,76.5C559.4,506,597.7,542,552.6,579.3"/>
		<path clip-path="url(#SVGID_4_)" fill="#FFE45C" d="M715.8,594c0,0,42.1-36.9,29.7-101.5c0,0-57.4,26.6-60.7-30
			c0,0-9.2,14.5,3.3,47.4c12.5,32.9-20.6,25.5-20.6,58.5c0,0,1.4-29.4,41.4-29.4C748.8,539.1,715.8,594,715.8,594"/>
		<path clip-path="url(#SVGID_4_)" fill="#FFE45C" d="M515.9,215.6c0,0-14.6,28.6,0,43.2c14.6,14.6-28,26.9-22.5-0.8
			C498.9,230.2,515.9,215.6,515.9,215.6"/>
		<path clip-path="url(#SVGID_4_)" fill="#FFE45C" d="M636,275.3c0,0-39.4,45.8-16.1,80.8c23.3,34.9,12.5,57.4,12.5,57.4
			s27.4-45.8,2.5-70.7C609.9,317.9,636,275.3,636,275.3"/>
		<path clip-path="url(#SVGID_4_)" fill="#FF4000" d="M574.1,0c0,0-54.9,49.2-27.5,89C546.6,89,543.3,41.6,574.1,0"/>
		<path clip-path="url(#SVGID_4_)" fill="#FF4000" d="M677.2,132.3c0,0-4.2,18.3-4.2,30.8c0,12.5-3.3,33.3-39.5,52
			c0,0,19.6-17.1,15.4-39.5C644.8,153.1,677.2,132.3,677.2,132.3"/>
		<path clip-path="url(#SVGID_4_)" fill="#FFBF00" d="M636,215.1c0,0,21.2-19.9,19.6-36c-1.6-16.1,8.6-26.3,8.6-26.3s-2.6,16,0,24.9
			C666.7,186.6,657,203.3,636,215.1"/>
		<path clip-path="url(#SVGID_4_)" fill="#FF4000" d="M303.1,62.3c0,0,6.5,24.5-9.4,37.6C293.7,99.8,305.2,82.1,303.1,62.3"/>
		<g clip-path="url(#SVGID_4_)">
			<g>
				<defs>
					<rect id="SVGID_5_" x="57.6" width="726.8" height="595.3"/>
				</defs>
				<clipPath id="SVGID_6_">
					<use xlink:href="#SVGID_5_"  overflow="visible"/>
				</clipPath>
				<g opacity="0.35" clip-path="url(#SVGID_6_)">
					<g>
						<defs>
							<rect id="SVGID_7_" x="57.6" width="726.8" height="595.3"/>
						</defs>
						<clipPath id="SVGID_8_">
							<use xlink:href="#SVGID_7_"  overflow="visible"/>
						</clipPath>
						<g clip-path="url(#SVGID_8_)">
							<defs>
								<path id="SVGID_9_" d="M748,562.9c0,0,0.1-0.2,0.4-0.5c14.5-17.4,22.4-33.5,25.9-48.2c10.8-27.9,16.8-63-2.6-91.1
									c-34.3-49.8-7.8-72.1-1.3-76.5c-30.6,19.3-34.9,47.8-34.9,47.8c-4.5-54.7-73.6-122.3-73.6-122.3c-4,15.5-4.5,32-3.2,47.6
									c-2.9-5.3-6-10.8-9.2-16.4c-15-37.4,15-94.8,15-94.8c-15,5.5-31,21.6-40.8,32.6c-6.6,5.9-9.2,11.1-9.2,11.1
									c25-57.4-8.7-102.3-57.4-136c-48.7-33.7-22.5-92.4-22.5-92.4s-52.4,64.9-25,108.6c23.3,37,26.8,56.1,27.4,61.1
									c-1.4-11.3-19.9-33.6-19.9-33.6s4,29.8-12.5,34.9c-16.5,5.1-27.5,31.2-27.5,31.2c-1-28.1-31.1-81.1-31.1-81.1
									s0,89.7-38.2,94.2c-30.8,3.6-34.2,23.8-34.4,31.4c-1.8-27.8-29-38.4-29-38.4c-4.4-4.4-8.9-7.2-13.4-9.4
									c-9.2-9-17.8-24.5-5.5-47.4c21.5-40.3-13.2-101.5-13.2-101.5c-6.2,47.4-41.8,83-41.8,83c8.1-20.6-14.4-60.5-14.4-60.5
									s12.5,58.7-31.2,91.1c-31.9,23.7-26.2,74.9-20.8,100.9c1.1,10.1,4,15.8,4,15.8c-34.3-19.3-18.1-76.8-18.1-76.8
									s-41.2,58.7-15.6,101.7c25.6,43.1,13.1,53,13.1,53c-11.8-35.2-27.8-38.4-59.3-69.9c-31.5-31.5,0-74.3,0-74.3
									s-36.8,36.8-26.2,73.6c10.6,36.8-1.9,51.8-1.9,51.8c-2.5-13.7-30-18.7-30-18.7s39.9,25,0,82.4c-31.1,44.7,2.5,92,18.9,110.7
									c2.4,2.9,5.1,5.7,7.9,8.3c0,0,0.1,0,0.1,0c14.4,13.4,33.2,22,53.1,22c56.2,0,61.1,27.4,61.1,27.4V594
									c0.5-0.5,0.9-0.9,1.3-1.4c23.1-24.5,12.2-49.5,12.2-49.5c7.6,0,26.7,7.9,26.7,7.9s52.6-44.8,12.1-85.4
									c-21.2-21.2,5.5-46.3,5.5-46.3c-1.8,2.5-2.5,6.2,1.4,11.6c3,11.7,12,29.4,38.8,38.9c40,14.1,57.6,65.1,57.6,65.1l0.9-3
									c-0.3,1-0.6,2-0.9,3c6.9-6.9,8.5-17,7.9-27v0c0,0,0,0,0,0c-0.2-3.5-0.7-7-1.3-10.3c-2.9-28.1,5.3-20.8,15.2-4.3
									c-5.7,36.2,26.5,53.7,26.5,53.7c-1.3-2.5-2.3-4.8-3.1-6.9c1.9,4.3,3.1,6.9,3.1,6.9c0-27,28.2,6.7,28.2,6.7
									s50-12.1,36.3-50.8c-13.7-38.7,0-71.1,0-71.1c-15,38.7,15,78.6,44.9,89.8c27.5,10.2,28.8,50.3,28.9,56.8
									c-0.5,0.6-0.8,0.9-0.8,0.9c0.3-0.2,0.5-0.5,0.8-0.7c0,0.5,0,0.7,0,0.7s49.8-33.9,18.6-65.1c-21.2-21.2,7.5-30,7.5-30
									s8.7,37.8,51.5,44.9c26.1,4.4,33.9,21.5,36.1,34.3c0.4,3.1,0.4,5.1,0.4,5.1s0-0.4,0.1-1c0.5,6-0.1,10.3-0.1,10.3
									c31.8-49.2,48.3,16.2,48.3,16.2c10.3-7.4,18.4-15.1,24.8-22.9C743.2,568.3,745.7,565.5,748,562.9L748,562.9z M351.1,150.6
									c19.1-36.6,5-84.9,5-84.9s38.7,68.2,30.8,94c-7.9,25.8,7.9,28.7,7.9,28.7c0-19.6,35.4-35.4,35.4-35.4
									c19.1,47.4-8.3,70.7-22.5,70.7c-14.1,0-29.1,17.5-29.1,17.5s0-15.8-15-22.5C348.6,212.2,332,187.2,351.1,150.6 M546.6,89
									c-27.5-39.9,27.5-89,27.5-89C543.3,41.6,546.6,89,546.6,89 M638.8,212.2c-1.7,1-3.4,1.9-5.2,2.9c0,0,19.6-17.1,15.4-39.5
									c-4.2-22.5,28.3-43.3,28.3-43.3s-4.2,18.3-4.2,30.8c0,9.9-2.1,25.2-21.3,40.4c-4.2,4.1-9.5,8-15.8,11.6
									C636,215.1,637.1,214,638.8,212.2 M293.7,99.8c0,0,11.5-17.7,9.4-37.6C303.1,62.3,309.7,86.8,293.7,99.8"/>
							</defs>
							<clipPath id="SVGID_10_">
								<use xlink:href="#SVGID_9_"  overflow="visible"/>
							</clipPath>
							
								<linearGradient id="SVGID_11_" gradientUnits="userSpaceOnUse" x1="0" y1="595.275" x2="1" y2="595.275" gradientTransform="matrix(726.77 0 0 -726.77 57.5591 432925.6875)">
								<stop  offset="0" style="stop-color:#DED643"/>
								<stop  offset="0.618" style="stop-color:#D5B22C"/>
								<stop  offset="1" style="stop-color:#F6921E"/>
							</linearGradient>
							<rect x="39.2" y="0" clip-path="url(#SVGID_10_)" fill="url(#SVGID_11_)" width="751.9" height="595.3"/>
						</g>
					</g>
				</g>
				<g opacity="0.58" clip-path="url(#SVGID_6_)">
					<g>
						<defs>
							<rect id="SVGID_12_" x="57.6" width="726.8" height="595.3"/>
						</defs>
						<clipPath id="SVGID_13_">
							<use xlink:href="#SVGID_12_"  overflow="visible"/>
						</clipPath>
						<g clip-path="url(#SVGID_13_)">
							<defs>
								<path id="SVGID_14_" d="M748,562.9c0,0,0.1-0.2,0.4-0.5c14.5-17.4,22.4-33.5,25.9-48.2c10.8-27.9,16.8-63-2.6-91.1
									c-34.3-49.8-7.8-72.1-1.3-76.5c-30.6,19.3-34.9,47.8-34.9,47.8c-4.5-54.7-73.6-122.3-73.6-122.3c-4,15.5-4.5,32-3.2,47.6
									c-2.9-5.3-6-10.8-9.2-16.4c-15-37.4,15-94.8,15-94.8c-15,5.5-31,21.6-40.8,32.6c-6.6,5.9-9.2,11.1-9.2,11.1
									c25-57.4-8.7-102.3-57.4-136c-48.7-33.7-22.5-92.4-22.5-92.4s-52.4,64.9-25,108.6c23.3,37,26.8,56.1,27.4,61.1
									c-1.4-11.3-19.9-33.6-19.9-33.6s4,29.8-12.5,34.9c-16.5,5.1-27.5,31.2-27.5,31.2c-1-28.1-31.1-81.1-31.1-81.1
									s0,89.7-38.2,94.2c-30.8,3.6-34.2,23.8-34.4,31.4c-1.8-27.8-29-38.4-29-38.4c-4.4-4.4-8.9-7.2-13.4-9.4
									c-9.2-9-17.8-24.5-5.5-47.4c21.5-40.3-13.2-101.5-13.2-101.5c-6.2,47.4-41.8,83-41.8,83c8.1-20.6-14.4-60.5-14.4-60.5
									s12.5,58.7-31.2,91.1c-31.9,23.7-26.2,74.9-20.8,100.9c1.1,10.1,4,15.8,4,15.8c-34.3-19.3-18.1-76.8-18.1-76.8
									s-41.2,58.7-15.6,101.7c25.6,43.1,13.1,53,13.1,53c-11.8-35.2-27.8-38.4-59.3-69.9c-31.5-31.5,0-74.3,0-74.3
									s-36.8,36.8-26.2,73.6c10.6,36.8-1.9,51.8-1.9,51.8c-2.5-13.7-30-18.7-30-18.7s39.9,25,0,82.4c-31.1,44.7,2.5,92,18.9,110.7
									c2.4,2.9,5.1,5.7,7.9,8.3c0,0,0.1,0,0.1,0c14.4,13.4,33.2,22,53.1,22c56.2,0,61.1,27.4,61.1,27.4V594
									c0.5-0.5,0.9-0.9,1.3-1.4c23.1-24.5,12.2-49.5,12.2-49.5c7.6,0,26.7,7.9,26.7,7.9s52.6-44.8,12.1-85.4
									c-21.2-21.2,5.5-46.3,5.5-46.3c-1.8,2.5-2.5,6.2,1.4,11.6c3,11.7,12,29.4,38.8,38.9c40,14.1,57.6,65.1,57.6,65.1l0.9-3
									c-0.3,1-0.6,2-0.9,3c6.9-6.9,8.5-17,7.9-27v0c0,0,0,0,0,0c-0.2-3.5-0.7-7-1.3-10.3c-2.9-28.1,5.3-20.8,15.2-4.3
									c-5.7,36.2,26.5,53.7,26.5,53.7c-1.3-2.5-2.3-4.8-3.1-6.9c1.9,4.3,3.1,6.9,3.1,6.9c0-27,28.2,6.7,28.2,6.7
									s50-12.1,36.3-50.8c-13.7-38.7,0-71.1,0-71.1c-15,38.7,15,78.6,44.9,89.8c27.5,10.2,28.8,50.3,28.9,56.8
									c-0.5,0.6-0.8,0.9-0.8,0.9c0.3-0.2,0.5-0.5,0.8-0.7c0,0.5,0,0.7,0,0.7s49.8-33.9,18.6-65.1c-21.2-21.2,7.5-30,7.5-30
									s8.7,37.8,51.5,44.9c26.1,4.4,33.9,21.5,36.1,34.3c0.4,3.1,0.4,5.1,0.4,5.1s0-0.4,0.1-1c0.5,6-0.1,10.3-0.1,10.3
									c31.8-49.2,48.3,16.2,48.3,16.2c10.3-7.4,18.4-15.1,24.8-22.9C743.2,568.3,745.7,565.5,748,562.9L748,562.9z M351.1,150.6
									c19.1-36.6,5-84.9,5-84.9s38.7,68.2,30.8,94c-7.9,25.8,7.9,28.7,7.9,28.7c0-19.6,35.4-35.4,35.4-35.4
									c19.1,47.4-8.3,70.7-22.5,70.7c-14.1,0-29.1,17.5-29.1,17.5s0-15.8-15-22.5C348.6,212.2,332,187.2,351.1,150.6 M546.6,89
									c-27.5-39.9,27.5-89,27.5-89C543.3,41.6,546.6,89,546.6,89 M638.8,212.2c-1.7,1-3.4,1.9-5.2,2.9c0,0,19.6-17.1,15.4-39.5
									c-4.2-22.5,28.3-43.3,28.3-43.3s-4.2,18.3-4.2,30.8c0,9.9-2.1,25.2-21.3,40.4c-4.2,4.1-9.5,8-15.8,11.6
									C636,215.1,637.1,214,638.8,212.2 M293.7,99.8c0,0,11.5-17.7,9.4-37.6C303.1,62.3,309.7,86.8,293.7,99.8"/>
							</defs>
							<clipPath id="SVGID_15_">
								<use xlink:href="#SVGID_14_"  overflow="visible"/>
							</clipPath>
							<defs>
								<filter id="Adobe_OpacityMaskFilter" filterUnits="userSpaceOnUse" x="39.2" y="0" width="751.9" height="595.3">
									<feColorMatrix  type="matrix" values="1 0 0 0 0  0 1 0 0 0  0 0 1 0 0  0 0 0 1 0"/>
								</filter>
							</defs>
							<mask maskUnits="userSpaceOnUse" x="39.2" y="0" width="751.9" height="595.3" id="SVGID_16_">
								<g filter="url(#Adobe_OpacityMaskFilter)">
									
										<radialGradient id="SVGID_17_" cx="0" cy="595.275" r="1" gradientTransform="matrix(530.5849 0 0 -259.0909 526.4102 154728)" gradientUnits="userSpaceOnUse">
										<stop  offset="0" style="stop-color:#000000"/>
										<stop  offset="0.3926" style="stop-color:#000000"/>
										<stop  offset="0.4033" style="stop-color:#050505"/>
										<stop  offset="0.6283" style="stop-color:#6F6F6F"/>
										<stop  offset="0.809" style="stop-color:#BCBCBC"/>
										<stop  offset="0.9367" style="stop-color:#ECECEC"/>
										<stop  offset="1" style="stop-color:#FFFFFF"/>
									</radialGradient>
									<rect x="39.2" y="0" clip-path="url(#SVGID_15_)" fill="url(#SVGID_17_)" width="751.9" height="595.3"/>
								</g>
							</mask>
							
								<radialGradient id="SVGID_18_" cx="0" cy="595.275" r="1" gradientTransform="matrix(530.5849 0 0 -259.091 526.4102 154728.0312)" gradientUnits="userSpaceOnUse">
								<stop  offset="0" style="stop-color:#FFFFFF"/>
								<stop  offset="0.3926" style="stop-color:#FFFFFF"/>
								<stop  offset="1" style="stop-color:#FFFFFF"/>
							</radialGradient>
							
								<rect x="39.2" y="0" clip-path="url(#SVGID_15_)" mask="url(#SVGID_16_)" fill="url(#SVGID_18_)" width="751.9" height="595.3"/>
						</g>
					</g>
				</g>
			</g>
		</g>
	</g>
</g>
</svg>
