<?xml version="1.0" encoding="utf-8"?>
<!-- Generator: Adobe Illustrator 17.1.0, SVG Export Plug-In . SVG Version: 6.00 Build 0)  -->
<!DOCTYPE svg PUBLIC "-//W3C//DTD SVG 1.1//EN" "http://www.w3.org/Graphics/SVG/1.1/DTD/svg11.dtd">
<svg version="1.1" id="Lager_1" xmlns="http://www.w3.org/2000/svg" xmlns:xlink="http://www.w3.org/1999/xlink" x="0px" y="0px"
	 viewBox="0 0 841.9 595.3" enable-background="new 0 0 841.9 595.3" xml:space="preserve">
<g>
	<defs>
		<rect id="SVGID_1_" width="841.9" height="595.3"/>
	</defs>
	<clipPath id="SVGID_2_">
		<use xlink:href="#SVGID_1_"  overflow="visible"/>
	</clipPath>
	<g clip-path="url(#SVGID_2_)">
		<defs>
			<path id="SVGID_3_" d="M680.5,142.6c-105.4,15.8-222.3,26.3-327.5,41.3c-41,5.9-58.6,2.8-78.3-0.2c-12.2-1.9-25.2-3.8-45.2-3.5
				l-46,5.1l-0.2-1l-20.8,3.3l0,0.2L57,205.6l59.7,254.3l92.4-27l0,0.1l61.3-16.8l123.2-55.1L824,259.6
				c36-20.1,11.8-113.7-22.1-130.4c-0.6-0.3-1.9-0.4-4-0.4C777.9,128.7,693,140.7,680.5,142.6"/>
		</defs>
		<clipPath id="SVGID_4_">
			<use xlink:href="#SVGID_3_"  overflow="visible"/>
		</clipPath>
		
			<linearGradient id="SVGID_5_" gradientUnits="userSpaceOnUse" x1="0" y1="595.275" x2="1" y2="595.275" gradientTransform="matrix(-784.8179 6.100000e-05 6.100000e-05 784.8179 841.8001 -466888.1562)">
			<stop  offset="0" style="stop-color:#787777"/>
			<stop  offset="0.2582" style="stop-color:#444544"/>
			<stop  offset="0.9676" style="stop-color:#0C0A0C"/>
			<stop  offset="1" style="stop-color:#090709"/>
		</linearGradient>
		<rect x="57" y="128.7" clip-path="url(#SVGID_4_)" fill="url(#SVGID_5_)" width="803" height="331.1"/>
	</g>
	<g clip-path="url(#SVGID_2_)">
		<defs>
			<path id="SVGID_6_" d="M57,205.6l59.7,254.3l92.4-27l0,0.1c77.1-21.1,59-15.7,133.4-49c-175.8-3.9-320.2-90-259-182.8L57,205.6z
				 M577.3,155.8c69.1,41.5,87.7,102.6,29.7,154.9l217-51.2c12.6-7,17.9-23,17.9-41.5v-0.3c0-27.4-11.4-60.3-27.3-78
				c-5.6-6.3-20.7-8.7-40.7-8.7C713.7,131.1,608.6,152.7,577.3,155.8"/>
		</defs>
		<clipPath id="SVGID_7_">
			<use xlink:href="#SVGID_6_"  overflow="visible"/>
		</clipPath>
		
			<linearGradient id="SVGID_8_" gradientUnits="userSpaceOnUse" x1="0" y1="595.1787" x2="1" y2="595.1787" gradientTransform="matrix(28.1072 270.5326 270.5326 -28.1072 -160604.875 16815)">
			<stop  offset="0" style="stop-color:#787777"/>
			<stop  offset="0.2582" style="stop-color:#444544"/>
			<stop  offset="0.9676" style="stop-color:#0C0A0C"/>
			<stop  offset="1" style="stop-color:#090709"/>
		</linearGradient>
		<polygon clip-path="url(#SVGID_7_)" fill="url(#SVGID_8_)" points="833.1,46.8 875.7,456.4 31.1,544.1 -11.5,134.6 		"/>
	</g>
	<g clip-path="url(#SVGID_2_)">
		<defs>
			<rect id="SVGID_9_" width="841.9" height="595.3"/>
		</defs>
		<clipPath id="SVGID_10_">
			<use xlink:href="#SVGID_9_"  overflow="visible"/>
		</clipPath>
		<path clip-path="url(#SVGID_10_)" fill="none" stroke="#E0001A" stroke-width="4.900000e-02" stroke-miterlimit="22.926" d="
			M75.1,199.5c50,0,98.2,59.8,107.7,133.5c9.4,73.7-23.5,133.5-73.5,133.5c-50,0-98.2-59.8-107.7-133.5
			C-7.8,259.3,25.1,199.5,75.1,199.5z"/>
	</g>
	<g clip-path="url(#SVGID_2_)">
		<defs>
			<path id="SVGID_11_" d="M1.6,333c9.4,73.7,57.7,133.5,107.7,133.5c50,0,82.9-59.8,73.5-133.5c-9.4-73.7-57.7-133.5-107.7-133.5
				C25.1,199.5-7.8,259.3,1.6,333"/>
		</defs>
		<clipPath id="SVGID_12_">
			<use xlink:href="#SVGID_11_"  overflow="visible"/>
		</clipPath>
		
			<linearGradient id="SVGID_13_" gradientUnits="userSpaceOnUse" x1="0" y1="595.275" x2="1" y2="595.275" gradientTransform="matrix(-184.3984 1.530000e-05 1.530000e-05 184.3984 184.3898 -109434.75)">
			<stop  offset="0" style="stop-color:#F2F2F2"/>
			<stop  offset="0.2121" style="stop-color:#F2F2F2"/>
			<stop  offset="0.6182" style="stop-color:#CCCCCB"/>
			<stop  offset="1" style="stop-color:#CCCCCB"/>
		</linearGradient>
		<rect x="-7.8" y="199.5" clip-path="url(#SVGID_12_)" fill="url(#SVGID_13_)" width="200" height="267"/>
	</g>
	<g clip-path="url(#SVGID_2_)">
		<defs>
			<path id="SVGID_14_" d="M4.1,341.2c1.3,10.3,3.4,20.3,6.1,30c18.2,55.1,58,95.3,99,95.3c50,0,82.9-59.8,73.5-133.5
				c-1.3-10.3-3.4-20.4-6.1-30c-18.2-55.1-58-95.3-99-95.3C27.6,207.7-5.3,267.5,4.1,341.2"/>
		</defs>
		<clipPath id="SVGID_15_">
			<use xlink:href="#SVGID_14_"  overflow="visible"/>
		</clipPath>
		
			<linearGradient id="SVGID_16_" gradientUnits="userSpaceOnUse" x1="0" y1="595.275" x2="1" y2="595.275" gradientTransform="matrix(181.8765 0 0 -181.8765 2.5225 108603.6562)">
			<stop  offset="0" style="stop-color:#F2F2F2"/>
			<stop  offset="0.2121" style="stop-color:#F2F2F2"/>
			<stop  offset="0.6182" style="stop-color:#CCCCCB"/>
			<stop  offset="1" style="stop-color:#CCCCCB"/>
		</linearGradient>
		<rect x="-5.3" y="207.7" clip-path="url(#SVGID_15_)" fill="url(#SVGID_16_)" width="197.5" height="258.8"/>
	</g>
	<g clip-path="url(#SVGID_2_)">
		<defs>
			<rect id="SVGID_17_" width="841.9" height="595.3"/>
		</defs>
		<clipPath id="SVGID_18_">
			<use xlink:href="#SVGID_17_"  overflow="visible"/>
		</clipPath>
		<g clip-path="url(#SVGID_18_)">
			<g>
				<defs>
					<rect id="SVGID_19_" x="0.6" y="277.1" width="183.5" height="189.5"/>
				</defs>
				<clipPath id="SVGID_20_">
					<use xlink:href="#SVGID_19_"  overflow="visible"/>
				</clipPath>
				<g clip-path="url(#SVGID_20_)">
					<defs>
						<path id="SVGID_21_" d="M184.1,375.7c-5.3,52.8-34.3,90.8-74.2,90.8c-50,0-98.2-59.8-107.7-133.5c-2.6-20-2-38.9,1.2-56
							c-1.4,13.4-1.2,27.8,0.7,42.7c9.4,73.7,57.7,133.5,107.7,133.5C148.3,453.3,175.6,421.5,184.1,375.7"/>
					</defs>
					<clipPath id="SVGID_22_">
						<use xlink:href="#SVGID_21_"  overflow="visible"/>
					</clipPath>
					
						<linearGradient id="SVGID_23_" gradientUnits="userSpaceOnUse" x1="0" y1="595.275" x2="1" y2="595.275" gradientTransform="matrix(183.5166 0 0 -183.5166 0.5986 109614.6484)">
						<stop  offset="0" style="stop-color:#F2F2F2"/>
						<stop  offset="0.2121" style="stop-color:#F2F2F2"/>
						<stop  offset="0.6182" style="stop-color:#CCCCCB"/>
						<stop  offset="1" style="stop-color:#CCCCCB"/>
					</linearGradient>
					<rect x="-0.3" y="277.1" clip-path="url(#SVGID_22_)" fill="url(#SVGID_23_)" width="184.5" height="189.5"/>
				</g>
			</g>
		</g>
		<g clip-path="url(#SVGID_18_)">
			<g>
				<defs>
					<rect id="SVGID_24_" x="208.7" y="131.6" width="613.7" height="103"/>
				</defs>
				<clipPath id="SVGID_25_">
					<use xlink:href="#SVGID_24_"  overflow="visible"/>
				</clipPath>
				<polygon clip-path="url(#SVGID_25_)" fill-rule="evenodd" clip-rule="evenodd" fill="#FFFFFF" points="822.4,150.4 402.5,217.9 
					255.3,234.6 231.7,209 208.7,186 235.6,188.2 407.4,186.4 805.2,131.6 805.6,132 807.6,134 810.5,136.5 814.2,140.2 817,143 
					819.9,146.3 821.5,148.8 				"/>
			</g>
		</g>
	</g>
	<g clip-path="url(#SVGID_2_)">
		<defs>
			<path id="SVGID_26_" d="M297.8,185.6c-11.9,4.4-18.8,13.5-0.4,21.7c18.1,3,100.1,2.8,105.9-14.7c-6.4-8.5-33.4-11.7-59-11.7
				C324.5,180.8,305.5,182.7,297.8,185.6"/>
		</defs>
		<clipPath id="SVGID_27_">
			<use xlink:href="#SVGID_26_"  overflow="visible"/>
		</clipPath>
		
			<linearGradient id="SVGID_28_" gradientUnits="userSpaceOnUse" x1="-1.056947e-06" y1="595.2817" x2="1" y2="595.2817" gradientTransform="matrix(-117.2139 1.530000e-05 1.530000e-05 117.2139 403.2888 -69579.7266)">
			<stop  offset="0" style="stop-color:#787777"/>
			<stop  offset="0.2582" style="stop-color:#444544"/>
			<stop  offset="0.9676" style="stop-color:#0C0A0C"/>
			<stop  offset="1" style="stop-color:#090709"/>
		</linearGradient>
		<rect x="279" y="180.8" clip-path="url(#SVGID_27_)" fill="url(#SVGID_28_)" width="124.3" height="29.4"/>
	</g>
	<g clip-path="url(#SVGID_2_)">
		<defs>
			<rect id="SVGID_29_" width="841.9" height="595.3"/>
		</defs>
		<clipPath id="SVGID_30_">
			<use xlink:href="#SVGID_29_"  overflow="visible"/>
		</clipPath>
		<polygon clip-path="url(#SVGID_30_)" fill-rule="evenodd" clip-rule="evenodd" fill="#010101" points="364.9,186.4 368.5,186.4 
			372.2,186.4 375.9,186.4 380,186.4 383.7,186.4 387.4,187.2 391,187.6 395.1,188.8 397.6,190.1 400.4,191.3 402.1,192.9 
			403.3,195 402.5,192.1 401.3,190.1 398.8,188 395.5,186.8 393.5,185.6 391.4,185.1 389,184.3 387,184.3 384.5,183.9 382,183.5 
			379.6,183.1 377.5,183.1 374.7,182.7 371.8,182.7 369,182.3 366.5,182.3 363.7,182.3 361.2,182.3 358.3,182.3 355.9,182.3 
			357.1,182.7 360.4,184.3 363.2,185.6 		"/>
	</g>
	<g clip-path="url(#SVGID_2_)">
		<defs>
			<path id="SVGID_31_" d="M293.8,187.2c-25,25.1,46.1,20.1,79.3,9c1.2-12-15-15.6-33.1-15.6C320.4,180.6,298.6,184.8,293.8,187.2"
				/>
		</defs>
		<clipPath id="SVGID_32_">
			<use xlink:href="#SVGID_31_"  overflow="visible"/>
		</clipPath>
		
			<linearGradient id="SVGID_33_" gradientUnits="userSpaceOnUse" x1="0" y1="595.2338" x2="1" y2="595.2338" gradientTransform="matrix(84.624 0 0 -84.624 288.5288 50567.5078)">
			<stop  offset="0" style="stop-color:#E1001A"/>
			<stop  offset="0.2821" style="stop-color:#CB051A"/>
			<stop  offset="0.8654" style="stop-color:#941119"/>
			<stop  offset="1" style="stop-color:#861419"/>
		</linearGradient>
		<rect x="268.7" y="180.6" clip-path="url(#SVGID_32_)" fill="url(#SVGID_33_)" width="105.6" height="31.6"/>
	</g>
	<g clip-path="url(#SVGID_2_)">
		<defs>
			<rect id="SVGID_34_" width="841.9" height="595.3"/>
		</defs>
		<clipPath id="SVGID_35_">
			<use xlink:href="#SVGID_34_"  overflow="visible"/>
		</clipPath>
		<path clip-path="url(#SVGID_35_)" fill="none" stroke="#284493" stroke-width="4.900000e-02" stroke-miterlimit="22.926" d="
			M293.8,187.2c9.3-4.7,81.8-15.9,79.3,9C339.9,207.3,268.7,212.2,293.8,187.2z"/>
		<g clip-path="url(#SVGID_35_)">
			<g>
				<defs>
					<rect id="SVGID_36_" x="271.7" y="190.1" width="568.7" height="192.6"/>
				</defs>
				<clipPath id="SVGID_37_">
					<use xlink:href="#SVGID_36_"  overflow="visible"/>
				</clipPath>
				<polygon clip-path="url(#SVGID_37_)" fill-rule="evenodd" clip-rule="evenodd" fill="#747676" points="273.7,382.6 275.7,380.6 
					278.2,378.9 280.7,377.3 283.9,375.7 286.4,373.6 289.6,372.4 293.3,370.3 297,369.1 300.3,367.1 304,365.4 307.6,363.8 
					311.3,362.2 315,360.5 319.1,358.9 323.2,357.3 327.3,356 330.9,354 335,352.4 338.7,350.7 342.8,349.5 346.5,347.9 
					350.6,346.2 354.2,344.6 358.3,343.4 361.6,341.7 365.3,340.5 368.5,339.3 371.8,338.1 374.7,336.8 378,335.6 380.8,334.4 
					383.7,333.6 837.9,224.4 838.3,221.9 838.7,219.5 839.1,217 839.9,215 839.9,210.5 840.4,206.4 839.9,201.9 839.5,197.8 
					838.7,193.7 837.9,190 830.1,191.3 822.8,192.5 815,194.1 807.6,195.8 799.9,197 792.5,198.2 785.2,199.9 777.8,201.5 
					770,202.7 762.7,204.4 754.9,206 747.5,207.6 739.8,208.9 732.4,210.5 725.1,212.1 717.7,213.8 709.9,215 702.6,216.6 
					694.8,218.3 687.4,219.9 679.7,221.1 672.3,222.8 665,224.4 657.6,226.4 649.8,227.7 642.5,229.3 635.1,230.9 627.8,232.6 
					620,233.8 612.6,235.4 605.3,237.1 597.9,239.1 590.1,240.3 582.8,242 575,243.6 567.7,245.2 559.9,246.5 552.5,248.1 
					545.2,249.7 537.8,251.4 530,252.6 522.7,254.2 514.9,255.9 507.6,257.5 499.8,258.7 492.4,260.8 485.1,262 477.7,264 
					469.9,265.3 462.6,266.9 454.8,268.6 447.5,270.2 439.7,271.4 432.3,273 425,274.7 417.6,276.3 409.8,277.5 402.5,279.2 
					394.7,280.8 387.4,282.5 380,283.7 372.6,285.3 365.3,286.9 357.9,288.6 354.2,289 351,289.8 347.7,290.6 344.8,291.4 
					341.6,291.9 338.7,292.7 335.4,293.5 333,294.3 329.7,294.7 326.9,295.1 324,295.5 321.5,296.4 319.1,296.8 316.6,297.2 
					314.2,297.6 311.7,298.4 308.9,298.4 306.4,298.8 303.5,299.2 301.1,300 298.6,300 296.2,300.8 293.7,301.3 291.3,302.1 
					288.8,302.1 286.4,302.9 283.9,303.3 281.5,304.1 279,304.9 276.6,305.8 274.1,306.6 271.7,307.8 272.5,311.9 273.3,316 
					274.1,320.1 274.9,324.6 275.3,328.2 275.7,332.7 275.7,336.8 276.2,341.3 275.7,345.4 275.7,349.9 275.3,352.4 275.3,354.8 
					275.3,357.3 275.3,360.1 274.9,362.6 274.5,365 274.5,367.9 274.5,370.8 274.1,373.2 273.7,376.5 273.7,379.3 				"/>
			</g>
		</g>
	</g>
	<g clip-path="url(#SVGID_2_)">
		<defs>
			<path id="SVGID_38_" d="M75.8,316.6c5.9,46,35.8,83.4,66.8,83.4c11.6,0,21.7-5.2,29.6-14.2c4.8-17,6.3-37.1,3.6-58.5
				c-4.9-38.6-22.3-72.6-44.8-93c-3.1-0.8-6.3-1.2-9.5-1.2C90.3,233.2,69.9,270.6,75.8,316.6"/>
		</defs>
		<clipPath id="SVGID_39_">
			<use xlink:href="#SVGID_38_"  overflow="visible"/>
		</clipPath>
		
			<linearGradient id="SVGID_40_" gradientUnits="userSpaceOnUse" x1="0" y1="595.275" x2="1" y2="595.275" gradientTransform="matrix(102.2759 0 0 -102.2759 74.7681 61198.8984)">
			<stop  offset="0" style="stop-color:#F2F2F2"/>
			<stop  offset="0.2121" style="stop-color:#F2F2F2"/>
			<stop  offset="0.6182" style="stop-color:#CCCCCB"/>
			<stop  offset="1" style="stop-color:#CCCCCB"/>
		</linearGradient>
		<rect x="69.9" y="233.2" clip-path="url(#SVGID_39_)" fill="url(#SVGID_40_)" width="108.5" height="166.8"/>
	</g>
	<g clip-path="url(#SVGID_2_)">
		<defs>
			<path id="SVGID_41_" d="M194.6,186c75.5,52.5,94.1,131.2,55.1,236.8c7.5,8,13.8,6.9,18.1-4.3c37.3-113.7,19.5-192.9-53.4-236.8
				c-5-1.9-9-2.8-12.1-2.8C197.3,178.9,194.8,181.3,194.6,186"/>
		</defs>
		<clipPath id="SVGID_42_">
			<use xlink:href="#SVGID_41_"  overflow="visible"/>
		</clipPath>
		
			<linearGradient id="SVGID_43_" gradientUnits="userSpaceOnUse" x1="3.146828e-06" y1="595.2596" x2="1" y2="595.2596" gradientTransform="matrix(92.1299 0 0 -92.1299 194.5747 55146.0625)">
			<stop  offset="0" style="stop-color:#E1001A"/>
			<stop  offset="0.2821" style="stop-color:#CB051A"/>
			<stop  offset="0.8654" style="stop-color:#941119"/>
			<stop  offset="1" style="stop-color:#861419"/>
		</linearGradient>
		<rect x="194.6" y="178.9" clip-path="url(#SVGID_42_)" fill="url(#SVGID_43_)" width="110.5" height="251.9"/>
	</g>
	<g clip-path="url(#SVGID_2_)">
		<defs>
			<rect id="SVGID_44_" width="841.9" height="595.3"/>
		</defs>
		<clipPath id="SVGID_45_">
			<use xlink:href="#SVGID_44_"  overflow="visible"/>
		</clipPath>
		<path clip-path="url(#SVGID_45_)" fill-rule="evenodd" clip-rule="evenodd" fill="#611216" d="M194.6,186c0-1.1,0.2-2.2,0.5-3
			c28.9,15.1,58.2,43.1,84.5,80.5c12.4,41.3,8.4,93-11.9,154.9c-4.3,11.2-10.6,12.3-18.1,4.3C288.7,317.2,270.1,238.5,194.6,186"/>
		<g clip-path="url(#SVGID_45_)">
			<g>
				<defs>
					<rect id="SVGID_46_" x="24.5" y="340.3" width="115.4" height="125"/>
				</defs>
				<clipPath id="SVGID_47_">
					<use xlink:href="#SVGID_46_"  overflow="visible"/>
				</clipPath>
				<path clip-path="url(#SVGID_47_)" fill-rule="evenodd" clip-rule="evenodd" fill="#FFFFFF" d="M96.9,465.3
					C69,459.9,42.7,436.7,24.5,404l81.3-63.7l34.1,29L96.9,465.3z"/>
			</g>
		</g>
		<g clip-path="url(#SVGID_45_)">
			<g>
				<defs>
					<rect id="SVGID_48_" x="3.8" y="228.2" width="112.2" height="67.1"/>
				</defs>
				<clipPath id="SVGID_49_">
					<use xlink:href="#SVGID_48_"  overflow="visible"/>
				</clipPath>
				<path clip-path="url(#SVGID_49_)" fill-rule="evenodd" clip-rule="evenodd" fill="#E5E5E5" d="M3.8,295.3
					c3.4-27.9,13.4-51.5,28.3-67.1l83.9,31.3L102,293.6L3.8,295.3z"/>
			</g>
		</g>
	</g>
	<g clip-path="url(#SVGID_2_)">
		<defs>
			<path id="SVGID_50_" d="M92.2,316.6c4.1,32.6,25.3,59,47.3,59c22,0,36.4-26.4,32.3-59c-4.1-32.6-25.3-59-47.3-59
				C102.5,257.6,88,284,92.2,316.6"/>
		</defs>
		<clipPath id="SVGID_51_">
			<use xlink:href="#SVGID_50_"  overflow="visible"/>
		</clipPath>
		
			<linearGradient id="SVGID_52_" gradientUnits="userSpaceOnUse" x1="0" y1="595.275" x2="1" y2="595.275" gradientTransform="matrix(-80.9668 0 0 80.9668 172.4414 -47880.8906)">
			<stop  offset="0" style="stop-color:#F2F2F2"/>
			<stop  offset="0.2121" style="stop-color:#F2F2F2"/>
			<stop  offset="0.6182" style="stop-color:#CCCCCB"/>
			<stop  offset="1" style="stop-color:#CCCCCB"/>
		</linearGradient>
		<rect x="88" y="257.6" clip-path="url(#SVGID_51_)" fill="url(#SVGID_52_)" width="87.8" height="118"/>
	</g>
	<g clip-path="url(#SVGID_2_)">
		<defs>
			<rect id="SVGID_53_" width="841.9" height="595.3"/>
		</defs>
		<clipPath id="SVGID_54_">
			<use xlink:href="#SVGID_53_"  overflow="visible"/>
		</clipPath>
		<g clip-path="url(#SVGID_54_)">
			<g>
				<defs>
					<rect id="SVGID_55_" x="24.4" y="215.3" width="154.6" height="225.3"/>
				</defs>
				<clipPath id="SVGID_56_">
					<use xlink:href="#SVGID_55_"  overflow="visible"/>
				</clipPath>
				<g clip-path="url(#SVGID_56_)">
					<defs>
						<path id="SVGID_57_" d="M87.3,215.3c41.9,0,82.3,50.5,90.3,112.7c7.9,62.2-19.7,112.7-61.6,112.7
							c-41.9,0-82.3-50.5-90.3-112.7C17.8,265.8,45.4,215.3,87.3,215.3"/>
					</defs>
					<clipPath id="SVGID_58_">
						<use xlink:href="#SVGID_57_"  overflow="visible"/>
					</clipPath>
					
						<linearGradient id="SVGID_59_" gradientUnits="userSpaceOnUse" x1="0" y1="595.275" x2="1" y2="595.275" gradientTransform="matrix(154.562 0 0 -154.562 24.3784 92334.8906)">
						<stop  offset="0" style="stop-color:#F2F2F2"/>
						<stop  offset="0.2121" style="stop-color:#F2F2F2"/>
						<stop  offset="0.6182" style="stop-color:#CCCCCB"/>
						<stop  offset="1" style="stop-color:#CCCCCB"/>
					</linearGradient>
					<rect x="17.8" y="215.3" clip-path="url(#SVGID_58_)" fill="url(#SVGID_59_)" width="167.7" height="225.3"/>
				</g>
			</g>
		</g>
		<g clip-path="url(#SVGID_54_)">
			<g>
				<defs>
					<rect id="SVGID_60_" x="30.1" y="231.1" width="99.1" height="138.9"/>
				</defs>
				<clipPath id="SVGID_61_">
					<use xlink:href="#SVGID_60_"  overflow="visible"/>
				</clipPath>
				<g clip-path="url(#SVGID_61_)">
					<defs>
						<path id="SVGID_62_" d="M79.6,370c27.3,0,49.6-31.2,49.6-69.4s-22.3-69.4-49.6-69.4s-49.6,31.2-49.6,69.4S52.3,370,79.6,370"
							/>
					</defs>
					<clipPath id="SVGID_63_">
						<use xlink:href="#SVGID_62_"  overflow="visible"/>
					</clipPath>
					
						<linearGradient id="SVGID_64_" gradientUnits="userSpaceOnUse" x1="2.251784e-06" y1="595.275" x2="1" y2="595.275" gradientTransform="matrix(99.1035 0 0 -99.1035 30.0718 59294.3711)">
						<stop  offset="0" style="stop-color:#F2F2F2"/>
						<stop  offset="0.2121" style="stop-color:#F2F2F2"/>
						<stop  offset="0.6182" style="stop-color:#CCCCCB"/>
						<stop  offset="1" style="stop-color:#CCCCCB"/>
					</linearGradient>
					<rect x="30.1" y="231.1" clip-path="url(#SVGID_63_)" fill="url(#SVGID_64_)" width="99.1" height="138.9"/>
				</g>
			</g>
		</g>
	</g>
</g>
</svg>
