<?xml version="1.0" encoding="utf-8"?>
<!-- Generator: Adobe Illustrator 17.1.0, SVG Export Plug-In . SVG Version: 6.00 Build 0)  -->
<!DOCTYPE svg PUBLIC "-//W3C//DTD SVG 1.1//EN" "http://www.w3.org/Graphics/SVG/1.1/DTD/svg11.dtd">
<svg version="1.1" id="Lager_1" xmlns="http://www.w3.org/2000/svg" xmlns:xlink="http://www.w3.org/1999/xlink" x="0px" y="0px"
	 viewBox="0 0 595.3 841.9" enable-background="new 0 0 595.3 841.9" xml:space="preserve">
<g>
	<defs>
		<rect id="SVGID_1_" width="595.3" height="841.9"/>
	</defs>
	<clipPath id="SVGID_2_">
		<use xlink:href="#SVGID_1_"  overflow="visible"/>
	</clipPath>
	<g clip-path="url(#SVGID_2_)">
		<defs>
			<rect id="SVGID_3_" width="595.3" height="841.9"/>
		</defs>
		<clipPath id="SVGID_4_">
			<use xlink:href="#SVGID_3_"  overflow="visible"/>
		</clipPath>
		<path clip-path="url(#SVGID_4_)" fill="#D1D3D4" d="M446.5,172.2c0,0,1.9-6.6-2.5-16.5c-4.4-9.9-33.5-41.5-33.5-41.5l-2.9,4.6
			L446.5,172.2z"/>
	</g>
	<g clip-path="url(#SVGID_2_)">
		<defs>
			<path id="SVGID_5_" d="M328.5,78.4c52.3-8.6,110.1,93.9,110.1,93.9h7.9c-4.8-14.3-34.6-51.8-34.6-51.8
				c9.7,6.1,38.6,46.3,38.6,46.3l7.7,0.9l-11.7-26.4l-68-97.4L328.5,78.4z"/>
		</defs>
		<clipPath id="SVGID_6_">
			<use xlink:href="#SVGID_5_"  overflow="visible"/>
		</clipPath>
		
			<linearGradient id="SVGID_7_" gradientUnits="userSpaceOnUse" x1="-8.985307e-07" y1="841.89" x2="1" y2="841.89" gradientTransform="matrix(-129.6289 -1.130000e-05 -1.130000e-05 129.6289 458.1814 -109025.2188)">
			<stop  offset="0" style="stop-color:#808285"/>
			<stop  offset="0.4303" style="stop-color:#808285"/>
			<stop  offset="0.4402" style="stop-color:#7C7D80"/>
			<stop  offset="0.4972" style="stop-color:#666769"/>
			<stop  offset="0.5632" style="stop-color:#555558"/>
			<stop  offset="0.6428" style="stop-color:#4A494B"/>
			<stop  offset="0.7497" style="stop-color:#434244"/>
			<stop  offset="1" style="stop-color:#414042"/>
		</linearGradient>
		<rect x="328.5" y="43.9" clip-path="url(#SVGID_6_)" fill="url(#SVGID_7_)" width="129.6" height="128.4"/>
	</g>
	<g clip-path="url(#SVGID_2_)">
		<defs>
			<path id="SVGID_8_" d="M152.2,0c-16.2,6.7-15.9,39.3-14.6,50.1c1.3,10.8,8.1,19.1,8.1,19.1l33.2,2.3c0,0,18.5-17.3,46.9-9.4
				s38.1,63.1,38.1,63.1l68.7,3.5c10.1-64.4,26.7-56.9,26.7-56.9c53.8,16.7,98.9,95.9,98.9,95.9c-3.6-21.8-31.5-77.1-68-119.7
				C353.7,5.3,262.1,2,262.1,2c-23.1,17-45.7,16-52.5,15S185.7,4.6,185.7,4.6L152.2,0z"/>
		</defs>
		<clipPath id="SVGID_9_">
			<use xlink:href="#SVGID_8_"  overflow="visible"/>
		</clipPath>
		
			<linearGradient id="SVGID_10_" gradientUnits="userSpaceOnUse" x1="-6.501759e-07" y1="841.8573" x2="1" y2="841.8573" gradientTransform="matrix(-124.8703 -256.022 -256.022 124.8703 215895.0781 -104907.9141)">
			<stop  offset="0" style="stop-color:#6D6E71"/>
			<stop  offset="5.597958e-02" style="stop-color:#77787B"/>
			<stop  offset="0.1504" style="stop-color:#919294"/>
			<stop  offset="0.2709" style="stop-color:#BBBDBE"/>
			<stop  offset="0.3273" style="stop-color:#D1D3D4"/>
			<stop  offset="0.4788" style="stop-color:#6D6E71"/>
			<stop  offset="0.5307" style="stop-color:#757679"/>
			<stop  offset="0.6128" style="stop-color:#8B8D90"/>
			<stop  offset="0.6364" style="stop-color:#939598"/>
			<stop  offset="0.7576" style="stop-color:#6D6E71"/>
			<stop  offset="0.7974" style="stop-color:#747578"/>
			<stop  offset="0.8562" style="stop-color:#88898C"/>
			<stop  offset="0.9267" style="stop-color:#A8AAAB"/>
			<stop  offset="1" style="stop-color:#D1D3D4"/>
		</linearGradient>
		<polygon clip-path="url(#SVGID_9_)" fill="url(#SVGID_10_)" points="197.9,294.6 69.9,32.2 396.3,-126.9 524.2,135.5 		"/>
	</g>
	<g clip-path="url(#SVGID_2_)">
		<defs>
			<path id="SVGID_11_" d="M197.5,46.8c-7.4,0-14.3,3.8-21.3,6.3c0.5,3,0.4,6.3,1.1,9.6l1.1,6.1c0,0,17.5-20.3,52.4-8.9
				c0,0-14.2-13.1-33-13.1C197.6,46.8,197.6,46.8,197.5,46.8"/>
		</defs>
		<clipPath id="SVGID_12_">
			<use xlink:href="#SVGID_11_"  overflow="visible"/>
		</clipPath>
		
			<linearGradient id="SVGID_13_" gradientUnits="userSpaceOnUse" x1="0" y1="841.89" x2="1" y2="841.89" gradientTransform="matrix(-337.474 2.950000e-05 2.950000e-05 337.474 490.0797 -284058.25)">
			<stop  offset="0" style="stop-color:#808285"/>
			<stop  offset="0.5515" style="stop-color:#808285"/>
			<stop  offset="0.842" style="stop-color:#545456"/>
			<stop  offset="1" style="stop-color:#414042"/>
		</linearGradient>
		<rect x="176.1" y="46.8" clip-path="url(#SVGID_12_)" fill="url(#SVGID_13_)" width="54.6" height="22"/>
	</g>
	<g clip-path="url(#SVGID_2_)">
		<defs>
			<rect id="SVGID_14_" width="595.3" height="841.9"/>
		</defs>
		<clipPath id="SVGID_15_">
			<use xlink:href="#SVGID_14_"  overflow="visible"/>
		</clipPath>
		<g opacity="0.33" clip-path="url(#SVGID_15_)">
			<g>
				<defs>
					<rect id="SVGID_16_" x="360.3" y="72.1" width="91.8" height="85.6"/>
				</defs>
				<clipPath id="SVGID_17_">
					<use xlink:href="#SVGID_16_"  overflow="visible"/>
				</clipPath>
				<path clip-path="url(#SVGID_17_)" fill="#FFFFFF" d="M428.2,116.4c-6.7-8.6-13.9-16.9-22.5-23.6c-20.2-15.7-33.4-18.7-45.4-20.6
					c41.6,13.6,77.8,64.1,91.8,85.6C450.1,151.6,436.3,126.8,428.2,116.4"/>
			</g>
		</g>
		<g opacity="0.33" clip-path="url(#SVGID_15_)">
			<g>
				<defs>
					<rect id="SVGID_18_" x="138.6" width="46.4" height="25.1"/>
				</defs>
				<clipPath id="SVGID_19_">
					<use xlink:href="#SVGID_18_"  overflow="visible"/>
				</clipPath>
				<path clip-path="url(#SVGID_19_)" fill="#FFFFFF" d="M177.2,25.1c1.9-10,5.2-16.7,7.8-20.6L152.2,0
					c-7.8,3.2-11.8,12.4-13.6,22.3C151.5,22.3,164.4,23.5,177.2,25.1"/>
			</g>
		</g>
		<g opacity="0.47" clip-path="url(#SVGID_15_)">
			<g>
				<defs>
					<rect id="SVGID_20_" x="137.9" y="51.9" width="40.4" height="17.1"/>
				</defs>
				<clipPath id="SVGID_21_">
					<use xlink:href="#SVGID_20_"  overflow="visible"/>
				</clipPath>
				<g clip-path="url(#SVGID_21_)">
					<defs>
						<path id="SVGID_22_" d="M178.4,69c-1.1-5.7-1.8-11-2.3-15.8c-5.5,3-11.7,4.7-18,4.7c-7.2,0-14.2-2.1-20.1-5.9
							c1.2,6.8,4.4,12.4,6.3,15.3C146.9,67.3,173.4,68.6,178.4,69"/>
					</defs>
					<clipPath id="SVGID_23_">
						<use xlink:href="#SVGID_22_"  overflow="visible"/>
					</clipPath>
					<defs>
						<filter id="Adobe_OpacityMaskFilter" filterUnits="userSpaceOnUse" x="131.8" y="37.4" width="52.7" height="46.2">
							<feColorMatrix  type="matrix" values="1 0 0 0 0  0 1 0 0 0  0 0 1 0 0  0 0 0 1 0"/>
						</filter>
					</defs>
					<mask maskUnits="userSpaceOnUse" x="131.8" y="37.4" width="52.7" height="46.2" id="SVGID_24_">
						<g filter="url(#Adobe_OpacityMaskFilter)">
							
								<linearGradient id="SVGID_25_" gradientUnits="userSpaceOnUse" x1="0" y1="841.89" x2="1" y2="841.89" gradientTransform="matrix(72.3866 -170.5321 -170.5321 -72.3866 143711.1406 61040.4023)">
								<stop  offset="0" style="stop-color:#FFFFFF"/>
								<stop  offset="6.285292e-02" style="stop-color:#DADADA"/>
								<stop  offset="0.1601" style="stop-color:#A7A7A7"/>
								<stop  offset="0.2621" style="stop-color:#7B7B7B"/>
								<stop  offset="0.3668" style="stop-color:#555555"/>
								<stop  offset="0.475" style="stop-color:#363636"/>
								<stop  offset="0.5878" style="stop-color:#1E1E1E"/>
								<stop  offset="0.7072" style="stop-color:#0D0D0D"/>
								<stop  offset="0.8376" style="stop-color:#030303"/>
								<stop  offset="1" style="stop-color:#000000"/>
							</linearGradient>
							<polygon clip-path="url(#SVGID_23_)" fill="url(#SVGID_25_)" points="131.8,66.4 144.1,37.4 184.5,54.5 172.2,83.6 							
								"/>
						</g>
					</mask>
					
						<linearGradient id="SVGID_26_" gradientUnits="userSpaceOnUse" x1="0" y1="841.89" x2="1" y2="841.89" gradientTransform="matrix(72.3866 -170.5321 -170.5321 -72.3866 143711.1406 61040.4102)">
						<stop  offset="0" style="stop-color:#231F20"/>
						<stop  offset="1" style="stop-color:#231F20"/>
					</linearGradient>
					<polygon clip-path="url(#SVGID_23_)" mask="url(#SVGID_24_)" fill="url(#SVGID_26_)" points="131.8,66.4 144.1,37.4 
						184.5,54.5 172.2,83.6 					"/>
				</g>
			</g>
		</g>
		<g opacity="0.91" clip-path="url(#SVGID_15_)">
			<g>
				<defs>
					<rect id="SVGID_27_" x="237" y="61.1" width="109.9" height="67.5"/>
				</defs>
				<clipPath id="SVGID_28_">
					<use xlink:href="#SVGID_27_"  overflow="visible"/>
				</clipPath>
				<g clip-path="url(#SVGID_28_)">
					<defs>
						<path id="SVGID_29_" d="M237,61.1c0,0,24,8,32.6,61.1l56,6.5c0,0,8.6-45.7,21.4-57.1c0,0-17.1,15.5-25.2,17.5
							c-8.1,2-37.8-0.3-48.6-5.2C262.3,78.9,250,62.2,237,61.1"/>
					</defs>
					<clipPath id="SVGID_30_">
						<use xlink:href="#SVGID_29_"  overflow="visible"/>
					</clipPath>
					<defs>
						<filter id="Adobe_OpacityMaskFilter_1_" filterUnits="userSpaceOnUse" x="219.1" y="32" width="145.7" height="125.8">
							<feColorMatrix  type="matrix" values="1 0 0 0 0  0 1 0 0 0  0 0 1 0 0  0 0 0 1 0"/>
						</filter>
					</defs>
					<mask maskUnits="userSpaceOnUse" x="219.1" y="32" width="145.7" height="125.8" id="SVGID_31_">
						<g filter="url(#Adobe_OpacityMaskFilter_1_)">
							
								<linearGradient id="SVGID_32_" gradientUnits="userSpaceOnUse" x1="0" y1="841.9781" x2="1" y2="841.9781" gradientTransform="matrix(-24.6222 -85.8677 -85.8677 24.6222 72602.1641 -20596.3223)">
								<stop  offset="0" style="stop-color:#FFFFFF"/>
								<stop  offset="6.285292e-02" style="stop-color:#DADADA"/>
								<stop  offset="0.1601" style="stop-color:#A7A7A7"/>
								<stop  offset="0.2621" style="stop-color:#7B7B7B"/>
								<stop  offset="0.3668" style="stop-color:#555555"/>
								<stop  offset="0.475" style="stop-color:#363636"/>
								<stop  offset="0.5878" style="stop-color:#1E1E1E"/>
								<stop  offset="0.7072" style="stop-color:#0D0D0D"/>
								<stop  offset="0.8376" style="stop-color:#030303"/>
								<stop  offset="1" style="stop-color:#000000"/>
							</linearGradient>
							<polygon clip-path="url(#SVGID_30_)" fill="url(#SVGID_32_)" points="245.3,157.8 219.1,66.3 338.6,32 364.8,123.5 							
								"/>
						</g>
					</mask>
					
						<linearGradient id="SVGID_33_" gradientUnits="userSpaceOnUse" x1="0" y1="841.9781" x2="1" y2="841.9781" gradientTransform="matrix(-24.6222 -85.8677 -85.8677 24.6222 72602.1641 -20596.3223)">
						<stop  offset="0" style="stop-color:#231F20"/>
						<stop  offset="1" style="stop-color:#231F20"/>
					</linearGradient>
					<polygon clip-path="url(#SVGID_30_)" mask="url(#SVGID_31_)" fill="url(#SVGID_33_)" points="245.3,157.8 219.1,66.3 338.6,32 
						364.8,123.5 					"/>
				</g>
			</g>
		</g>
		<g opacity="0.28" clip-path="url(#SVGID_15_)">
			<g>
				<defs>
					<rect id="SVGID_34_" x="147.1" width="304.2" height="146.1"/>
				</defs>
				<clipPath id="SVGID_35_">
					<use xlink:href="#SVGID_34_"  overflow="visible"/>
				</clipPath>
				<path clip-path="url(#SVGID_35_)" fill="#FFFFFF" d="M390.2,47.9C353.7,5.3,262.1,2,262.1,2c-23.1,17-45.7,16-52.5,15
					c-6.8-1-23.8-12.4-23.8-12.4L152.2,0c-1.9,0.8-3.6,2-5.1,3.4l36.8,4.8c0,0,16.6,14.6,36.9,12.6c20.4-2.1,42.7-14.5,42.7-14.5
					s24,0,53.2,7c16.4,3.9,44.1,15.4,51.6,20.8c17.7,12.6,30,29.3,42,47.5c5.5,8.3,10.9,16.5,15.8,25.1c5.2,9.1,11.8,17.2,17.1,26.3
					c2.6,4.4,5.3,8.8,7.9,13.1C440.3,119.3,417.7,80,390.2,47.9"/>
			</g>
		</g>
	</g>
	<g clip-path="url(#SVGID_2_)">
		<defs>
			<path id="SVGID_36_" d="M265.4,122.5c0,0-3.8,0.8-4.1,6.9c-0.3,6.1,2,114.4,1,129.4c-0.6,8.5-4.5,53.1-8.3,93.2
				c14.8-2.1,41.2-3.6,64.2,6.5c0.7-68.4,9.4-213.1,15.6-229.3c0,0,1.3-8.1-36.1-8.1C289.1,121.1,278.5,121.5,265.4,122.5"/>
		</defs>
		<clipPath id="SVGID_37_">
			<use xlink:href="#SVGID_36_"  overflow="visible"/>
		</clipPath>
		
			<linearGradient id="SVGID_38_" gradientUnits="userSpaceOnUse" x1="0" y1="841.8876" x2="1" y2="841.8876" gradientTransform="matrix(104.5629 1.8252 1.8252 -104.5629 -1308.6781 88268.7812)">
			<stop  offset="0" style="stop-color:#FDD905"/>
			<stop  offset="9.853343e-02" style="stop-color:#F2CD07"/>
			<stop  offset="0.2765" style="stop-color:#D5AD0B"/>
			<stop  offset="0.5117" style="stop-color:#A67A12"/>
			<stop  offset="0.7455" style="stop-color:#72411A"/>
			<stop  offset="0.7822" style="stop-color:#7E491F"/>
			<stop  offset="0.8478" style="stop-color:#9C5E2D"/>
			<stop  offset="0.934" style="stop-color:#CE8144"/>
			<stop  offset="1" style="stop-color:#F89E57"/>
		</linearGradient>
		<polygon clip-path="url(#SVGID_37_)" fill="url(#SVGID_38_)" points="254.1,119.6 339.4,121.1 335.2,359.8 249.9,358.3 		"/>
	</g>
	<g clip-path="url(#SVGID_2_)">
		<defs>
			<rect id="SVGID_39_" width="595.3" height="841.9"/>
		</defs>
		<clipPath id="SVGID_40_">
			<use xlink:href="#SVGID_39_"  overflow="visible"/>
		</clipPath>
		<g opacity="0.77" clip-path="url(#SVGID_40_)">
			<g>
				<defs>
					<rect id="SVGID_41_" x="254.1" y="122.2" width="19" height="229.7"/>
				</defs>
				<clipPath id="SVGID_42_">
					<use xlink:href="#SVGID_41_"  overflow="visible"/>
				</clipPath>
				<g clip-path="url(#SVGID_42_)">
					<defs>
						<path id="SVGID_43_" d="M272.5,223.1c-1.8,32-4.6,63.9-8.2,95.7c-0.7,4.3-1.5,8.7-2.3,13c-1.3,6.6-2.1,13.1-2.5,19.5
							c-2,0.2-3.8,0.4-5.5,0.7c3.7-40,7.7-84.7,8.3-93.2c1-15-1.3-123.3-1-129.4c0.3-6.1,4.1-6.8,4.1-6.8c1.4-0.1,2.8-0.2,4.1-0.3
							C269.5,122.2,274.9,181.4,272.5,223.1"/>
					</defs>
					<clipPath id="SVGID_44_">
						<use xlink:href="#SVGID_43_"  overflow="visible"/>
					</clipPath>
					<defs>
						<filter id="Adobe_OpacityMaskFilter_2_" filterUnits="userSpaceOnUse" x="250.1" y="121.9" width="28.8" height="230.5">
							<feColorMatrix  type="matrix" values="1 0 0 0 0  0 1 0 0 0  0 0 1 0 0  0 0 0 1 0"/>
						</filter>
					</defs>
					<mask maskUnits="userSpaceOnUse" x="250.1" y="121.9" width="28.8" height="230.5" id="SVGID_45_">
						<g filter="url(#Adobe_OpacityMaskFilter_2_)">
							
								<linearGradient id="SVGID_46_" gradientUnits="userSpaceOnUse" x1="0" y1="841.8905" x2="1" y2="841.8905" gradientTransform="matrix(101.0041 1.763 1.763 -101.0041 -1255.3912 85270.875)">
								<stop  offset="0" style="stop-color:#FFFFFF"/>
								<stop  offset="5.242193e-02" style="stop-color:#E8E8E8"/>
								<stop  offset="0.2031" style="stop-color:#ABABAB"/>
								<stop  offset="0.3529" style="stop-color:#777777"/>
								<stop  offset="0.4983" style="stop-color:#4C4C4C"/>
								<stop  offset="0.6383" style="stop-color:#2B2B2B"/>
								<stop  offset="0.7716" style="stop-color:#131313"/>
								<stop  offset="0.8952" style="stop-color:#050505"/>
								<stop  offset="1" style="stop-color:#000000"/>
							</linearGradient>
							<polygon clip-path="url(#SVGID_44_)" fill="url(#SVGID_46_)" points="254.1,121.9 278.9,122.3 274.9,352.3 250.1,351.9 
															"/>
						</g>
					</mask>
					
						<linearGradient id="SVGID_47_" gradientUnits="userSpaceOnUse" x1="0" y1="841.8905" x2="1" y2="841.8905" gradientTransform="matrix(101.0041 1.763 1.763 -101.0041 -1255.3912 85270.875)">
						<stop  offset="0" style="stop-color:#FFFFFF"/>
						<stop  offset="1" style="stop-color:#FFFFFF"/>
					</linearGradient>
					<polygon clip-path="url(#SVGID_44_)" mask="url(#SVGID_45_)" fill="url(#SVGID_47_)" points="254.1,121.9 278.9,122.3 
						274.9,352.3 250.1,351.9 					"/>
				</g>
			</g>
		</g>
	</g>
	<g clip-path="url(#SVGID_2_)">
		<defs>
			<path id="SVGID_48_" d="M256.2,318.9c-2.9,0.3-4.6,1.5-5,5.5c-3,32.5-5.8,61.5-6.9,69.8c-2.6,20.3-15.7,202.9-12.2,259.7
				c3.5,56.8-12.8,144.9-20.9,158.9c0,0-3.8,10.7,11.3,22.9c0,0,72.8,8.7,89.9,5.2c0,0,16.2-10.7,17.7-15.9s-11-87-4.1-177.4
				c7-90.4,2.3-239.5-0.6-290.5c-0.3-5.3-0.4-12.4-0.4-20.8c0-5.1,1-9.1-4.8-11.3c-14.8-5.5-30.5-7.2-44.1-7.2
				C268.8,317.7,262,318.2,256.2,318.9"/>
		</defs>
		<clipPath id="SVGID_49_">
			<use xlink:href="#SVGID_48_"  overflow="visible"/>
		</clipPath>
		
			<linearGradient id="SVGID_50_" gradientUnits="userSpaceOnUse" x1="0" y1="841.8816" x2="1" y2="841.8816" gradientTransform="matrix(193.4346 3.3764 3.3764 -193.4346 -2679.1775 163428.1406)">
			<stop  offset="0" style="stop-color:#6D6E71"/>
			<stop  offset="0.1669" style="stop-color:#696A6D"/>
			<stop  offset="0.3322" style="stop-color:#5F5F61"/>
			<stop  offset="0.4969" style="stop-color:#4C4B4D"/>
			<stop  offset="0.6602" style="stop-color:#333032"/>
			<stop  offset="0.7455" style="stop-color:#231F20"/>
			<stop  offset="0.7825" style="stop-color:#403D3E"/>
			<stop  offset="0.8881" style="stop-color:#8D8D8E"/>
			<stop  offset="0.9632" style="stop-color:#BEC0C1"/>
			<stop  offset="1" style="stop-color:#D1D3D4"/>
		</linearGradient>
		<polygon clip-path="url(#SVGID_49_)" fill="url(#SVGID_50_)" points="207.6,315.5 342.2,317.9 333,846.5 198.3,844.2 		"/>
	</g>
	<g clip-path="url(#SVGID_2_)">
		<defs>
			<rect id="SVGID_51_" width="595.3" height="841.9"/>
		</defs>
		<clipPath id="SVGID_52_">
			<use xlink:href="#SVGID_51_"  overflow="visible"/>
		</clipPath>
		<g opacity="0.4" clip-path="url(#SVGID_52_)">
			<g>
				<defs>
					<rect id="SVGID_53_" x="210.9" y="317.8" width="60.9" height="520.9"/>
				</defs>
				<clipPath id="SVGID_54_">
					<use xlink:href="#SVGID_53_"  overflow="visible"/>
				</clipPath>
				<g clip-path="url(#SVGID_54_)">
					<defs>
						<path id="SVGID_55_" d="M255.8,752.6c2.5-23.6,5.6-47.1,7.1-70.9c1.5-24.2,2.2-48.5,2.2-72.8c0.1-48.4-1.8-96.8-3-145.3
							c-0.6-23.4-3-47.2-0.9-70.6c2.3-24.6,6.6-48.9,10.3-73.3c0.1-0.6,0.1-1.3,0.2-1.9c-6.1,0.2-11.6,0.6-16.4,1.2
							c-2.6,0.3-3.8,2.6-4.1,5.1c-3,32.6-5.9,61.7-6.9,70c-2.6,20.3-15.7,202.9-12.2,259.7c3.5,56.8-12.8,144.9-20.9,158.9
							c0,0-3.8,10.7,11.3,22.9c0,0,12.9,1.5,29.2,3.1C251.2,810,252.8,781.3,255.8,752.6"/>
					</defs>
					<clipPath id="SVGID_56_">
						<use xlink:href="#SVGID_55_"  overflow="visible"/>
					</clipPath>
					<defs>
						<filter id="Adobe_OpacityMaskFilter_3_" filterUnits="userSpaceOnUse" x="180.3" y="314.4" width="118.7" height="527.6">
							<feColorMatrix  type="matrix" values="1 0 0 0 0  0 1 0 0 0  0 0 1 0 0  0 0 0 1 0"/>
						</filter>
					</defs>
					<mask maskUnits="userSpaceOnUse" x="180.3" y="314.4" width="118.7" height="527.6" id="SVGID_57_">
						<g filter="url(#Adobe_OpacityMaskFilter_3_)">
							
								<linearGradient id="SVGID_58_" gradientUnits="userSpaceOnUse" x1="0" y1="841.8831" x2="1" y2="841.8831" gradientTransform="matrix(166.6248 8.7324 8.7324 -166.6248 -7172.8027 140853.625)">
								<stop  offset="0" style="stop-color:#FFFFFF"/>
								<stop  offset="5.242193e-02" style="stop-color:#E8E8E8"/>
								<stop  offset="0.2031" style="stop-color:#ABABAB"/>
								<stop  offset="0.3529" style="stop-color:#777777"/>
								<stop  offset="0.4983" style="stop-color:#4C4C4C"/>
								<stop  offset="0.6383" style="stop-color:#2B2B2B"/>
								<stop  offset="0.7716" style="stop-color:#131313"/>
								<stop  offset="0.8952" style="stop-color:#050505"/>
								<stop  offset="1" style="stop-color:#000000"/>
							</linearGradient>
							<polygon clip-path="url(#SVGID_56_)" fill="url(#SVGID_58_)" points="207.7,314.4 299,319.2 271.6,842 180.3,837.3 							
								"/>
						</g>
					</mask>
					
						<linearGradient id="SVGID_59_" gradientUnits="userSpaceOnUse" x1="0" y1="841.8831" x2="1" y2="841.8831" gradientTransform="matrix(166.6248 8.7324 8.7324 -166.6248 -7172.8027 140853.625)">
						<stop  offset="0" style="stop-color:#FFFFFF"/>
						<stop  offset="1" style="stop-color:#FFFFFF"/>
					</linearGradient>
					<polygon clip-path="url(#SVGID_56_)" mask="url(#SVGID_57_)" fill="url(#SVGID_59_)" points="207.7,314.4 299,319.2 271.6,842 
						180.3,837.3 					"/>
				</g>
			</g>
		</g>
	</g>
	<g clip-path="url(#SVGID_2_)">
		<defs>
			<path id="SVGID_60_" d="M222.6,835.6c0,0,73,9.3,89.9,5.2c5.8-1.4,16.2-10.7,17.7-15.9c0.2-0.6,0.1-2.1,0-4.5
				c-4.9,3.5-10,6.6-15.2,9.3c-8.3,4.5-17.5,7.2-27,6.4c-6.7-0.5-13.3-1.3-20-2c-11.3-1.2-23.8-0.9-34.7-4.3
				c-6.9-2.2-14.4-5.5-19.5-11c-1.1-1.2-2-2.3-2.9-3.5C210.7,819.2,212,827,222.6,835.6"/>
		</defs>
		<clipPath id="SVGID_61_">
			<use xlink:href="#SVGID_60_"  overflow="visible"/>
		</clipPath>
		
			<linearGradient id="SVGID_62_" gradientUnits="userSpaceOnUse" x1="0" y1="841.8835" x2="1" y2="841.8835" gradientTransform="matrix(193.4362 3.3764 3.3764 -193.4362 -2683.5562 163678.9219)">
			<stop  offset="0" style="stop-color:#6D6E71"/>
			<stop  offset="1" style="stop-color:#231F20"/>
		</linearGradient>
		<polygon clip-path="url(#SVGID_61_)" fill="url(#SVGID_62_)" points="210.8,813.2 330.8,815.3 330.3,847.1 210.2,845 		"/>
	</g>
</g>
</svg>
