<?xml version="1.0" encoding="utf-8"?>
<!-- Generator: Adobe Illustrator 17.1.0, SVG Export Plug-In . SVG Version: 6.00 Build 0)  -->
<!DOCTYPE svg PUBLIC "-//W3C//DTD SVG 1.1//EN" "http://www.w3.org/Graphics/SVG/1.1/DTD/svg11.dtd">
<svg version="1.1" id="Lager_1" xmlns="http://www.w3.org/2000/svg" xmlns:xlink="http://www.w3.org/1999/xlink" x="0px" y="0px"
	 viewBox="0 0 841.9 595.3" enable-background="new 0 0 841.9 595.3" xml:space="preserve">
<g>
	<defs>
		<rect id="SVGID_1_" width="841.9" height="595.3"/>
	</defs>
	<clipPath id="SVGID_2_">
		<use xlink:href="#SVGID_1_"  overflow="visible"/>
	</clipPath>
	<g clip-path="url(#SVGID_2_)">
		<defs>
			<path id="SVGID_3_" d="M166.3,91.8c-28.4,27.6-25.1,66.4,2.5,94.8c66,67.8,134.9,118.3,214.6,138.3
				c79.5,20,164.1,15.6,253.9-13.1c37.7-11.9,58.6-52.2,46.6-89.9c-12-37.7-52.2-58.6-89.9-46.6c-63.6,20.3-122.2,23.8-175.8,10.3
				c-53.5-13.4-100.4-35.7-147.3-83.9c-16.1-16.5-39.3-26.6-61.6-26.6C193.5,75.2,178.1,80.3,166.3,91.8"/>
		</defs>
		<clipPath id="SVGID_4_">
			<use xlink:href="#SVGID_3_"  overflow="visible"/>
		</clipPath>
		
			<linearGradient id="SVGID_5_" gradientUnits="userSpaceOnUse" x1="0" y1="595.2759" x2="1" y2="595.2759" gradientTransform="matrix(540.5966 0 0 540.5966 146.9448 -321594.0312)">
			<stop  offset="0" style="stop-color:#A67C52"/>
			<stop  offset="0" style="stop-color:#AD8458"/>
			<stop  offset="0.5988" style="stop-color:#E8CF91"/>
			<stop  offset="1" style="stop-color:#E8CF91"/>
		</linearGradient>
		<rect x="137.9" y="75.2" clip-path="url(#SVGID_4_)" fill="url(#SVGID_5_)" width="558" height="269.8"/>
	</g>
	<g clip-path="url(#SVGID_2_)">
		<defs>
			<rect id="SVGID_6_" width="841.9" height="595.3"/>
		</defs>
		<clipPath id="SVGID_7_">
			<use xlink:href="#SVGID_6_"  overflow="visible"/>
		</clipPath>
		<g opacity="0.71" clip-path="url(#SVGID_7_)">
			<g>
				<defs>
					<rect id="SVGID_8_" x="185" y="75.3" width="404.3" height="157.9"/>
				</defs>
				<clipPath id="SVGID_9_">
					<use xlink:href="#SVGID_8_"  overflow="visible"/>
				</clipPath>
				<g clip-path="url(#SVGID_9_)">
					<defs>
						<rect id="SVGID_10_" x="185" y="75.3" width="404.3" height="157.9"/>
					</defs>
					<clipPath id="SVGID_11_">
						<use xlink:href="#SVGID_10_"  overflow="visible"/>
					</clipPath>
					<path clip-path="url(#SVGID_11_)" fill="#FFFFFF" d="M212.8,75.3c21.2,1,42.9,10.8,58.2,26.5c46.9,48.2,93.8,70.5,147.3,83.9
						c52.3,13.1,109.3,10.2,171.1-8.8c-36,33.5-107.5,56.3-189.7,56.3c-118.5,0-214.6-47.4-214.6-105.8
						C185,108.4,195.1,90.7,212.8,75.3"/>
				</g>
			</g>
		</g>
	</g>
	<g clip-path="url(#SVGID_2_)">
		<defs>
			<path id="SVGID_12_" d="M97.9,71.6c-24.7,0-48.7,8-67.1,25.9c-44.2,43-39,103.4,3.9,147.6c102.7,105.6,210,184.2,334,215.3
				c123.8,31.1,255.5,24.3,395.3-20.4c58.7-18.6,91.2-81.2,72.6-139.9c-18.6-58.7-81.2-91.2-139.9-72.6c-99,31.7-190.3,37-273.7,16
				C339.8,222.7,266.8,188,193.7,113C168.7,87.2,132.5,71.6,97.9,71.6C97.9,71.6,97.9,71.6,97.9,71.6"/>
		</defs>
		<clipPath id="SVGID_13_">
			<use xlink:href="#SVGID_12_"  overflow="visible"/>
		</clipPath>
		
			<linearGradient id="SVGID_14_" gradientUnits="userSpaceOnUse" x1="0" y1="595.2755" x2="1" y2="595.2755" gradientTransform="matrix(132.045 303.215 -303.215 132.0449 180911.4844 -78334.9453)">
			<stop  offset="0" style="stop-color:#D69544"/>
			<stop  offset="0.5988" style="stop-color:#EAA883"/>
			<stop  offset="1" style="stop-color:#EAA883"/>
		</linearGradient>
		<polygon clip-path="url(#SVGID_13_)" fill="url(#SVGID_14_)" points="-167.1,138.6 125.1,809.6 1009,424.6 716.8,-246.4 		"/>
	</g>
	<g clip-path="url(#SVGID_2_)">
		<defs>
			<rect id="SVGID_15_" width="841.9" height="595.3"/>
		</defs>
		<clipPath id="SVGID_16_">
			<use xlink:href="#SVGID_15_"  overflow="visible"/>
		</clipPath>
		<defs>
			<filter id="Adobe_OpacityMaskFilter" filterUnits="userSpaceOnUse" x="-3.6" y="54.5" width="818.1" height="372.8">
				<feColorMatrix  type="matrix" values="1 0 0 0 0  0 1 0 0 0  0 0 1 0 0  0 0 0 1 0"/>
			</filter>
		</defs>
		<mask maskUnits="userSpaceOnUse" x="-3.6" y="54.5" width="818.1" height="372.8" id="SVGID_17_">
			<g filter="url(#Adobe_OpacityMaskFilter)">
				<rect x="-3.6" y="54.5" clip-path="url(#SVGID_16_)" width="818.1" height="372.8"/>
				<g enable-background="new    ">
					<rect x="0" y="71.6" clip-path="url(#SVGID_16_)" width="807.2" height="343.8"/>
					<g>
						<defs>
							<rect id="SVGID_18_" x="0" y="71.6" width="807.2" height="343.8"/>
						</defs>
						<clipPath id="SVGID_19_" clip-path="url(#SVGID_16_)">
							<use xlink:href="#SVGID_18_"  overflow="visible"/>
						</clipPath>
						<g enable-background="new    ">
							<g>
								<defs>
									<path id="SVGID_20_" d="M30.8,97.5C5.5,122.1-3.6,152.4,1.3,182.1C103.6,287,210.5,365.1,334.1,396.2
										c123.8,31.1,255.5,24.3,395.3-20.4c53.4-16.9,85.2-70.4,76.4-124.1c-28.4-26-69.6-36.6-109-24.1
										c-99,31.7-190.3,37-273.7,16C339.8,222.7,266.8,188,193.7,113c-25.1-25.8-61.3-41.3-95.9-41.3
										C73.2,71.6,49.2,79.6,30.8,97.5"/>
								</defs>
								<clipPath id="SVGID_21_" clip-path="url(#SVGID_19_)">
									<use xlink:href="#SVGID_20_"  overflow="visible"/>
								</clipPath>
								<defs>
									<filter id="Adobe_OpacityMaskFilter_1_" filterUnits="userSpaceOnUse" x="-3.6" y="71.6" width="818.1" height="355.7">
										<feFlood  style="flood-color:white;flood-opacity:1" result="back"/>
										<feBlend  in="SourceGraphic" in2="back" mode="normal"/>
									</filter>
								</defs>
								<mask maskUnits="userSpaceOnUse" x="-3.6" y="71.6" width="818.1" height="355.7" id="SVGID_17_">
									<g filter="url(#Adobe_OpacityMaskFilter_1_)">
										<g enable-background="new    ">
										</g>
									</g>
								</mask>
								
									<radialGradient id="SVGID_22_" cx="0" cy="595.275" r="1" gradientTransform="matrix(471.3072 0 0 471.3072 664.6948 -279933.0312)" gradientUnits="userSpaceOnUse">
									<stop  offset="0" style="stop-color:#FFFFFF"/>
									<stop  offset="1" style="stop-color:#1A171B"/>
								</radialGradient>
								
									<rect x="-3.6" y="71.6" clip-path="url(#SVGID_21_)" mask="url(#SVGID_17_)" fill="url(#SVGID_22_)" width="818.1" height="355.7"/>
							</g>
						</g>
					</g>
				</g>
			</g>
		</mask>
		<g clip-path="url(#SVGID_16_)">
			<g>
				<defs>
					<rect id="SVGID_23_" x="-3.6" y="54.5" width="818.1" height="372.8"/>
				</defs>
				<clipPath id="SVGID_24_">
					<use xlink:href="#SVGID_23_"  overflow="visible"/>
				</clipPath>
				<g clip-path="url(#SVGID_24_)">
					<defs>
						<path id="SVGID_25_" d="M30.8,97.5C10,117.8,0.1,141.9,0,166.4v0.8c0,5,0.4,10,1.3,14.9C103.6,287,210.5,365.1,334.1,396.2
							c123.8,31.1,255.5,24.3,395.3-20.4c53.4-16.9,85.2-70.4,76.4-124.1c-28.4-26-69.6-36.6-109-24.1c-99,31.7-190.3,37-273.7,16
							C339.8,222.7,266.8,188,193.7,113c-25.1-25.8-61.3-41.3-95.9-41.3C73.2,71.6,49.2,79.6,30.8,97.5"/>
					</defs>
					<clipPath id="SVGID_26_">
						<use xlink:href="#SVGID_25_"  overflow="visible"/>
					</clipPath>
					
						<radialGradient id="SVGID_27_" cx="0" cy="595.275" r="1" gradientTransform="matrix(471.3072 0 0 471.3072 664.6948 -279933.0312)" gradientUnits="userSpaceOnUse">
						<stop  offset="0" style="stop-color:#FFFFFF"/>
						<stop  offset="1" style="stop-color:#FFFFFF"/>
					</radialGradient>
					<rect x="0" y="71.6" clip-path="url(#SVGID_26_)" fill="url(#SVGID_27_)" width="814.5" height="355.7"/>
				</g>
			</g>
		</g>
		<g opacity="0.71" clip-path="url(#SVGID_16_)">
			<g>
				<defs>
					<rect id="SVGID_28_" x="59.9" y="71.7" width="629.4" height="245.9"/>
				</defs>
				<clipPath id="SVGID_29_">
					<use xlink:href="#SVGID_28_"  overflow="visible"/>
				</clipPath>
				<g clip-path="url(#SVGID_29_)">
					<defs>
						<rect id="SVGID_30_" x="59.9" y="71.7" width="629.4" height="245.9"/>
					</defs>
					<clipPath id="SVGID_31_">
						<use xlink:href="#SVGID_30_"  overflow="visible"/>
					</clipPath>
					<path clip-path="url(#SVGID_31_)" fill="#FFFFFF" d="M103.2,71.7c32.9,1.5,66.8,16.8,90.5,41.2c73,75,146,109.7,229.2,130.7
						c81.4,20.5,170.2,15.9,266.4-13.7C633.2,282.1,522,317.6,394,317.6c-184.5,0-334.1-73.8-334.1-164.8
						C59.9,123.3,75.7,95.7,103.2,71.7"/>
				</g>
			</g>
		</g>
		<path clip-path="url(#SVGID_16_)" fill="#CEBE29" d="M154.1,199.2c-5.4,1.8-11.2-1.1-13-6.5c-1.8-5.4,1.1-11.2,6.6-13
			c3.5-1.2,9.6-4.7,16.5-8.7c12.1-7,26.3-15.3,39.3-17.8c17-3.3,30.8,1.7,35.2,24.8c1.5,7.7,0.4,18-0.7,28.7
			c-1.2,12-2.5,24.8-0.1,29.7c0.4,0.7,2.8,0.1,9.1-3.1c45.5-22.8,64.8-13,73.9,5.3c4.7,9.4,5.8,20.4,6.7,30
			c0.6,6.2,1.1,11.4,1.1,11.4c0.7,0.6,3.3-5.9,17.3-21.3c17.9-19.7,31.5-19.8,42.4-9.9c10,9,14.7,27.1,19,43.6
			c2,7.6,3.9,14.8,5.7,19.3c6.1-6,10.6-13.5,14.8-20.4c13.9-23,24.6-40.6,61.9-16.7c1.9,1.2,4.2,3,7.3,5.5
			c11.5,8.9,34.6,26.9,47.8,29c1.4,0.2,2.4-0.2,2.6-1.6c5.7-35.7,19.7-48.4,40.1-48.3c17.5,0.1,38.1,11.2,62.1,24.6
			c16.7,9.3,28.2-1.2,34.8-13c3.1-5.5,5.2-11.3,6.5-16h0c0.6-2.1,1.3-2.8,1.7-3.3c-0.2-0.3-0.3-0.6-0.4-0.8
			c-2.3-5.2,0.2-11.3,5.4-13.6c6.6-2.8,11.3-0.8,14.1,5.7l0,0c1.3,3,1.1,9.8-0.9,17.3l0,0c-1.6,6-4.4,13.4-8.4,20.7
			c-11.4,20.4-31.8,38.4-62.9,21c-21.6-12-39.8-22-52.1-22c-9.3,0-16.1,8.1-19.8,31c-2.6,16.3-12.7,20.9-26.2,18.7
			c-18.5-3-44.4-23.1-57.2-33.1c-3.1-2.4-5.3-4.1-5.7-4.4c-19.5-12.5-25.5-2.7-33.1,10c-5.7,9.5-12.1,20.1-22.8,28.8
			c-9.5,7.7-17.1,5.8-23.6-2.2c-5.3-6.5-8.4-18.3-11.7-31c-3.6-13.7-7.5-28.7-12.9-33.5c-1.8-1.7-5.7,0.1-13.3,8.4
			c-24.5,27-37.4,30.9-46.4,22.8c-6-5.4-6.8-14.3-7.8-24.8c-0.7-7.8-1.6-16.8-4.6-22.7c-4.2-8.3-15.5-11.5-46.3,3.9
			c-20,10-30.9,5.7-36.8-6.1c-5.2-10.3-3.6-26.1-2-41c0.9-9.1,1.8-17.9,0.9-22.7c-1.5-7.7-5.8-9.4-11-8.4
			c-9.5,1.8-22.1,9.1-32.8,15.3C166.7,193.3,159.8,197.3,154.1,199.2"/>
		<path clip-path="url(#SVGID_16_)" fill="#8C0C15" d="M116,184.3c-4.7,3.3-11.1,2.1-14.4-2.5c-3.3-4.7-2.1-11.1,2.5-14.4
			c6.3-4.4,32.7-17.7,55.2-23c8.8-2.1,17.4-3,24.6-2c9.6,1.4,16.9,6,20,15.3c1.5,4.4,1.8,9.8,0.6,16.1c-1.6,8.5-5.9,18.4-10,28.1
			c-4.5,10.6-8.8,20.6-8.5,21c0.5,0.8,5.1-4.8,22.1-15c37.1-22.1,53.6-23,62.4-8.2c5.1,8.6,5,21.5,4.9,38.6l0,8.4
			c0,12.5-0.5,16.9-0.3,16.9c3.3,0,12.6-9.9,21.1-19c7.1-7.5,13.7-14.6,19.6-17.8c20.6-11.5,31.8-8,37.9,2.8v0
			c5.5,9.9,3.2,25.3,1.2,38.3l-0.7,4.7c-3.3,23.4-2.4,31.9,0.5,32.3c9.8,1.4,34.1-23.3,48-37.4c9.4-9.6,15.9-16.2,23.4-12.4l0,0
			c6.8,3.4,10.2,19.7,13.6,36c2.3,10.7,4.5,21.5,6,24.4l0,0c10.3,20.6,16.8,26.2,21,24.1c9.5-4.7,18.4-29.5,25.2-48.3
			c3.4-9.3,6.3-17.4,9.1-22.5c7.3-13,15.8-14.3,25.6-8.8c6,3.3,11.4,9.8,17.4,17.1c5.9,7.1,12.6,15.2,19.9,20
			c11.2,7.3,26,5.5,47.6-27.5c17-26,24.9-30,39.7-20.4c3.6,2.3,7.2,5.7,11.7,10c2.1,2,4.4,4.2,7.6,7c21.1,18.8,30.4,21.6,35.2,16.2
			c4.8-5.4,8.7-16.6,13.4-29.9c2.8-8,5.9-16.8,9.8-26.1c2.2-5.2,8.2-7.7,13.5-5.5c5.2,2.2,7.7,8.3,5.5,13.5
			c-3.5,8.4-6.6,17-9.3,24.8c-5.4,15.5-10,28.5-17.5,36.9c-13.7,15.4-31.5,14.8-64.4-14.5c-2.7-2.4-5.5-5.1-8-7.4
			c-3.7-3.5-6.7-6.3-8.9-7.7c-0.9-0.6-3.1,2.3-11.1,14.4c-30.7,46.9-55.8,46.9-76.2,33.5c-9.7-6.3-17.5-15.8-24.4-24.1
			c-3.7-4.4-7-8.4-9.5-10.7c-2,3.9-4.5,10.8-7.3,18.7c-8,22.3-18.5,51.4-35.4,59.8c-15,7.5-31.5,1-48.6-33.4h0
			c-2.6-5.2-5.1-17.3-7.7-29.5c-2.4-11.3-0.5-20.6-2.6-21.7v0c-5.9-2.9,3.7,5.2,0.5,8.4c-16.6,16.8-45.5,46.2-65.6,43.4
			c-14.9-2.1-23.5-17.1-18-55.7c0.4-2.9,0.6-3.8,0.7-4.9c1.5-9.8,3.3-21.4,1.2-25.1l0,0c-0.1-0.2-2.6,1.1-9.7,5.1
			c-3.1,1.8-8.7,7.7-14.6,14c-11.5,12.2-24,25.6-36.2,25.6c-12.2,0-20.4-9.8-20.4-37.6c0-2.6,0-2.9,0.1-8.5
			c0.1-13.8,0.2-24.3-2-27.9c-1.5-2.5-10.3,1.1-34.1,15.4c-30.2,18-44.4,17.8-50.4,7.8c-5.6-9.4,0.7-24.2,7.2-39.7
			c3.7-8.6,7.5-17.5,8.7-23.9c0.5-2.6,0.5-4.4,0.1-5.6c-0.2-0.7-1.5-1.2-3.4-1.4c-4.4-0.6-10.4,0.2-17,1.7
			C144.1,169.3,121.3,180.6,116,184.3"/>
		<path clip-path="url(#SVGID_16_)" fill="#C1272D" d="M112,171.9c-1.6,1.1-3.7,0.7-4.8-0.8c-1.1-1.6-0.7-3.7,0.9-4.8
			c6-4.2,31.2-16.8,52.8-21.9c8.1-1.9,15.8-2.8,22-1.9c7.1,1,12.3,4.2,14.5,10.6c1.1,3.3,1.3,7.5,0.3,12.6
			c-1.5,7.7-5.6,17.4-9.5,26.7c-5.2,12.2-10.1,23.8-8.1,27.2c1.7,2.8,10.2,0.2,31.5-12.6c32.7-19.5,46.6-21.3,53-10.6
			c4.2,7,4.1,19.1,4,35.1c0,1.7,0,3.7,0,8.4c0,17.6,2.6,23.8,6.6,23.8c6.2,0,16.7-11.1,26.2-21.2c6.7-7.1,13-13.8,17.9-16.6
			c16.1-9,24.4-7.1,28.5,0.2v0c4.4,7.9,2.2,22,0.4,33.9c-0.3,1.8-0.6,3.7-0.7,4.8c-4.1,28.5-0.6,39.1,6.3,40.1
			c13.2,1.9,39-24.4,53.9-39.4c7.3-7.5,12.4-12.6,15.5-11.1l0,0c3.8,1.9,6.9,16.6,10,31.2c2.4,11.2,4.7,22.4,6.6,26.1l0,0
			c12.6,25.2,22.4,31.1,30.2,27.2c11.9-6,21.4-32.2,28.6-52.2c3.2-9,6.1-16.8,8.6-21.4c4.8-8.6,10.2-9.6,16.3-6.2
			c4.9,2.7,9.9,8.7,15.5,15.5c6.2,7.5,13.3,16.1,21.4,21.3c14.3,9.3,32.5,8.1,57.1-29.5c14-21.4,20-25,30.2-18.4
			c3.1,2,6.5,5.2,10.8,9.2c2.2,2.1,4.7,4.4,7.8,7.1c25.1,22.3,37.2,24.4,45,15.6c5.7-6.4,9.8-18.2,14.8-32.3
			c2.8-8,5.8-16.6,9.6-25.7c0.7-1.7,2.7-2.6,4.5-1.8c1.7,0.7,2.6,2.7,1.8,4.5c-3.7,8.7-6.7,17.3-9.5,25.3
			c-5.2,14.8-9.6,27.2-16.1,34.6c-10.7,12.1-25.7,10.8-54.7-15.1c-2.8-2.5-5.5-5-7.9-7.3c-4-3.8-7.2-6.7-9.8-8.5
			c-5.5-3.6-9.7-0.3-20.6,16.4c-27.6,42.3-49.3,42.9-66.7,31.5C547.5,296,540,287,533.5,279c-5.2-6.2-9.8-11.8-13.5-13.9
			c-2.4-1.3-4.6-0.7-6.9,3.5c-2.3,4.1-5,11.7-8.2,20.4c-7.6,21.1-17.6,48.8-32,56c-11.4,5.7-24.5-0.5-39.4-30.3h0
			c-2.2-4.5-4.7-16.1-7.1-27.8c-2.7-13-5.5-26-6.3-26.4v0c-1.4-0.7-2.2,4.4-7.5,9.8c-15.7,15.9-43.1,43.8-59.7,41.4
			c-10.9-1.6-17-14.4-12.2-47.9c0.3-2,0.5-3.4,0.7-4.8c1.6-10.8,3.6-23.7,0.4-29.5l0,0c-2.1-3.7-7.5-4.1-19.1,2.5
			c-4,2.3-10,8.5-16.3,15.3c-10.5,11.1-22,23.4-31.2,23.4c-8.1,0-13.5-8-13.5-30.7l0.1-8.5c0.1-14.9,0.2-26.2-3-31.5
			c-3.9-6.6-15.3-3.9-43.5,13c-25.8,15.4-37.2,16.6-41,10.2c-3.8-6.4,1.8-19.6,7.7-33.4c3.8-8.9,7.8-18.2,9.1-25.3
			c0.7-3.8,0.6-6.8-0.1-9.1c-1.2-3.6-4.5-5.4-8.9-6c-5.3-0.8-12.2,0.1-19.5,1.8C141.7,156,117.7,167.9,112,171.9"/>
	</g>
	<g clip-path="url(#SVGID_2_)">
		<defs>
			<path id="SVGID_32_" d="M115.7,201.7c-19.5,0-38.4,6.3-52.9,20.4C27.9,256,32,303.8,65.9,338.6
				c81.1,83.3,165.7,145.3,263.6,169.9c97.7,24.6,201.6,19.2,311.9-16.1c46.3-14.7,71.9-64.1,57.3-110.4
				c-14.7-46.3-64.1-71.9-110.4-57.3c-78.1,25-150.1,29.2-216,12.6c-65.7-16.5-123.3-43.9-180.9-103.1
				C171.6,214,143,201.7,115.7,201.7C115.7,201.7,115.7,201.7,115.7,201.7"/>
		</defs>
		<clipPath id="SVGID_33_">
			<use xlink:href="#SVGID_32_"  overflow="visible"/>
		</clipPath>
		
			<linearGradient id="SVGID_34_" gradientUnits="userSpaceOnUse" x1="0" y1="595.2755" x2="1" y2="595.2755" gradientTransform="matrix(664.1068 0 0 664.1068 38.4448 -394959.0312)">
			<stop  offset="0" style="stop-color:#A67C52"/>
			<stop  offset="0" style="stop-color:#AD8458"/>
			<stop  offset="0.5988" style="stop-color:#E8CF91"/>
			<stop  offset="1" style="stop-color:#E8CF91"/>
		</linearGradient>
		<rect x="27.9" y="201.7" clip-path="url(#SVGID_33_)" fill="url(#SVGID_34_)" width="685.4" height="331.4"/>
	</g>
	<g clip-path="url(#SVGID_2_)">
		<defs>
			<rect id="SVGID_35_" width="841.9" height="595.3"/>
		</defs>
		<clipPath id="SVGID_36_">
			<use xlink:href="#SVGID_35_"  overflow="visible"/>
		</clipPath>
		<defs>
			<filter id="Adobe_OpacityMaskFilter_2_" filterUnits="userSpaceOnUse" x="35.6" y="188.2" width="645.6" height="294.2">
				<feColorMatrix  type="matrix" values="1 0 0 0 0  0 1 0 0 0  0 0 1 0 0  0 0 0 1 0"/>
			</filter>
		</defs>
		<mask maskUnits="userSpaceOnUse" x="35.6" y="188.2" width="645.6" height="294.2" id="SVGID_37_">
			<g filter="url(#Adobe_OpacityMaskFilter_2_)">
				<rect x="35.6" y="188.2" clip-path="url(#SVGID_36_)" width="645.6" height="294.2"/>
				<g enable-background="new    ">
					<g>
						<defs>
							<rect id="SVGID_38_" x="38.5" y="201.7" width="636.9" height="271.3"/>
						</defs>
						<clipPath id="SVGID_39_" clip-path="url(#SVGID_36_)">
							<use xlink:href="#SVGID_38_"  overflow="visible"/>
						</clipPath>
						<rect x="35.6" y="188.2" clip-path="url(#SVGID_39_)" width="645.6" height="294.2"/>
						<g enable-background="new    ">
							<g>
								<defs>
									<path id="SVGID_40_" d="M62.8,222.1c-19.9,19.4-27.1,43.3-23.3,66.8c80.8,82.8,165.1,144.4,262.6,169
										c97.7,24.6,201.6,19.2,311.9-16.1c42.2-13.4,67.2-55.6,60.2-98c-22.4-20.5-54.9-28.9-86-19c-78.1,25-150.1,29.2-216,12.6
										c-65.7-16.5-123.3-43.9-180.9-103.1c-19.8-20.3-48.3-32.6-75.6-32.6C96.2,201.7,77.3,208,62.8,222.1"/>
								</defs>
								<clipPath id="SVGID_41_" clip-path="url(#SVGID_39_)">
									<use xlink:href="#SVGID_40_"  overflow="visible"/>
								</clipPath>
								<defs>
									<filter id="Adobe_OpacityMaskFilter_3_" filterUnits="userSpaceOnUse" x="35.6" y="201.7" width="645.6" height="280.7">
										<feFlood  style="flood-color:white;flood-opacity:1" result="back"/>
										<feBlend  in="SourceGraphic" in2="back" mode="normal"/>
									</filter>
								</defs>
								<mask maskUnits="userSpaceOnUse" x="35.6" y="201.7" width="645.6" height="280.7" id="SVGID_37_">
									<g filter="url(#Adobe_OpacityMaskFilter_3_)">
										<g enable-background="new    ">
										</g>
									</g>
								</mask>
								
									<radialGradient id="SVGID_42_" cx="0" cy="595.275" r="1" gradientTransform="matrix(394.8314 0 0 394.8314 512.6948 -234457.6094)" gradientUnits="userSpaceOnUse">
									<stop  offset="0" style="stop-color:#FFFFFF"/>
									<stop  offset="1" style="stop-color:#1A171B"/>
								</radialGradient>
								
									<rect x="35.6" y="201.7" clip-path="url(#SVGID_41_)" mask="url(#SVGID_37_)" fill="url(#SVGID_42_)" width="645.6" height="280.7"/>
							</g>
						</g>
					</g>
				</g>
			</g>
		</mask>
		<g clip-path="url(#SVGID_36_)">
			<g>
				<defs>
					<rect id="SVGID_43_" x="35.6" y="188.2" width="645.6" height="294.2"/>
				</defs>
				<clipPath id="SVGID_44_">
					<use xlink:href="#SVGID_43_"  overflow="visible"/>
				</clipPath>
				<g clip-path="url(#SVGID_44_)">
					<defs>
						<path id="SVGID_45_" d="M115.7,201.7c-19.5,0-38.4,6.3-52.9,20.4c-16.5,16-24.3,35.1-24.3,54.5v0.4c0,4,0.3,7.9,1,11.9
							c80.8,82.8,165.1,144.4,262.6,169c39.9,10,80.8,15.1,122.7,15.1h1.5c60.4-0.1,123-10.5,187.7-31.2
							c37.4-11.9,61.3-46.4,61.4-83.6v-0.4c0-4.6-0.4-9.3-1.2-14c-22.4-20.5-54.9-28.9-86-19c-78.1,25-150.1,29.2-216,12.6
							c-65.7-16.5-123.3-43.9-180.9-103.1C171.6,214,143,201.7,115.7,201.7C115.7,201.7,115.7,201.7,115.7,201.7"/>
					</defs>
					<clipPath id="SVGID_46_">
						<use xlink:href="#SVGID_45_"  overflow="visible"/>
					</clipPath>
					
						<radialGradient id="SVGID_47_" cx="0" cy="595.275" r="1" gradientTransform="matrix(394.8314 0 0 394.8314 512.6948 -234457.6094)" gradientUnits="userSpaceOnUse">
						<stop  offset="0" style="stop-color:#FFFFFF"/>
						<stop  offset="1" style="stop-color:#FFFFFF"/>
					</radialGradient>
					<rect x="38.5" y="201.7" clip-path="url(#SVGID_46_)" fill="url(#SVGID_47_)" width="636.9" height="271.3"/>
				</g>
			</g>
		</g>
		<g opacity="0.71" clip-path="url(#SVGID_36_)">
			<g>
				<defs>
					<rect id="SVGID_48_" x="85.8" y="201.8" width="496.6" height="194"/>
				</defs>
				<clipPath id="SVGID_49_">
					<use xlink:href="#SVGID_48_"  overflow="visible"/>
				</clipPath>
				<g clip-path="url(#SVGID_49_)">
					<defs>
						<rect id="SVGID_50_" x="85.8" y="201.8" width="496.6" height="194"/>
					</defs>
					<clipPath id="SVGID_51_">
						<use xlink:href="#SVGID_50_"  overflow="visible"/>
					</clipPath>
					<path clip-path="url(#SVGID_51_)" fill="#FFFFFF" d="M119.9,201.8c26,1.2,52.7,13.2,71.4,32.5
						c57.6,59.2,115.2,86.6,180.9,103.1c64.2,16.1,134.3,12.5,210.2-10.8c-44.3,41.1-132,69.2-233,69.2
						c-145.6,0-263.6-58.2-263.6-130C85.8,242.5,98.2,220.7,119.9,201.8"/>
				</g>
			</g>
		</g>
		<g opacity="0.71" clip-path="url(#SVGID_36_)">
			<g>
				<defs>
					<rect id="SVGID_52_" x="153.2" y="131.3" width="518.5" height="176.6"/>
				</defs>
				<clipPath id="SVGID_53_">
					<use xlink:href="#SVGID_52_"  overflow="visible"/>
				</clipPath>
				<g clip-path="url(#SVGID_53_)">
					<defs>
						<rect id="SVGID_54_" x="153.2" y="131.3" width="518.5" height="176.6"/>
					</defs>
					<clipPath id="SVGID_55_">
						<use xlink:href="#SVGID_54_"  overflow="visible"/>
					</clipPath>
					<path clip-path="url(#SVGID_55_)" fill="#FFFFFF" d="M158.6,159.2c-6.6-5.8-7.3-15.9-1.5-22.5c5.8-6.6,15.9-7.3,22.5-1.5
						c83.9,73.4,157.3,113.2,231.9,130.3c74.6,17.1,151.3,11.6,241.3-5.5c8.7-1.6,17,4.1,18.6,12.7c1.6,8.7-4.1,17-12.7,18.6
						c-94,17.9-174.6,23.5-254.3,5.2C324.7,278.4,246.8,236.4,158.6,159.2"/>
				</g>
			</g>
		</g>
		<g opacity="0.71" clip-path="url(#SVGID_36_)">
			<g>
				<defs>
					<rect id="SVGID_56_" x="122.2" y="99.3" width="29.6" height="29.6"/>
				</defs>
				<clipPath id="SVGID_57_">
					<use xlink:href="#SVGID_56_"  overflow="visible"/>
				</clipPath>
				<g clip-path="url(#SVGID_57_)">
					<defs>
						<rect id="SVGID_58_" x="122.2" y="99.3" width="29.6" height="29.6"/>
					</defs>
					<clipPath id="SVGID_59_">
						<use xlink:href="#SVGID_58_"  overflow="visible"/>
					</clipPath>
					<path clip-path="url(#SVGID_59_)" fill-rule="evenodd" clip-rule="evenodd" fill="#FFFFFF" d="M137,128.9
						c8.1,0,14.8-6.6,14.8-14.8c0-8.1-6.6-14.8-14.8-14.8c-8.1,0-14.8,6.6-14.8,14.8C122.2,122.2,128.8,128.9,137,128.9"/>
				</g>
			</g>
		</g>
	</g>
</g>
</svg>
