<?xml version="1.0" encoding="utf-8"?>
<!-- Generator: Adobe Illustrator 17.1.0, SVG Export Plug-In . SVG Version: 6.00 Build 0)  -->
<!DOCTYPE svg PUBLIC "-//W3C//DTD SVG 1.1//EN" "http://www.w3.org/Graphics/SVG/1.1/DTD/svg11.dtd">
<svg version="1.1" id="Lager_1" xmlns="http://www.w3.org/2000/svg" xmlns:xlink="http://www.w3.org/1999/xlink" x="0px" y="0px"
	 viewBox="0 0 841.9 595.3" enable-background="new 0 0 841.9 595.3" xml:space="preserve">
<g>
	<defs>
		<rect id="SVGID_1_" width="841.9" height="595.3"/>
	</defs>
	<clipPath id="SVGID_2_">
		<use xlink:href="#SVGID_1_"  overflow="visible"/>
	</clipPath>
	<g clip-path="url(#SVGID_2_)">
		<defs>
			<path id="SVGID_3_" d="M102.8,414.7c-8.5,0-15.5,7-15.5,15.5v36c0,8.5,7,15.5,15.5,15.5h31c8.5,0,15.5-7,15.5-15.5v-36
				c0-8.5-7-15.5-15.5-15.5H102.8z"/>
		</defs>
		<clipPath id="SVGID_4_">
			<use xlink:href="#SVGID_3_"  overflow="visible"/>
		</clipPath>
		
			<linearGradient id="SVGID_5_" gradientUnits="userSpaceOnUse" x1="0" y1="595.275" x2="1" y2="595.275" gradientTransform="matrix(-40.1012 59.4597 59.4597 40.1012 -35259.3359 -23448.5469)">
			<stop  offset="0" style="stop-color:#F2F2F2"/>
			<stop  offset="1" style="stop-color:#CCCCCC"/>
		</linearGradient>
		<polygon clip-path="url(#SVGID_4_)" fill="url(#SVGID_5_)" points="180.4,435.7 129.9,510.5 56.3,460.8 106.7,386 		"/>
	</g>
	<g clip-path="url(#SVGID_2_)">
		<defs>
			<path id="SVGID_6_" d="M105.6,461.4c-4.4,21.3,4.1,33.9,25.4,37.6c136.3,25.3,230.1,42.3,279.9,51c26.2,5.8,30.9,1.5,46.1-3.3
				c195.7-44,315.1-69.4,359.5-75.1c16.7-7.7,25.3-16.8,25.4-25.7v-0.2c0-3.1-1.1-6.2-3.3-9.2c-70.1-1.9-137.5-2.9-201.9-2.9
				C429.5,433.6,252,443.4,105.6,461.4"/>
		</defs>
		<clipPath id="SVGID_7_">
			<use xlink:href="#SVGID_6_"  overflow="visible"/>
		</clipPath>
		
			<linearGradient id="SVGID_8_" gradientUnits="userSpaceOnUse" x1="0" y1="595.273" x2="1" y2="595.273" gradientTransform="matrix(737.4009 0 0 -737.4009 104.4897 439449.5312)">
			<stop  offset="0" style="stop-color:#F2F2F2"/>
			<stop  offset="1" style="stop-color:#CCCCCC"/>
		</linearGradient>
		<rect x="101.2" y="433.6" clip-path="url(#SVGID_7_)" fill="url(#SVGID_8_)" width="740.7" height="122.2"/>
	</g>
	<g clip-path="url(#SVGID_2_)">
		<defs>
			<path id="SVGID_9_" d="M328.2,42.5h-94.1H129.5H18.8C6.3,42.5-2,52.1,0.4,63.6c6.7,31.5,13.6,63.1,20.4,94.8
				c6.8,31.7,13.7,63.6,20.6,95.5c6.9,32,13.9,64.1,20.8,96.3c6.9,32.2,14,64.6,21,97.1c2.6,12,14.8,19.9,27.1,18
				c37.4-6,73.5-11.9,108.8-17.6c35.2-5.6,69.4-11.2,102.6-16.6c31.5-5.1,62.3-10.2,92.2-15c29.9-4.8,59.1-9.6,87.5-14.2
				c8.9-1.4,14.2-10.6,11.8-20.7c-6.4-27.1-12.8-54-19-81c-6.3-26.9-12.5-53.8-18.8-80.5c-6.2-26.8-12.5-53.4-18.8-80
				c-6.2-26.5-12.4-53-18.6-79.4c-2.3-9.7-11.5-17.7-20.5-17.7H328.2z"/>
		</defs>
		<clipPath id="SVGID_10_">
			<use xlink:href="#SVGID_9_"  overflow="visible"/>
		</clipPath>
		
			<linearGradient id="SVGID_11_" gradientUnits="userSpaceOnUse" x1="0" y1="595.2734" x2="1" y2="595.2734" gradientTransform="matrix(513.8594 0 0 -513.8594 9.765998e-04 306141.5938)">
			<stop  offset="0" style="stop-color:#F2F2F2"/>
			<stop  offset="1" style="stop-color:#CCCCCC"/>
		</linearGradient>
		<rect x="-2" y="42.5" clip-path="url(#SVGID_10_)" fill="url(#SVGID_11_)" width="517.7" height="424.6"/>
	</g>
	<g clip-path="url(#SVGID_2_)">
		<defs>
			<path id="SVGID_12_" d="M328.2,46.1h-93.1H131.7H22.2C9.8,46.1,1.6,55.5,4,66.9c6.6,31.1,13.4,62.4,20.1,93.7
				c6.7,31.4,13.6,62.9,20.4,94.4c6.8,31.7,13.7,63.4,20.6,95.2c6.9,31.9,13.9,63.9,20.8,96c2.6,11.8,14.6,19.7,26.8,17.8
				c36.9-5.9,72.7-11.8,107.6-17.4c34.8-5.6,68.6-11.1,101.5-16.4c31.2-5.1,61.7-10.1,91.2-14.8c29.6-4.8,58.4-9.5,86.5-14
				c8.8-1.4,14.1-10.5,11.7-20.4c-6.3-26.8-12.6-53.5-18.8-80.1c-6.2-26.6-12.4-53.2-18.6-79.6c-6.2-26.5-12.4-52.9-18.6-79.1
				c-6.2-26.2-12.3-52.4-18.4-78.5c-2.3-9.6-11.4-17.5-20.2-17.5H328.2z"/>
		</defs>
		<clipPath id="SVGID_13_">
			<use xlink:href="#SVGID_12_"  overflow="visible"/>
		</clipPath>
		
			<linearGradient id="SVGID_14_" gradientUnits="userSpaceOnUse" x1="0" y1="595.29" x2="1" y2="595.29" gradientTransform="matrix(-85.738 -420.3864 -420.3864 85.738 250546.9219 -50599.3672)">
			<stop  offset="0" style="stop-color:#F2F2F2"/>
			<stop  offset="1" style="stop-color:#CCCCCC"/>
		</linearGradient>
		<polygon clip-path="url(#SVGID_13_)" fill="url(#SVGID_14_)" points="22.1,566.3 -80.6,62.9 493.2,-54.2 595.9,449.2 		"/>
	</g>
	<g clip-path="url(#SVGID_2_)">
		<defs>
			<rect id="SVGID_15_" width="841.9" height="595.3"/>
		</defs>
		<clipPath id="SVGID_16_">
			<use xlink:href="#SVGID_15_"  overflow="visible"/>
		</clipPath>
		<g clip-path="url(#SVGID_16_)">
			<g>
				<defs>
					<rect id="SVGID_17_" x="3.6" y="46.1" width="484.6" height="253.4"/>
				</defs>
				<clipPath id="SVGID_18_">
					<use xlink:href="#SVGID_17_"  overflow="visible"/>
				</clipPath>
				<g clip-path="url(#SVGID_18_)">
					<defs>
						<path id="SVGID_19_" d="M22.2,46.1h109.5h103.4h93.1h88.4c8.8,0,18,7.9,20.2,17.5c6.1,26.1,12.3,52.3,18.4,78.5
							c6.2,26.3,12.4,52.7,18.6,79.1c4.8,20.4,9.5,40.9,14.3,61.4c-48.9,10.9-101.4,16.8-156.2,16.8c-110.3,0-211.6-24-291.7-64.2
							c-5.4-24.9-10.8-49.8-16.1-74.6C17.5,129.4,10.7,98.1,4,66.9C1.6,55.5,9.8,46.1,22.2,46.1"/>
					</defs>
					<clipPath id="SVGID_20_">
						<use xlink:href="#SVGID_19_"  overflow="visible"/>
					</clipPath>
					
						<linearGradient id="SVGID_21_" gradientUnits="userSpaceOnUse" x1="0" y1="595.275" x2="1" y2="595.275" gradientTransform="matrix(484.5664 0 0 -484.5664 3.6123 288623.0312)">
						<stop  offset="0" style="stop-color:#FFFFFF"/>
						<stop  offset="1" style="stop-color:#CCCCCC"/>
					</linearGradient>
					<rect x="1.6" y="46.1" clip-path="url(#SVGID_20_)" fill="url(#SVGID_21_)" width="486.6" height="253.4"/>
				</g>
			</g>
		</g>
	</g>
	<g clip-path="url(#SVGID_2_)">
		<defs>
			<path id="SVGID_22_" d="M513.6,398c-60.2,9.9-122.9,20.3-188.3,31.1c-68.3,11.3-139.8,23.1-214.6,35.4c-6.7,1.1-5.5,3.1,2.7,4.5
				c45.6,7.5,92.6,15.2,141,23.1c50,8.2,101.6,16.6,154.9,25.3c10,1.6,23.6,1.9,30.3,0.5c74.5-15,145.3-29.3,212.8-42.9
				c64.3-12.9,125.6-25.3,184.3-37.1c5-1,1.3-2.8-8.4-4c-51.8-6.3-102.2-12.5-151.2-18.5c-47.7-5.8-94.1-11.5-139.3-17.1
				c-4.5-0.6-9.9-0.8-14.7-0.8C519.3,397.4,515.9,397.6,513.6,398"/>
		</defs>
		<clipPath id="SVGID_23_">
			<use xlink:href="#SVGID_22_"  overflow="visible"/>
		</clipPath>
		
			<linearGradient id="SVGID_24_" gradientUnits="userSpaceOnUse" x1="0" y1="595.2982" x2="1" y2="595.2982" gradientTransform="matrix(-246.1417 -98.1812 -98.1812 246.1417 59103.1758 -145996.3281)">
			<stop  offset="0" style="stop-color:#F2F2F2"/>
			<stop  offset="1" style="stop-color:#CCCCCC"/>
		</linearGradient>
		<polygon clip-path="url(#SVGID_23_)" fill="url(#SVGID_24_)" points="740.5,773.1 62,502.5 205.2,143.5 883.7,414.1 		"/>
	</g>
	<g clip-path="url(#SVGID_2_)">
		<defs>
			<path id="SVGID_25_" d="M438.7,520.3c3.7,21,135.4,0,395-63c5.1-4.4,5.8-9.5,1-15.2C766.4,455.3,634.7,481.7,438.7,520.3"/>
		</defs>
		<clipPath id="SVGID_26_">
			<use xlink:href="#SVGID_25_"  overflow="visible"/>
		</clipPath>
		
			<linearGradient id="SVGID_27_" gradientUnits="userSpaceOnUse" x1="0" y1="595.2586" x2="1" y2="595.2586" gradientTransform="matrix(399.2539 0 0 -399.2539 438.708 238151.0469)">
			<stop  offset="0" style="stop-color:#F2F2F2"/>
			<stop  offset="1" style="stop-color:#CCCCCC"/>
		</linearGradient>
		<rect x="438.7" y="442.1" clip-path="url(#SVGID_26_)" fill="url(#SVGID_27_)" width="400.8" height="99.2"/>
	</g>
	<g clip-path="url(#SVGID_2_)">
		<defs>
			<path id="SVGID_28_" d="M122.9,486.8c119.8,27.4,216.6,39.3,292.5,34.5c-105.3-17.3-207.2-33.8-305.7-49.8
				C111,480.7,115.8,485.5,122.9,486.8"/>
		</defs>
		<clipPath id="SVGID_29_">
			<use xlink:href="#SVGID_28_"  overflow="visible"/>
		</clipPath>
		
			<linearGradient id="SVGID_30_" gradientUnits="userSpaceOnUse" x1="-2.221396e-06" y1="595.2689" x2="1" y2="595.2689" gradientTransform="matrix(305.6709 0 0 -305.6709 109.6797 182455.2188)">
			<stop  offset="0" style="stop-color:#F2F2F2"/>
			<stop  offset="1" style="stop-color:#CCCCCC"/>
		</linearGradient>
		<rect x="109.7" y="471.6" clip-path="url(#SVGID_29_)" fill="url(#SVGID_30_)" width="305.7" height="54.5"/>
	</g>
	<g clip-path="url(#SVGID_2_)">
		<defs>
			<path id="SVGID_31_" d="M421.4,548.8c12.5,2.4,66.4-8.1,162.5-33.5c-108,27.4-157.1,29.8-148.3,7.1c-5.4,2.7-9.5,2.7-13.2,1
				C416,540,322.3,531.5,141.2,498C158.1,502.7,251.9,519.3,421.4,548.8"/>
		</defs>
		<clipPath id="SVGID_32_">
			<use xlink:href="#SVGID_31_"  overflow="visible"/>
		</clipPath>
		
			<linearGradient id="SVGID_33_" gradientUnits="userSpaceOnUse" x1="0" y1="595.2565" x2="1" y2="595.2565" gradientTransform="matrix(5.9806 -75.752 -75.752 -5.9806 45450.0508 4139.4077)">
			<stop  offset="0" style="stop-color:#F2F2F2"/>
			<stop  offset="1" style="stop-color:#646464"/>
		</linearGradient>
		<polygon clip-path="url(#SVGID_32_)" fill="url(#SVGID_33_)" points="137,550.8 143.9,463.2 588.1,498.3 581.2,585.9 		"/>
	</g>
	<g clip-path="url(#SVGID_2_)">
		<defs>
			<path id="SVGID_34_" d="M601,441.6c-19.2,3.4-39.2,6.8-60,10.5c-21.8,3.8-44.6,7.8-68.4,11.9c-2.1,0.4-1.8,1.1,0.9,1.5
				c14.5,2.6,29.5,5.2,45,8c15.9,2.8,32.4,5.8,49.4,8.8c3.2,0.6,7.5,0.7,9.7,0.2c23.7-5.1,46.3-9.9,67.8-14.5
				c20.5-4.4,40.1-8.6,58.7-12.5c1.6-0.3,0.4-1-2.7-1.4c-16.5-2.2-32.6-4.4-48.2-6.5c-15.2-2-30-4-44.4-5.9
				c-1.5-0.2-3.2-0.3-4.8-0.3C602.8,441.4,601.7,441.5,601,441.6"/>
		</defs>
		<clipPath id="SVGID_35_">
			<use xlink:href="#SVGID_34_"  overflow="visible"/>
		</clipPath>
		
			<linearGradient id="SVGID_36_" gradientUnits="userSpaceOnUse" x1="0" y1="595.2747" x2="1" y2="595.2747" gradientTransform="matrix(233.5723 0 0 -233.5723 471.2051 139501.875)">
			<stop  offset="0" style="stop-color:#F2F2F2"/>
			<stop  offset="1" style="stop-color:#CCCCCC"/>
		</linearGradient>
		<rect x="470.4" y="441.4" clip-path="url(#SVGID_35_)" fill="url(#SVGID_36_)" width="235.2" height="41.6"/>
	</g>
	<g clip-path="url(#SVGID_2_)">
		<defs>
			<rect id="SVGID_37_" width="841.9" height="595.3"/>
		</defs>
		<clipPath id="SVGID_38_">
			<use xlink:href="#SVGID_37_"  overflow="visible"/>
		</clipPath>
		<g opacity="0.75" clip-path="url(#SVGID_38_)">
			<g>
				<defs>
					<rect id="SVGID_39_" x="34.5" y="78.6" width="449.9" height="345.3"/>
				</defs>
				<clipPath id="SVGID_40_">
					<use xlink:href="#SVGID_39_"  overflow="visible"/>
				</clipPath>
				<g clip-path="url(#SVGID_40_)">
					<defs>
						<polygon id="SVGID_41_" points="34.5,84.7 422.5,78.6 484.4,375.1 107.7,423.9 						"/>
					</defs>
					<clipPath id="SVGID_42_">
						<use xlink:href="#SVGID_41_"  overflow="visible"/>
					</clipPath>
					
						<linearGradient id="SVGID_43_" gradientUnits="userSpaceOnUse" x1="-4.070171e-07" y1="595.275" x2="1" y2="595.275" gradientTransform="matrix(449.8721 0 0 -449.8721 34.5342 268048.8125)">
						<stop  offset="0" style="stop-color:#E3EAF5"/>
						<stop  offset="1" style="stop-color:#8ABCDC"/>
					</linearGradient>
					<rect x="34.5" y="78.6" clip-path="url(#SVGID_42_)" fill="url(#SVGID_43_)" width="449.9" height="345.3"/>
				</g>
			</g>
		</g>
		<g opacity="0.75" clip-path="url(#SVGID_38_)">
			<g>
				<defs>
					<rect id="SVGID_44_" x="34.5" y="81.7" width="445.8" height="342.2"/>
				</defs>
				<clipPath id="SVGID_45_">
					<use xlink:href="#SVGID_44_"  overflow="visible"/>
				</clipPath>
				<g clip-path="url(#SVGID_45_)">
					<defs>
						<polygon id="SVGID_46_" points="34.5,87.7 419,81.7 480.3,375.5 107,423.9 						"/>
					</defs>
					<clipPath id="SVGID_47_">
						<use xlink:href="#SVGID_46_"  overflow="visible"/>
					</clipPath>
					
						<radialGradient id="SVGID_48_" cx="3.455834e-07" cy="595.275" r="1" gradientTransform="matrix(198.6913 0 0 -198.6913 257.4409 118528.7422)" gradientUnits="userSpaceOnUse">
						<stop  offset="0" style="stop-color:#E3EAF5"/>
						<stop  offset="1" style="stop-color:#8ABCDC"/>
					</radialGradient>
					<rect x="34.5" y="81.7" clip-path="url(#SVGID_47_)" fill="url(#SVGID_48_)" width="445.8" height="342.2"/>
				</g>
			</g>
		</g>
		<g opacity="0.75" clip-path="url(#SVGID_38_)">
			<g>
				<defs>
					<rect id="SVGID_49_" x="41.6" y="85.7" width="433.5" height="332.7"/>
				</defs>
				<clipPath id="SVGID_50_">
					<use xlink:href="#SVGID_49_"  overflow="visible"/>
				</clipPath>
				<g clip-path="url(#SVGID_50_)">
					<defs>
						<polygon id="SVGID_51_" points="41.6,91.6 415.5,85.7 475.1,371.4 112.1,418.4 						"/>
					</defs>
					<clipPath id="SVGID_52_">
						<use xlink:href="#SVGID_51_"  overflow="visible"/>
					</clipPath>
					
						<linearGradient id="SVGID_53_" gradientUnits="userSpaceOnUse" x1="9.063751e-07" y1="595.275" x2="1" y2="595.275" gradientTransform="matrix(433.5 0 0 -433.5 41.6416 258303.7656)">
						<stop  offset="0" style="stop-color:#E3EAF5"/>
						<stop  offset="1" style="stop-color:#8ABCDC"/>
					</linearGradient>
					<rect x="41.6" y="85.7" clip-path="url(#SVGID_52_)" fill="url(#SVGID_53_)" width="433.5" height="332.7"/>
				</g>
			</g>
		</g>
		<g opacity="0.63" clip-path="url(#SVGID_38_)">
			<g>
				<defs>
					<rect id="SVGID_54_" x="41.6" y="85.7" width="418.4" height="225.7"/>
				</defs>
				<clipPath id="SVGID_55_">
					<use xlink:href="#SVGID_54_"  overflow="visible"/>
				</clipPath>
				<g clip-path="url(#SVGID_55_)">
					<defs>
						<path id="SVGID_56_" d="M41.6,91.6l373.8-5.9l44.6,213.7c-42,7.8-86.5,12-132.6,12c-91.1,0-176.2-16.4-248.2-44.8L41.6,91.6z"
							/>
					</defs>
					<clipPath id="SVGID_57_">
						<use xlink:href="#SVGID_56_"  overflow="visible"/>
					</clipPath>
					
						<linearGradient id="SVGID_58_" gradientUnits="userSpaceOnUse" x1="9.480927e-07" y1="595.275" x2="1" y2="595.275" gradientTransform="matrix(418.4492 0 0 -418.4492 41.6416 249290.8906)">
						<stop  offset="0" style="stop-color:#FFFFFF"/>
						<stop  offset="0.1576" style="stop-color:#FFFFFF"/>
						<stop  offset="1" style="stop-color:#D3E9F8"/>
					</linearGradient>
					<rect x="41.6" y="85.7" clip-path="url(#SVGID_57_)" fill="url(#SVGID_58_)" width="418.4" height="225.7"/>
				</g>
			</g>
		</g>
		<path clip-path="url(#SVGID_38_)" fill-rule="evenodd" clip-rule="evenodd" fill="#999999" d="M166,462.3
			c6.9-1.1,13.9-2.2,20.8-3.3c2.2-0.3,6.6-0.2,9.6,0.3c3.7,0.6,7.4,1.3,11.1,2c3.1,0.5,3.8,1.3,1.5,1.7c-7,1.1-14,2.3-21,3.4
			c-2.4,0.4-6.7,0.2-9.8-0.4c-3.7-0.7-7.4-1.4-11-2C164.3,463.4,163.6,462.7,166,462.3"/>
		<path clip-path="url(#SVGID_38_)" fill-rule="evenodd" clip-rule="evenodd" fill="#999999" d="M200.2,456.9
			c6.7-1.1,13.4-2.1,20.1-3.2c2.1-0.3,6.4-0.2,9.5,0.3c3.7,0.6,7.5,1.2,11.2,1.9c3.1,0.5,3.9,1.2,1.8,1.6
			c-6.7,1.1-13.4,2.2-20.2,3.3c-2.2,0.4-6.6,0.2-9.7-0.3c-3.7-0.6-7.4-1.3-11.2-1.9C198.6,457.9,198,457.2,200.2,456.9"/>
		<path clip-path="url(#SVGID_38_)" fill-rule="evenodd" clip-rule="evenodd" fill="#999999" d="M233.2,451.6c6.4-1,12.9-2,19.3-3.1
			c2.1-0.3,6.3-0.2,9.4,0.3c3.7,0.6,7.5,1.2,11.3,1.8c3.1,0.5,4,1.2,1.9,1.5c-6.5,1-13,2.1-19.5,3.2c-2.1,0.3-6.4,0.2-9.6-0.3
			c-3.8-0.6-7.5-1.2-11.2-1.9C231.8,452.7,231.1,452,233.2,451.6"/>
		<path clip-path="url(#SVGID_38_)" fill-rule="evenodd" clip-rule="evenodd" fill="#999999" d="M265,446.6c6.3-1,12.5-2,18.6-2.9
			c2-0.3,6.2-0.2,9.3,0.3c3.8,0.6,7.6,1.1,11.4,1.7c3.2,0.5,4.1,1.1,2,1.5c-6.2,1-12.5,2-18.7,3c-2.1,0.3-6.4,0.2-9.5-0.3
			c-3.8-0.6-7.6-1.2-11.3-1.8C263.8,447.6,263,446.9,265,446.6"/>
		<path clip-path="url(#SVGID_38_)" fill-rule="evenodd" clip-rule="evenodd" fill="#999999" d="M295.8,441.8c6-1,12-1.9,18-2.9
			c1.9-0.3,6.1-0.2,9.2,0.3c3.8,0.5,7.6,1.1,11.4,1.6c3.2,0.5,4.2,1.1,2.2,1.4c-6,1-12,2-18.1,2.9c-2,0.3-6.2,0.2-9.4-0.3
			c-3.8-0.6-7.6-1.1-11.4-1.7C294.7,442.7,293.8,442.1,295.8,441.8"/>
		<path clip-path="url(#SVGID_38_)" fill-rule="evenodd" clip-rule="evenodd" fill="#999999" d="M325.4,437.1
			c5.8-0.9,11.6-1.8,17.4-2.8c1.9-0.3,6-0.2,9.1,0.2c3.8,0.5,7.7,1.1,11.5,1.6c3.2,0.4,4.3,1.1,2.4,1.4c-5.8,0.9-11.6,1.9-17.4,2.8
			c-1.9,0.3-6.1,0.2-9.3-0.3c-3.8-0.5-7.7-1.1-11.5-1.6C324.4,438,323.5,437.4,325.4,437.1"/>
		<path clip-path="url(#SVGID_38_)" fill-rule="evenodd" clip-rule="evenodd" fill="#999999" d="M354.1,432.5
			c5.6-0.9,11.2-1.8,16.8-2.7c1.8-0.3,5.9-0.2,9.1,0.2c3.8,0.5,7.7,1,11.5,1.5c3.2,0.4,4.3,1,2.5,1.3c-5.6,0.9-11.2,1.8-16.8,2.7
			c-1.9,0.3-6,0.2-9.2-0.2c-3.9-0.5-7.7-1.1-11.5-1.6C353.2,433.4,352.2,432.8,354.1,432.5"/>
		<path clip-path="url(#SVGID_38_)" fill-rule="evenodd" clip-rule="evenodd" fill="#999999" d="M381.7,428.1
			c5.4-0.9,10.9-1.7,16.3-2.6c1.7-0.3,5.8-0.2,8.9,0.2c3.8,0.5,7.7,1,11.5,1.5c3.2,0.4,4.4,1,2.7,1.2c-5.4,0.9-10.8,1.8-16.3,2.6
			c-1.8,0.3-5.9,0.2-9.1-0.2c-3.9-0.5-7.7-1-11.5-1.5C381,429,379.9,428.4,381.7,428.1"/>
		<path clip-path="url(#SVGID_38_)" fill-rule="evenodd" clip-rule="evenodd" fill="#999999" d="M408.5,423.9
			c5.3-0.8,10.5-1.7,15.7-2.5c1.7-0.3,5.7-0.2,8.8,0.2c3.8,0.5,7.7,0.9,11.5,1.4c3.3,0.4,4.5,0.9,2.8,1.2
			c-5.2,0.8-10.5,1.7-15.8,2.6c-1.7,0.3-5.8,0.2-9-0.2c-3.8-0.5-7.7-1-11.5-1.4C407.9,424.7,406.8,424.2,408.5,423.9"/>
		<path clip-path="url(#SVGID_38_)" fill-rule="evenodd" clip-rule="evenodd" fill="#999999" d="M434.4,419.8
			c5.1-0.8,10.2-1.6,15.2-2.4c1.7-0.3,5.6-0.2,8.8,0.2c3.8,0.4,7.7,0.9,11.6,1.3c3.2,0.4,4.5,0.9,2.9,1.2
			c-5.1,0.8-10.1,1.6-15.2,2.5c-1.7,0.3-5.7,0.2-8.9-0.2c-3.9-0.5-7.8-0.9-11.6-1.4C433.9,420.6,432.7,420.1,434.4,419.8"/>
		<path clip-path="url(#SVGID_38_)" fill-rule="evenodd" clip-rule="evenodd" fill="#999999" d="M459.5,415.8
			c4.9-0.8,9.8-1.6,14.7-2.3c1.6-0.3,5.5-0.2,8.6,0.2c3.9,0.4,7.7,0.9,11.6,1.3c3.2,0.4,4.5,0.9,2.9,1.1c-4.9,0.8-9.8,1.6-14.7,2.4
			c-1.6,0.3-5.6,0.2-8.8-0.2c-3.9-0.5-7.7-0.9-11.6-1.3C459.1,416.6,457.9,416.1,459.5,415.8"/>
		<path clip-path="url(#SVGID_38_)" fill-rule="evenodd" clip-rule="evenodd" fill="#999999" d="M483.8,412
			c4.8-0.8,9.6-1.5,14.3-2.3c1.5-0.2,5.4-0.2,8.5,0.2c3.8,0.4,7.7,0.8,11.6,1.2c3.2,0.3,4.6,0.8,3.1,1.1c-4.8,0.8-9.5,1.5-14.3,2.3
			c-1.6,0.2-5.5,0.2-8.7-0.2c-3.8-0.4-7.7-0.9-11.6-1.3C483.5,412.7,482.2,412.2,483.8,412"/>
		<path clip-path="url(#SVGID_38_)" fill-rule="evenodd" clip-rule="evenodd" fill="#999999" d="M507.3,408.3
			c4.6-0.7,9.3-1.5,13.9-2.2c1.5-0.2,5.4-0.2,8.5,0.2c3.8,0.4,7.7,0.8,11.6,1.2c3.2,0.3,4.6,0.8,3.1,1.1c-4.6,0.7-9.2,1.5-13.9,2.2
			c-1.5,0.3-5.4,0.2-8.6-0.2c-3.9-0.4-7.7-0.8-11.6-1.2C507.1,409,505.8,408.5,507.3,408.3"/>
		<path clip-path="url(#SVGID_38_)" fill-rule="evenodd" clip-rule="evenodd" fill="#999999" d="M194.2,467.5c7-1.2,14-2.3,21-3.4
			c2.3-0.4,6.7-0.2,9.9,0.3c3.9,0.7,7.8,1.4,11.7,2.1c3.2,0.6,4.1,1.4,1.8,1.7c-7,1.2-14.1,2.4-21.1,3.5c-2.4,0.4-6.8,0.2-10.1-0.4
			c-3.9-0.7-7.7-1.4-11.6-2.1C192.6,468.6,191.9,467.9,194.2,467.5"/>
		<path clip-path="url(#SVGID_38_)" fill-rule="evenodd" clip-rule="evenodd" fill="#999999" d="M223.9,472.9
			c7.1-1.2,14.1-2.4,21.2-3.6c2.3-0.4,6.8-0.2,10.2,0.4c4.1,0.7,8.1,1.4,12.3,2.2c3.4,0.6,4.3,1.4,2,1.8c-7.1,1.2-14.2,2.5-21.3,3.7
			c-2.4,0.4-7,0.2-10.4-0.4c-4.1-0.8-8.1-1.5-12.2-2.2C222.4,474.1,221.6,473.3,223.9,472.9"/>
		<path clip-path="url(#SVGID_38_)" fill-rule="evenodd" clip-rule="evenodd" fill="#999999" d="M255,478.6
			c7.1-1.2,14.3-2.5,21.3-3.7c2.3-0.4,7-0.2,10.5,0.4c4.3,0.7,8.5,1.5,12.9,2.3c3.6,0.6,4.6,1.5,2.3,1.9c-7.1,1.3-14.3,2.6-21.4,3.9
			c-2.4,0.4-7.2,0.2-10.8-0.4c-4.3-0.8-8.5-1.6-12.8-2.4C253.6,479.9,252.7,479,255,478.6"/>
		<path clip-path="url(#SVGID_38_)" fill-rule="evenodd" clip-rule="evenodd" fill="#999999" d="M287.8,484.6
			c7.2-1.3,14.4-2.6,21.5-3.9c2.3-0.4,7.2-0.2,10.8,0.4c4.5,0.8,9,1.6,13.6,2.4c3.8,0.7,5,1.6,2.6,2c-7.1,1.3-14.4,2.7-21.5,4.1
			c-2.4,0.5-7.4,0.3-11.1-0.4c-4.5-0.8-9-1.7-13.5-2.5C286.5,485.9,285.4,485,287.8,484.6"/>
		<path clip-path="url(#SVGID_38_)" fill-rule="evenodd" clip-rule="evenodd" fill="#999999" d="M228.7,461.8
			c6.8-1.1,13.5-2.2,20.2-3.3c2.2-0.3,6.5-0.2,9.7,0.3c3.9,0.7,7.8,1.3,11.8,2c3.3,0.5,4.2,1.3,2,1.7c-6.7,1.1-13.6,2.3-20.3,3.4
			c-2.3,0.4-6.8,0.2-10-0.3c-3.9-0.7-7.8-1.4-11.7-2C227.2,462.9,226.5,462.2,228.7,461.8"/>
		<path clip-path="url(#SVGID_38_)" fill-rule="evenodd" clip-rule="evenodd" fill="#999999" d="M258.7,467
			c6.8-1.2,13.6-2.3,20.3-3.4c2.2-0.4,6.7-0.2,10.1,0.3c4.1,0.7,8.2,1.4,12.3,2.1c3.4,0.6,4.5,1.4,2.3,1.7
			c-6.8,1.2-13.6,2.4-20.5,3.6c-2.3,0.4-6.9,0.2-10.3-0.4c-4.1-0.7-8.2-1.4-12.3-2.1C257.3,468.2,256.4,467.4,258.7,467"/>
		<path clip-path="url(#SVGID_38_)" fill-rule="evenodd" clip-rule="evenodd" fill="#999999" d="M290.1,472.5
			c6.8-1.2,13.7-2.4,20.5-3.6c2.2-0.4,6.9-0.2,10.4,0.4c4.3,0.7,8.6,1.4,12.9,2.2c3.6,0.6,4.8,1.4,2.6,1.8
			c-6.8,1.2-13.7,2.5-20.6,3.7c-2.3,0.4-7.1,0.2-10.7-0.4c-4.3-0.8-8.6-1.5-12.9-2.2C288.8,473.7,287.8,472.9,290.1,472.5"/>
		<path clip-path="url(#SVGID_38_)" fill-rule="evenodd" clip-rule="evenodd" fill="#999999" d="M323.1,478.2
			c6.9-1.3,13.8-2.5,20.6-3.8c2.2-0.4,7-0.2,10.7,0.4c4.5,0.8,9.1,1.5,13.6,2.3c3.8,0.6,5.1,1.5,2.9,1.9c-6.9,1.3-13.8,2.6-20.7,3.9
			c-2.3,0.4-7.2,0.3-11-0.4c-4.5-0.8-9.1-1.6-13.6-2.4C321.9,479.5,320.8,478.6,323.1,478.2"/>
		<path clip-path="url(#SVGID_38_)" fill-rule="evenodd" clip-rule="evenodd" fill="#999999" d="M262,456.4c6.5-1.1,13-2.1,19.5-3.2
			c2.1-0.3,6.4-0.2,9.6,0.3c3.9,0.6,7.9,1.2,11.8,1.9c3.3,0.5,4.3,1.2,2.2,1.6c-6.5,1.1-13,2.2-19.6,3.3c-2.1,0.4-6.6,0.2-9.9-0.3
			c-3.9-0.7-7.9-1.3-11.8-2C260.7,457.5,259.9,456.7,262,456.4"/>
		<path clip-path="url(#SVGID_38_)" fill-rule="evenodd" clip-rule="evenodd" fill="#999999" d="M292.1,461.3
			c6.6-1.1,13.1-2.2,19.6-3.3c2.1-0.4,6.6-0.2,9.9,0.3c4.1,0.6,8.3,1.3,12.4,2c3.5,0.6,4.6,1.3,2.4,1.7c-6.5,1.1-13.1,2.3-19.7,3.4
			c-2.2,0.4-6.8,0.2-10.2-0.3c-4.1-0.7-8.2-1.4-12.3-2C291,462.5,290,461.7,292.1,461.3"/>
		<path clip-path="url(#SVGID_38_)" fill-rule="evenodd" clip-rule="evenodd" fill="#999999" d="M323.7,466.5
			c6.6-1.2,13.2-2.3,19.7-3.5c2.1-0.4,6.7-0.2,10.3,0.3c4.3,0.7,8.6,1.4,13,2.1c3.6,0.6,4.9,1.4,2.7,1.8c-6.6,1.2-13.1,2.4-19.8,3.6
			c-2.2,0.4-6.9,0.2-10.5-0.4c-4.4-0.7-8.7-1.4-13-2.1C322.7,467.7,321.6,466.9,323.7,466.5"/>
		<path clip-path="url(#SVGID_38_)" fill-rule="evenodd" clip-rule="evenodd" fill="#999999" d="M356.9,472
			c6.6-1.2,13.2-2.4,19.8-3.6c2.2-0.4,6.9-0.2,10.6,0.4c4.6,0.7,9.1,1.4,13.7,2.2c3.8,0.6,5.2,1.4,3,1.8c-6.6,1.2-13.2,2.5-19.9,3.7
			c-2.2,0.4-7.1,0.2-10.9-0.4c-4.6-0.8-9.1-1.5-13.6-2.3C356,473.2,354.8,472.4,356.9,472"/>
		<path clip-path="url(#SVGID_38_)" fill-rule="evenodd" clip-rule="evenodd" fill="#999999" d="M294.1,451.1c6.3-1,12.5-2,18.7-3.1
			c2.1-0.3,6.3-0.2,9.6,0.3c3.9,0.6,7.9,1.2,11.9,1.8c3.3,0.5,4.4,1.2,2.3,1.5c-6.2,1-12.5,2.1-18.8,3.2c-2.1,0.4-6.5,0.2-9.8-0.3
			c-4-0.6-7.9-1.2-11.8-1.9C292.9,452.2,292,451.5,294.1,451.1"/>
		<path clip-path="url(#SVGID_38_)" fill-rule="evenodd" clip-rule="evenodd" fill="#999999" d="M324.4,455.9
			c6.3-1.1,12.6-2.1,18.8-3.2c2-0.3,6.5-0.2,9.8,0.3c4.1,0.6,8.3,1.2,12.5,1.9c3.5,0.5,4.6,1.2,2.6,1.6c-6.3,1.1-12.6,2.2-18.9,3.3
			c-2.1,0.4-6.7,0.2-10.2-0.3c-4.1-0.6-8.3-1.3-12.4-2C323.3,457,322.3,456.2,324.4,455.9"/>
		<path clip-path="url(#SVGID_38_)" fill-rule="evenodd" clip-rule="evenodd" fill="#999999" d="M356.2,460.9
			c6.3-1.1,12.6-2.2,18.9-3.3c2.1-0.4,6.7-0.2,10.2,0.3c4.3,0.6,8.7,1.3,13,2c3.7,0.6,5,1.3,2.9,1.7c-6.3,1.1-12.6,2.3-19,3.4
			c-2.1,0.4-6.8,0.2-10.4-0.4c-4.4-0.7-8.7-1.4-13-2C355.2,462,354,461.2,356.2,460.9"/>
		<path clip-path="url(#SVGID_38_)" fill-rule="evenodd" clip-rule="evenodd" fill="#999999" d="M389.4,466.1
			c6.4-1.2,12.7-2.3,19-3.5c2-0.4,6.8-0.2,10.5,0.3c4.5,0.7,9.1,1.4,13.7,2.1c3.8,0.6,5.3,1.4,3.2,1.8c-6.3,1.2-12.6,2.4-19,3.6
			c-2.2,0.4-7,0.2-10.8-0.4c-4.6-0.7-9.1-1.4-13.7-2.2C388.6,467.3,387.3,466.5,389.4,466.1"/>
		<path clip-path="url(#SVGID_38_)" fill-rule="evenodd" clip-rule="evenodd" fill="#999999" d="M324.9,446.1c6-1,12.1-2,18.1-3
			c1.9-0.3,6.2-0.2,9.4,0.3c3.9,0.6,7.9,1.1,12,1.7c3.3,0.5,4.4,1.1,2.5,1.5c-6,1-12.1,2-18.2,3.1c-2,0.3-6.3,0.2-9.7-0.3
			c-4-0.6-8-1.2-11.9-1.8C324,447.1,322.9,446.4,324.9,446.1"/>
		<path clip-path="url(#SVGID_38_)" fill-rule="evenodd" clip-rule="evenodd" fill="#999999" d="M355.4,450.6
			c6.1-1,12.1-2.1,18.2-3.1c2-0.3,6.3-0.2,9.7,0.3c4.2,0.6,8.3,1.2,12.5,1.8c3.5,0.5,4.7,1.2,2.8,1.5c-6,1.1-12.1,2.1-18.2,3.2
			c-2,0.3-6.5,0.2-10-0.3c-4.1-0.6-8.3-1.2-12.4-1.9C354.5,451.7,353.4,451,355.4,450.6"/>
		<path clip-path="url(#SVGID_38_)" fill-rule="evenodd" clip-rule="evenodd" fill="#999999" d="M387.3,455.4
			c6.1-1.1,12.2-2.1,18.2-3.2c2-0.3,6.5-0.2,10,0.3c4.4,0.6,8.7,1.2,13.1,1.9c3.6,0.5,5.1,1.2,3.1,1.6c-6.1,1.1-12.2,2.2-18.3,3.3
			c-2,0.4-6.6,0.2-10.3-0.3c-4.3-0.6-8.7-1.3-13-2C386.5,456.5,385.3,455.7,387.3,455.4"/>
		<path clip-path="url(#SVGID_38_)" fill-rule="evenodd" clip-rule="evenodd" fill="#999999" d="M420.7,460.4
			c6.1-1.1,12.2-2.2,18.3-3.3c2-0.4,6.6-0.2,10.4,0.3c4.5,0.6,9.1,1.3,13.7,2c3.8,0.6,5.3,1.3,3.3,1.7c-6,1.1-12.2,2.3-18.3,3.4
			c-2,0.4-6.8,0.2-10.6-0.4c-4.6-0.7-9.1-1.4-13.7-2.1C420.1,461.5,418.7,460.7,420.7,460.4"/>
		<path clip-path="url(#SVGID_38_)" fill-rule="evenodd" clip-rule="evenodd" fill="#999999" d="M354.7,441.2
			c5.8-1,11.7-1.9,17.4-2.9c1.9-0.3,6.1-0.2,9.3,0.3c4,0.5,8,1.1,12,1.6c3.4,0.5,4.6,1.1,2.7,1.4c-5.8,1-11.6,2-17.5,2.9
			c-1.9,0.3-6.3,0.2-9.6-0.3c-4-0.6-8-1.1-12-1.7C353.9,442.2,352.8,441.5,354.7,441.2"/>
		<path clip-path="url(#SVGID_38_)" fill-rule="evenodd" clip-rule="evenodd" fill="#999999" d="M385.3,445.6c5.9-1,11.7-2,17.5-3
			c1.9-0.3,6.2-0.2,9.6,0.3c4.2,0.6,8.4,1.2,12.5,1.7c3.5,0.5,4.8,1.1,2.9,1.5c-5.8,1-11.7,2-17.6,3.1c-1.9,0.3-6.4,0.2-9.9-0.3
			c-4.2-0.6-8.3-1.2-12.5-1.8C384.6,446.6,383.4,445.9,385.3,445.6"/>
		<path clip-path="url(#SVGID_38_)" fill-rule="evenodd" clip-rule="evenodd" fill="#999999" d="M417.3,450.1
			c5.9-1,11.8-2.1,17.6-3.1c1.9-0.3,6.3-0.2,9.9,0.3c4.4,0.6,8.7,1.2,13.1,1.8c3.7,0.5,5.1,1.2,3.2,1.5c-5.8,1.1-11.7,2.1-17.6,3.2
			c-1.9,0.4-6.5,0.2-10.2-0.3c-4.4-0.6-8.7-1.2-13.1-1.9C416.7,451.2,415.4,450.5,417.3,450.1"/>
		<path clip-path="url(#SVGID_38_)" fill-rule="evenodd" clip-rule="evenodd" fill="#999999" d="M450.8,454.9
			c5.9-1.1,11.8-2.1,17.6-3.2c1.9-0.3,6.5-0.2,10.2,0.3c4.6,0.6,9.2,1.3,13.7,1.9c3.8,0.5,5.4,1.2,3.5,1.6
			c-5.8,1.1-11.7,2.2-17.6,3.3c-1.9,0.4-6.7,0.2-10.5-0.3c-4.6-0.7-9.2-1.3-13.7-2C450.3,456,448.9,455.2,450.8,454.9"/>
		<path clip-path="url(#SVGID_38_)" fill-rule="evenodd" clip-rule="evenodd" fill="#999999" d="M383.5,436.5
			c5.6-0.9,11.2-1.8,16.8-2.8c1.9-0.3,6-0.2,9.3,0.2c4,0.5,8,1.1,12,1.6c3.4,0.4,4.6,1,2.8,1.4c-5.6,0.9-11.2,1.9-16.9,2.8
			c-1.9,0.3-6.2,0.2-9.5-0.3c-4-0.5-8-1.1-12-1.6C382.7,437.4,381.6,436.8,383.5,436.5"/>
		<path clip-path="url(#SVGID_38_)" fill-rule="evenodd" clip-rule="evenodd" fill="#999999" d="M414.2,440.7
			c5.7-1,11.3-1.9,16.9-2.9c1.9-0.3,6.1-0.2,9.5,0.2c4.2,0.5,8.3,1.1,12.6,1.7c3.5,0.5,4.8,1.1,3,1.4c-5.6,1-11.2,2-16.9,2.9
			c-1.9,0.3-6.3,0.2-9.8-0.3c-4.2-0.6-8.4-1.1-12.5-1.7C413.5,441.6,412.3,441,414.2,440.7"/>
		<path clip-path="url(#SVGID_38_)" fill-rule="evenodd" clip-rule="evenodd" fill="#999999" d="M446.2,445c5.7-1,11.3-2,16.9-3
			c1.9-0.3,6.3-0.2,9.9,0.3c4.3,0.6,8.7,1.2,13.1,1.7c3.7,0.5,5.2,1.1,3.3,1.5c-5.6,1-11.3,2-16.9,3.1c-1.9,0.3-6.4,0.2-10.1-0.3
			c-4.4-0.6-8.7-1.2-13.1-1.8C445.7,446,444.4,445.4,446.2,445"/>
		<path clip-path="url(#SVGID_38_)" fill-rule="evenodd" clip-rule="evenodd" fill="#999999" d="M479.8,449.6
			c5.7-1,11.3-2.1,16.9-3.1c1.9-0.3,6.4-0.2,10.1,0.3c4.6,0.6,9.1,1.2,13.7,1.8c3.8,0.5,5.5,1.2,3.6,1.5c-5.6,1.1-11.3,2.1-17,3.2
			c-1.9,0.3-6.5,0.2-10.4-0.3c-4.6-0.6-9.2-1.3-13.7-1.9C479.4,450.6,477.9,449.9,479.8,449.6"/>
		<path clip-path="url(#SVGID_38_)" fill-rule="evenodd" clip-rule="evenodd" fill="#999999" d="M411.2,432
			c5.5-0.9,10.9-1.8,16.3-2.7c1.7-0.3,5.9-0.2,9.1,0.2c4,0.5,8,1,12.1,1.5c3.3,0.4,4.7,1,2.9,1.3c-5.4,0.9-10.8,1.8-16.3,2.7
			c-1.8,0.3-6,0.2-9.4-0.2c-4-0.5-8-1.1-12-1.6C410.6,432.9,409.4,432.3,411.2,432"/>
		<path clip-path="url(#SVGID_38_)" fill-rule="evenodd" clip-rule="evenodd" fill="#999999" d="M442,436c5.5-0.9,10.9-1.8,16.3-2.8
			c1.8-0.3,6-0.2,9.4,0.2c4.2,0.5,8.4,1.1,12.5,1.6c3.5,0.4,4.9,1,3.2,1.4c-5.4,0.9-10.9,1.9-16.3,2.9c-1.8,0.3-6.1,0.2-9.6-0.3
			c-4.2-0.6-8.4-1.1-12.6-1.6C441.5,436.9,440.2,436.3,442,436"/>
		<path clip-path="url(#SVGID_38_)" fill-rule="evenodd" clip-rule="evenodd" fill="#999999" d="M474.1,440.2
			c5.4-1,10.9-1.9,16.3-2.9c1.8-0.3,6.1-0.2,9.7,0.3c4.4,0.5,8.7,1.1,13.1,1.7c3.6,0.5,5.2,1.1,3.5,1.4c-5.5,1-10.9,2-16.4,3
			c-1.8,0.3-6.3,0.2-9.9-0.3c-4.4-0.6-8.7-1.1-13.1-1.7C473.7,441.1,472.3,440.5,474.1,440.2"/>
		<path clip-path="url(#SVGID_38_)" fill-rule="evenodd" clip-rule="evenodd" fill="#999999" d="M507.7,444.5c5.5-1,10.9-2,16.3-3
			c1.8-0.3,6.2-0.2,10,0.3c4.5,0.6,9.1,1.1,13.7,1.7c3.8,0.5,5.5,1.1,3.7,1.5c-5.4,1-10.8,2.1-16.3,3.1c-1.8,0.3-6.4,0.2-10.2-0.3
			c-4.6-0.6-9.2-1.2-13.7-1.8C507.4,445.5,505.9,444.8,507.7,444.5"/>
		<path clip-path="url(#SVGID_38_)" fill-rule="evenodd" clip-rule="evenodd" fill="#999999" d="M438.1,427.6
			c5.3-0.9,10.5-1.7,15.7-2.6c1.7-0.3,5.8-0.2,9.1,0.2c4,0.5,8,1,12,1.5c3.4,0.4,4.7,1,3,1.3c-5.2,0.9-10.5,1.8-15.8,2.7
			c-1.7,0.3-5.9,0.2-9.2-0.2c-4.1-0.5-8.1-1-12.1-1.5C437.6,428.4,436.3,427.9,438.1,427.6"/>
		<path clip-path="url(#SVGID_38_)" fill-rule="evenodd" clip-rule="evenodd" fill="#999999" d="M468.9,431.4
			c5.3-0.9,10.5-1.8,15.8-2.7c1.7-0.3,5.8-0.2,9.3,0.2c4.2,0.5,8.3,1,12.5,1.5c3.5,0.4,5,1,3.3,1.3c-5.3,0.9-10.5,1.8-15.8,2.8
			c-1.8,0.3-6,0.2-9.5-0.3c-4.2-0.5-8.4-1.1-12.6-1.6C468.5,432.3,467.2,431.7,468.9,431.4"/>
		<path clip-path="url(#SVGID_38_)" fill-rule="evenodd" clip-rule="evenodd" fill="#999999" d="M501,435.4
			c5.3-0.9,10.6-1.8,15.8-2.8c1.7-0.3,6-0.2,9.6,0.2c4.3,0.5,8.7,1,13.1,1.6c3.7,0.4,5.3,1.1,3.6,1.4c-5.2,0.9-10.5,1.9-15.8,2.9
			c-1.7,0.3-6.1,0.2-9.8-0.3c-4.4-0.5-8.7-1.1-13.1-1.6C500.8,436.3,499.3,435.7,501,435.4"/>
		<path clip-path="url(#SVGID_38_)" fill-rule="evenodd" clip-rule="evenodd" fill="#999999" d="M534.6,439.6
			c5.3-1,10.5-1.9,15.8-2.9c1.7-0.3,6.1-0.2,9.9,0.3c4.5,0.5,9.1,1.1,13.7,1.7c3.8,0.5,5.5,1.1,3.9,1.4c-5.2,1-10.5,2-15.8,3
			c-1.7,0.3-6.3,0.2-10.1-0.3c-4.6-0.6-9.2-1.1-13.7-1.7C534.4,440.6,532.8,439.9,534.6,439.6"/>
		<path clip-path="url(#SVGID_38_)" fill-rule="evenodd" clip-rule="evenodd" fill="#999999" d="M464,423.3
			c5.1-0.8,10.1-1.7,15.2-2.5c1.7-0.3,5.7-0.2,9,0.2c4,0.5,8,0.9,12.1,1.4c3.4,0.4,4.8,0.9,3.1,1.2c-5.1,0.9-10.1,1.7-15.2,2.6
			c-1.7,0.3-5.9,0.2-9.2-0.2c-4-0.5-8-1-12-1.4C463.6,424.2,462.3,423.6,464,423.3"/>
		<path clip-path="url(#SVGID_38_)" fill-rule="evenodd" clip-rule="evenodd" fill="#999999" d="M494.9,427
			c5.1-0.9,10.2-1.7,15.2-2.6c1.6-0.3,5.8-0.2,9.2,0.2c4.2,0.5,8.4,1,12.6,1.5c3.5,0.4,5,1,3.3,1.3c-5.1,0.9-10.1,1.8-15.2,2.7
			c-1.7,0.3-5.9,0.2-9.4-0.2c-4.2-0.5-8.4-1-12.6-1.5C494.5,427.9,493.1,427.3,494.9,427"/>
		<path clip-path="url(#SVGID_38_)" fill-rule="evenodd" clip-rule="evenodd" fill="#999999" d="M527,430.9
			c5.1-0.9,10.2-1.8,15.2-2.7c1.6-0.3,5.9-0.2,9.5,0.2c4.3,0.5,8.7,1,13.1,1.5c3.6,0.4,5.3,1,3.6,1.3c-5.1,0.9-10.1,1.8-15.2,2.7
			c-1.7,0.3-6.1,0.2-9.7-0.2c-4.4-0.5-8.8-1.1-13.1-1.6C526.8,431.8,525.3,431.2,527,430.9"/>
		<path clip-path="url(#SVGID_38_)" fill-rule="evenodd" clip-rule="evenodd" fill="#999999" d="M560.5,434.9
			c5.1-0.9,10.1-1.8,15.2-2.8c1.6-0.3,6-0.2,9.8,0.2c4.5,0.5,9.1,1.1,13.7,1.6c3.8,0.4,5.6,1,3.9,1.4c-5,0.9-10.1,1.9-15.2,2.9
			c-1.7,0.3-6.2,0.2-10-0.3c-4.6-0.5-9.1-1.1-13.7-1.6C560.5,435.8,558.8,435.2,560.5,434.9"/>
		<path clip-path="url(#SVGID_38_)" fill-rule="evenodd" clip-rule="evenodd" fill="#999999" d="M489.1,419.2
			c4.9-0.8,9.9-1.6,14.7-2.4c1.6-0.3,5.6-0.2,8.8,0.2c4,0.4,8,0.9,12.1,1.3c3.3,0.4,4.8,0.9,3.2,1.2c-4.9,0.8-9.8,1.6-14.8,2.5
			c-1.6,0.3-5.7,0.2-9-0.2c-4-0.5-8.1-0.9-12.1-1.4C488.8,420,487.5,419.5,489.1,419.2"/>
		<path clip-path="url(#SVGID_38_)" fill-rule="evenodd" clip-rule="evenodd" fill="#999999" d="M519.9,422.8
			c4.9-0.8,9.8-1.7,14.7-2.5c1.6-0.3,5.7-0.2,9.1,0.2c4.2,0.5,8.4,0.9,12.5,1.4c3.5,0.4,5.1,0.9,3.5,1.2c-4.9,0.9-9.8,1.7-14.7,2.6
			c-1.6,0.3-5.8,0.2-9.3-0.2c-4.2-0.5-8.4-1-12.6-1.4C519.8,423.6,518.3,423,519.9,422.8"/>
		<path clip-path="url(#SVGID_38_)" fill-rule="evenodd" clip-rule="evenodd" fill="#999999" d="M552,426.5
			c4.9-0.9,9.9-1.7,14.8-2.6c1.6-0.3,5.8-0.2,9.4,0.2c4.4,0.5,8.7,1,13.1,1.5c3.7,0.4,5.3,1,3.7,1.3c-4.9,0.9-9.8,1.8-14.7,2.7
			c-1.6,0.3-5.9,0.2-9.6-0.2c-4.4-0.5-8.7-1-13.1-1.5C552,427.3,550.4,426.7,552,426.5"/>
		<path clip-path="url(#SVGID_38_)" fill-rule="evenodd" clip-rule="evenodd" fill="#999999" d="M585.6,430.3
			c4.9-0.9,9.8-1.8,14.7-2.7c1.6-0.3,5.9-0.2,9.6,0.2c4.5,0.5,9.1,1,13.6,1.5c3.8,0.4,5.6,1,4,1.3c-4.9,0.9-9.8,1.8-14.7,2.8
			c-1.6,0.3-6,0.2-9.9-0.2c-4.6-0.5-9.1-1.1-13.7-1.6C585.6,431.2,583.9,430.6,585.6,430.3"/>
		<path clip-path="url(#SVGID_38_)" fill-rule="evenodd" clip-rule="evenodd" fill="#999999" d="M513.4,415.3
			c4.8-0.8,9.6-1.6,14.3-2.3c1.6-0.3,5.5-0.2,8.8,0.2c4,0.4,8,0.9,12,1.3c3.3,0.4,4.8,0.9,3.3,1.1c-4.7,0.8-9.5,1.6-14.3,2.4
			c-1.6,0.3-5.6,0.2-8.9-0.2c-4-0.4-8.1-0.9-12.1-1.3C513.2,416,511.8,415.5,513.4,415.3"/>
		<path clip-path="url(#SVGID_38_)" fill-rule="evenodd" clip-rule="evenodd" fill="#999999" d="M544.2,418.7
			c4.8-0.8,9.6-1.6,14.3-2.4c1.5-0.3,5.6-0.2,9,0.2c4.2,0.4,8.4,0.9,12.5,1.4c3.5,0.4,5.1,0.9,3.6,1.2c-4.7,0.8-9.5,1.7-14.3,2.5
			c-1.6,0.3-5.7,0.2-9.2-0.2c-4.2-0.5-8.4-0.9-12.5-1.4C544.1,419.5,542.7,418.9,544.2,418.7"/>
		<path clip-path="url(#SVGID_38_)" fill-rule="evenodd" clip-rule="evenodd" fill="#999999" d="M576.3,422.2
			c4.8-0.8,9.5-1.7,14.2-2.5c1.5-0.3,5.7-0.2,9.3,0.2c4.3,0.5,8.7,0.9,13,1.4c3.7,0.4,5.4,0.9,3.9,1.2c-4.7,0.9-9.4,1.7-14.2,2.6
			c-1.6,0.3-5.9,0.2-9.5-0.2c-4.3-0.5-8.7-1-13.1-1.4C576.4,423,574.8,422.5,576.3,422.2"/>
		<path clip-path="url(#SVGID_38_)" fill-rule="evenodd" clip-rule="evenodd" fill="#999999" d="M609.8,425.9
			c4.8-0.9,9.5-1.7,14.2-2.6c1.5-0.3,5.8-0.2,9.5,0.2c4.5,0.5,9.1,1,13.6,1.5c3.8,0.4,5.7,1,4.2,1.3c-4.7,0.9-9.5,1.8-14.2,2.7
			c-1.6,0.3-5.9,0.2-9.8-0.2c-4.6-0.5-9.1-1-13.6-1.5C609.9,426.7,608.2,426.2,609.8,425.9"/>
		<path clip-path="url(#SVGID_38_)" fill-rule="evenodd" clip-rule="evenodd" fill="#999999" d="M537,411.4
			c4.6-0.8,9.2-1.5,13.8-2.3c1.5-0.2,5.4-0.2,8.7,0.2c4,0.4,8,0.8,12,1.2c3.3,0.3,4.9,0.8,3.3,1.1c-4.6,0.8-9.2,1.5-13.8,2.3
			c-1.5,0.2-5.5,0.2-8.9-0.2c-4-0.4-8.1-0.9-12-1.3C536.9,412.2,535.4,411.7,537,411.4"/>
		<path clip-path="url(#SVGID_38_)" fill-rule="evenodd" clip-rule="evenodd" fill="#999999" d="M567.7,414.7
			c4.6-0.8,9.2-1.6,13.8-2.3c1.5-0.3,5.5-0.2,9,0.2c4.2,0.4,8.3,0.9,12.5,1.3c3.5,0.4,5.1,0.9,3.5,1.1c-4.6,0.8-9.2,1.6-13.8,2.4
			c-1.5,0.3-5.6,0.2-9.1-0.2c-4.2-0.4-8.3-0.9-12.5-1.3C567.7,415.4,566.2,414.9,567.7,414.7"/>
		<path clip-path="url(#SVGID_38_)" fill-rule="evenodd" clip-rule="evenodd" fill="#999999" d="M599.8,418.1
			c4.6-0.8,9.2-1.6,13.8-2.4c1.5-0.3,5.6-0.2,9.2,0.2c4.3,0.4,8.7,0.9,13,1.3c3.6,0.4,5.4,0.9,3.9,1.2c-4.6,0.8-9.2,1.7-13.8,2.5
			c-1.5,0.3-5.7,0.2-9.3-0.2c-4.4-0.5-8.7-0.9-13-1.4C599.9,418.9,598.2,418.3,599.8,418.1"/>
		<path clip-path="url(#SVGID_38_)" fill-rule="evenodd" clip-rule="evenodd" fill="#999999" d="M633.1,421.6
			c4.6-0.8,9.2-1.7,13.8-2.5c1.5-0.3,5.7-0.2,9.4,0.2c4.5,0.5,9,0.9,13.6,1.4c3.8,0.4,5.6,0.9,4.1,1.2c-4.5,0.9-9.1,1.7-13.7,2.6
			c-1.5,0.3-5.8,0.2-9.6-0.2c-4.5-0.5-9.1-1-13.6-1.5C633.4,422.4,631.6,421.9,633.1,421.6"/>
	</g>
	<g clip-path="url(#SVGID_2_)">
		<defs>
			<path id="SVGID_59_" d="M188.7,456.5c-6.9,1.1-13.9,2.2-20.8,3.3c-2.3,0.4-1.7,1.1,1.3,1.7c3.7,0.7,7.3,1.3,11,2
				c3.1,0.6,7.4,0.7,9.8,0.4c7-1.1,14-2.3,21-3.4c2.2-0.4,1.5-1.1-1.5-1.7c-3.7-0.7-7.4-1.3-11.1-2c-1.9-0.3-4.3-0.5-6.4-0.5
				C190.6,456.3,189.5,456.3,188.7,456.5"/>
		</defs>
		<clipPath id="SVGID_60_">
			<use xlink:href="#SVGID_59_"  overflow="visible"/>
		</clipPath>
		
			<linearGradient id="SVGID_61_" gradientUnits="userSpaceOnUse" x1="0" y1="595.2731" x2="1" y2="595.2731" gradientTransform="matrix(45.7939 0 0 -45.7939 166.4331 27720.1289)">
			<stop  offset="0" style="stop-color:#F2F2F2"/>
			<stop  offset="1" style="stop-color:#CCCCCC"/>
		</linearGradient>
		<rect x="165.5" y="456.3" clip-path="url(#SVGID_60_)" fill="url(#SVGID_61_)" width="47.6" height="7.9"/>
	</g>
	<g clip-path="url(#SVGID_2_)">
		<defs>
			<path id="SVGID_62_" d="M222.1,451.2c-6.6,1.1-13.4,2.1-20.1,3.2c-2.2,0.3-1.6,1.1,1.5,1.6c3.7,0.7,7.4,1.3,11.2,2
				c3.1,0.5,7.5,0.7,9.7,0.3c6.8-1.1,13.5-2.2,20.2-3.3c2.1-0.4,1.3-1.1-1.8-1.6c-3.8-0.6-7.5-1.2-11.2-1.9
				c-1.9-0.3-4.3-0.5-6.4-0.5C224,451,222.9,451,222.1,451.2"/>
		</defs>
		<clipPath id="SVGID_63_">
			<use xlink:href="#SVGID_62_"  overflow="visible"/>
		</clipPath>
		
			<linearGradient id="SVGID_64_" gradientUnits="userSpaceOnUse" x1="0" y1="595.2732" x2="1" y2="595.2732" gradientTransform="matrix(45.0396 0 0 -45.0396 200.7461 27265.6113)">
			<stop  offset="0" style="stop-color:#F2F2F2"/>
			<stop  offset="1" style="stop-color:#CCCCCC"/>
		</linearGradient>
		<rect x="199.8" y="451" clip-path="url(#SVGID_63_)" fill="url(#SVGID_64_)" width="46.9" height="7.6"/>
	</g>
	<g clip-path="url(#SVGID_2_)">
		<defs>
			<path id="SVGID_65_" d="M254.4,446.1c-6.4,1-12.9,2-19.3,3.1c-2.1,0.3-1.4,1,1.7,1.5c3.7,0.6,7.5,1.2,11.2,1.9
				c3.1,0.5,7.5,0.7,9.6,0.3c6.5-1.1,13-2.1,19.5-3.2c2.1-0.3,1.2-1-1.9-1.5c-3.8-0.6-7.6-1.2-11.3-1.8c-1.9-0.3-4.3-0.5-6.3-0.5
				C256.3,445.9,255.2,445.9,254.4,446.1"/>
		</defs>
		<clipPath id="SVGID_66_">
			<use xlink:href="#SVGID_65_"  overflow="visible"/>
		</clipPath>
		
			<linearGradient id="SVGID_67_" gradientUnits="userSpaceOnUse" x1="0" y1="595.2733" x2="1" y2="595.2733" gradientTransform="matrix(44.3286 0 0 -44.3286 233.874 26837.1484)">
			<stop  offset="0" style="stop-color:#F2F2F2"/>
			<stop  offset="1" style="stop-color:#CCCCCC"/>
		</linearGradient>
		<rect x="232.9" y="445.9" clip-path="url(#SVGID_66_)" fill="url(#SVGID_67_)" width="46.2" height="7.3"/>
	</g>
	<g clip-path="url(#SVGID_2_)">
		<defs>
			<path id="SVGID_68_" d="M285.6,441.1c-6.2,1-12.4,2-18.6,3c-2.1,0.3-1.2,1,1.8,1.5c3.7,0.6,7.5,1.2,11.3,1.8
				c3.2,0.5,7.4,0.6,9.5,0.3c6.2-1,12.5-2,18.7-3c2-0.3,1.1-1-2-1.5c-3.8-0.6-7.6-1.1-11.4-1.7c-1.9-0.3-4.3-0.4-6.3-0.4
				C287.4,440.9,286.3,441,285.6,441.1"/>
		</defs>
		<clipPath id="SVGID_69_">
			<use xlink:href="#SVGID_68_"  overflow="visible"/>
		</clipPath>
		
			<linearGradient id="SVGID_70_" gradientUnits="userSpaceOnUse" x1="0" y1="595.2733" x2="1" y2="595.2733" gradientTransform="matrix(43.6333 0 0 -43.6333 265.7749 26418.1895)">
			<stop  offset="0" style="stop-color:#F2F2F2"/>
			<stop  offset="1" style="stop-color:#CCCCCC"/>
		</linearGradient>
		<rect x="264.8" y="440.9" clip-path="url(#SVGID_69_)" fill="url(#SVGID_70_)" width="45.5" height="7"/>
	</g>
	<g clip-path="url(#SVGID_2_)">
		<defs>
			<path id="SVGID_71_" d="M315.6,436.4c-6,0.9-12,1.9-18,2.9c-2,0.3-1.1,0.9,2,1.4c3.8,0.6,7.6,1.1,11.4,1.7
				c3.2,0.5,7.4,0.6,9.4,0.3c6.1-1,12.1-2,18.1-2.9c1.9-0.3,0.9-1-2.3-1.4c-3.8-0.6-7.7-1.1-11.4-1.6c-1.9-0.3-4.3-0.4-6.2-0.4
				C317.4,436.2,316.4,436.3,315.6,436.4"/>
		</defs>
		<clipPath id="SVGID_72_">
			<use xlink:href="#SVGID_71_"  overflow="visible"/>
		</clipPath>
		
			<linearGradient id="SVGID_73_" gradientUnits="userSpaceOnUse" x1="0" y1="595.2734" x2="1" y2="595.2734" gradientTransform="matrix(42.9014 0 0 -42.9014 296.5894 25977.6035)">
			<stop  offset="0" style="stop-color:#F2F2F2"/>
			<stop  offset="1" style="stop-color:#CCCCCC"/>
		</linearGradient>
		<rect x="295.7" y="436.2" clip-path="url(#SVGID_72_)" fill="url(#SVGID_73_)" width="44.8" height="6.7"/>
	</g>
	<g clip-path="url(#SVGID_2_)">
		<defs>
			<path id="SVGID_74_" d="M344.7,431.8c-5.8,0.9-11.6,1.8-17.4,2.8c-1.9,0.3-1,0.9,2.2,1.4c3.8,0.5,7.6,1.1,11.5,1.6
				c3.2,0.4,7.4,0.6,9.3,0.3c5.8-1,11.7-1.9,17.4-2.8c1.9-0.3,0.8-0.9-2.4-1.4c-3.9-0.5-7.7-1.1-11.5-1.6c-1.9-0.3-4.2-0.4-6.2-0.4
				C346.4,431.6,345.4,431.7,344.7,431.8"/>
		</defs>
		<clipPath id="SVGID_75_">
			<use xlink:href="#SVGID_74_"  overflow="visible"/>
		</clipPath>
		
			<linearGradient id="SVGID_76_" gradientUnits="userSpaceOnUse" x1="0" y1="595.2734" x2="1" y2="595.2734" gradientTransform="matrix(42.2803 0 0 -42.2803 326.2915 25603.168)">
			<stop  offset="0" style="stop-color:#F2F2F2"/>
			<stop  offset="1" style="stop-color:#CCCCCC"/>
		</linearGradient>
		<rect x="325.4" y="431.6" clip-path="url(#SVGID_75_)" fill="url(#SVGID_76_)" width="44.2" height="6.5"/>
	</g>
	<g clip-path="url(#SVGID_2_)">
		<defs>
			<path id="SVGID_77_" d="M372.7,427.3c-5.6,0.9-11.2,1.8-16.8,2.7c-1.9,0.3-0.9,0.9,2.3,1.3c3.8,0.5,7.7,1,11.5,1.6
				c3.2,0.4,7.3,0.5,9.2,0.2c5.6-0.9,11.2-1.8,16.8-2.7c1.9-0.3,0.7-0.9-2.5-1.3c-3.9-0.5-7.7-1-11.5-1.5c-1.9-0.3-4.2-0.4-6.1-0.4
				C374.4,427.2,373.4,427.2,372.7,427.3"/>
		</defs>
		<clipPath id="SVGID_78_">
			<use xlink:href="#SVGID_77_"  overflow="visible"/>
		</clipPath>
		
			<linearGradient id="SVGID_79_" gradientUnits="userSpaceOnUse" x1="0" y1="595.2734" x2="1" y2="595.2734" gradientTransform="matrix(41.6665 0 0 -41.6665 354.9814 25233.2539)">
			<stop  offset="0" style="stop-color:#F2F2F2"/>
			<stop  offset="1" style="stop-color:#CCCCCC"/>
		</linearGradient>
		<rect x="354" y="427.2" clip-path="url(#SVGID_78_)" fill="url(#SVGID_79_)" width="43.6" height="6.3"/>
	</g>
	<g clip-path="url(#SVGID_2_)">
		<defs>
			<path id="SVGID_80_" d="M399.9,423c-5.4,0.9-10.8,1.7-16.3,2.6c-1.8,0.3-0.7,0.9,2.4,1.3c3.8,0.5,7.7,1,11.5,1.5
				c3.2,0.4,7.3,0.5,9.1,0.2c5.4-0.9,10.9-1.8,16.3-2.7c1.7-0.3,0.6-0.8-2.7-1.2c-3.8-0.5-7.7-1-11.5-1.5c-1.9-0.2-4.2-0.4-6.1-0.4
				C401.5,422.9,400.5,422.9,399.9,423"/>
		</defs>
		<clipPath id="SVGID_81_">
			<use xlink:href="#SVGID_80_"  overflow="visible"/>
		</clipPath>
		
			<linearGradient id="SVGID_82_" gradientUnits="userSpaceOnUse" x1="0" y1="595.2735" x2="1" y2="595.2735" gradientTransform="matrix(41.0273 0 0 -41.0273 382.7383 24848.3809)">
			<stop  offset="0" style="stop-color:#F2F2F2"/>
			<stop  offset="1" style="stop-color:#CCCCCC"/>
		</linearGradient>
		<rect x="381.8" y="422.9" clip-path="url(#SVGID_81_)" fill="url(#SVGID_82_)" width="42.9" height="6"/>
	</g>
	<g clip-path="url(#SVGID_2_)">
		<defs>
			<path id="SVGID_83_" d="M426.1,418.9c-5.2,0.8-10.5,1.7-15.7,2.5c-1.7,0.3-0.6,0.8,2.6,1.2c3.8,0.5,7.7,1,11.5,1.4
				c3.2,0.4,7.3,0.5,9,0.2c5.3-0.9,10.5-1.7,15.8-2.6c1.7-0.3,0.5-0.8-2.8-1.2c-3.9-0.5-7.7-0.9-11.5-1.4c-2-0.2-4.2-0.4-6-0.4
				C427.8,418.7,426.8,418.8,426.1,418.9"/>
		</defs>
		<clipPath id="SVGID_84_">
			<use xlink:href="#SVGID_83_"  overflow="visible"/>
		</clipPath>
		
			<linearGradient id="SVGID_85_" gradientUnits="userSpaceOnUse" x1="0" y1="595.2736" x2="1" y2="595.2736" gradientTransform="matrix(40.4473 0 0 -40.4473 409.5801 24498.8145)">
			<stop  offset="0" style="stop-color:#F2F2F2"/>
			<stop  offset="1" style="stop-color:#CCCCCC"/>
		</linearGradient>
		<rect x="408.7" y="418.7" clip-path="url(#SVGID_84_)" fill="url(#SVGID_85_)" width="42.3" height="5.8"/>
	</g>
	<g clip-path="url(#SVGID_2_)">
		<defs>
			<path id="SVGID_86_" d="M451.5,414.9c-5,0.8-10.1,1.6-15.2,2.4c-1.7,0.3-0.5,0.8,2.7,1.2c3.8,0.5,7.7,0.9,11.6,1.4
				c3.2,0.4,7.2,0.5,8.9,0.2c5.1-0.8,10.1-1.6,15.2-2.5c1.7-0.3,0.4-0.8-2.9-1.2c-3.9-0.4-7.7-0.9-11.6-1.3c-1.9-0.2-4.1-0.3-6-0.3
				C453.1,414.7,452.1,414.8,451.5,414.9"/>
		</defs>
		<clipPath id="SVGID_87_">
			<use xlink:href="#SVGID_86_"  overflow="visible"/>
		</clipPath>
		
			<linearGradient id="SVGID_88_" gradientUnits="userSpaceOnUse" x1="0" y1="595.2735" x2="1" y2="595.2735" gradientTransform="matrix(39.9023 0 0 -39.9023 435.5088 24170.3223)">
			<stop  offset="0" style="stop-color:#F2F2F2"/>
			<stop  offset="1" style="stop-color:#CCCCCC"/>
		</linearGradient>
		<rect x="434.6" y="414.7" clip-path="url(#SVGID_87_)" fill="url(#SVGID_88_)" width="41.8" height="5.6"/>
	</g>
	<g clip-path="url(#SVGID_2_)">
		<defs>
			<path id="SVGID_89_" d="M476.1,411c-4.9,0.8-9.8,1.6-14.7,2.3c-1.6,0.3-0.3,0.8,2.8,1.1c3.8,0.4,7.7,0.9,11.6,1.3
				c3.2,0.4,7.2,0.4,8.8,0.2c4.9-0.8,9.8-1.6,14.7-2.4c1.6-0.3,0.3-0.8-2.9-1.1c-3.9-0.4-7.8-0.9-11.6-1.3c-1.9-0.2-4.1-0.3-5.9-0.3
				C477.7,410.8,476.7,410.9,476.1,411"/>
		</defs>
		<clipPath id="SVGID_90_">
			<use xlink:href="#SVGID_89_"  overflow="visible"/>
		</clipPath>
		
			<linearGradient id="SVGID_91_" gradientUnits="userSpaceOnUse" x1="0" y1="595.2737" x2="1" y2="595.2737" gradientTransform="matrix(39.2979 0 0 -39.2979 460.6484 23806.4941)">
			<stop  offset="0" style="stop-color:#F2F2F2"/>
			<stop  offset="1" style="stop-color:#CCCCCC"/>
		</linearGradient>
		<rect x="459.7" y="410.8" clip-path="url(#SVGID_90_)" fill="url(#SVGID_91_)" width="41.1" height="5.4"/>
	</g>
	<g clip-path="url(#SVGID_2_)">
		<defs>
			<path id="SVGID_92_" d="M499.9,407.2c-4.7,0.8-9.5,1.5-14.3,2.3c-1.6,0.3-0.3,0.7,2.9,1.1c3.9,0.4,7.7,0.9,11.6,1.3
				c3.2,0.4,7.2,0.4,8.7,0.2c4.8-0.8,9.5-1.5,14.3-2.3c1.5-0.2,0.1-0.7-3.1-1.1c-3.9-0.4-7.7-0.8-11.6-1.2c-1.9-0.2-4.1-0.3-5.8-0.3
				C501.5,407.1,500.5,407.1,499.9,407.2"/>
		</defs>
		<clipPath id="SVGID_93_">
			<use xlink:href="#SVGID_92_"  overflow="visible"/>
		</clipPath>
		
			<linearGradient id="SVGID_94_" gradientUnits="userSpaceOnUse" x1="0" y1="595.2736" x2="1" y2="595.2736" gradientTransform="matrix(38.7754 0 0 -38.7754 484.9795 23491.627)">
			<stop  offset="0" style="stop-color:#F2F2F2"/>
			<stop  offset="1" style="stop-color:#CCCCCC"/>
		</linearGradient>
		<rect x="484.1" y="407.1" clip-path="url(#SVGID_93_)" fill="url(#SVGID_94_)" width="40.6" height="5.2"/>
	</g>
	<g clip-path="url(#SVGID_2_)">
		<defs>
			<path id="SVGID_95_" d="M523,403.5c-4.6,0.7-9.2,1.5-13.9,2.2c-1.5,0.2-0.2,0.7,3,1c3.9,0.4,7.7,0.8,11.6,1.2
				c3.2,0.3,7.1,0.4,8.6,0.2c4.6-0.7,9.3-1.5,13.9-2.2c1.5-0.3,0.1-0.7-3.1-1.1c-3.9-0.4-7.7-0.8-11.6-1.2c-1.9-0.2-4-0.3-5.7-0.3
				C524.7,403.4,523.7,403.4,523,403.5"/>
		</defs>
		<clipPath id="SVGID_96_">
			<use xlink:href="#SVGID_95_"  overflow="visible"/>
		</clipPath>
		
			<linearGradient id="SVGID_97_" gradientUnits="userSpaceOnUse" x1="0" y1="595.2737" x2="1" y2="595.2737" gradientTransform="matrix(38.2891 0 0 -38.2891 508.5664 23198.3887)">
			<stop  offset="0" style="stop-color:#F2F2F2"/>
			<stop  offset="1" style="stop-color:#CCCCCC"/>
		</linearGradient>
		<rect x="507.7" y="403.4" clip-path="url(#SVGID_96_)" fill="url(#SVGID_97_)" width="40.1" height="5"/>
	</g>
	<g clip-path="url(#SVGID_2_)">
		<defs>
			<path id="SVGID_98_" d="M217.1,461.5c-6.9,1.1-14,2.3-21,3.4c-2.4,0.4-1.6,1.2,1.5,1.7c3.8,0.7,7.7,1.4,11.6,2.1
				c3.2,0.6,7.7,0.8,10.1,0.4c7.1-1.2,14.1-2.4,21.1-3.6c2.3-0.4,1.5-1.2-1.8-1.7c-3.9-0.7-7.8-1.4-11.7-2.1c-2-0.3-4.5-0.5-6.7-0.5
				C219.1,461.3,217.9,461.4,217.1,461.5"/>
		</defs>
		<clipPath id="SVGID_99_">
			<use xlink:href="#SVGID_98_"  overflow="visible"/>
		</clipPath>
		
			<linearGradient id="SVGID_100_" gradientUnits="userSpaceOnUse" x1="0" y1="595.2731" x2="1" y2="595.2731" gradientTransform="matrix(46.9878 0 0 -46.9878 194.731 28436.002)">
			<stop  offset="0" style="stop-color:#F2F2F2"/>
			<stop  offset="1" style="stop-color:#CCCCCC"/>
		</linearGradient>
		<rect x="193.8" y="461.3" clip-path="url(#SVGID_99_)" fill="url(#SVGID_100_)" width="49" height="8.3"/>
	</g>
	<g clip-path="url(#SVGID_2_)">
		<defs>
			<path id="SVGID_101_" d="M246.9,466.8c-7,1.2-14.1,2.4-21.2,3.6c-2.3,0.4-1.5,1.2,1.8,1.8c4,0.7,8.1,1.5,12.2,2.2
				c3.4,0.6,8,0.8,10.4,0.4c7.1-1.2,14.2-2.5,21.3-3.7c2.3-0.4,1.3-1.2-2-1.8c-4.1-0.7-8.2-1.4-12.3-2.2c-2.1-0.4-4.7-0.6-6.9-0.6
				C248.9,466.6,247.8,466.6,246.9,466.8"/>
		</defs>
		<clipPath id="SVGID_102_">
			<use xlink:href="#SVGID_101_"  overflow="visible"/>
		</clipPath>
		
			<linearGradient id="SVGID_103_" gradientUnits="userSpaceOnUse" x1="0" y1="595.273" x2="1" y2="595.273" gradientTransform="matrix(48.231 0 0 -48.231 224.4297 29181.4902)">
			<stop  offset="0" style="stop-color:#F2F2F2"/>
			<stop  offset="1" style="stop-color:#CCCCCC"/>
		</linearGradient>
		<rect x="223.4" y="466.6" clip-path="url(#SVGID_102_)" fill="url(#SVGID_103_)" width="50.3" height="8.7"/>
	</g>
	<g clip-path="url(#SVGID_2_)">
		<defs>
			<path id="SVGID_104_" d="M278.2,472.3c-7.1,1.2-14.2,2.5-21.3,3.8c-2.4,0.4-1.4,1.3,2.1,1.9c4.2,0.8,8.5,1.6,12.8,2.4
				c3.6,0.7,8.4,0.9,10.8,0.4c7.2-1.3,14.3-2.6,21.4-3.9c2.3-0.4,1.2-1.3-2.3-1.9c-4.3-0.8-8.6-1.5-12.9-2.3c-2.2-0.4-5-0.6-7.2-0.6
				C280.2,472.1,279.1,472.2,278.2,472.3"/>
		</defs>
		<clipPath id="SVGID_105_">
			<use xlink:href="#SVGID_104_"  overflow="visible"/>
		</clipPath>
		
			<linearGradient id="SVGID_106_" gradientUnits="userSpaceOnUse" x1="0" y1="595.273" x2="1" y2="595.273" gradientTransform="matrix(49.5713 0 0 -49.5713 255.6167 29985.0996)">
			<stop  offset="0" style="stop-color:#F2F2F2"/>
			<stop  offset="1" style="stop-color:#CCCCCC"/>
		</linearGradient>
		<rect x="254.5" y="472.1" clip-path="url(#SVGID_105_)" fill="url(#SVGID_106_)" width="51.7" height="9.1"/>
	</g>
	<g clip-path="url(#SVGID_2_)">
		<defs>
			<path id="SVGID_107_" d="M311.2,478.2c-7.1,1.3-14.3,2.6-21.5,3.9c-2.4,0.4-1.3,1.3,2.4,2c4.5,0.8,9,1.7,13.5,2.5
				c3.8,0.7,8.7,0.9,11.1,0.5c7.2-1.4,14.4-2.7,21.5-4.1c2.3-0.4,1.1-1.3-2.6-2c-4.5-0.8-9.1-1.6-13.6-2.4c-2.3-0.4-5.1-0.6-7.5-0.6
				C313.2,477.9,312,478,311.2,478.2"/>
		</defs>
		<clipPath id="SVGID_108_">
			<use xlink:href="#SVGID_107_"  overflow="visible"/>
		</clipPath>
		
			<linearGradient id="SVGID_109_" gradientUnits="userSpaceOnUse" x1="0" y1="595.2729" x2="1" y2="595.2729" gradientTransform="matrix(50.9727 0 0 -50.9727 288.4277 30825.3438)">
			<stop  offset="0" style="stop-color:#F2F2F2"/>
			<stop  offset="1" style="stop-color:#CCCCCC"/>
		</linearGradient>
		<rect x="287.3" y="477.9" clip-path="url(#SVGID_108_)" fill="url(#SVGID_109_)" width="53.2" height="9.5"/>
	</g>
	<g clip-path="url(#SVGID_2_)">
		<defs>
			<path id="SVGID_110_" d="M250.8,456c-6.7,1.1-13.5,2.2-20.2,3.3c-2.2,0.4-1.5,1.1,1.7,1.7c3.9,0.7,7.8,1.4,11.7,2
				c3.2,0.6,7.8,0.7,10,0.3c6.8-1.1,13.6-2.3,20.3-3.4c2.1-0.4,1.3-1.1-2-1.7c-3.9-0.7-7.9-1.3-11.8-2c-2-0.3-4.5-0.5-6.6-0.5
				C252.7,455.8,251.6,455.8,250.8,456"/>
		</defs>
		<clipPath id="SVGID_111_">
			<use xlink:href="#SVGID_110_"  overflow="visible"/>
		</clipPath>
		
			<linearGradient id="SVGID_112_" gradientUnits="userSpaceOnUse" x1="0" y1="595.2731" x2="1" y2="595.2731" gradientTransform="matrix(46.1846 0 0 -46.1846 229.3345 27952.1895)">
			<stop  offset="0" style="stop-color:#F2F2F2"/>
			<stop  offset="1" style="stop-color:#CCCCCC"/>
		</linearGradient>
		<rect x="228.4" y="455.8" clip-path="url(#SVGID_111_)" fill="url(#SVGID_112_)" width="48.1" height="7.9"/>
	</g>
	<g clip-path="url(#SVGID_2_)">
		<defs>
			<path id="SVGID_113_" d="M280.9,461c-6.8,1.1-13.6,2.3-20.3,3.4c-2.3,0.4-1.4,1.2,1.9,1.8c4.1,0.7,8.2,1.4,12.3,2.1
				c3.4,0.6,8.1,0.8,10.3,0.4c6.8-1.2,13.7-2.4,20.5-3.6c2.2-0.4,1.2-1.2-2.3-1.7c-4.1-0.7-8.2-1.4-12.3-2.1
				c-2.1-0.4-4.7-0.5-6.9-0.5C282.8,460.8,281.7,460.9,280.9,461"/>
		</defs>
		<clipPath id="SVGID_114_">
			<use xlink:href="#SVGID_113_"  overflow="visible"/>
		</clipPath>
		
			<linearGradient id="SVGID_115_" gradientUnits="userSpaceOnUse" x1="0" y1="595.2731" x2="1" y2="595.2731" gradientTransform="matrix(47.4077 0 0 -47.4077 259.2856 28685.5176)">
			<stop  offset="0" style="stop-color:#F2F2F2"/>
			<stop  offset="1" style="stop-color:#CCCCCC"/>
		</linearGradient>
		<rect x="258.3" y="460.8" clip-path="url(#SVGID_114_)" fill="url(#SVGID_115_)" width="49.5" height="8.3"/>
	</g>
	<g clip-path="url(#SVGID_2_)">
		<defs>
			<path id="SVGID_116_" d="M312.4,466.3c-6.8,1.2-13.6,2.4-20.5,3.6c-2.3,0.4-1.3,1.2,2.2,1.8c4.3,0.7,8.5,1.5,12.9,2.2
				c3.6,0.6,8.4,0.8,10.7,0.4c6.9-1.2,13.8-2.5,20.6-3.7c2.2-0.4,1-1.2-2.6-1.8c-4.3-0.7-8.6-1.4-12.9-2.2c-2.2-0.4-4.9-0.6-7.2-0.6
				C314.4,466.1,313.2,466.2,312.4,466.3"/>
		</defs>
		<clipPath id="SVGID_117_">
			<use xlink:href="#SVGID_116_"  overflow="visible"/>
		</clipPath>
		
			<linearGradient id="SVGID_118_" gradientUnits="userSpaceOnUse" x1="0" y1="595.273" x2="1" y2="595.273" gradientTransform="matrix(48.6958 0 0 -48.6958 290.7197 29457.7637)">
			<stop  offset="0" style="stop-color:#F2F2F2"/>
			<stop  offset="1" style="stop-color:#CCCCCC"/>
		</linearGradient>
		<rect x="289.7" y="466.1" clip-path="url(#SVGID_117_)" fill="url(#SVGID_118_)" width="50.8" height="8.7"/>
	</g>
	<g clip-path="url(#SVGID_2_)">
		<defs>
			<path id="SVGID_119_" d="M345.5,471.9c-6.8,1.2-13.7,2.5-20.6,3.8c-2.3,0.4-1.2,1.3,2.5,1.9c4.5,0.8,9,1.6,13.6,2.4
				c3.8,0.7,8.7,0.8,11,0.4c6.9-1.3,13.8-2.6,20.7-3.9c2.2-0.4,0.9-1.3-2.9-1.9c-4.6-0.8-9.1-1.5-13.6-2.3c-2.3-0.4-5.2-0.6-7.5-0.6
				C347.5,471.7,346.3,471.7,345.5,471.9"/>
		</defs>
		<clipPath id="SVGID_120_">
			<use xlink:href="#SVGID_119_"  overflow="visible"/>
		</clipPath>
		
			<linearGradient id="SVGID_121_" gradientUnits="userSpaceOnUse" x1="0" y1="595.2731" x2="1" y2="595.2731" gradientTransform="matrix(50.0166 0 0 -50.0166 323.7632 30249.7637)">
			<stop  offset="0" style="stop-color:#F2F2F2"/>
			<stop  offset="1" style="stop-color:#CCCCCC"/>
		</linearGradient>
		<rect x="322.7" y="471.7" clip-path="url(#SVGID_120_)" fill="url(#SVGID_121_)" width="52.2" height="9.1"/>
	</g>
	<g clip-path="url(#SVGID_2_)">
		<defs>
			<path id="SVGID_122_" d="M283.4,450.7c-6.5,1.1-13,2.1-19.5,3.2c-2.1,0.3-1.3,1.1,1.9,1.6c3.9,0.6,7.8,1.3,11.8,2
				c3.3,0.5,7.7,0.7,9.9,0.3c6.6-1.1,13.1-2.2,19.6-3.3c2.1-0.4,1.1-1.1-2.2-1.6c-3.9-0.6-7.9-1.3-11.8-1.9c-2-0.3-4.4-0.5-6.5-0.5
				C285.3,450.5,284.2,450.5,283.4,450.7"/>
		</defs>
		<clipPath id="SVGID_123_">
			<use xlink:href="#SVGID_122_"  overflow="visible"/>
		</clipPath>
		
			<linearGradient id="SVGID_124_" gradientUnits="userSpaceOnUse" x1="0" y1="595.2733" x2="1" y2="595.2733" gradientTransform="matrix(45.4458 0 0 -45.4458 262.7002 27506.9453)">
			<stop  offset="0" style="stop-color:#F2F2F2"/>
			<stop  offset="1" style="stop-color:#CCCCCC"/>
		</linearGradient>
		<rect x="261.7" y="450.5" clip-path="url(#SVGID_123_)" fill="url(#SVGID_124_)" width="47.4" height="7.6"/>
	</g>
	<g clip-path="url(#SVGID_2_)">
		<defs>
			<path id="SVGID_125_" d="M313.6,455.5c-6.5,1.1-13.1,2.2-19.6,3.3c-2.1,0.4-1.2,1.1,2.2,1.7c4.1,0.7,8.2,1.4,12.3,2
				c3.4,0.6,8,0.7,10.2,0.3c6.6-1.1,13.1-2.3,19.7-3.4c2.1-0.4,1-1.1-2.4-1.7c-4.1-0.7-8.3-1.3-12.4-2c-2.1-0.3-4.7-0.5-6.8-0.5
				C315.5,455.3,314.4,455.4,313.6,455.5"/>
		</defs>
		<clipPath id="SVGID_126_">
			<use xlink:href="#SVGID_125_"  overflow="visible"/>
		</clipPath>
		
			<linearGradient id="SVGID_127_" gradientUnits="userSpaceOnUse" x1="0" y1="595.2732" x2="1" y2="595.2732" gradientTransform="matrix(46.6182 0 0 -46.6182 292.8823 28209.8145)">
			<stop  offset="0" style="stop-color:#F2F2F2"/>
			<stop  offset="1" style="stop-color:#CCCCCC"/>
		</linearGradient>
		<rect x="291.9" y="455.3" clip-path="url(#SVGID_126_)" fill="url(#SVGID_127_)" width="48.7" height="8"/>
	</g>
	<g clip-path="url(#SVGID_2_)">
		<defs>
			<path id="SVGID_128_" d="M345.3,460.5c-6.5,1.1-13.1,2.3-19.7,3.5c-2.1,0.4-1,1.2,2.5,1.8c4.3,0.7,8.6,1.4,13,2.1
				c3.6,0.6,8.4,0.8,10.5,0.4c6.6-1.2,13.2-2.4,19.8-3.6c2.2-0.4,0.9-1.2-2.7-1.7c-4.3-0.7-8.7-1.4-13-2.1c-2.2-0.4-4.9-0.5-7.1-0.5
				C347.2,460.3,346.1,460.4,345.3,460.5"/>
		</defs>
		<clipPath id="SVGID_129_">
			<use xlink:href="#SVGID_128_"  overflow="visible"/>
		</clipPath>
		
			<linearGradient id="SVGID_130_" gradientUnits="userSpaceOnUse" x1="0" y1="595.2731" x2="1" y2="595.2731" gradientTransform="matrix(47.8452 0 0 -47.8452 324.5229 28945.4766)">
			<stop  offset="0" style="stop-color:#F2F2F2"/>
			<stop  offset="1" style="stop-color:#CCCCCC"/>
		</linearGradient>
		<rect x="323.5" y="460.3" clip-path="url(#SVGID_129_)" fill="url(#SVGID_130_)" width="50" height="8.3"/>
	</g>
	<g clip-path="url(#SVGID_2_)">
		<defs>
			<path id="SVGID_131_" d="M378.6,465.9c-6.6,1.2-13.2,2.4-19.8,3.6c-2.2,0.4-1,1.2,2.7,1.8c4.5,0.7,9.1,1.5,13.6,2.3
				c3.8,0.6,8.7,0.8,10.9,0.4c6.6-1.2,13.3-2.5,19.9-3.7c2.2-0.4,0.8-1.2-3-1.8c-4.6-0.7-9.1-1.4-13.6-2.2c-2.3-0.4-5.1-0.6-7.4-0.6
				C380.5,465.7,379.4,465.7,378.6,465.9"/>
		</defs>
		<clipPath id="SVGID_132_">
			<use xlink:href="#SVGID_131_"  overflow="visible"/>
		</clipPath>
		
			<linearGradient id="SVGID_133_" gradientUnits="userSpaceOnUse" x1="0" y1="595.2731" x2="1" y2="595.2731" gradientTransform="matrix(49.145 0 0 -49.145 357.7305 29724.7168)">
			<stop  offset="0" style="stop-color:#F2F2F2"/>
			<stop  offset="1" style="stop-color:#CCCCCC"/>
		</linearGradient>
		<rect x="356.6" y="465.7" clip-path="url(#SVGID_132_)" fill="url(#SVGID_133_)" width="51.4" height="8.7"/>
	</g>
	<g clip-path="url(#SVGID_2_)">
		<defs>
			<path id="SVGID_134_" d="M314.7,445.5c-6.2,1-12.4,2-18.7,3.1c-2.1,0.3-1.2,1,2,1.5c3.9,0.6,7.9,1.2,11.9,1.9
				c3.3,0.5,7.7,0.7,9.8,0.3c6.3-1,12.6-2.1,18.8-3.2c2.1-0.3,1-1-2.3-1.5c-4-0.6-8-1.2-11.9-1.8c-2-0.3-4.4-0.5-6.5-0.5
				C316.5,445.4,315.4,445.4,314.7,445.5"/>
		</defs>
		<clipPath id="SVGID_135_">
			<use xlink:href="#SVGID_134_"  overflow="visible"/>
		</clipPath>
		
			<linearGradient id="SVGID_136_" gradientUnits="userSpaceOnUse" x1="0" y1="595.2733" x2="1" y2="595.2733" gradientTransform="matrix(44.7007 0 0 -44.7007 294.8052 27058.1309)">
			<stop  offset="0" style="stop-color:#F2F2F2"/>
			<stop  offset="1" style="stop-color:#CCCCCC"/>
		</linearGradient>
		<rect x="293.8" y="445.4" clip-path="url(#SVGID_135_)" fill="url(#SVGID_136_)" width="46.7" height="7.3"/>
	</g>
	<g clip-path="url(#SVGID_2_)">
		<defs>
			<path id="SVGID_137_" d="M345.1,450.2c-6.3,1.1-12.5,2.1-18.9,3.2c-2.1,0.4-1.1,1.1,2.3,1.6c4.1,0.6,8.3,1.3,12.4,2
				c3.5,0.5,8,0.7,10.2,0.3c6.3-1.1,12.6-2.2,18.9-3.3c2-0.4,0.9-1.1-2.6-1.6c-4.2-0.6-8.3-1.2-12.5-1.9c-2.1-0.3-4.6-0.5-6.7-0.5
				C347,450,345.9,450,345.1,450.2"/>
		</defs>
		<clipPath id="SVGID_138_">
			<use xlink:href="#SVGID_137_"  overflow="visible"/>
		</clipPath>
		
			<linearGradient id="SVGID_139_" gradientUnits="userSpaceOnUse" x1="0" y1="595.2733" x2="1" y2="595.2733" gradientTransform="matrix(45.8462 0 0 -45.8462 325.1572 27744.7988)">
			<stop  offset="0" style="stop-color:#F2F2F2"/>
			<stop  offset="1" style="stop-color:#CCCCCC"/>
		</linearGradient>
		<rect x="324.1" y="450" clip-path="url(#SVGID_138_)" fill="url(#SVGID_139_)" width="47.9" height="7.6"/>
	</g>
	<g clip-path="url(#SVGID_2_)">
		<defs>
			<path id="SVGID_140_" d="M376.9,455c-6.3,1.1-12.6,2.2-18.9,3.3c-2.1,0.4-0.9,1.1,2.6,1.7c4.3,0.7,8.6,1.4,13,2
				c3.6,0.6,8.3,0.7,10.5,0.3c6.4-1.1,12.7-2.3,19-3.4c2.1-0.4,0.8-1.1-2.9-1.7c-4.3-0.7-8.7-1.3-13-2c-2.2-0.3-4.8-0.5-7-0.5
				C378.8,454.8,377.7,454.9,376.9,455"/>
		</defs>
		<clipPath id="SVGID_141_">
			<use xlink:href="#SVGID_140_"  overflow="visible"/>
		</clipPath>
		
			<linearGradient id="SVGID_142_" gradientUnits="userSpaceOnUse" x1="0" y1="595.2732" x2="1" y2="595.2732" gradientTransform="matrix(47.0332 0 0 -47.0332 356.9678 28456.3945)">
			<stop  offset="0" style="stop-color:#F2F2F2"/>
			<stop  offset="1" style="stop-color:#CCCCCC"/>
		</linearGradient>
		<rect x="355.9" y="454.8" clip-path="url(#SVGID_141_)" fill="url(#SVGID_142_)" width="49.2" height="8"/>
	</g>
	<g clip-path="url(#SVGID_2_)">
		<defs>
			<path id="SVGID_143_" d="M410.3,460.1c-6.3,1.1-12.6,2.3-19,3.5c-2.1,0.4-0.8,1.2,2.9,1.8c4.5,0.7,9.1,1.4,13.7,2.2
				c3.8,0.6,8.6,0.8,10.8,0.4c6.4-1.2,12.7-2.4,19-3.6c2.1-0.4,0.6-1.2-3.2-1.8c-4.6-0.7-9.1-1.4-13.7-2.1c-2.3-0.4-5-0.5-7.3-0.5
				C412.2,459.9,411.1,459.9,410.3,460.1"/>
		</defs>
		<clipPath id="SVGID_144_">
			<use xlink:href="#SVGID_143_"  overflow="visible"/>
		</clipPath>
		
			<linearGradient id="SVGID_145_" gradientUnits="userSpaceOnUse" x1="0" y1="595.2731" x2="1" y2="595.2731" gradientTransform="matrix(48.3091 0 0 -48.3091 390.2915 29221.1445)">
			<stop  offset="0" style="stop-color:#F2F2F2"/>
			<stop  offset="1" style="stop-color:#CCCCCC"/>
		</linearGradient>
		<rect x="389.2" y="459.9" clip-path="url(#SVGID_144_)" fill="url(#SVGID_145_)" width="50.5" height="8.4"/>
	</g>
	<g clip-path="url(#SVGID_2_)">
		<defs>
			<path id="SVGID_146_" d="M344.9,440.6c-6,1-12.1,2-18.1,3c-2,0.3-1,1,2.3,1.5c3.9,0.6,7.9,1.2,11.9,1.8c3.3,0.5,7.7,0.6,9.7,0.3
				c6.1-1,12.1-2,18.1-3.1c2-0.3,0.8-1-2.5-1.5c-4-0.6-8-1.2-12-1.7c-2-0.3-4.4-0.4-6.4-0.4C346.7,440.4,345.6,440.5,344.9,440.6"/>
		</defs>
		<clipPath id="SVGID_147_">
			<use xlink:href="#SVGID_146_"  overflow="visible"/>
		</clipPath>
		
			<linearGradient id="SVGID_148_" gradientUnits="userSpaceOnUse" x1="0" y1="595.2733" x2="1" y2="595.2733" gradientTransform="matrix(43.9561 0 0 -43.9561 325.7808 26609.7969)">
			<stop  offset="0" style="stop-color:#F2F2F2"/>
			<stop  offset="1" style="stop-color:#CCCCCC"/>
		</linearGradient>
		<rect x="324.8" y="440.4" clip-path="url(#SVGID_147_)" fill="url(#SVGID_148_)" width="45.9" height="7"/>
	</g>
	<g clip-path="url(#SVGID_2_)">
		<defs>
			<path id="SVGID_149_" d="M375.4,445c-6,1-12.1,2.1-18.2,3.1c-2,0.3-0.9,1,2.5,1.5c4.1,0.6,8.3,1.2,12.4,1.9
				c3.5,0.5,8,0.7,9.9,0.3c6.1-1.1,12.2-2.1,18.2-3.2c2-0.4,0.7-1-2.8-1.5c-4.2-0.6-8.3-1.2-12.5-1.8c-2.1-0.3-4.6-0.5-6.6-0.5
				C377.3,444.8,376.2,444.9,375.4,445"/>
		</defs>
		<clipPath id="SVGID_150_">
			<use xlink:href="#SVGID_149_"  overflow="visible"/>
		</clipPath>
		
			<linearGradient id="SVGID_151_" gradientUnits="userSpaceOnUse" x1="0" y1="595.2733" x2="1" y2="595.2733" gradientTransform="matrix(45.0737 0 0 -45.0737 356.2881 27279.6875)">
			<stop  offset="0" style="stop-color:#F2F2F2"/>
			<stop  offset="1" style="stop-color:#CCCCCC"/>
		</linearGradient>
		<rect x="355.3" y="444.8" clip-path="url(#SVGID_150_)" fill="url(#SVGID_151_)" width="47.1" height="7.3"/>
	</g>
	<g clip-path="url(#SVGID_2_)">
		<defs>
			<path id="SVGID_152_" d="M407.4,449.6c-6.1,1.1-12.1,2.1-18.2,3.2c-2,0.4-0.8,1.1,2.8,1.6c4.3,0.6,8.7,1.3,13,2
				c3.7,0.5,8.3,0.7,10.3,0.3c6.1-1.1,12.2-2.2,18.3-3.3c2-0.4,0.6-1.1-3.1-1.6c-4.4-0.6-8.7-1.3-13.1-1.9c-2.2-0.3-4.8-0.5-7-0.5
				C409.2,449.5,408.1,449.5,407.4,449.6"/>
		</defs>
		<clipPath id="SVGID_153_">
			<use xlink:href="#SVGID_152_"  overflow="visible"/>
		</clipPath>
		
			<linearGradient id="SVGID_154_" gradientUnits="userSpaceOnUse" x1="0" y1="595.2733" x2="1" y2="595.2733" gradientTransform="matrix(46.2524 0 0 -46.2524 388.2095 27986.127)">
			<stop  offset="0" style="stop-color:#F2F2F2"/>
			<stop  offset="1" style="stop-color:#CCCCCC"/>
		</linearGradient>
		<rect x="387.2" y="449.5" clip-path="url(#SVGID_153_)" fill="url(#SVGID_154_)" width="48.4" height="7.7"/>
	</g>
	<g clip-path="url(#SVGID_2_)">
		<defs>
			<path id="SVGID_155_" d="M440.8,454.5c-6,1.1-12.2,2.2-18.3,3.3c-2,0.4-0.6,1.1,3.1,1.7c4.6,0.7,9.1,1.4,13.7,2.1
				c3.8,0.6,8.6,0.7,10.6,0.4c6.2-1.2,12.3-2.3,18.3-3.4c2-0.4,0.5-1.1-3.3-1.7c-4.6-0.7-9.2-1.3-13.7-2c-2.3-0.3-5-0.5-7.2-0.5
				C442.7,454.3,441.6,454.4,440.8,454.5"/>
		</defs>
		<clipPath id="SVGID_156_">
			<use xlink:href="#SVGID_155_"  overflow="visible"/>
		</clipPath>
		
			<linearGradient id="SVGID_157_" gradientUnits="userSpaceOnUse" x1="0" y1="595.2733" x2="1" y2="595.2733" gradientTransform="matrix(47.4541 0 0 -47.4541 421.6504 28706.459)">
			<stop  offset="0" style="stop-color:#F2F2F2"/>
			<stop  offset="1" style="stop-color:#CCCCCC"/>
		</linearGradient>
		<rect x="420.6" y="454.3" clip-path="url(#SVGID_156_)" fill="url(#SVGID_157_)" width="49.6" height="8"/>
	</g>
	<g clip-path="url(#SVGID_2_)">
		<defs>
			<path id="SVGID_158_" d="M374.1,435.8c-5.8,0.9-11.6,1.9-17.4,2.9c-1.9,0.3-0.9,1,2.3,1.4c4,0.6,8,1.1,12,1.7
				c3.4,0.5,7.7,0.6,9.6,0.3c5.9-1,11.7-2,17.5-2.9c1.9-0.3,0.7-0.9-2.7-1.4c-4-0.5-8-1.1-12-1.7c-2-0.3-4.4-0.4-6.3-0.4
				C375.8,435.7,374.8,435.7,374.1,435.8"/>
		</defs>
		<clipPath id="SVGID_159_">
			<use xlink:href="#SVGID_158_"  overflow="visible"/>
		</clipPath>
		
			<linearGradient id="SVGID_160_" gradientUnits="userSpaceOnUse" x1="0" y1="595.2734" x2="1" y2="595.2734" gradientTransform="matrix(43.2856 0 0 -43.2856 355.6411 26205.8203)">
			<stop  offset="0" style="stop-color:#F2F2F2"/>
			<stop  offset="1" style="stop-color:#CCCCCC"/>
		</linearGradient>
		<rect x="354.7" y="435.7" clip-path="url(#SVGID_159_)" fill="url(#SVGID_160_)" width="45.2" height="6.8"/>
	</g>
	<g clip-path="url(#SVGID_2_)">
		<defs>
			<path id="SVGID_161_" d="M404.7,440.1c-5.8,1-11.7,2-17.5,3c-1.9,0.3-0.7,1,2.6,1.5c4.2,0.6,8.3,1.2,12.5,1.8
				c3.5,0.5,7.9,0.6,9.9,0.3c5.9-1,11.8-2,17.6-3.1c1.9-0.3,0.6-1-2.9-1.5c-4.2-0.6-8.4-1.2-12.5-1.7c-2.1-0.3-4.6-0.4-6.6-0.4
				C406.5,439.9,405.4,439.9,404.7,440.1"/>
		</defs>
		<clipPath id="SVGID_162_">
			<use xlink:href="#SVGID_161_"  overflow="visible"/>
		</clipPath>
		
			<linearGradient id="SVGID_163_" gradientUnits="userSpaceOnUse" x1="0" y1="595.2734" x2="1" y2="595.2734" gradientTransform="matrix(44.3745 0 0 -44.3745 386.2593 26858.373)">
			<stop  offset="0" style="stop-color:#F2F2F2"/>
			<stop  offset="1" style="stop-color:#CCCCCC"/>
		</linearGradient>
		<rect x="385.3" y="439.9" clip-path="url(#SVGID_162_)" fill="url(#SVGID_163_)" width="46.4" height="7"/>
	</g>
	<g clip-path="url(#SVGID_2_)">
		<defs>
			<path id="SVGID_164_" d="M436.8,444.5c-5.8,1-11.7,2.1-17.6,3.1c-1.9,0.3-0.6,1,2.9,1.5c4.4,0.6,8.7,1.2,13.1,1.9
				c3.6,0.5,8.2,0.7,10.2,0.3c5.9-1.1,11.8-2.1,17.6-3.2c1.9-0.3,0.4-1-3.2-1.5c-4.4-0.6-8.7-1.2-13.1-1.8c-2.2-0.3-4.8-0.5-6.9-0.5
				C438.5,444.3,437.5,444.4,436.8,444.5"/>
		</defs>
		<clipPath id="SVGID_165_">
			<use xlink:href="#SVGID_164_"  overflow="visible"/>
		</clipPath>
		
			<linearGradient id="SVGID_166_" gradientUnits="userSpaceOnUse" x1="0" y1="595.2733" x2="1" y2="595.2733" gradientTransform="matrix(45.5059 0 0 -45.5059 418.2861 27536.4102)">
			<stop  offset="0" style="stop-color:#F2F2F2"/>
			<stop  offset="1" style="stop-color:#CCCCCC"/>
		</linearGradient>
		<rect x="417.2" y="444.3" clip-path="url(#SVGID_165_)" fill="url(#SVGID_166_)" width="47.6" height="7.3"/>
	</g>
	<g clip-path="url(#SVGID_2_)">
		<defs>
			<path id="SVGID_167_" d="M470.3,449.1c-5.8,1.1-11.7,2.1-17.6,3.2c-1.9,0.4-0.5,1.1,3.2,1.6c4.5,0.6,9.1,1.3,13.7,2
				c3.8,0.5,8.5,0.7,10.5,0.3c5.9-1.1,11.8-2.2,17.6-3.3c1.9-0.4,0.3-1.1-3.5-1.6c-4.6-0.6-9.2-1.3-13.7-1.9c-2.3-0.3-5-0.5-7.1-0.5
				C472,449,471,449,470.3,449.1"/>
		</defs>
		<clipPath id="SVGID_168_">
			<use xlink:href="#SVGID_167_"  overflow="visible"/>
		</clipPath>
		
			<linearGradient id="SVGID_169_" gradientUnits="userSpaceOnUse" x1="0" y1="595.2733" x2="1" y2="595.2733" gradientTransform="matrix(46.6904 0 0 -46.6904 451.7988 28246.3516)">
			<stop  offset="0" style="stop-color:#F2F2F2"/>
			<stop  offset="1" style="stop-color:#CCCCCC"/>
		</linearGradient>
		<rect x="450.7" y="449" clip-path="url(#SVGID_168_)" fill="url(#SVGID_169_)" width="48.9" height="7.7"/>
	</g>
	<g clip-path="url(#SVGID_2_)">
		<defs>
			<path id="SVGID_170_" d="M402.2,431.2c-5.6,0.9-11.2,1.8-16.8,2.8c-1.9,0.3-0.8,0.9,2.5,1.4c4,0.5,8,1.1,12,1.6
				c3.4,0.5,7.6,0.6,9.5,0.3c5.6-1,11.3-1.9,16.9-2.8c1.9-0.3,0.6-0.9-2.8-1.4c-4-0.5-8-1.1-12-1.6c-2-0.3-4.4-0.4-6.3-0.4
				C404,431.1,402.9,431.1,402.2,431.2"/>
		</defs>
		<clipPath id="SVGID_171_">
			<use xlink:href="#SVGID_170_"  overflow="visible"/>
		</clipPath>
		
			<linearGradient id="SVGID_172_" gradientUnits="userSpaceOnUse" x1="0" y1="595.2734" x2="1" y2="595.2734" gradientTransform="matrix(42.6567 0 0 -42.6567 384.4409 25826.7266)">
			<stop  offset="0" style="stop-color:#F2F2F2"/>
			<stop  offset="1" style="stop-color:#CCCCCC"/>
		</linearGradient>
		<rect x="383.5" y="431.1" clip-path="url(#SVGID_171_)" fill="url(#SVGID_172_)" width="44.6" height="6.5"/>
	</g>
	<g clip-path="url(#SVGID_2_)">
		<defs>
			<path id="SVGID_173_" d="M432.9,435.3c-5.6,0.9-11.3,1.9-16.9,2.9c-1.9,0.3-0.6,1,2.8,1.4c4.2,0.6,8.4,1.1,12.5,1.7
				c3.5,0.5,7.9,0.6,9.8,0.3c5.7-1,11.3-2,16.9-2.9c1.9-0.3,0.5-1-3-1.4c-4.2-0.6-8.4-1.1-12.6-1.7c-2.1-0.3-4.5-0.4-6.5-0.4
				C434.7,435.1,433.7,435.2,432.9,435.3"/>
		</defs>
		<clipPath id="SVGID_174_">
			<use xlink:href="#SVGID_173_"  overflow="visible"/>
		</clipPath>
		
			<linearGradient id="SVGID_175_" gradientUnits="userSpaceOnUse" x1="0" y1="595.2734" x2="1" y2="595.2734" gradientTransform="matrix(43.6777 0 0 -43.6777 415.1641 26438.6914)">
			<stop  offset="0" style="stop-color:#F2F2F2"/>
			<stop  offset="1" style="stop-color:#CCCCCC"/>
		</linearGradient>
		<rect x="414.2" y="435.1" clip-path="url(#SVGID_174_)" fill="url(#SVGID_175_)" width="45.7" height="6.8"/>
	</g>
	<g clip-path="url(#SVGID_2_)">
		<defs>
			<path id="SVGID_176_" d="M465,439.5c-5.6,1-11.3,2-16.9,3c-1.9,0.3-0.5,1,3.1,1.5c4.4,0.6,8.7,1.2,13.1,1.8
				c3.7,0.5,8.2,0.6,10.1,0.3c5.7-1,11.3-2,16.9-3.1c1.9-0.3,0.4-1-3.3-1.5c-4.4-0.6-8.7-1.2-13.1-1.7c-2.2-0.3-4.8-0.5-6.8-0.5
				C466.8,439.3,465.7,439.4,465,439.5"/>
		</defs>
		<clipPath id="SVGID_177_">
			<use xlink:href="#SVGID_176_"  overflow="visible"/>
		</clipPath>
		
			<linearGradient id="SVGID_178_" gradientUnits="userSpaceOnUse" x1="0" y1="595.2734" x2="1" y2="595.2734" gradientTransform="matrix(44.7969 0 0 -44.7969 447.2549 27109.2656)">
			<stop  offset="0" style="stop-color:#F2F2F2"/>
			<stop  offset="1" style="stop-color:#CCCCCC"/>
		</linearGradient>
		<rect x="446.2" y="439.3" clip-path="url(#SVGID_177_)" fill="url(#SVGID_178_)" width="46.9" height="7.1"/>
	</g>
	<g clip-path="url(#SVGID_2_)">
		<defs>
			<path id="SVGID_179_" d="M498.6,444c-5.6,1-11.3,2-16.9,3.1c-1.9,0.3-0.4,1,3.3,1.6c4.6,0.6,9.2,1.2,13.7,1.9
				c3.8,0.5,8.5,0.7,10.4,0.3c5.7-1.1,11.3-2.1,17-3.2c1.9-0.4,0.2-1-3.6-1.5c-4.6-0.6-9.2-1.2-13.7-1.8c-2.3-0.3-4.9-0.5-7-0.5
				C500.4,443.8,499.3,443.9,498.6,444"/>
		</defs>
		<clipPath id="SVGID_180_">
			<use xlink:href="#SVGID_179_"  overflow="visible"/>
		</clipPath>
		
			<linearGradient id="SVGID_181_" gradientUnits="userSpaceOnUse" x1="0" y1="595.2733" x2="1" y2="595.2733" gradientTransform="matrix(45.9473 0 0 -45.9473 480.8184 27798.6543)">
			<stop  offset="0" style="stop-color:#F2F2F2"/>
			<stop  offset="1" style="stop-color:#CCCCCC"/>
		</linearGradient>
		<rect x="479.8" y="443.8" clip-path="url(#SVGID_180_)" fill="url(#SVGID_181_)" width="48.1" height="7.4"/>
	</g>
	<g clip-path="url(#SVGID_2_)">
		<defs>
			<path id="SVGID_182_" d="M429.4,426.8c-5.4,0.9-10.8,1.8-16.3,2.7c-1.8,0.3-0.6,0.9,2.7,1.3c4,0.5,8,1,12,1.6
				c3.4,0.4,7.6,0.5,9.4,0.2c5.5-0.9,10.9-1.8,16.3-2.7c1.8-0.3,0.5-0.9-2.9-1.3c-4-0.5-8-1-12.1-1.5c-2-0.3-4.3-0.4-6.2-0.4
				C431.1,426.6,430.1,426.7,429.4,426.8"/>
		</defs>
		<clipPath id="SVGID_183_">
			<use xlink:href="#SVGID_182_"  overflow="visible"/>
		</clipPath>
		
			<linearGradient id="SVGID_184_" gradientUnits="userSpaceOnUse" x1="0" y1="595.2735" x2="1" y2="595.2735" gradientTransform="matrix(41.9863 0 0 -41.9863 412.2666 25423.0859)">
			<stop  offset="0" style="stop-color:#F2F2F2"/>
			<stop  offset="1" style="stop-color:#CCCCCC"/>
		</linearGradient>
		<rect x="411.3" y="426.6" clip-path="url(#SVGID_183_)" fill="url(#SVGID_184_)" width="43.9" height="6.3"/>
	</g>
	<g clip-path="url(#SVGID_2_)">
		<defs>
			<path id="SVGID_185_" d="M460.2,430.7c-5.4,0.9-10.9,1.8-16.3,2.8c-1.8,0.3-0.5,0.9,2.9,1.4c4.2,0.5,8.4,1.1,12.6,1.6
				c3.5,0.5,7.8,0.6,9.6,0.3c5.5-1,10.9-1.9,16.3-2.8c1.8-0.3,0.4-0.9-3.2-1.4c-4.2-0.5-8.4-1.1-12.5-1.6c-2.1-0.3-4.5-0.4-6.4-0.4
				C461.9,430.5,460.9,430.6,460.2,430.7"/>
		</defs>
		<clipPath id="SVGID_186_">
			<use xlink:href="#SVGID_185_"  overflow="visible"/>
		</clipPath>
		
			<linearGradient id="SVGID_187_" gradientUnits="userSpaceOnUse" x1="0" y1="595.2735" x2="1" y2="595.2735" gradientTransform="matrix(42.9971 0 0 -42.9971 443.0547 26028.7734)">
			<stop  offset="0" style="stop-color:#F2F2F2"/>
			<stop  offset="1" style="stop-color:#CCCCCC"/>
		</linearGradient>
		<rect x="442.1" y="430.5" clip-path="url(#SVGID_186_)" fill="url(#SVGID_187_)" width="45" height="6.5"/>
	</g>
	<g clip-path="url(#SVGID_2_)">
		<defs>
			<path id="SVGID_188_" d="M492.3,434.7c-5.4,1-10.9,1.9-16.3,2.9c-1.8,0.3-0.4,1,3.2,1.4c4.4,0.6,8.7,1.1,13.1,1.7
				c3.6,0.5,8.1,0.6,9.9,0.3c5.5-1,10.9-2,16.4-3c1.8-0.3,0.2-1-3.5-1.4c-4.4-0.6-8.7-1.1-13.1-1.7c-2.2-0.3-4.7-0.4-6.8-0.4
				C494,434.6,493,434.6,492.3,434.7"/>
		</defs>
		<clipPath id="SVGID_189_">
			<use xlink:href="#SVGID_188_"  overflow="visible"/>
		</clipPath>
		
			<linearGradient id="SVGID_190_" gradientUnits="userSpaceOnUse" x1="0" y1="595.2734" x2="1" y2="595.2734" gradientTransform="matrix(44.084 0 0 -44.084 475.1855 26679.9844)">
			<stop  offset="0" style="stop-color:#F2F2F2"/>
			<stop  offset="1" style="stop-color:#CCCCCC"/>
		</linearGradient>
		<rect x="474.1" y="434.6" clip-path="url(#SVGID_189_)" fill="url(#SVGID_190_)" width="46.2" height="6.8"/>
	</g>
	<g clip-path="url(#SVGID_2_)">
		<defs>
			<path id="SVGID_191_" d="M525.9,439c-5.4,1-10.9,2-16.3,3c-1.8,0.3-0.3,1,3.5,1.5c4.5,0.6,9.1,1.2,13.7,1.8
				c3.8,0.5,8.4,0.6,10.2,0.3c5.5-1,10.9-2.1,16.3-3.1c1.8-0.3,0.1-1-3.7-1.5c-4.6-0.6-9.2-1.2-13.7-1.7c-2.3-0.3-4.9-0.5-7-0.5
				C527.6,438.8,526.5,438.9,525.9,439"/>
		</defs>
		<clipPath id="SVGID_192_">
			<use xlink:href="#SVGID_191_"  overflow="visible"/>
		</clipPath>
		
			<linearGradient id="SVGID_193_" gradientUnits="userSpaceOnUse" x1="0" y1="595.2733" x2="1" y2="595.2733" gradientTransform="matrix(45.1709 0 0 -45.1709 508.7705 27331.3887)">
			<stop  offset="0" style="stop-color:#F2F2F2"/>
			<stop  offset="1" style="stop-color:#CCCCCC"/>
		</linearGradient>
		<rect x="507.7" y="438.8" clip-path="url(#SVGID_192_)" fill="url(#SVGID_193_)" width="47.3" height="7.1"/>
	</g>
	<g clip-path="url(#SVGID_2_)">
		<defs>
			<path id="SVGID_194_" d="M455.7,422.5c-5.2,0.9-10.5,1.7-15.7,2.6c-1.7,0.3-0.5,0.9,2.8,1.3c4,0.5,8,1,12.1,1.5
				c3.3,0.4,7.5,0.5,9.2,0.2c5.3-0.9,10.6-1.8,15.8-2.7c1.7-0.3,0.4-0.9-3-1.3c-4-0.5-8-1-12-1.5c-2-0.2-4.3-0.4-6.2-0.4
				C457.4,422.3,456.4,422.4,455.7,422.5"/>
		</defs>
		<clipPath id="SVGID_195_">
			<use xlink:href="#SVGID_194_"  overflow="visible"/>
		</clipPath>
		
			<linearGradient id="SVGID_196_" gradientUnits="userSpaceOnUse" x1="0" y1="595.2735" x2="1" y2="595.2735" gradientTransform="matrix(41.3818 0 0 -41.3818 439.1699 25058.834)">
			<stop  offset="0" style="stop-color:#F2F2F2"/>
			<stop  offset="1" style="stop-color:#CCCCCC"/>
		</linearGradient>
		<rect x="438.2" y="422.3" clip-path="url(#SVGID_195_)" fill="url(#SVGID_196_)" width="43.3" height="6"/>
	</g>
	<g clip-path="url(#SVGID_2_)">
		<defs>
			<path id="SVGID_197_" d="M486.6,426.2c-5.2,0.9-10.5,1.8-15.8,2.7c-1.7,0.3-0.4,0.9,3.1,1.3c4.2,0.5,8.3,1,12.6,1.6
				c3.5,0.4,7.8,0.6,9.5,0.3c5.3-0.9,10.5-1.8,15.8-2.8c1.7-0.3,0.2-0.9-3.3-1.3c-4.2-0.5-8.4-1-12.5-1.5c-2.1-0.3-4.5-0.4-6.4-0.4
				C488.2,426,487.2,426.1,486.6,426.2"/>
		</defs>
		<clipPath id="SVGID_198_">
			<use xlink:href="#SVGID_197_"  overflow="visible"/>
		</clipPath>
		
			<linearGradient id="SVGID_199_" gradientUnits="userSpaceOnUse" x1="0" y1="595.2734" x2="1" y2="595.2734" gradientTransform="matrix(42.3613 0 0 -42.3613 470.0146 25645.7578)">
			<stop  offset="0" style="stop-color:#F2F2F2"/>
			<stop  offset="1" style="stop-color:#CCCCCC"/>
		</linearGradient>
		<rect x="469.1" y="426" clip-path="url(#SVGID_198_)" fill="url(#SVGID_199_)" width="44.3" height="6.3"/>
	</g>
	<g clip-path="url(#SVGID_2_)">
		<defs>
			<path id="SVGID_200_" d="M518.7,430.1c-5.2,0.9-10.5,1.8-15.8,2.8c-1.7,0.3-0.2,0.9,3.3,1.4c4.3,0.5,8.7,1.1,13.1,1.6
				c3.7,0.5,8.1,0.6,9.8,0.3c5.3-0.9,10.5-1.9,15.8-2.9c1.7-0.3,0.1-0.9-3.6-1.4c-4.4-0.5-8.7-1.1-13.1-1.6
				c-2.2-0.3-4.7-0.4-6.7-0.4C520.4,429.9,519.3,430,518.7,430.1"/>
		</defs>
		<clipPath id="SVGID_201_">
			<use xlink:href="#SVGID_200_"  overflow="visible"/>
		</clipPath>
		
			<linearGradient id="SVGID_202_" gradientUnits="userSpaceOnUse" x1="0" y1="595.2734" x2="1" y2="595.2734" gradientTransform="matrix(43.4092 0 0 -43.4092 502.167 26273.541)">
			<stop  offset="0" style="stop-color:#F2F2F2"/>
			<stop  offset="1" style="stop-color:#CCCCCC"/>
		</linearGradient>
		<rect x="501.2" y="429.9" clip-path="url(#SVGID_201_)" fill="url(#SVGID_202_)" width="45.4" height="6.5"/>
	</g>
	<g clip-path="url(#SVGID_2_)">
		<defs>
			<path id="SVGID_203_" d="M552.2,434.2c-5.2,1-10.5,1.9-15.8,2.9c-1.7,0.3-0.1,1,3.6,1.4c4.6,0.6,9.1,1.1,13.7,1.7
				c3.8,0.5,8.4,0.6,10.1,0.3c5.3-1,10.5-2,15.7-3c1.7-0.3,0-1-3.8-1.4c-4.6-0.6-9.1-1.1-13.7-1.7c-2.3-0.3-4.9-0.4-6.9-0.4
				C553.9,434,552.8,434.1,552.2,434.2"/>
		</defs>
		<clipPath id="SVGID_204_">
			<use xlink:href="#SVGID_203_"  overflow="visible"/>
		</clipPath>
		
			<linearGradient id="SVGID_205_" gradientUnits="userSpaceOnUse" x1="0" y1="595.2734" x2="1" y2="595.2734" gradientTransform="matrix(44.4941 0 0 -44.4941 535.7393 26923.5977)">
			<stop  offset="0" style="stop-color:#F2F2F2"/>
			<stop  offset="1" style="stop-color:#CCCCCC"/>
		</linearGradient>
		<rect x="534.7" y="434" clip-path="url(#SVGID_204_)" fill="url(#SVGID_205_)" width="46.6" height="6.8"/>
	</g>
	<g clip-path="url(#SVGID_2_)">
		<defs>
			<path id="SVGID_206_" d="M481.1,418.3c-5.1,0.8-10.1,1.7-15.2,2.5c-1.7,0.3-0.4,0.8,2.9,1.2c4,0.5,8,1,12,1.4
				c3.4,0.4,7.5,0.5,9.2,0.2c5.1-0.9,10.2-1.7,15.2-2.6c1.7-0.3,0.3-0.8-3.1-1.2c-4-0.5-8.1-0.9-12.1-1.4c-2-0.2-4.3-0.4-6.1-0.4
				C482.8,418.2,481.8,418.2,481.1,418.3"/>
		</defs>
		<clipPath id="SVGID_207_">
			<use xlink:href="#SVGID_206_"  overflow="visible"/>
		</clipPath>
		
			<linearGradient id="SVGID_208_" gradientUnits="userSpaceOnUse" x1="0" y1="595.2735" x2="1" y2="595.2735" gradientTransform="matrix(40.792 0 0 -40.792 465.1562 24703.457)">
			<stop  offset="0" style="stop-color:#F2F2F2"/>
			<stop  offset="1" style="stop-color:#CCCCCC"/>
		</linearGradient>
		<rect x="464.2" y="418.2" clip-path="url(#SVGID_207_)" fill="url(#SVGID_208_)" width="42.7" height="5.8"/>
	</g>
	<g clip-path="url(#SVGID_2_)">
		<defs>
			<path id="SVGID_209_" d="M512,421.9c-5.1,0.9-10.1,1.7-15.2,2.6c-1.7,0.3-0.3,0.9,3.1,1.3c4.2,0.5,8.4,1,12.6,1.5
				c3.5,0.4,7.7,0.5,9.4,0.2c5.1-0.9,10.2-1.8,15.2-2.7c1.7-0.3,0.2-0.9-3.3-1.3c-4.2-0.5-8.4-1-12.6-1.5c-2.1-0.2-4.4-0.4-6.3-0.4
				C513.6,421.7,512.6,421.8,512,421.9"/>
		</defs>
		<clipPath id="SVGID_210_">
			<use xlink:href="#SVGID_209_"  overflow="visible"/>
		</clipPath>
		
			<linearGradient id="SVGID_211_" gradientUnits="userSpaceOnUse" x1="0" y1="595.2736" x2="1" y2="595.2736" gradientTransform="matrix(41.7598 0 0 -41.7598 495.9922 25283.248)">
			<stop  offset="0" style="stop-color:#F2F2F2"/>
			<stop  offset="1" style="stop-color:#CCCCCC"/>
		</linearGradient>
		<rect x="495" y="421.7" clip-path="url(#SVGID_210_)" fill="url(#SVGID_211_)" width="43.7" height="6"/>
	</g>
	<g clip-path="url(#SVGID_2_)">
		<defs>
			<path id="SVGID_212_" d="M544.1,425.7c-5.1,0.9-10.1,1.8-15.2,2.7c-1.7,0.3-0.2,0.9,3.4,1.3c4.3,0.5,8.7,1,13.1,1.6
				c3.7,0.4,8,0.6,9.7,0.2c5.1-0.9,10.1-1.8,15.2-2.7c1.7-0.3,0-0.9-3.6-1.3c-4.4-0.5-8.7-1-13.1-1.5c-2.2-0.3-4.6-0.4-6.6-0.4
				C545.7,425.5,544.7,425.5,544.1,425.7"/>
		</defs>
		<clipPath id="SVGID_213_">
			<use xlink:href="#SVGID_212_"  overflow="visible"/>
		</clipPath>
		
			<linearGradient id="SVGID_214_" gradientUnits="userSpaceOnUse" x1="0" y1="595.2734" x2="1" y2="595.2734" gradientTransform="matrix(42.7783 0 0 -42.7783 528.1455 25893.4297)">
			<stop  offset="0" style="stop-color:#F2F2F2"/>
			<stop  offset="1" style="stop-color:#CCCCCC"/>
		</linearGradient>
		<rect x="527.1" y="425.5" clip-path="url(#SVGID_213_)" fill="url(#SVGID_214_)" width="44.8" height="6.3"/>
	</g>
	<g clip-path="url(#SVGID_2_)">
		<defs>
			<path id="SVGID_215_" d="M577.6,429.6c-5.1,0.9-10.1,1.8-15.2,2.8c-1.7,0.3,0,0.9,3.7,1.4c4.5,0.5,9.1,1.1,13.7,1.6
				c3.8,0.5,8.3,0.6,10,0.2c5.1-1,10.1-1.9,15.2-2.9c1.7-0.3-0.1-0.9-3.9-1.4c-4.6-0.5-9.1-1.1-13.7-1.6c-2.3-0.3-4.8-0.4-6.9-0.4
				C579.2,429.4,578.2,429.4,577.6,429.6"/>
		</defs>
		<clipPath id="SVGID_216_">
			<use xlink:href="#SVGID_215_"  overflow="visible"/>
		</clipPath>
		
			<linearGradient id="SVGID_217_" gradientUnits="userSpaceOnUse" x1="0" y1="595.2734" x2="1" y2="595.2734" gradientTransform="matrix(43.8271 0 0 -43.8271 561.7051 26521.7988)">
			<stop  offset="0" style="stop-color:#F2F2F2"/>
			<stop  offset="1" style="stop-color:#CCCCCC"/>
		</linearGradient>
		<rect x="560.7" y="429.4" clip-path="url(#SVGID_216_)" fill="url(#SVGID_217_)" width="45.9" height="6.5"/>
	</g>
	<g clip-path="url(#SVGID_2_)">
		<defs>
			<path id="SVGID_218_" d="M505.7,414.3c-4.9,0.8-9.8,1.6-14.7,2.4c-1.6,0.3-0.3,0.8,3,1.2c4,0.5,8,0.9,12.1,1.4
				c3.4,0.4,7.4,0.5,9,0.2c5-0.8,9.9-1.7,14.8-2.5c1.6-0.3,0.1-0.8-3.2-1.2c-4-0.4-8.1-0.9-12.1-1.3c-2-0.2-4.2-0.3-6.1-0.3
				C507.3,414.1,506.3,414.2,505.7,414.3"/>
		</defs>
		<clipPath id="SVGID_219_">
			<use xlink:href="#SVGID_218_"  overflow="visible"/>
		</clipPath>
		
			<linearGradient id="SVGID_220_" gradientUnits="userSpaceOnUse" x1="0" y1="595.2736" x2="1" y2="595.2736" gradientTransform="matrix(40.1982 0 0 -40.1982 490.2969 24345.8867)">
			<stop  offset="0" style="stop-color:#F2F2F2"/>
			<stop  offset="1" style="stop-color:#CCCCCC"/>
		</linearGradient>
		<rect x="489.4" y="414.1" clip-path="url(#SVGID_219_)" fill="url(#SVGID_220_)" width="42.1" height="5.6"/>
	</g>
	<g clip-path="url(#SVGID_2_)">
		<defs>
			<path id="SVGID_221_" d="M536.5,417.7c-4.9,0.8-9.8,1.7-14.7,2.5c-1.6,0.3-0.2,0.8,3.3,1.2c4.2,0.5,8.4,1,12.6,1.4
				c3.5,0.4,7.7,0.5,9.3,0.2c4.9-0.9,9.8-1.7,14.7-2.6c1.6-0.3,0-0.8-3.5-1.2c-4.2-0.5-8.4-0.9-12.5-1.4c-2.1-0.2-4.5-0.4-6.3-0.4
				C538.2,417.6,537.2,417.6,536.5,417.7"/>
		</defs>
		<clipPath id="SVGID_222_">
			<use xlink:href="#SVGID_221_"  overflow="visible"/>
		</clipPath>
		
			<linearGradient id="SVGID_223_" gradientUnits="userSpaceOnUse" x1="0" y1="595.2736" x2="1" y2="595.2736" gradientTransform="matrix(41.1289 0 0 -41.1289 521.1582 24903.4414)">
			<stop  offset="0" style="stop-color:#F2F2F2"/>
			<stop  offset="1" style="stop-color:#CCCCCC"/>
		</linearGradient>
		<rect x="520.2" y="417.6" clip-path="url(#SVGID_222_)" fill="url(#SVGID_223_)" width="43.1" height="5.8"/>
	</g>
	<g clip-path="url(#SVGID_2_)">
		<defs>
			<path id="SVGID_224_" d="M568.7,421.3c-4.9,0.9-9.8,1.7-14.8,2.6c-1.6,0.3,0,0.9,3.5,1.3c4.3,0.5,8.7,1,13.1,1.5
				c3.6,0.4,8,0.5,9.6,0.2c4.9-0.9,9.8-1.8,14.7-2.7c1.6-0.3-0.1-0.9-3.7-1.3c-4.3-0.5-8.7-1-13.1-1.5c-2.2-0.2-4.6-0.4-6.5-0.4
				C570.3,421.2,569.3,421.2,568.7,421.3"/>
		</defs>
		<clipPath id="SVGID_225_">
			<use xlink:href="#SVGID_224_"  overflow="visible"/>
		</clipPath>
		
			<linearGradient id="SVGID_226_" gradientUnits="userSpaceOnUse" x1="0" y1="595.2735" x2="1" y2="595.2735" gradientTransform="matrix(42.1514 0 0 -42.1514 553.2803 25515.791)">
			<stop  offset="0" style="stop-color:#F2F2F2"/>
			<stop  offset="1" style="stop-color:#CCCCCC"/>
		</linearGradient>
		<rect x="552.3" y="421.2" clip-path="url(#SVGID_225_)" fill="url(#SVGID_226_)" width="44.1" height="6"/>
	</g>
	<g clip-path="url(#SVGID_2_)">
		<defs>
			<path id="SVGID_227_" d="M602.1,425.1c-4.9,0.9-9.8,1.8-14.7,2.7c-1.6,0.3,0.1,0.9,3.8,1.3c4.5,0.5,9.1,1.1,13.7,1.6
				c3.8,0.4,8.2,0.5,9.9,0.2c4.9-0.9,9.8-1.9,14.6-2.8c1.6-0.3-0.2-0.9-4-1.3c-4.6-0.5-9.1-1-13.6-1.5c-2.3-0.3-4.8-0.4-6.8-0.4
				C603.8,424.9,602.7,425,602.1,425.1"/>
		</defs>
		<clipPath id="SVGID_228_">
			<use xlink:href="#SVGID_227_"  overflow="visible"/>
		</clipPath>
		
			<linearGradient id="SVGID_229_" gradientUnits="userSpaceOnUse" x1="0" y1="595.2735" x2="1" y2="595.2735" gradientTransform="matrix(43.1738 0 0 -43.1738 586.8115 26128.3008)">
			<stop  offset="0" style="stop-color:#F2F2F2"/>
			<stop  offset="1" style="stop-color:#CCCCCC"/>
		</linearGradient>
		<rect x="585.8" y="424.9" clip-path="url(#SVGID_228_)" fill="url(#SVGID_229_)" width="45.2" height="6.3"/>
	</g>
	<g clip-path="url(#SVGID_2_)">
		<defs>
			<path id="SVGID_230_" d="M529.6,410.4c-4.7,0.8-9.5,1.6-14.3,2.3c-1.6,0.3-0.2,0.8,3.1,1.1c4,0.4,8,0.9,12.1,1.3
				c3.3,0.4,7.4,0.5,8.9,0.2c4.8-0.8,9.5-1.6,14.3-2.4c1.5-0.3,0-0.8-3.3-1.1c-4-0.4-8.1-0.9-12-1.3c-2-0.2-4.2-0.3-6-0.3
				C531.2,410.2,530.2,410.3,529.6,410.4"/>
		</defs>
		<clipPath id="SVGID_231_">
			<use xlink:href="#SVGID_230_"  overflow="visible"/>
		</clipPath>
		
			<linearGradient id="SVGID_232_" gradientUnits="userSpaceOnUse" x1="0" y1="595.2736" x2="1" y2="595.2736" gradientTransform="matrix(39.6445 0 0 -39.6445 514.6309 24012.2852)">
			<stop  offset="0" style="stop-color:#F2F2F2"/>
			<stop  offset="1" style="stop-color:#CCCCCC"/>
		</linearGradient>
		<rect x="513.7" y="410.2" clip-path="url(#SVGID_231_)" fill="url(#SVGID_232_)" width="41.5" height="5.4"/>
	</g>
	<g clip-path="url(#SVGID_2_)">
		<defs>
			<path id="SVGID_233_" d="M560.4,413.7c-4.7,0.8-9.5,1.6-14.3,2.4c-1.6,0.3-0.1,0.8,3.3,1.2c4.2,0.5,8.3,0.9,12.6,1.4
				c3.5,0.4,7.6,0.5,9.2,0.2c4.8-0.8,9.5-1.7,14.3-2.5c1.5-0.3-0.1-0.8-3.6-1.2c-4.2-0.4-8.4-0.9-12.5-1.3c-2.1-0.2-4.4-0.3-6.2-0.3
				C562,413.6,561,413.6,560.4,413.7"/>
		</defs>
		<clipPath id="SVGID_234_">
			<use xlink:href="#SVGID_233_"  overflow="visible"/>
		</clipPath>
		
			<linearGradient id="SVGID_235_" gradientUnits="userSpaceOnUse" x1="0" y1="595.2736" x2="1" y2="595.2736" gradientTransform="matrix(40.5703 0 0 -40.5703 545.4736 24566.7949)">
			<stop  offset="0" style="stop-color:#F2F2F2"/>
			<stop  offset="1" style="stop-color:#CCCCCC"/>
		</linearGradient>
		<rect x="544.5" y="413.6" clip-path="url(#SVGID_234_)" fill="url(#SVGID_235_)" width="42.4" height="5.6"/>
	</g>
	<g clip-path="url(#SVGID_2_)">
		<defs>
			<path id="SVGID_236_" d="M592.4,417.2c-4.7,0.8-9.5,1.7-14.2,2.5c-1.6,0.3,0,0.8,3.6,1.2c4.3,0.5,8.7,1,13.1,1.4
				c3.7,0.4,7.9,0.5,9.5,0.2c4.8-0.9,9.5-1.7,14.2-2.6c1.5-0.3-0.2-0.8-3.9-1.2c-4.4-0.5-8.7-0.9-13-1.4c-2.2-0.2-4.6-0.4-6.5-0.4
				C594,417,593,417.1,592.4,417.2"/>
		</defs>
		<clipPath id="SVGID_237_">
			<use xlink:href="#SVGID_236_"  overflow="visible"/>
		</clipPath>
		
			<linearGradient id="SVGID_238_" gradientUnits="userSpaceOnUse" x1="0" y1="595.2736" x2="1" y2="595.2736" gradientTransform="matrix(41.5273 0 0 -41.5273 577.6104 25140.0488)">
			<stop  offset="0" style="stop-color:#F2F2F2"/>
			<stop  offset="1" style="stop-color:#CCCCCC"/>
		</linearGradient>
		<rect x="576.6" y="417" clip-path="url(#SVGID_237_)" fill="url(#SVGID_238_)" width="43.5" height="5.8"/>
	</g>
	<g clip-path="url(#SVGID_2_)">
		<defs>
			<path id="SVGID_239_" d="M625.9,420.8c-4.7,0.9-9.4,1.7-14.2,2.6c-1.6,0.3,0.1,0.9,3.9,1.3c4.5,0.5,9.1,1,13.6,1.5
				c3.8,0.4,8.2,0.5,9.7,0.2c4.7-0.9,9.5-1.8,14.2-2.7c1.5-0.3-0.3-0.9-4.1-1.3c-4.5-0.5-9.1-1-13.6-1.5c-2.3-0.2-4.7-0.4-6.7-0.4
				C627.4,420.6,626.4,420.7,625.9,420.8"/>
		</defs>
		<clipPath id="SVGID_240_">
			<use xlink:href="#SVGID_239_"  overflow="visible"/>
		</clipPath>
		
			<linearGradient id="SVGID_241_" gradientUnits="userSpaceOnUse" x1="0" y1="595.2735" x2="1" y2="595.2735" gradientTransform="matrix(42.54 0 0 -42.54 611.0771 25746.5879)">
			<stop  offset="0" style="stop-color:#F2F2F2"/>
			<stop  offset="1" style="stop-color:#CCCCCC"/>
		</linearGradient>
		<rect x="610.1" y="420.6" clip-path="url(#SVGID_240_)" fill="url(#SVGID_241_)" width="44.5" height="6.1"/>
	</g>
	<g clip-path="url(#SVGID_2_)">
		<defs>
			<path id="SVGID_242_" d="M552.7,406.6c-4.6,0.7-9.2,1.5-13.8,2.3c-1.5,0.2-0.1,0.7,3.2,1.1c4,0.4,8,0.9,12,1.3
				c3.3,0.4,7.4,0.4,8.8,0.2c4.6-0.8,9.3-1.6,13.9-2.3c1.5-0.3,0-0.7-3.3-1.1c-4-0.4-8-0.8-12-1.2c-2-0.2-4.1-0.3-5.9-0.3
				C554.3,406.5,553.3,406.5,552.7,406.6"/>
		</defs>
		<clipPath id="SVGID_243_">
			<use xlink:href="#SVGID_242_"  overflow="visible"/>
		</clipPath>
		
			<linearGradient id="SVGID_244_" gradientUnits="userSpaceOnUse" x1="0" y1="595.2737" x2="1" y2="595.2737" gradientTransform="matrix(39.1211 0 0 -39.1211 538.2188 23696.834)">
			<stop  offset="0" style="stop-color:#F2F2F2"/>
			<stop  offset="1" style="stop-color:#CCCCCC"/>
		</linearGradient>
		<rect x="537.3" y="406.5" clip-path="url(#SVGID_243_)" fill="url(#SVGID_244_)" width="41" height="5.2"/>
	</g>
	<g clip-path="url(#SVGID_2_)">
		<defs>
			<path id="SVGID_245_" d="M583.4,409.8c-4.6,0.8-9.2,1.6-13.8,2.3c-1.5,0.3,0,0.8,3.4,1.1c4.2,0.4,8.4,0.9,12.5,1.3
				c3.5,0.4,7.6,0.5,9.1,0.2c4.6-0.8,9.2-1.6,13.8-2.4c1.5-0.3-0.1-0.8-3.5-1.1c-4.2-0.4-8.4-0.9-12.5-1.3c-2.1-0.2-4.3-0.3-6.2-0.3
				C585,409.7,584,409.7,583.4,409.8"/>
		</defs>
		<clipPath id="SVGID_246_">
			<use xlink:href="#SVGID_245_"  overflow="visible"/>
		</clipPath>
		
			<linearGradient id="SVGID_247_" gradientUnits="userSpaceOnUse" x1="0" y1="595.2736" x2="1" y2="595.2736" gradientTransform="matrix(40.0156 0 0 -40.0156 569.0225 24232.6074)">
			<stop  offset="0" style="stop-color:#F2F2F2"/>
			<stop  offset="1" style="stop-color:#CCCCCC"/>
		</linearGradient>
		<rect x="568.1" y="409.7" clip-path="url(#SVGID_246_)" fill="url(#SVGID_247_)" width="41.9" height="5.4"/>
	</g>
	<g clip-path="url(#SVGID_2_)">
		<defs>
			<path id="SVGID_248_" d="M615.5,413.1c-4.6,0.8-9.2,1.6-13.8,2.4c-1.5,0.3,0.1,0.8,3.7,1.2c4.3,0.5,8.6,0.9,13,1.4
				c3.6,0.4,7.8,0.5,9.3,0.2c4.6-0.8,9.2-1.7,13.8-2.5c1.5-0.3-0.2-0.8-3.9-1.2c-4.4-0.4-8.7-0.9-13-1.3c-2.2-0.2-4.5-0.3-6.4-0.3
				C617,413,616,413,615.5,413.1"/>
		</defs>
		<clipPath id="SVGID_249_">
			<use xlink:href="#SVGID_248_"  overflow="visible"/>
		</clipPath>
		
			<linearGradient id="SVGID_250_" gradientUnits="userSpaceOnUse" x1="0" y1="595.2736" x2="1" y2="595.2736" gradientTransform="matrix(40.9961 0 0 -40.9961 601.0693 24819.6738)">
			<stop  offset="0" style="stop-color:#F2F2F2"/>
			<stop  offset="1" style="stop-color:#CCCCCC"/>
		</linearGradient>
		<rect x="600.1" y="413" clip-path="url(#SVGID_249_)" fill="url(#SVGID_250_)" width="42.9" height="5.6"/>
	</g>
	<g clip-path="url(#SVGID_2_)">
		<defs>
			<path id="SVGID_251_" d="M648.8,416.6c-4.6,0.8-9.2,1.7-13.8,2.5c-1.5,0.3,0.3,0.8,3.9,1.2c4.5,0.5,9.1,1,13.6,1.4
				c3.8,0.4,8.1,0.5,9.6,0.2c4.6-0.9,9.2-1.7,13.7-2.6c1.5-0.3-0.3-0.8-4.1-1.2c-4.5-0.5-9.1-0.9-13.6-1.4c-2.2-0.2-4.7-0.4-6.6-0.4
				C650.4,416.4,649.4,416.5,648.8,416.6"/>
		</defs>
		<clipPath id="SVGID_252_">
			<use xlink:href="#SVGID_251_"  overflow="visible"/>
		</clipPath>
		
			<linearGradient id="SVGID_253_" gradientUnits="userSpaceOnUse" x1="0" y1="595.2736" x2="1" y2="595.2736" gradientTransform="matrix(41.9609 0 0 -41.9609 634.4775 25397.5762)">
			<stop  offset="0" style="stop-color:#F2F2F2"/>
			<stop  offset="1" style="stop-color:#CCCCCC"/>
		</linearGradient>
		<rect x="633.5" y="416.4" clip-path="url(#SVGID_252_)" fill="url(#SVGID_253_)" width="43.9" height="5.8"/>
	</g>
</g>
</svg>
