<?xml version="1.0" encoding="utf-8"?>
<!-- Generator: Adobe Illustrator 17.1.0, SVG Export Plug-In . SVG Version: 6.00 Build 0)  -->
<!DOCTYPE svg PUBLIC "-//W3C//DTD SVG 1.1//EN" "http://www.w3.org/Graphics/SVG/1.1/DTD/svg11.dtd">
<svg version="1.1" id="Lager_1" xmlns="http://www.w3.org/2000/svg" xmlns:xlink="http://www.w3.org/1999/xlink" x="0px" y="0px"
	 viewBox="0 0 595.3 841.9" enable-background="new 0 0 595.3 841.9" xml:space="preserve">
<g>
	<defs>
		<rect id="SVGID_1_" width="595.3" height="841.9"/>
	</defs>
	<clipPath id="SVGID_2_">
		<use xlink:href="#SVGID_1_"  overflow="visible"/>
	</clipPath>
	<g clip-path="url(#SVGID_2_)">
		<defs>
			<rect id="SVGID_3_" width="595.3" height="841.9"/>
		</defs>
		<clipPath id="SVGID_4_">
			<use xlink:href="#SVGID_3_"  overflow="visible"/>
		</clipPath>
		<g clip-path="url(#SVGID_4_)">
			<g>
				<defs>
					<rect id="SVGID_5_" x="350.3" y="709.5" width="110.8" height="50.9"/>
				</defs>
				<clipPath id="SVGID_6_">
					<use xlink:href="#SVGID_5_"  overflow="visible"/>
				</clipPath>
				<g clip-path="url(#SVGID_6_)">
					<defs>
						<polygon id="SVGID_7_" points="461.1,760.4 350.3,760.4 418.2,709.5 						"/>
					</defs>
					<clipPath id="SVGID_8_">
						<use xlink:href="#SVGID_7_"  overflow="visible"/>
					</clipPath>
					<defs>
						<filter id="Adobe_OpacityMaskFilter" filterUnits="userSpaceOnUse" x="325.2" y="655" width="160.9" height="160">
							<feColorMatrix  type="matrix" values="1 0 0 0 0  0 1 0 0 0  0 0 1 0 0  0 0 0 1 0"/>
						</filter>
					</defs>
					<mask maskUnits="userSpaceOnUse" x="325.2" y="655" width="160.9" height="160" id="SVGID_9_">
						<g filter="url(#Adobe_OpacityMaskFilter)">
							
								<linearGradient id="SVGID_10_" gradientUnits="userSpaceOnUse" x1="-1.075829e-05" y1="842.1194" x2="1" y2="842.1194" gradientTransform="matrix(-45.7955 -54.5769 54.5769 -45.7955 -45519.1914 39342.4336)">
								<stop  offset="0" style="stop-color:#404040"/>
								<stop  offset="0.9" style="stop-color:#000000"/>
								<stop  offset="1" style="stop-color:#000000"/>
							</linearGradient>
							<polygon clip-path="url(#SVGID_8_)" fill="url(#SVGID_10_)" points="486.1,739.4 415.3,655 325.2,730.5 396,815 							"/>
						</g>
					</mask>
					
						<linearGradient id="SVGID_11_" gradientUnits="userSpaceOnUse" x1="-1.075829e-05" y1="842.1194" x2="1" y2="842.1194" gradientTransform="matrix(-45.7955 -54.5769 54.5769 -45.7955 -45519.1914 39342.4336)">
						<stop  offset="0" style="stop-color:#1A171B"/>
						<stop  offset="0.9" style="stop-color:#000000"/>
						<stop  offset="1" style="stop-color:#000000"/>
					</linearGradient>
					<polygon clip-path="url(#SVGID_8_)" mask="url(#SVGID_9_)" fill="url(#SVGID_11_)" points="486.1,739.4 415.3,655 325.2,730.5 
						396,815 					"/>
				</g>
			</g>
		</g>
		<g clip-path="url(#SVGID_4_)">
			<g>
				<defs>
					<rect id="SVGID_12_" x="17.2" y="774.3" width="110.8" height="50.9"/>
				</defs>
				<clipPath id="SVGID_13_">
					<use xlink:href="#SVGID_12_"  overflow="visible"/>
				</clipPath>
				<g clip-path="url(#SVGID_13_)">
					<defs>
						<polygon id="SVGID_14_" points="128,825.2 17.2,825.2 85.1,774.3 						"/>
					</defs>
					<clipPath id="SVGID_15_">
						<use xlink:href="#SVGID_14_"  overflow="visible"/>
					</clipPath>
					<defs>
						<filter id="Adobe_OpacityMaskFilter_1_" filterUnits="userSpaceOnUse" x="-7.9" y="719.7" width="160.9" height="160">
							<feColorMatrix  type="matrix" values="1 0 0 0 0  0 1 0 0 0  0 0 1 0 0  0 0 0 1 0"/>
						</filter>
					</defs>
					<mask maskUnits="userSpaceOnUse" x="-7.9" y="719.7" width="160.9" height="160" id="SVGID_16_">
						<g filter="url(#Adobe_OpacityMaskFilter_1_)">
							
								<linearGradient id="SVGID_17_" gradientUnits="userSpaceOnUse" x1="-1.170874e-06" y1="842.1194" x2="1" y2="842.1194" gradientTransform="matrix(-45.7961 -54.5777 54.5777 -45.7961 -45852.8906 39407.75)">
								<stop  offset="0" style="stop-color:#404040"/>
								<stop  offset="0.9" style="stop-color:#000000"/>
								<stop  offset="1" style="stop-color:#000000"/>
							</linearGradient>
							<polygon clip-path="url(#SVGID_15_)" fill="url(#SVGID_17_)" points="153.1,804.2 82.2,719.7 -7.9,795.3 63,879.8 							"/>
						</g>
					</mask>
					
						<linearGradient id="SVGID_18_" gradientUnits="userSpaceOnUse" x1="-1.163286e-06" y1="842.1194" x2="1" y2="842.1194" gradientTransform="matrix(-45.7961 -54.5777 54.5777 -45.7961 -45852.8945 39407.7539)">
						<stop  offset="0" style="stop-color:#1A171B"/>
						<stop  offset="0.9" style="stop-color:#000000"/>
						<stop  offset="1" style="stop-color:#000000"/>
					</linearGradient>
					<polygon clip-path="url(#SVGID_15_)" mask="url(#SVGID_16_)" fill="url(#SVGID_18_)" points="153.1,804.2 82.2,719.7 
						-7.9,795.3 63,879.8 					"/>
				</g>
			</g>
		</g>
	</g>
	<g clip-path="url(#SVGID_2_)">
		<defs>
			<path id="SVGID_19_" d="M375.9,184.3c35,29,54.1,73.2,65.3,116.1c12.4,47.3,16.4,96.7,16.7,145.5c0.5,89.7-14.8,180.4-49.8,263.2
				c-1.7,4-3.4,8-5.2,11.9l58.2,39.4c1.3-2.8,2.5-5.6,3.7-8.4c28.5-66.1,45-137.4,51.2-209c6.5-76.4,4.2-157.8-18.4-231.6
				c-10.6-34.6-26.7-69-52.9-94.6c-26.9-26.4-63.7-36.2-97.6-50.4C357.4,170.9,367,177,375.9,184.3 M342.7,164.4
				c1.5,0.6,3,1.3,4.5,1.9C345.7,165.7,344.2,165,342.7,164.4L342.7,164.4z"/>
		</defs>
		<clipPath id="SVGID_20_">
			<use xlink:href="#SVGID_19_"  overflow="visible"/>
		</clipPath>
		
			<linearGradient id="SVGID_21_" gradientUnits="userSpaceOnUse" x1="0" y1="841.8918" x2="1" y2="841.8918" gradientTransform="matrix(-4.580000e-05 958.0967 958.0967 4.580000e-05 -806181.125 -72.381)">
			<stop  offset="0" style="stop-color:#000000"/>
			<stop  offset="1" style="stop-color:#B2B2B2"/>
		</linearGradient>
		<rect x="342.7" y="164.4" clip-path="url(#SVGID_20_)" fill="url(#SVGID_21_)" width="179.8" height="596"/>
	</g>
	<g clip-path="url(#SVGID_2_)">
		<defs>
			<path id="SVGID_22_" d="M159.8,57.4C102.8,94.9,64.1,154.2,40,217C11.6,291.2,1.2,371.6,0.1,450.6
				C-1.2,543.1,11.8,636.2,47.4,722c9,21.6,18.9,41.6,29.7,60l50.9,43.2c-10.9-18.8-12.4-40.9-21.5-63c-38-92.6-55.3-191.6-52-291.1
				c2.9-87.1,21.7-174.9,58.6-254.4c26.5-57.1,58.6-109.1,113.1-141.9C283.8,40,357.5,26,422.3,46.1c1,0.3,2,0.6,3,0.9
				c-20.3-6.7-40.7-13.4-61-20.1c-0.1,0-0.1,0-0.2-0.1c-22-6.9-44.9-10.1-67.8-10.2C248.2,16.7,199.9,31.1,159.8,57.4"/>
		</defs>
		<clipPath id="SVGID_23_">
			<use xlink:href="#SVGID_22_"  overflow="visible"/>
		</clipPath>
		
			<linearGradient id="SVGID_24_" gradientUnits="userSpaceOnUse" x1="0" y1="841.9352" x2="1" y2="841.9352" gradientTransform="matrix(-569.5363 569.5363 569.5363 569.5363 -478998.2812 -479394.0312)">
			<stop  offset="0" style="stop-color:#000000"/>
			<stop  offset="0.2079" style="stop-color:#FFFFFF"/>
			<stop  offset="0.7191" style="stop-color:#3F3F3F"/>
			<stop  offset="1" style="stop-color:#B2B2B2"/>
		</linearGradient>
		<polygon clip-path="url(#SVGID_23_)" fill="url(#SVGID_24_)" points="829.5,420.9 212,1038.4 -405.5,420.9 212,-196.5 		"/>
	</g>
	<g clip-path="url(#SVGID_2_)">
		<defs>
			<path id="SVGID_25_" d="M335.1,37.8c-43.7,3.9-83.8,17.8-119.2,41.3c-35.7,23.6-66.4,56.7-91.5,98.7
				c-25.1,42-44.3,92.6-56.8,150.9c-12.5,58-18.4,123.2-17,194.8c0.6,30.6,3,60.2,7,88.5c4,28.1,9.5,55,16.3,80.4
				c6.8,25.3,14.9,49.1,24,71.4c9.1,22.1,19.2,42.6,30.1,61.4l71-13.8c-8.7-15.3-16.9-32.3-24.1-50.8c-7.3-18.6-13.8-38.7-19.3-60.1
				c-5.5-21.5-9.9-44.4-13-68.4c-3.1-24.1-5-49.4-5.3-75.7c-0.7-55.5,3.6-106,12.3-150.8c8.8-45,22.1-84,39.3-116.4
				c17.3-32.4,38.5-58,63-76.4c24.5-18.3,52.2-29.3,82.5-32.6c30.1-3.3,57.1,1.6,80.5,14.3c23.2,12.5,42.8,32.7,58.6,60
				c15.6,27,27.4,61.1,35,101.8c7.5,40.3,11,87.1,9.9,139.9c-0.5,25-2.3,49.6-5.2,73.4c-2.9,23.8-7,47-12,69.3
				c-5,22.2-11,43.6-17.7,64c-6.7,20.3-14.3,39.5-22.4,57.5l64.9-12.6c9.8-21.6,18.7-44.5,26.8-68.3c8-23.9,15.2-48.8,21.1-74.6
				c6-25.8,10.9-52.5,14.4-79.8c3.6-27.4,5.8-55.5,6.6-84.1c0.2-9,0.4-17.9,0.4-26.6v-1.3c0-55.4-4.6-105.1-13.5-148.8
				c-10.5-51.6-26.9-95-48.8-129.6c-22.2-35-50-61-82.8-77.4c-27.2-13.5-57.9-20.5-91.8-20.5C350.8,36.8,343,37.1,335.1,37.8"/>
		</defs>
		<clipPath id="SVGID_26_">
			<use xlink:href="#SVGID_25_"  overflow="visible"/>
		</clipPath>
		
			<radialGradient id="SVGID_27_" cx="0" cy="841.89" r="1" gradientTransform="matrix(1011.5671 0 0 -1011.5671 61.5059 851813.5)" gradientUnits="userSpaceOnUse">
			<stop  offset="0" style="stop-color:#FFFFFF"/>
			<stop  offset="1" style="stop-color:#8C8C8C"/>
		</radialGradient>
		<rect x="49.2" y="36.8" clip-path="url(#SVGID_26_)" fill="url(#SVGID_27_)" width="546.1" height="788.4"/>
	</g>
	<g clip-path="url(#SVGID_2_)">
		<defs>
			<path id="SVGID_28_" d="M77.1,782l50.9,43.2L81.9,719.7l-41-14C41,705.7,58.6,763.5,77.1,782"/>
		</defs>
		<clipPath id="SVGID_29_">
			<use xlink:href="#SVGID_28_"  overflow="visible"/>
		</clipPath>
		
			<radialGradient id="SVGID_30_" cx="0" cy="841.89" r="1" gradientTransform="matrix(96.2641 0 0 -96.2641 31.6987 81742.1484)" gradientUnits="userSpaceOnUse">
			<stop  offset="0" style="stop-color:#FFBF00"/>
			<stop  offset="1" style="stop-color:#BF0000"/>
		</radialGradient>
		<rect x="41" y="705.7" clip-path="url(#SVGID_29_)" fill="url(#SVGID_30_)" width="87.1" height="119.5"/>
	</g>
	<g clip-path="url(#SVGID_2_)">
		<defs>
			<path id="SVGID_31_" d="M81.9,719.7c5.9,20,8.6,26.1,16,44.1c9.1,22.1,19.2,42.6,30.1,61.4l71-13.8
				c-8.7-15.3-16.9-32.3-24.1-50.8c-7.3-18.6-10.6-26.8-16.1-48.2L81.9,719.7z"/>
		</defs>
		<clipPath id="SVGID_32_">
			<use xlink:href="#SVGID_31_"  overflow="visible"/>
		</clipPath>
		
			<radialGradient id="SVGID_33_" cx="0" cy="841.89" r="1" gradientTransform="matrix(199.3735 0 0 -199.3735 94.1519 168573.8281)" gradientUnits="userSpaceOnUse">
			<stop  offset="0" style="stop-color:#FFBF00"/>
			<stop  offset="1" style="stop-color:#BF0000"/>
		</radialGradient>
		<rect x="81.9" y="712.4" clip-path="url(#SVGID_32_)" fill="url(#SVGID_33_)" width="117" height="112.8"/>
	</g>
	<g clip-path="url(#SVGID_2_)">
		<defs>
			<path id="SVGID_34_" d="M402.9,721l58.2,39.4c0,0,9.3-21.7,13.8-35.5c4.2-12.7,16.4-47.3,16.4-47.3l-62-27.6L402.9,721z"/>
		</defs>
		<clipPath id="SVGID_35_">
			<use xlink:href="#SVGID_34_"  overflow="visible"/>
		</clipPath>
		
			<radialGradient id="SVGID_36_" cx="0" cy="841.89" r="1" gradientTransform="matrix(92.268 0 0 -92.268 393.4932 78322.7969)" gradientUnits="userSpaceOnUse">
			<stop  offset="0" style="stop-color:#FFFFFF"/>
			<stop  offset="1" style="stop-color:#00A0C6"/>
		</radialGradient>
		<rect x="402.9" y="650" clip-path="url(#SVGID_35_)" fill="url(#SVGID_36_)" width="88.4" height="110.4"/>
	</g>
	<g clip-path="url(#SVGID_2_)">
		<defs>
			<path id="SVGID_37_" d="M491.3,677.6c-6.7,20.3-22.1,64.8-30.2,82.8l64.9-12.6c7.4-16.4,22.8-58.1,29.2-75.8L491.3,677.6z"/>
		</defs>
		<clipPath id="SVGID_38_">
			<use xlink:href="#SVGID_37_"  overflow="visible"/>
		</clipPath>
		
			<radialGradient id="SVGID_39_" cx="0" cy="841.89" r="1" gradientTransform="matrix(149.3766 0 0 -149.3766 497.2637 126430.7969)" gradientUnits="userSpaceOnUse">
			<stop  offset="0" style="stop-color:#FFFFFF"/>
			<stop  offset="1" style="stop-color:#00A0C6"/>
		</radialGradient>
		<rect x="461.1" y="672" clip-path="url(#SVGID_38_)" fill="url(#SVGID_39_)" width="94.2" height="88.4"/>
	</g>
	<g clip-path="url(#SVGID_2_)">
		<defs>
			<rect id="SVGID_40_" width="595.3" height="841.9"/>
		</defs>
		<clipPath id="SVGID_41_">
			<use xlink:href="#SVGID_40_"  overflow="visible"/>
		</clipPath>
		<g clip-path="url(#SVGID_41_)">
			<g>
				<defs>
					<rect id="SVGID_42_" x="63.2" y="49.5" width="408.8" height="568.5"/>
				</defs>
				<clipPath id="SVGID_43_">
					<use xlink:href="#SVGID_42_"  overflow="visible"/>
				</clipPath>
				<g clip-path="url(#SVGID_43_)">
					<defs>
						<path id="SVGID_44_" d="M450.6,69.1L450.6,69.1c-26.1-13-55.7-19.6-88-19.6c-7.3,0-14.9,0.3-22.5,1
							c-42.2,3.7-80.9,17.2-115.2,39.9c-34.7,22.9-64.6,55.2-88.9,96c-24.8,41.5-43.6,91.4-55.8,148.3
							c-12.5,58-18.1,122.8-16.8,192.8c0.5,27.7,2.6,55.2,6.2,82c21.8,5.6,44,8.5,66.3,8.5h0.4c-1.9-18.8-2.9-38-3.1-57.2
							c-0.7-55.4,3.5-106.7,12.5-152.5c8.9-45.4,22.4-85.4,40.2-118.7c17.8-33.4,39.8-60.1,65.4-79.2c25.8-19.3,54.9-30.8,86.7-34.3
							c6.3-0.7,12.6-1,18.7-1c24.3,0,46.7,5.5,66.7,16.3c17.5,9.5,33.1,23,46.7,40.5c1.3-15.7,2-31.6,2-47.3
							c0-37.1-3.7-74-10.9-109.7C457.5,72.7,454,70.8,450.6,69.1"/>
					</defs>
					<clipPath id="SVGID_45_">
						<use xlink:href="#SVGID_44_"  overflow="visible"/>
					</clipPath>
					
						<radialGradient id="SVGID_46_" cx="0" cy="841.89" r="1" gradientTransform="matrix(667.1301 0 0 -667.1301 591.6543 562120.75)" gradientUnits="userSpaceOnUse">
						<stop  offset="0" style="stop-color:#FFFFFF"/>
						<stop  offset="1" style="stop-color:#000000"/>
					</radialGradient>
					<rect x="62" y="49.5" clip-path="url(#SVGID_45_)" fill="url(#SVGID_46_)" width="409.9" height="568.5"/>
				</g>
			</g>
		</g>
		<g clip-path="url(#SVGID_41_)">
			<g>
				<defs>
					<rect id="SVGID_47_" x="473.1" y="281.8" width="120" height="468.4"/>
				</defs>
				<clipPath id="SVGID_48_">
					<use xlink:href="#SVGID_47_"  overflow="visible"/>
				</clipPath>
				<g clip-path="url(#SVGID_48_)">
					<defs>
						<path id="SVGID_49_" d="M473.1,750.2l47.5-7.8c0,0,115.7-261.9,54.7-460.6C575.3,281.8,549.8,574.2,473.1,750.2"/>
					</defs>
					<clipPath id="SVGID_50_">
						<use xlink:href="#SVGID_49_"  overflow="visible"/>
					</clipPath>
					
						<radialGradient id="SVGID_51_" cx="0" cy="841.89" r="1" gradientTransform="matrix(571.0543 0 0 -571.0543 866.3086 481668.375)" gradientUnits="userSpaceOnUse">
						<stop  offset="0" style="stop-color:#666666"/>
						<stop  offset="1" style="stop-color:#FFFFFF"/>
					</radialGradient>
					<rect x="473.1" y="281.8" clip-path="url(#SVGID_50_)" fill="url(#SVGID_51_)" width="163.2" height="468.4"/>
				</g>
			</g>
		</g>
	</g>
</g>
</svg>
