<?xml version="1.0" encoding="utf-8"?>
<!-- Generator: Adobe Illustrator 17.1.0, SVG Export Plug-In . SVG Version: 6.00 Build 0)  -->
<!DOCTYPE svg PUBLIC "-//W3C//DTD SVG 1.1//EN" "http://www.w3.org/Graphics/SVG/1.1/DTD/svg11.dtd">
<svg version="1.1" id="Lager_1" xmlns="http://www.w3.org/2000/svg" xmlns:xlink="http://www.w3.org/1999/xlink" x="0px" y="0px"
	 viewBox="0 0 595.3 841.9" enable-background="new 0 0 595.3 841.9" xml:space="preserve">
<g>
	<defs>
		<rect id="SVGID_1_" width="595.3" height="841.9"/>
	</defs>
	<clipPath id="SVGID_2_">
		<use xlink:href="#SVGID_1_"  overflow="visible"/>
	</clipPath>
	<g clip-path="url(#SVGID_2_)">
		<defs>
			<path id="SVGID_3_" d="M296.3,0v45.8h3.5l-1.8,3.2l3.2,2l-2.5,2.4l4.2,2.2l-2.6,3.2l3.3,1.6l-2.2,1.6l2.2,3l-2.4,1.6l2.4,2.8
				h-2.4l2.4,3.8h-3l3,4H300l2.8,4.2h-3.5l2,3.8h-3.2V168c0,0-42.8-3.6-49.5,63.9c0,0-1.6,13.9-11.8,13.9v52.8h48.1V270
				c0,0,64.6,5.2,61.9-57.9h7.9c0,0,3.5-41.7,0-49.2S310.1,0,310.1,0H296.3z"/>
		</defs>
		<clipPath id="SVGID_4_">
			<use xlink:href="#SVGID_3_"  overflow="visible"/>
		</clipPath>
		
			<linearGradient id="SVGID_5_" gradientUnits="userSpaceOnUse" x1="5.110051e-07" y1="841.89" x2="1" y2="841.89" gradientTransform="matrix(119.4414 0 0 -119.4414 236.7529 100705.8203)">
			<stop  offset="0" style="stop-color:#BCBEC0"/>
			<stop  offset="1" style="stop-color:#939598"/>
		</linearGradient>
		<rect x="236.8" y="0" clip-path="url(#SVGID_4_)" fill="url(#SVGID_5_)" width="121.4" height="298.6"/>
	</g>
	<g clip-path="url(#SVGID_2_)">
		<defs>
			<path id="SVGID_6_" d="M236.8,245.8v52.8h48.1V270c0,0,4.2,0.3,10.4-0.2c-14.3-1.2-39.1-7.1-48.3-31.9
				C245.4,241.7,242.4,245.8,236.8,245.8"/>
		</defs>
		<clipPath id="SVGID_7_">
			<use xlink:href="#SVGID_6_"  overflow="visible"/>
		</clipPath>
		<defs>
			<filter id="Adobe_OpacityMaskFilter" filterUnits="userSpaceOnUse" x="207.9" y="210.1" width="116.2" height="116.3">
				<feColorMatrix  type="matrix" values="1 0 0 0 0  0 1 0 0 0  0 0 1 0 0  0 0 0 1 0"/>
			</filter>
		</defs>
		<mask maskUnits="userSpaceOnUse" x="207.9" y="210.1" width="116.2" height="116.3" id="SVGID_8_">
			<g filter="url(#Adobe_OpacityMaskFilter)">
				
					<linearGradient id="SVGID_9_" gradientUnits="userSpaceOnUse" x1="0" y1="841.9059" x2="1" y2="841.9059" gradientTransform="matrix(-69.2159 95.2675 95.2675 69.2159 -79930.8984 -58017.918)">
					<stop  offset="0" style="stop-color:#949494"/>
					<stop  offset="5.738014e-02" style="stop-color:#747474"/>
					<stop  offset="0.158" style="stop-color:#424242"/>
					<stop  offset="0.2463" style="stop-color:#1E1E1E"/>
					<stop  offset="0.3178" style="stop-color:#080808"/>
					<stop  offset="0.3636" style="stop-color:#000000"/>
					<stop  offset="1" style="stop-color:#000000"/>
				</linearGradient>
				<polygon clip-path="url(#SVGID_7_)" fill="url(#SVGID_9_)" points="324.1,258.9 275,326.4 207.9,277.6 257,210.1 				"/>
			</g>
		</mask>
		
			<linearGradient id="SVGID_10_" gradientUnits="userSpaceOnUse" x1="0" y1="841.9059" x2="1" y2="841.9059" gradientTransform="matrix(-69.2159 95.2675 95.2675 69.2159 -79930.8984 -58017.918)">
			<stop  offset="0" style="stop-color:#231F20"/>
			<stop  offset="0.3636" style="stop-color:#231F20"/>
			<stop  offset="1" style="stop-color:#231F20"/>
		</linearGradient>
		<polygon clip-path="url(#SVGID_7_)" mask="url(#SVGID_8_)" fill="url(#SVGID_10_)" points="324.1,258.9 275,326.4 207.9,277.6 
			257,210.1 		"/>
	</g>
	<g clip-path="url(#SVGID_2_)">
		<defs>
			<path id="SVGID_11_" d="M296.3,0v45.8h3.5l-1.8,3.2l3.2,2l-2.5,2.4l4.2,2.2l-2.6,3.2l3.3,1.6l-2.2,1.6l2.2,3l-2.4,1.6l2.4,2.8
				h-2.4l2.4,3.8h-3l3,4H300l2.8,4.2h-3.5l2,3.8h-3.2V168c0,0-1-0.1-2.8,0c9.7,0.6,41.3,6.9,47,63.9c0,0,0.3,2.4,1.3,5.2
				c2.4-6.8,3.6-15.1,3.2-25h7.9c0,0,3.5-41.7,0-49.2S310.1,0,310.1,0H296.3z"/>
		</defs>
		<clipPath id="SVGID_12_">
			<use xlink:href="#SVGID_11_"  overflow="visible"/>
		</clipPath>
		<defs>
			<filter id="Adobe_OpacityMaskFilter_1_" filterUnits="userSpaceOnUse" x="177" y="-31.4" width="299.4" height="299.9">
				<feColorMatrix  type="matrix" values="1 0 0 0 0  0 1 0 0 0  0 0 1 0 0  0 0 0 1 0"/>
			</filter>
		</defs>
		<mask maskUnits="userSpaceOnUse" x="177" y="-31.4" width="299.4" height="299.9" id="SVGID_13_">
			<g filter="url(#Adobe_OpacityMaskFilter_1_)">
				
					<linearGradient id="SVGID_14_" gradientUnits="userSpaceOnUse" x1="0" y1="841.9072" x2="1" y2="841.9072" gradientTransform="matrix(-196.6521 183.381 183.381 196.6521 -153916.5938 -165580.9375)">
					<stop  offset="0" style="stop-color:#000000"/>
					<stop  offset="0.8182" style="stop-color:#000000"/>
					<stop  offset="1" style="stop-color:#949494"/>
				</linearGradient>
				<polygon clip-path="url(#SVGID_12_)" fill="url(#SVGID_14_)" points="476.4,126.8 324.5,268.5 177,110.3 328.9,-31.4 				"/>
			</g>
		</mask>
		
			<linearGradient id="SVGID_15_" gradientUnits="userSpaceOnUse" x1="0" y1="841.9072" x2="1" y2="841.9072" gradientTransform="matrix(-196.6521 183.381 183.381 196.6521 -153916.5938 -165580.9375)">
			<stop  offset="0" style="stop-color:#231F20"/>
			<stop  offset="0.8182" style="stop-color:#231F20"/>
			<stop  offset="1" style="stop-color:#231F20"/>
		</linearGradient>
		<polygon clip-path="url(#SVGID_12_)" mask="url(#SVGID_13_)" fill="url(#SVGID_15_)" points="476.4,126.8 324.5,268.5 177,110.3 
			328.9,-31.4 		"/>
	</g>
	<g clip-path="url(#SVGID_2_)">
		<defs>
			<path id="SVGID_16_" d="M205.1,281.8c-23.5,17.6-34.8,29.5-36,42.6c-1.2,13.1,33.3,23.2,35.7,32.7c2.4,9.5-13.1,123.8-13.1,123.8
				c-25,105.9-16.1,232.1-16.1,232.1s13.5,102.2,13.5,117.3c0,9.9,8.5,11.6,14.3,11.6h0.1c3.1,0,5.4-0.5,5.4-0.5s30.9-15.8,41.1-26
				c10.2-10.2,8.3-14.9,8.3-14.9c-46.4-117.8,22.6-397.3,25.3-417.2c2.7-19.9,6.2-60.4,5.5-77.4c-0.8-17-53.4-34.5-61.4-35.4
				c-0.3,0-0.6,0-0.9,0C218.6,270.5,205.1,281.8,205.1,281.8"/>
		</defs>
		<clipPath id="SVGID_17_">
			<use xlink:href="#SVGID_16_"  overflow="visible"/>
		</clipPath>
		
			<linearGradient id="SVGID_18_" gradientUnits="userSpaceOnUse" x1="0" y1="841.879" x2="1" y2="841.879" gradientTransform="matrix(181.6597 499.1062 499.1062 -181.6597 -420050.9688 153238.2344)">
			<stop  offset="0" style="stop-color:#F26322"/>
			<stop  offset="1" style="stop-color:#BE1E2D"/>
		</linearGradient>
		<polygon clip-path="url(#SVGID_17_)" fill="url(#SVGID_18_)" points="275.5,230.9 473.5,775 181.1,881.5 -17,337.3 		"/>
	</g>
	<g clip-path="url(#SVGID_2_)">
		<defs>
			<path id="SVGID_19_" d="M280.3,0c0,0-41.3,155.3-44.8,162.9c-3.6,7.5,0,49.2,0,49.2h7.9c-2.8,63.1,62.3,57.9,62.3,57.9v28.6h48.4
				v-52.8c-10.3,0-11.9-13.9-11.9-13.9c-6.7-67.5-49.8-63.9-49.8-63.9V84.9h-3.2l2-3.8h-3.6l2.8-4.2h-3.8l3-4h-3l2.4-3.8h-2.4
				l2.4-2.8l-2.4-1.6l2.2-3l-2.2-1.6l3.4-1.6l-2.6-3.2l4.3-2.2l-2.5-2.4l3.2-2l-1.8-3.2h3.6V0H280.3z"/>
		</defs>
		<clipPath id="SVGID_20_">
			<use xlink:href="#SVGID_19_"  overflow="visible"/>
		</clipPath>
		
			<linearGradient id="SVGID_21_" gradientUnits="userSpaceOnUse" x1="0" y1="841.916" x2="1" y2="841.916" gradientTransform="matrix(112.8013 -13.8503 -13.8503 -112.8013 11889.4834 95126.4141)">
			<stop  offset="0" style="stop-color:#E6E7E8"/>
			<stop  offset="1" style="stop-color:#A7A9AC"/>
		</linearGradient>
		<polygon clip-path="url(#SVGID_20_)" fill="url(#SVGID_21_)" points="195.8,4.4 352.3,-14.8 390.2,294.2 233.7,313.4 		"/>
	</g>
	<g clip-path="url(#SVGID_2_)">
		<defs>
			<path id="SVGID_22_" d="M280.3,0c0,0-4.6,17.2-10.8,40.4c5.8,6.6,11.6,13.2,17.6,19.7l2.9-1.4l-2.6-3.2l4.3-2.2l-2.5-2.4l3.2-2
				l-1.8-3.2h3.6V0H280.3z"/>
		</defs>
		<clipPath id="SVGID_23_">
			<use xlink:href="#SVGID_22_"  overflow="visible"/>
		</clipPath>
		<defs>
			<filter id="Adobe_OpacityMaskFilter_2_" filterUnits="userSpaceOnUse" x="241.7" y="-11.4" width="80.4" height="83">
				<feColorMatrix  type="matrix" values="1 0 0 0 0  0 1 0 0 0  0 0 1 0 0  0 0 0 1 0"/>
			</filter>
		</defs>
		<mask maskUnits="userSpaceOnUse" x="241.7" y="-11.4" width="80.4" height="83" id="SVGID_24_">
			<g filter="url(#Adobe_OpacityMaskFilter_2_)">
				
					<linearGradient id="SVGID_25_" gradientUnits="userSpaceOnUse" x1="0" y1="841.8684" x2="1" y2="841.8684" gradientTransform="matrix(189.1584 127.589 127.589 -189.1584 -107146.2422 159266.3906)">
					<stop  offset="0" style="stop-color:#FFFFFF"/>
					<stop  offset="6.285292e-02" style="stop-color:#DADADA"/>
					<stop  offset="0.1601" style="stop-color:#A7A7A7"/>
					<stop  offset="0.2621" style="stop-color:#7B7B7B"/>
					<stop  offset="0.3668" style="stop-color:#555555"/>
					<stop  offset="0.475" style="stop-color:#363636"/>
					<stop  offset="0.5878" style="stop-color:#1E1E1E"/>
					<stop  offset="0.7072" style="stop-color:#0D0D0D"/>
					<stop  offset="0.8376" style="stop-color:#030303"/>
					<stop  offset="1" style="stop-color:#000000"/>
				</linearGradient>
				<polygon clip-path="url(#SVGID_23_)" fill="url(#SVGID_25_)" points="277.2,-11.4 322,18.8 286.5,71.5 241.7,41.3 				"/>
			</g>
		</mask>
		
			<linearGradient id="SVGID_26_" gradientUnits="userSpaceOnUse" x1="0" y1="841.8684" x2="1" y2="841.8684" gradientTransform="matrix(189.1584 127.589 127.589 -189.1584 -107146.25 159266.3906)">
			<stop  offset="0" style="stop-color:#FFFFFF"/>
			<stop  offset="1" style="stop-color:#FFFFFF"/>
		</linearGradient>
		<polygon clip-path="url(#SVGID_23_)" mask="url(#SVGID_24_)" fill="url(#SVGID_26_)" points="277.2,-11.4 322,18.8 286.5,71.5 
			241.7,41.3 		"/>
	</g>
	<g clip-path="url(#SVGID_2_)">
		<defs>
			<path id="SVGID_27_" d="M251.2,108.2c13.6,15.3,27.8,30.2,41.2,45.7v-65c-9.8-9.2-19-19.2-28-29.3
				C260.1,75.5,255.5,92.5,251.2,108.2"/>
		</defs>
		<clipPath id="SVGID_28_">
			<use xlink:href="#SVGID_27_"  overflow="visible"/>
		</clipPath>
		<defs>
			<filter id="Adobe_OpacityMaskFilter_3_" filterUnits="userSpaceOnUse" x="207.5" y="40.5" width="128.6" height="132.5">
				<feColorMatrix  type="matrix" values="1 0 0 0 0  0 1 0 0 0  0 0 1 0 0  0 0 0 1 0"/>
			</filter>
		</defs>
		<mask maskUnits="userSpaceOnUse" x="207.5" y="40.5" width="128.6" height="132.5" id="SVGID_29_">
			<g filter="url(#Adobe_OpacityMaskFilter_3_)">
				
					<linearGradient id="SVGID_30_" gradientUnits="userSpaceOnUse" x1="0" y1="841.8738" x2="1" y2="841.8738" gradientTransform="matrix(189.1518 127.5845 127.5845 -189.1518 -107181.8984 159319.2656)">
					<stop  offset="0" style="stop-color:#ABABAB"/>
					<stop  offset="1.094747e-02" style="stop-color:#A6A6A6"/>
					<stop  offset="0.1291" style="stop-color:#7A7A7A"/>
					<stop  offset="0.2526" style="stop-color:#555555"/>
					<stop  offset="0.3803" style="stop-color:#363636"/>
					<stop  offset="0.5134" style="stop-color:#1E1E1E"/>
					<stop  offset="0.6543" style="stop-color:#0D0D0D"/>
					<stop  offset="0.8083" style="stop-color:#030303"/>
					<stop  offset="1" style="stop-color:#000000"/>
				</linearGradient>
				<polygon clip-path="url(#SVGID_28_)" fill="url(#SVGID_30_)" points="264.1,40.5 336.1,89 279.5,172.9 207.5,124.4 				"/>
			</g>
		</mask>
		
			<linearGradient id="SVGID_31_" gradientUnits="userSpaceOnUse" x1="0" y1="841.8738" x2="1" y2="841.8738" gradientTransform="matrix(189.1518 127.5845 127.5845 -189.1518 -107181.8984 159319.2656)">
			<stop  offset="0" style="stop-color:#FFFFFF"/>
			<stop  offset="1" style="stop-color:#FFFFFF"/>
		</linearGradient>
		<polygon clip-path="url(#SVGID_28_)" mask="url(#SVGID_29_)" fill="url(#SVGID_31_)" points="264.1,40.5 336.1,89 279.5,172.9 
			207.5,124.4 		"/>
	</g>
	<g clip-path="url(#SVGID_2_)">
		<defs>
			<path id="SVGID_32_" d="M235.5,162.9c-3.6,7.5,0,49.2,0,49.2h7.9c-2.8,63.1,62.3,57.9,62.3,57.9v28.6h48.4v-49.9
				c-1.2-1.2-2.4-2.4-3.6-3.5c-2.9-1.1-4.9-3.6-6.1-6.1c-17.7-18-33-37.5-49.6-56.5c-17.6-20-32.9-35.1-49.4-53.4
				C240,148.5,236.5,160.7,235.5,162.9"/>
		</defs>
		<clipPath id="SVGID_33_">
			<use xlink:href="#SVGID_32_"  overflow="visible"/>
		</clipPath>
		<defs>
			<filter id="Adobe_OpacityMaskFilter_4_" filterUnits="userSpaceOnUse" x="153.4" y="72.6" width="279.2" height="282.7">
				<feColorMatrix  type="matrix" values="1 0 0 0 0  0 1 0 0 0  0 0 1 0 0  0 0 0 1 0"/>
			</filter>
		</defs>
		<mask maskUnits="userSpaceOnUse" x="153.4" y="72.6" width="279.2" height="282.7" id="SVGID_34_">
			<g filter="url(#Adobe_OpacityMaskFilter_4_)">
				
					<linearGradient id="SVGID_35_" gradientUnits="userSpaceOnUse" x1="0" y1="841.933" x2="1" y2="841.933" gradientTransform="matrix(188.4733 127.1269 127.1269 -188.4733 -106846.5078 158823.4688)">
					<stop  offset="0" style="stop-color:#FFFFFF"/>
					<stop  offset="6.285292e-02" style="stop-color:#DADADA"/>
					<stop  offset="0.1601" style="stop-color:#A7A7A7"/>
					<stop  offset="0.2621" style="stop-color:#7B7B7B"/>
					<stop  offset="0.3668" style="stop-color:#555555"/>
					<stop  offset="0.475" style="stop-color:#363636"/>
					<stop  offset="0.5878" style="stop-color:#1E1E1E"/>
					<stop  offset="0.7072" style="stop-color:#0D0D0D"/>
					<stop  offset="0.8376" style="stop-color:#030303"/>
					<stop  offset="1" style="stop-color:#000000"/>
				</linearGradient>
				<polygon clip-path="url(#SVGID_33_)" fill="url(#SVGID_35_)" points="270.1,72.6 432.6,182.2 315.9,355.2 153.4,245.6 				"/>
			</g>
		</mask>
		
			<linearGradient id="SVGID_36_" gradientUnits="userSpaceOnUse" x1="0" y1="841.933" x2="1" y2="841.933" gradientTransform="matrix(188.4733 127.1269 127.1269 -188.4733 -106846.5 158823.4688)">
			<stop  offset="0" style="stop-color:#FFFFFF"/>
			<stop  offset="1" style="stop-color:#FFFFFF"/>
		</linearGradient>
		<polygon clip-path="url(#SVGID_33_)" mask="url(#SVGID_34_)" fill="url(#SVGID_36_)" points="270.1,72.6 432.6,182.2 315.9,355.2 
			153.4,245.6 		"/>
	</g>
	<g clip-path="url(#SVGID_2_)">
		<defs>
			<path id="SVGID_37_" d="M235.5,162.9c-3.6,7.5,0,49.2,0,49.2h7.9c-2.8,63.1,62.3,57.9,62.3,57.9v28.6h48.4v-12.7
				c-11.5-10.8-22.7-21.9-33.6-33.4c-28.4-30.1-54.3-62.5-84.7-90.6C235.7,162.3,235.6,162.7,235.5,162.9"/>
		</defs>
		<clipPath id="SVGID_38_">
			<use xlink:href="#SVGID_37_"  overflow="visible"/>
		</clipPath>
		<defs>
			<filter id="Adobe_OpacityMaskFilter_5_" filterUnits="userSpaceOnUse" x="168.5" y="105.2" width="249" height="250">
				<feColorMatrix  type="matrix" values="1 0 0 0 0  0 1 0 0 0  0 0 1 0 0  0 0 0 1 0"/>
			</filter>
		</defs>
		<mask maskUnits="userSpaceOnUse" x="168.5" y="105.2" width="249" height="250" id="SVGID_39_">
			<g filter="url(#Adobe_OpacityMaskFilter_5_)">
				
					<linearGradient id="SVGID_40_" gradientUnits="userSpaceOnUse" x1="0" y1="841.9446" x2="1" y2="841.9446" gradientTransform="matrix(188.4744 127.1276 127.1276 -188.4744 -106856.1953 158837.8281)">
					<stop  offset="0" style="stop-color:#FFFFFF"/>
					<stop  offset="6.285292e-02" style="stop-color:#DADADA"/>
					<stop  offset="0.1601" style="stop-color:#A7A7A7"/>
					<stop  offset="0.2621" style="stop-color:#7B7B7B"/>
					<stop  offset="0.3668" style="stop-color:#555555"/>
					<stop  offset="0.475" style="stop-color:#363636"/>
					<stop  offset="0.5878" style="stop-color:#1E1E1E"/>
					<stop  offset="0.7072" style="stop-color:#0D0D0D"/>
					<stop  offset="0.8376" style="stop-color:#030303"/>
					<stop  offset="1" style="stop-color:#000000"/>
				</linearGradient>
				<polygon clip-path="url(#SVGID_38_)" fill="url(#SVGID_40_)" points="270.1,105.2 417.5,204.6 315.9,355.2 168.5,255.8 				"/>
			</g>
		</mask>
		
			<linearGradient id="SVGID_41_" gradientUnits="userSpaceOnUse" x1="0" y1="841.9446" x2="1" y2="841.9446" gradientTransform="matrix(188.4744 127.1276 127.1276 -188.4744 -106856.1875 158837.8281)">
			<stop  offset="0" style="stop-color:#FFFFFF"/>
			<stop  offset="1" style="stop-color:#FFFFFF"/>
		</linearGradient>
		<polygon clip-path="url(#SVGID_38_)" mask="url(#SVGID_39_)" fill="url(#SVGID_41_)" points="270.1,105.2 417.5,204.6 
			315.9,355.2 168.5,255.8 		"/>
	</g>
	<g clip-path="url(#SVGID_2_)">
		<defs>
			<polygon id="SVGID_42_" points="280.3,0 281.2,1.5 294.2,1.5 294.2,0 			"/>
		</defs>
		<clipPath id="SVGID_43_">
			<use xlink:href="#SVGID_42_"  overflow="visible"/>
		</clipPath>
		
			<linearGradient id="SVGID_44_" gradientUnits="userSpaceOnUse" x1="-8.790435e-06" y1="841.8901" x2="1" y2="841.8901" gradientTransform="matrix(13.8867 0 0 -13.8867 280.3071 11691.834)">
			<stop  offset="0" style="stop-color:#E6E7E8"/>
			<stop  offset="1" style="stop-color:#BCBEC0"/>
		</linearGradient>
		<rect x="280.3" clip-path="url(#SVGID_43_)" fill="url(#SVGID_44_)" width="13.9" height="1.5"/>
	</g>
	<g clip-path="url(#SVGID_2_)">
		<defs>
			<path id="SVGID_45_" d="M280.3,0l-43.6,159.2c0,0-2.9,6.3-2.9,13c0,6.7,1.6,39.9,1.6,39.9l2-2.3l-1.2-40.8L281.2,1.5L280.3,0z"/>
		</defs>
		<clipPath id="SVGID_46_">
			<use xlink:href="#SVGID_45_"  overflow="visible"/>
		</clipPath>
		<defs>
			<filter id="Adobe_OpacityMaskFilter_6_" filterUnits="userSpaceOnUse" x="233.9" y="0" width="47.4" height="212.1">
				<feColorMatrix  type="matrix" values="1 0 0 0 0  0 1 0 0 0  0 0 1 0 0  0 0 0 1 0"/>
			</filter>
		</defs>
		<mask maskUnits="userSpaceOnUse" x="233.9" y="0" width="47.4" height="212.1" id="SVGID_47_">
			<g filter="url(#Adobe_OpacityMaskFilter_6_)">
				
					<linearGradient id="SVGID_48_" gradientUnits="userSpaceOnUse" x1="-7.409029e-06" y1="841.89" x2="1" y2="841.89" gradientTransform="matrix(47.3682 0 0 -47.3682 233.8813 39984.8281)">
					<stop  offset="0" style="stop-color:#000000"/>
					<stop  offset="4.801008e-02" style="stop-color:#1E1E1E"/>
					<stop  offset="0.1266" style="stop-color:#4A4A4A"/>
					<stop  offset="0.2063" style="stop-color:#6E6E6E"/>
					<stop  offset="0.2861" style="stop-color:#8A8A8A"/>
					<stop  offset="0.3661" style="stop-color:#9E9E9E"/>
					<stop  offset="0.4463" style="stop-color:#A9A9A9"/>
					<stop  offset="0.5273" style="stop-color:#ADADAD"/>
					<stop  offset="0.5955" style="stop-color:#A9A9A9"/>
					<stop  offset="0.6675" style="stop-color:#9C9C9C"/>
					<stop  offset="0.7413" style="stop-color:#878787"/>
					<stop  offset="0.8163" style="stop-color:#6A6A6A"/>
					<stop  offset="0.8923" style="stop-color:#444444"/>
					<stop  offset="0.968" style="stop-color:#161616"/>
					<stop  offset="1" style="stop-color:#000000"/>
				</linearGradient>
				<rect x="233.9" y="0" clip-path="url(#SVGID_46_)" fill="url(#SVGID_48_)" width="47.4" height="212.1"/>
			</g>
		</mask>
		
			<linearGradient id="SVGID_49_" gradientUnits="userSpaceOnUse" x1="-7.409029e-06" y1="841.89" x2="1" y2="841.89" gradientTransform="matrix(47.3682 0 0 -47.3682 233.8813 39984.8281)">
			<stop  offset="0" style="stop-color:#231F20"/>
			<stop  offset="4.813642e-02" style="stop-color:#4C494A"/>
			<stop  offset="0.1111" style="stop-color:#7B7979"/>
			<stop  offset="0.1761" style="stop-color:#A4A2A2"/>
			<stop  offset="0.2419" style="stop-color:#C5C4C4"/>
			<stop  offset="0.3089" style="stop-color:#DEDEDE"/>
			<stop  offset="0.3776" style="stop-color:#F1F0F0"/>
			<stop  offset="0.4489" style="stop-color:#FBFBFB"/>
			<stop  offset="0.5273" style="stop-color:#FFFFFF"/>
			<stop  offset="0.5931" style="stop-color:#FBFBFB"/>
			<stop  offset="0.6566" style="stop-color:#F0F0F0"/>
			<stop  offset="0.7193" style="stop-color:#DDDCDC"/>
			<stop  offset="0.7814" style="stop-color:#C2C1C1"/>
			<stop  offset="0.8431" style="stop-color:#9F9E9E"/>
			<stop  offset="0.9045" style="stop-color:#757273"/>
			<stop  offset="0.9646" style="stop-color:#444041"/>
			<stop  offset="1" style="stop-color:#231F20"/>
		</linearGradient>
		<rect x="233.9" y="0" clip-path="url(#SVGID_46_)" mask="url(#SVGID_47_)" fill="url(#SVGID_49_)" width="47.4" height="212.1"/>
	</g>
	<g clip-path="url(#SVGID_2_)">
		<defs>
			<path id="SVGID_50_" d="M365.1,270.5c-8.4,0.9-63.2,18.5-64,35.4c-0.8,17,2.9,57.4,5.7,77.4c2.8,19.9,74.8,299.4,26.4,417.2
				c0,0-2,4.7,8.7,14.9c10.7,10.2,42.8,26,42.8,26s2.5,0.5,5.7,0.5h0.1c6.1,0,15-1.7,15-11.6c0-15.1,14.1-117.3,14.1-117.3
				s9.3-126.2-16.8-232.1c0,0-16.1-114.3-13.6-123.8c2.5-9.5,38.5-19.6,37.2-32.7c-1.2-13.1-13-25-37.5-42.6
				c0,0-14.1-11.4-22.7-11.4C365.7,270.5,365.4,270.5,365.1,270.5"/>
		</defs>
		<clipPath id="SVGID_51_">
			<use xlink:href="#SVGID_50_"  overflow="visible"/>
		</clipPath>
		
			<linearGradient id="SVGID_52_" gradientUnits="userSpaceOnUse" x1="0" y1="841.868" x2="1" y2="841.868" gradientTransform="matrix(187.6063 515.4444 515.4444 -187.6063 -433663.875 158242.5625)">
			<stop  offset="0" style="stop-color:#F26322"/>
			<stop  offset="1" style="stop-color:#BE1E2D"/>
		</linearGradient>
		<polygon clip-path="url(#SVGID_51_)" fill="url(#SVGID_52_)" points="413.7,229.2 612.3,775 315.3,883.2 116.6,337.3 		"/>
	</g>
	<g clip-path="url(#SVGID_2_)">
		<defs>
			<path id="SVGID_53_" d="M204.1,282.6c-22.5,17.6-33.9,28.7-35,41.8c-1.1,13.1,33.4,23.2,35.7,32.7c2.3,9.5-13.1,123.8-13.1,123.8
				c-23.9,105.9-16.4,232.1-16.4,232.1s13.8,102.2,13.8,117.3c0,9.9,8.5,11.6,14.3,11.6h0.1c3.1,0,5.4-0.5,5.4-0.5s17.1-9,30.2-17.5
				c11.2-13.5,7.9-28.5,7.9-28.5c-40.3-126.2,13.4-345.2,21.7-380.1c6.1-25.4,13.2-88.1,15.1-118.8c-12-11.5-48.1-25.2-54.7-26
				c-0.3,0-0.5,0-0.8,0C220.3,270.4,204.1,282.6,204.1,282.6"/>
		</defs>
		<clipPath id="SVGID_54_">
			<use xlink:href="#SVGID_53_"  overflow="visible"/>
		</clipPath>
		<defs>
			<filter id="Adobe_OpacityMaskFilter_7_" filterUnits="userSpaceOnUse" x="137.9" y="264.4" width="175.8" height="583.6">
				<feColorMatrix  type="matrix" values="1 0 0 0 0  0 1 0 0 0  0 0 1 0 0  0 0 0 1 0"/>
			</filter>
		</defs>
		<mask maskUnits="userSpaceOnUse" x="137.9" y="264.4" width="175.8" height="583.6" id="SVGID_55_">
			<g filter="url(#Adobe_OpacityMaskFilter_7_)">
				
					<linearGradient id="SVGID_56_" gradientUnits="userSpaceOnUse" x1="0" y1="841.8947" x2="1" y2="841.8947" gradientTransform="matrix(113.0275 5.9235 5.9235 -113.0275 -4829.877 95709.8203)">
					<stop  offset="0" style="stop-color:#000000"/>
					<stop  offset="0.2788" style="stop-color:#000000"/>
					<stop  offset="1" style="stop-color:#949494"/>
				</linearGradient>
				<polygon clip-path="url(#SVGID_54_)" fill="url(#SVGID_56_)" points="168.1,264.4 313.7,272 283.5,848 137.9,840.3 				"/>
			</g>
		</mask>
		
			<linearGradient id="SVGID_57_" gradientUnits="userSpaceOnUse" x1="0" y1="841.8947" x2="1" y2="841.8947" gradientTransform="matrix(113.0275 5.9235 5.9235 -113.0275 -4829.877 95709.8203)">
			<stop  offset="0" style="stop-color:#FFFFFF"/>
			<stop  offset="0.2788" style="stop-color:#FFFFFF"/>
			<stop  offset="1" style="stop-color:#FFFFFF"/>
		</linearGradient>
		<polygon clip-path="url(#SVGID_54_)" mask="url(#SVGID_55_)" fill="url(#SVGID_57_)" points="168.1,264.4 313.7,272 283.5,848 
			137.9,840.3 		"/>
	</g>
	<g clip-path="url(#SVGID_2_)">
		<defs>
			<path id="SVGID_58_" d="M283.9,296.5c-0.1,1.3,0,0.6,0-0.1c0-0.4,0.1-0.9,0.1-0.9C283.9,295.5,283.9,295.8,283.9,296.5
				 M204.1,282.6c-22.5,17.6-33.9,28.7-35,41.8c-1.1,13.1,33.4,23.2,35.7,32.7c1.2,5.1-2.7,39.8-6.4,71.2
				c12.3-11.8,22.2-24.9,32-38.2c20-26.8,37.5-64.4,53.4-93.7c-12-11.5-45.7-24.7-56.5-26c-0.3,0-0.5,0-0.8,0
				C218.6,270.4,204.1,282.6,204.1,282.6"/>
		</defs>
		<clipPath id="SVGID_59_">
			<use xlink:href="#SVGID_58_"  overflow="visible"/>
		</clipPath>
		<defs>
			<filter id="Adobe_OpacityMaskFilter_8_" filterUnits="userSpaceOnUse" x="162.4" y="266.4" width="127" height="166">
				<feColorMatrix  type="matrix" values="1 0 0 0 0  0 1 0 0 0  0 0 1 0 0  0 0 0 1 0"/>
			</filter>
		</defs>
		<mask maskUnits="userSpaceOnUse" x="162.4" y="266.4" width="127" height="166" id="SVGID_60_">
			<g filter="url(#Adobe_OpacityMaskFilter_8_)">
				
					<linearGradient id="SVGID_61_" gradientUnits="userSpaceOnUse" x1="0" y1="841.8934" x2="1" y2="841.8934" gradientTransform="matrix(-19.9118 -570.1987 -570.1987 19.9118 480289.5625 -15922.8232)">
					<stop  offset="0" style="stop-color:#000000"/>
					<stop  offset="0.2788" style="stop-color:#000000"/>
					<stop  offset="1" style="stop-color:#949494"/>
				</linearGradient>
				<polygon clip-path="url(#SVGID_59_)" fill="url(#SVGID_61_)" points="168.1,432.4 162.4,270.6 283.8,266.4 289.5,428.2 				"/>
			</g>
		</mask>
		
			<linearGradient id="SVGID_62_" gradientUnits="userSpaceOnUse" x1="0" y1="841.8934" x2="1" y2="841.8934" gradientTransform="matrix(-19.9118 -570.1987 -570.1987 19.9118 480289.5625 -15922.8213)">
			<stop  offset="0" style="stop-color:#FFFFFF"/>
			<stop  offset="0.2788" style="stop-color:#FFFFFF"/>
			<stop  offset="1" style="stop-color:#FFFFFF"/>
		</linearGradient>
		<polygon clip-path="url(#SVGID_59_)" mask="url(#SVGID_60_)" fill="url(#SVGID_62_)" points="168.1,432.4 162.4,270.6 
			283.8,266.4 289.5,428.2 		"/>
	</g>
	<g clip-path="url(#SVGID_2_)">
		<defs>
			<path id="SVGID_63_" d="M365.9,270.5c-7.2,0.8-48,13.9-59.3,25.9c2.1,30.7,6.1,93.4,12.6,118.9c9,34.9,66.5,254,23.3,380.1
				c0,0-2.9,13.4,9.2,26.8c13.5,9.2,33.5,19.2,33.5,19.2s2.4,0.5,5.6,0.5h0.1c6,0,14.7-1.7,14.7-11.6c0-15.1,13.9-117.3,13.9-117.3
				s9.2-126.2-16.5-232.1c0,0-15.9-114.3-13.4-123.8c2.4-9.5,37.9-19.6,36.7-32.7c-1.2-13.1-12.8-25-37-42.6
				c0,0-13.9-11.4-22.3-11.4C366.5,270.5,366.2,270.5,365.9,270.5"/>
		</defs>
		<clipPath id="SVGID_64_">
			<use xlink:href="#SVGID_63_"  overflow="visible"/>
		</clipPath>
		<defs>
			<filter id="Adobe_OpacityMaskFilter_9_" filterUnits="userSpaceOnUse" x="276.7" y="264.1" width="181.7" height="584.1">
				<feColorMatrix  type="matrix" values="1 0 0 0 0  0 1 0 0 0  0 0 1 0 0  0 0 0 1 0"/>
			</filter>
		</defs>
		<mask maskUnits="userSpaceOnUse" x="276.7" y="264.1" width="181.7" height="584.1" id="SVGID_65_">
			<g filter="url(#Adobe_OpacityMaskFilter_9_)">
				
					<linearGradient id="SVGID_66_" gradientUnits="userSpaceOnUse" x1="0" y1="841.8951" x2="1" y2="841.8951" gradientTransform="matrix(-117.6674 6.155 -6.1667 -117.4443 5629.812 99428.2656)">
					<stop  offset="0" style="stop-color:#000000"/>
					<stop  offset="0.2788" style="stop-color:#000000"/>
					<stop  offset="1" style="stop-color:#949494"/>
				</linearGradient>
				<polygon clip-path="url(#SVGID_64_)" fill="url(#SVGID_66_)" points="428.2,264.1 276.7,272 307,848.2 458.5,840.3 				"/>
			</g>
		</mask>
		
			<linearGradient id="SVGID_67_" gradientUnits="userSpaceOnUse" x1="0" y1="841.8951" x2="1" y2="841.8951" gradientTransform="matrix(-117.6674 6.155 -6.1667 -117.4443 5629.8125 99428.2656)">
			<stop  offset="0" style="stop-color:#FFFFFF"/>
			<stop  offset="0.2788" style="stop-color:#FFFFFF"/>
			<stop  offset="1" style="stop-color:#FFFFFF"/>
		</linearGradient>
		<polygon clip-path="url(#SVGID_64_)" mask="url(#SVGID_65_)" fill="url(#SVGID_67_)" points="428.2,264.1 276.7,272 307,848.2 
			458.5,840.3 		"/>
	</g>
	<g clip-path="url(#SVGID_2_)">
		<defs>
			<path id="SVGID_68_" d="M365.9,270.5c-6.8,0.7-35.6,8.2-59.3,25.9c17.9,32.2,40,61.6,65.1,88.6c6.8,7.3,13.5,14.4,21.1,20.9
				c-2.8-23.8-4.9-44.9-3.9-48.8c2.4-9.5,38.4-19.6,37.1-32.7c-1.2-13.1-12.8-25-37-42.6c0,0-13.9-11.4-22.3-11.4
				C366.5,270.5,366.2,270.5,365.9,270.5"/>
		</defs>
		<clipPath id="SVGID_69_">
			<use xlink:href="#SVGID_68_"  overflow="visible"/>
		</clipPath>
		<defs>
			<filter id="Adobe_OpacityMaskFilter_10_" filterUnits="userSpaceOnUse" x="265" y="233.5" width="204.1" height="209.5">
				<feColorMatrix  type="matrix" values="1 0 0 0 0  0 1 0 0 0  0 0 1 0 0  0 0 0 1 0"/>
			</filter>
		</defs>
		<mask maskUnits="userSpaceOnUse" x="265" y="233.5" width="204.1" height="209.5" id="SVGID_70_">
			<g filter="url(#Adobe_OpacityMaskFilter_10_)">
				
					<linearGradient id="SVGID_71_" gradientUnits="userSpaceOnUse" x1="0" y1="841.874" x2="1" y2="841.874" gradientTransform="matrix(-179.6603 -521.752 522.7433 -179.3196 -439558.75 151762.2812)">
					<stop  offset="0" style="stop-color:#000000"/>
					<stop  offset="0.2788" style="stop-color:#000000"/>
					<stop  offset="1" style="stop-color:#949494"/>
				</linearGradient>
				<polygon clip-path="url(#SVGID_69_)" fill="url(#SVGID_71_)" points="469,391.6 414.6,233.5 265,284.8 319.4,442.9 				"/>
			</g>
		</mask>
		
			<linearGradient id="SVGID_72_" gradientUnits="userSpaceOnUse" x1="0" y1="841.874" x2="1" y2="841.874" gradientTransform="matrix(-179.6603 -521.7521 522.7433 -179.3196 -439558.8125 151762.2812)">
			<stop  offset="0" style="stop-color:#FFFFFF"/>
			<stop  offset="0.2788" style="stop-color:#FFFFFF"/>
			<stop  offset="1" style="stop-color:#FFFFFF"/>
		</linearGradient>
		<polygon clip-path="url(#SVGID_69_)" mask="url(#SVGID_70_)" fill="url(#SVGID_72_)" points="469,391.6 414.6,233.5 265,284.8 
			319.4,442.9 		"/>
	</g>
</g>
</svg>
