<?xml version="1.0" encoding="utf-8"?>
<!-- Generator: Adobe Illustrator 17.1.0, SVG Export Plug-In . SVG Version: 6.00 Build 0)  -->
<!DOCTYPE svg PUBLIC "-//W3C//DTD SVG 1.1//EN" "http://www.w3.org/Graphics/SVG/1.1/DTD/svg11.dtd">
<svg version="1.1" id="Lager_1" xmlns="http://www.w3.org/2000/svg" xmlns:xlink="http://www.w3.org/1999/xlink" x="0px" y="0px"
	 viewBox="0 0 841.9 595.3" enable-background="new 0 0 841.9 595.3" xml:space="preserve">
<g>
	<defs>
		<rect id="SVGID_1_" width="841.9" height="595.3"/>
	</defs>
	<clipPath id="SVGID_2_">
		<use xlink:href="#SVGID_1_"  overflow="visible"/>
	</clipPath>
	<g clip-path="url(#SVGID_2_)">
		<defs>
			<polygon id="SVGID_3_" points="358,188.2 365.5,187.1 372.9,220.4 365.4,221.5 			"/>
		</defs>
		<clipPath id="SVGID_4_">
			<use xlink:href="#SVGID_3_"  overflow="visible"/>
		</clipPath>
		
			<linearGradient id="SVGID_5_" gradientUnits="userSpaceOnUse" x1="1.231810e-05" y1="595.275" x2="1" y2="595.275" gradientTransform="matrix(14.8647 0 0 -14.8647 358.0278 9052.9238)">
			<stop  offset="0" style="stop-color:#F2F2F2"/>
			<stop  offset="0.806" style="stop-color:#908F8F"/>
			<stop  offset="1" style="stop-color:#787777"/>
		</linearGradient>
		<rect x="358" y="187.1" clip-path="url(#SVGID_4_)" fill="url(#SVGID_5_)" width="14.9" height="34.4"/>
	</g>
	<g clip-path="url(#SVGID_2_)">
		<defs>
			<polygon id="SVGID_6_" points="397.6,188.2 405,187.1 412.4,220.4 405,221.5 			"/>
		</defs>
		<clipPath id="SVGID_7_">
			<use xlink:href="#SVGID_6_"  overflow="visible"/>
		</clipPath>
		
			<linearGradient id="SVGID_8_" gradientUnits="userSpaceOnUse" x1="-1.847412e-05" y1="595.275" x2="1" y2="595.275" gradientTransform="matrix(14.8672 0 0 -14.8672 397.5522 9054.3779)">
			<stop  offset="0" style="stop-color:#F2F2F2"/>
			<stop  offset="0.806" style="stop-color:#908F8F"/>
			<stop  offset="1" style="stop-color:#787777"/>
		</linearGradient>
		<rect x="397.6" y="187.1" clip-path="url(#SVGID_7_)" fill="url(#SVGID_8_)" width="14.9" height="34.4"/>
	</g>
	<g clip-path="url(#SVGID_2_)">
		<defs>
			<polygon id="SVGID_9_" points="438.7,188.2 446.2,187.1 453.6,220.4 446.1,221.5 			"/>
		</defs>
		<clipPath id="SVGID_10_">
			<use xlink:href="#SVGID_9_"  overflow="visible"/>
		</clipPath>
		
			<linearGradient id="SVGID_11_" gradientUnits="userSpaceOnUse" x1="-2.052276e-05" y1="595.275" x2="1" y2="595.275" gradientTransform="matrix(14.8701 0 0 -14.8701 438.7163 9056.1211)">
			<stop  offset="0" style="stop-color:#F2F2F2"/>
			<stop  offset="0.806" style="stop-color:#908F8F"/>
			<stop  offset="1" style="stop-color:#787777"/>
		</linearGradient>
		<rect x="438.7" y="187.1" clip-path="url(#SVGID_10_)" fill="url(#SVGID_11_)" width="14.9" height="34.4"/>
	</g>
	<g clip-path="url(#SVGID_2_)">
		<defs>
			<polygon id="SVGID_12_" points="526.2,178.5 533.5,177.7 547.4,203 540.2,203.9 			"/>
		</defs>
		<clipPath id="SVGID_13_">
			<use xlink:href="#SVGID_12_"  overflow="visible"/>
		</clipPath>
		
			<linearGradient id="SVGID_14_" gradientUnits="userSpaceOnUse" x1="1.728389e-05" y1="595.275" x2="1" y2="595.275" gradientTransform="matrix(21.188 0 0 -21.188 526.2227 12803.4541)">
			<stop  offset="0" style="stop-color:#F2F2F2"/>
			<stop  offset="0.806" style="stop-color:#908F8F"/>
			<stop  offset="1" style="stop-color:#787777"/>
		</linearGradient>
		<rect x="526.2" y="177.7" clip-path="url(#SVGID_13_)" fill="url(#SVGID_14_)" width="21.2" height="26.2"/>
	</g>
	<g clip-path="url(#SVGID_2_)">
		<defs>
			<polygon id="SVGID_15_" points="479.7,187.6 486.9,186.7 500.9,212.1 493.7,212.9 			"/>
		</defs>
		<clipPath id="SVGID_16_">
			<use xlink:href="#SVGID_15_"  overflow="visible"/>
		</clipPath>
		
			<linearGradient id="SVGID_17_" gradientUnits="userSpaceOnUse" x1="-5.761564e-06" y1="595.275" x2="1" y2="595.275" gradientTransform="matrix(21.187 0 0 -21.187 479.7051 12811.9287)">
			<stop  offset="0" style="stop-color:#F2F2F2"/>
			<stop  offset="0.806" style="stop-color:#908F8F"/>
			<stop  offset="1" style="stop-color:#787777"/>
		</linearGradient>
		<rect x="479.7" y="186.7" clip-path="url(#SVGID_16_)" fill="url(#SVGID_17_)" width="21.2" height="26.2"/>
	</g>
	<g clip-path="url(#SVGID_2_)">
		<defs>
			<path id="SVGID_18_" d="M749.4,177.2c-4.4-13.8,25.4-26.2,89-37.1c2.2-4,3.3-6.1,3.2-6.3C768.7,142.1,737.7,156.6,749.4,177.2"/>
		</defs>
		<clipPath id="SVGID_19_">
			<use xlink:href="#SVGID_18_"  overflow="visible"/>
		</clipPath>
		
			<linearGradient id="SVGID_20_" gradientUnits="userSpaceOnUse" x1="0" y1="595.275" x2="1" y2="595.275" gradientTransform="matrix(94.54 0 0 -94.54 658.0938 56432.7734)">
			<stop  offset="0" style="stop-color:#F2F2F2"/>
			<stop  offset="0.806" style="stop-color:#908F8F"/>
			<stop  offset="1" style="stop-color:#787777"/>
		</linearGradient>
		<rect x="737.7" y="133.7" clip-path="url(#SVGID_19_)" fill="url(#SVGID_20_)" width="103.9" height="43.5"/>
	</g>
	<g clip-path="url(#SVGID_2_)">
		<defs>
			<path id="SVGID_21_" d="M719.5,198.6c-1.5,2.2-2.8,4.2-4.9,5.6c26.7,0.1,62.3-10.6,106.9-32.1c-0.1-2,0-4.7,0.4-8.1
				C796.1,178.5,762.2,190.2,719.5,198.6"/>
		</defs>
		<clipPath id="SVGID_22_">
			<use xlink:href="#SVGID_21_"  overflow="visible"/>
		</clipPath>
		
			<linearGradient id="SVGID_23_" gradientUnits="userSpaceOnUse" x1="-9.833084e-04" y1="595.2753" x2="0.999" y2="595.2753" gradientTransform="matrix(-107.1367 -0.2785 -0.2785 107.1367 987.5541 -63591.582)">
			<stop  offset="0" style="stop-color:#F2F2F2"/>
			<stop  offset="0.806" style="stop-color:#908F8F"/>
			<stop  offset="1" style="stop-color:#787777"/>
		</linearGradient>
		<polygon clip-path="url(#SVGID_22_)" fill="url(#SVGID_23_)" points="821.8,204.6 714.4,204.3 714.6,163.7 821.9,164 		"/>
	</g>
	<g clip-path="url(#SVGID_2_)">
		<defs>
			<path id="SVGID_24_" d="M671.8,175.9c-3.7,7.9,5.8,14.6,29.1,21.9c26.3,4.8,67-6.9,121.6-34.6c-4.5-0.7-9.8-1.4-16.5-2.2
				c-30,10.4-48.7,13-56.9,8.3c-3.6-12.3,27.2-24.4,92.8-36.1c-0.5-1.1-1.4-2.4-3.1-3.9C758,139.5,702.4,155,671.8,175.9"/>
		</defs>
		<clipPath id="SVGID_25_">
			<use xlink:href="#SVGID_24_"  overflow="visible"/>
		</clipPath>
		
			<linearGradient id="SVGID_26_" gradientUnits="userSpaceOnUse" x1="0" y1="595.2638" x2="1" y2="595.2638" gradientTransform="matrix(170.7603 0.444 0.444 -170.7603 406.7648 101813.2188)">
			<stop  offset="0" style="stop-color:#F2F2F2"/>
			<stop  offset="0.806" style="stop-color:#908F8F"/>
			<stop  offset="1" style="stop-color:#787777"/>
		</linearGradient>
		<polygon clip-path="url(#SVGID_25_)" fill="url(#SVGID_26_)" points="668.1,129 842.1,129.5 841.9,203.1 667.9,202.6 		"/>
	</g>
	<g clip-path="url(#SVGID_2_)">
		<defs>
			<path id="SVGID_27_" d="M1.7,415.5c-1.5,0.7,31,11.8,97.3,33.2c95.1-23.2,264.6-67.8,511.9-136c32.8-23.3,71.4-49.5,118.3-80.7
				c-18.4-1.1-47.2-5.9-86.2-14.4C406.7,290.2,193.3,356.1,1.7,415.5"/>
		</defs>
		<clipPath id="SVGID_28_">
			<use xlink:href="#SVGID_27_"  overflow="visible"/>
		</clipPath>
		
			<linearGradient id="SVGID_29_" gradientUnits="userSpaceOnUse" x1="0" y1="595.275" x2="1" y2="595.275" gradientTransform="matrix(727.542 0 0 -727.542 1.6309 433420.6875)">
			<stop  offset="0" style="stop-color:#787777"/>
			<stop  offset="0.2582" style="stop-color:#444544"/>
			<stop  offset="0.9676" style="stop-color:#0C0A0C"/>
			<stop  offset="1" style="stop-color:#090709"/>
		</linearGradient>
		<rect x="0.2" y="217.6" clip-path="url(#SVGID_28_)" fill="url(#SVGID_29_)" width="729" height="231.1"/>
	</g>
	<g clip-path="url(#SVGID_2_)">
		<defs>
			<path id="SVGID_30_" d="M2.2,390.9c-1.5,0.7,31,11.8,97.3,33.2c95.1-23.2,264.6-67.8,511.9-136c33.2-23.6,72.2-50.1,118.3-80.7
				c-18.4-1.1-47.2-5.9-86.2-14.4C407.2,265.6,193.8,331.6,2.2,390.9"/>
		</defs>
		<clipPath id="SVGID_31_">
			<use xlink:href="#SVGID_30_"  overflow="visible"/>
		</clipPath>
		
			<linearGradient id="SVGID_32_" gradientUnits="userSpaceOnUse" x1="0" y1="595.275" x2="1" y2="595.275" gradientTransform="matrix(727.5459 0 0 -727.5459 2.1602 433398.4375)">
			<stop  offset="0" style="stop-color:#787777"/>
			<stop  offset="0.2582" style="stop-color:#444544"/>
			<stop  offset="0.9676" style="stop-color:#0C0A0C"/>
			<stop  offset="1" style="stop-color:#090709"/>
		</linearGradient>
		<rect x="0.7" y="193" clip-path="url(#SVGID_31_)" fill="url(#SVGID_32_)" width="729" height="231.1"/>
	</g>
	<g clip-path="url(#SVGID_2_)">
		<defs>
			<path id="SVGID_33_" d="M559.2,182.1l-23.7,23.9c-3.6,3.6-3.6,6.6,0.1,6.6s9.5-3,13.1-6.6l23.7-23.9c3.6-3.6,3.6-6.6-0.1-6.6
				C568.7,175.5,562.8,178.4,559.2,182.1"/>
		</defs>
		<clipPath id="SVGID_34_">
			<use xlink:href="#SVGID_33_"  overflow="visible"/>
		</clipPath>
		
			<linearGradient id="SVGID_35_" gradientUnits="userSpaceOnUse" x1="0" y1="595.275" x2="1" y2="595.275" gradientTransform="matrix(42.2275 0 0 -42.2275 532.856 25331.0078)">
			<stop  offset="0" style="stop-color:#F2F2F2"/>
			<stop  offset="0.806" style="stop-color:#908F8F"/>
			<stop  offset="1" style="stop-color:#787777"/>
		</linearGradient>
		<rect x="531.9" y="175.5" clip-path="url(#SVGID_34_)" fill="url(#SVGID_35_)" width="44.1" height="37"/>
	</g>
	<g clip-path="url(#SVGID_2_)">
		<defs>
			<path id="SVGID_36_" d="M2.2,368.4c-1.5,0.7,31,11.8,97.3,33.2c95.1-23.2,264.6-67.8,511.9-136c33.2-23.6,72.2-50.1,118.3-80.7
				c-18.4-1.1-47.2-5.9-86.2-14.4C407.2,243.1,193.8,309,2.2,368.4"/>
		</defs>
		<clipPath id="SVGID_37_">
			<use xlink:href="#SVGID_36_"  overflow="visible"/>
		</clipPath>
		
			<linearGradient id="SVGID_38_" gradientUnits="userSpaceOnUse" x1="0" y1="595.275" x2="1" y2="595.275" gradientTransform="matrix(727.5459 0 0 -727.5459 2.1602 433375.9062)">
			<stop  offset="0" style="stop-color:#7D3618"/>
			<stop  offset="0.661" style="stop-color:#4F2512"/>
			<stop  offset="1" style="stop-color:#351B0E"/>
		</linearGradient>
		<rect x="0.7" y="170.5" clip-path="url(#SVGID_37_)" fill="url(#SVGID_38_)" width="729" height="231.1"/>
	</g>
	<g clip-path="url(#SVGID_2_)">
		<defs>
			<rect id="SVGID_39_" width="841.9" height="595.3"/>
		</defs>
		<clipPath id="SVGID_40_">
			<use xlink:href="#SVGID_39_"  overflow="visible"/>
		</clipPath>
		<g clip-path="url(#SVGID_40_)">
			<g>
				<defs>
					<rect id="SVGID_41_" x="279.7" y="170.5" width="450" height="126.3"/>
				</defs>
				<clipPath id="SVGID_42_">
					<use xlink:href="#SVGID_41_"  overflow="visible"/>
				</clipPath>
				<g clip-path="url(#SVGID_42_)">
					<defs>
						<path id="SVGID_43_" d="M279.7,282.6c114.7-35.4,235.9-72.8,363.8-112.1c39.1,8.5,67.8,13.3,86.2,14.4
							c-46.1,30.6-85.1,57.1-118.3,80.7c-38.7,10.7-75.4,20.7-110.3,30.3c-15.2,0.6-30.6,1-46.1,1
							C393.2,296.8,334.1,291.7,279.7,282.6"/>
					</defs>
					<clipPath id="SVGID_44_">
						<use xlink:href="#SVGID_43_"  overflow="visible"/>
					</clipPath>
					
						<linearGradient id="SVGID_45_" gradientUnits="userSpaceOnUse" x1="6.781465e-08" y1="595.275" x2="1" y2="595.275" gradientTransform="matrix(450.0171 0 0 -450.0171 279.689 268117.5312)">
						<stop  offset="0" style="stop-color:#FFFFFF"/>
						<stop  offset="1" style="stop-color:#787777"/>
					</linearGradient>
					<rect x="279.7" y="170.5" clip-path="url(#SVGID_44_)" fill="url(#SVGID_45_)" width="450" height="126.3"/>
				</g>
			</g>
		</g>
	</g>
	<g clip-path="url(#SVGID_2_)">
		<defs>
			<path id="SVGID_46_" d="M553.1,198.3l113.1,29.2c19.5-13.3,40.6-27.5,63.5-42.6c-18.4-1.1-47.2-5.9-86.2-14.4
				C613,179.8,582.8,189.1,553.1,198.3"/>
		</defs>
		<clipPath id="SVGID_47_">
			<use xlink:href="#SVGID_46_"  overflow="visible"/>
		</clipPath>
		
			<linearGradient id="SVGID_48_" gradientUnits="userSpaceOnUse" x1="-1.036801e-06" y1="595.275" x2="1" y2="595.275" gradientTransform="matrix(176.606 0 0 -176.606 553.1001 105328.0781)">
			<stop  offset="0" style="stop-color:#F2F2F2"/>
			<stop  offset="0.806" style="stop-color:#908F8F"/>
			<stop  offset="1" style="stop-color:#787777"/>
		</linearGradient>
		<rect x="553.1" y="170.5" clip-path="url(#SVGID_47_)" fill="url(#SVGID_48_)" width="176.6" height="57"/>
	</g>
	<g clip-path="url(#SVGID_2_)">
		<defs>
			<path id="SVGID_49_" d="M2.2,368.4c-1.5,0.7,31,11.8,97.3,33.2c30.3-7.4,68.1-17,113.6-28.7L99.6,338.2L2.2,368.4z"/>
		</defs>
		<clipPath id="SVGID_50_">
			<use xlink:href="#SVGID_49_"  overflow="visible"/>
		</clipPath>
		
			<linearGradient id="SVGID_51_" gradientUnits="userSpaceOnUse" x1="0" y1="595.275" x2="1" y2="595.275" gradientTransform="matrix(210.9028 0 0 -210.9028 2.1602 125915.0625)">
			<stop  offset="0" style="stop-color:#F2F2F2"/>
			<stop  offset="0.806" style="stop-color:#908F8F"/>
			<stop  offset="1" style="stop-color:#787777"/>
		</linearGradient>
		<rect x="0.7" y="338.2" clip-path="url(#SVGID_50_)" fill="url(#SVGID_51_)" width="212.3" height="63.3"/>
	</g>
	<g clip-path="url(#SVGID_2_)">
		<defs>
			<polygon id="SVGID_52_" points="0,383.8 98.4,419.2 100.6,401.9 2.2,368.4 			"/>
		</defs>
		<clipPath id="SVGID_53_">
			<use xlink:href="#SVGID_52_"  overflow="visible"/>
		</clipPath>
		
			<linearGradient id="SVGID_54_" gradientUnits="userSpaceOnUse" x1="9.094947e-13" y1="595.275" x2="1" y2="595.275" gradientTransform="matrix(100.6099 0 0 -100.6099 0 60284.332)">
			<stop  offset="0" style="stop-color:#F2F2F2"/>
			<stop  offset="0.806" style="stop-color:#908F8F"/>
			<stop  offset="1" style="stop-color:#787777"/>
		</linearGradient>
		<rect y="368.4" clip-path="url(#SVGID_53_)" fill="url(#SVGID_54_)" width="100.6" height="50.9"/>
	</g>
	<g clip-path="url(#SVGID_2_)">
		<defs>
			<path id="SVGID_55_" d="M100.6,401.9l-2.2,17.4l117.2-33.6v-12.7C213.4,372.9,100.6,401.9,100.6,401.9"/>
		</defs>
		<clipPath id="SVGID_56_">
			<use xlink:href="#SVGID_55_"  overflow="visible"/>
		</clipPath>
		
			<linearGradient id="SVGID_57_" gradientUnits="userSpaceOnUse" x1="4.557050e-07" y1="595.275" x2="1" y2="595.275" gradientTransform="matrix(117.1938 0 0 -117.1938 98.3979 70158.6406)">
			<stop  offset="0" style="stop-color:#F2F2F2"/>
			<stop  offset="0.806" style="stop-color:#908F8F"/>
			<stop  offset="1" style="stop-color:#787777"/>
		</linearGradient>
		<rect x="98.4" y="372.9" clip-path="url(#SVGID_56_)" fill="url(#SVGID_57_)" width="117.2" height="46.3"/>
	</g>
	<g clip-path="url(#SVGID_2_)">
		<defs>
			<path id="SVGID_58_" d="M612.5,276.6C612.5,276.6,612.5,276.6,612.5,276.6L612.5,276.6z M215.6,372.8v14.4
				c0,0,395.6-111,396.9-110.6l-1.1-9.9L215.6,372.8z"/>
		</defs>
		<clipPath id="SVGID_59_">
			<use xlink:href="#SVGID_58_"  overflow="visible"/>
		</clipPath>
		
			<linearGradient id="SVGID_60_" gradientUnits="userSpaceOnUse" x1="-1.999040e-06" y1="595.275" x2="1" y2="595.275" gradientTransform="matrix(396.9189 0 0 -396.9189 215.5918 236602.8438)">
			<stop  offset="0" style="stop-color:#B47D4F"/>
			<stop  offset="0" style="stop-color:#BC8455"/>
			<stop  offset="0.5988" style="stop-color:#F2CF8E"/>
			<stop  offset="1" style="stop-color:#F2CF8E"/>
		</linearGradient>
		<rect x="215.6" y="266.7" clip-path="url(#SVGID_59_)" fill="url(#SVGID_60_)" width="396.9" height="120.5"/>
	</g>
	<g clip-path="url(#SVGID_2_)">
		<defs>
			<polygon id="SVGID_61_" points="611.4,266.7 611.9,276.8 729.7,197 729.8,185.2 			"/>
		</defs>
		<clipPath id="SVGID_62_">
			<use xlink:href="#SVGID_61_"  overflow="visible"/>
		</clipPath>
		
			<linearGradient id="SVGID_63_" gradientUnits="userSpaceOnUse" x1="0" y1="595.275" x2="1" y2="595.275" gradientTransform="matrix(118.4019 0 0 -118.4019 611.397 70712.6797)">
			<stop  offset="0" style="stop-color:#B47D4F"/>
			<stop  offset="0" style="stop-color:#BC8455"/>
			<stop  offset="0.5988" style="stop-color:#F2CF8E"/>
			<stop  offset="1" style="stop-color:#F2CF8E"/>
		</linearGradient>
		<rect x="611.4" y="185.2" clip-path="url(#SVGID_62_)" fill="url(#SVGID_63_)" width="118.4" height="91.7"/>
	</g>
	<g clip-path="url(#SVGID_2_)">
		<defs>
			<polygon id="SVGID_64_" points="666.2,227.5 666.4,240.2 729.7,197 729.7,184.8 			"/>
		</defs>
		<clipPath id="SVGID_65_">
			<use xlink:href="#SVGID_64_"  overflow="visible"/>
		</clipPath>
		
			<linearGradient id="SVGID_66_" gradientUnits="userSpaceOnUse" x1="-4.806694e-06" y1="595.275" x2="1" y2="595.275" gradientTransform="matrix(63.4897 0 0 -63.4897 666.2163 38006.3633)">
			<stop  offset="0" style="stop-color:#F2F2F2"/>
			<stop  offset="0.806" style="stop-color:#908F8F"/>
			<stop  offset="1" style="stop-color:#787777"/>
		</linearGradient>
		<rect x="666.2" y="184.8" clip-path="url(#SVGID_65_)" fill="url(#SVGID_66_)" width="63.5" height="55.3"/>
	</g>
	<g clip-path="url(#SVGID_2_)">
		<defs>
			<path id="SVGID_67_" d="M79.5,369.9c0,3.6,8.3,6.5,18.5,6.5c10.2,0,18.5-2.9,18.5-6.5c0-3.6-8.3-6.5-18.5-6.5
				C87.8,363.4,79.5,366.4,79.5,369.9"/>
		</defs>
		<clipPath id="SVGID_68_">
			<use xlink:href="#SVGID_67_"  overflow="visible"/>
		</clipPath>
		
			<linearGradient id="SVGID_69_" gradientUnits="userSpaceOnUse" x1="2.886722e-06" y1="595.275" x2="1" y2="595.275" gradientTransform="matrix(37.001 0 0 -37.001 79.4839 22395.6992)">
			<stop  offset="0" style="stop-color:#F2F2F2"/>
			<stop  offset="0.806" style="stop-color:#908F8F"/>
			<stop  offset="1" style="stop-color:#787777"/>
		</linearGradient>
		<rect x="79.5" y="363.4" clip-path="url(#SVGID_68_)" fill="url(#SVGID_69_)" width="37" height="13"/>
	</g>
	<g clip-path="url(#SVGID_2_)">
		<defs>
			<rect id="SVGID_70_" width="841.9" height="595.3"/>
		</defs>
		<clipPath id="SVGID_71_">
			<use xlink:href="#SVGID_70_"  overflow="visible"/>
		</clipPath>
		<g clip-path="url(#SVGID_71_)">
			<g>
				<defs>
					<rect id="SVGID_72_" x="85.2" y="364.3" width="25.6" height="6.5"/>
				</defs>
				<clipPath id="SVGID_73_">
					<use xlink:href="#SVGID_72_"  overflow="visible"/>
				</clipPath>
				<g clip-path="url(#SVGID_73_)">
					<defs>
						<path id="SVGID_74_" d="M98,370.8c7.1,0,12.8-1.5,12.8-3.3c0-1.8-5.8-3.3-12.8-3.3c-7.1,0-12.8,1.5-12.8,3.3
							C85.2,369.3,90.9,370.8,98,370.8"/>
					</defs>
					<clipPath id="SVGID_75_">
						<use xlink:href="#SVGID_74_"  overflow="visible"/>
					</clipPath>
					
						<linearGradient id="SVGID_76_" gradientUnits="userSpaceOnUse" x1="-9.828168e-06" y1="595.275" x2="1" y2="595.275" gradientTransform="matrix(25.6172 0 0 -25.6172 85.1772 15616.7744)">
						<stop  offset="0" style="stop-color:#FFFFFF"/>
						<stop  offset="1" style="stop-color:#787777"/>
					</linearGradient>
					<rect x="85.2" y="364.3" clip-path="url(#SVGID_75_)" fill="url(#SVGID_76_)" width="25.6" height="6.5"/>
				</g>
			</g>
		</g>
	</g>
	<g clip-path="url(#SVGID_2_)">
		<defs>
			<path id="SVGID_77_" d="M630,194.7c0,3.3,7.6,6,17,6c9.4,0,17-2.7,17-6c0-3.3-7.6-6-17-6C637.6,188.7,630,191.4,630,194.7"/>
		</defs>
		<clipPath id="SVGID_78_">
			<use xlink:href="#SVGID_77_"  overflow="visible"/>
		</clipPath>
		
			<linearGradient id="SVGID_79_" gradientUnits="userSpaceOnUse" x1="-1.615242e-05" y1="595.275" x2="1" y2="595.275" gradientTransform="matrix(34.0083 0 0 -34.0083 629.9775 20439.0195)">
			<stop  offset="0" style="stop-color:#F2F2F2"/>
			<stop  offset="0.806" style="stop-color:#908F8F"/>
			<stop  offset="1" style="stop-color:#787777"/>
		</linearGradient>
		<rect x="630" y="188.7" clip-path="url(#SVGID_78_)" fill="url(#SVGID_79_)" width="34" height="12"/>
	</g>
	<g clip-path="url(#SVGID_2_)">
		<defs>
			<rect id="SVGID_80_" width="841.9" height="595.3"/>
		</defs>
		<clipPath id="SVGID_81_">
			<use xlink:href="#SVGID_80_"  overflow="visible"/>
		</clipPath>
		<g clip-path="url(#SVGID_81_)">
			<g>
				<defs>
					<rect id="SVGID_82_" x="635.2" y="189.5" width="23.5" height="6"/>
				</defs>
				<clipPath id="SVGID_83_">
					<use xlink:href="#SVGID_82_"  overflow="visible"/>
				</clipPath>
				<g clip-path="url(#SVGID_83_)">
					<defs>
						<path id="SVGID_84_" d="M647,195.5c6.5,0,11.8-1.3,11.8-3c0-1.7-5.3-3-11.8-3c-6.5,0-11.8,1.3-11.8,3
							C635.2,194.1,640.5,195.5,647,195.5"/>
					</defs>
					<clipPath id="SVGID_85_">
						<use xlink:href="#SVGID_84_"  overflow="visible"/>
					</clipPath>
					
						<linearGradient id="SVGID_86_" gradientUnits="userSpaceOnUse" x1="-1.814449e-05" y1="595.275" x2="1" y2="595.275" gradientTransform="matrix(23.5469 0 0 -23.5469 635.2124 14209.3516)">
						<stop  offset="0" style="stop-color:#FFFFFF"/>
						<stop  offset="1" style="stop-color:#787777"/>
					</linearGradient>
					<rect x="635.2" y="189.5" clip-path="url(#SVGID_85_)" fill="url(#SVGID_86_)" width="23.5" height="6"/>
				</g>
			</g>
		</g>
	</g>
	<g clip-path="url(#SVGID_2_)">
		<defs>
			<polygon id="SVGID_87_" points="0,430.4 98.4,465.8 99,448.6 1.1,416 			"/>
		</defs>
		<clipPath id="SVGID_88_">
			<use xlink:href="#SVGID_87_"  overflow="visible"/>
		</clipPath>
		
			<linearGradient id="SVGID_89_" gradientUnits="userSpaceOnUse" x1="0" y1="595.275" x2="1" y2="595.275" gradientTransform="matrix(98.9731 0 0 -98.9731 0 59357.1562)">
			<stop  offset="0" style="stop-color:#F2F2F2"/>
			<stop  offset="0.806" style="stop-color:#908F8F"/>
			<stop  offset="1" style="stop-color:#787777"/>
		</linearGradient>
		<rect y="416" clip-path="url(#SVGID_88_)" fill="url(#SVGID_89_)" width="99" height="49.8"/>
	</g>
	<g clip-path="url(#SVGID_2_)">
		<defs>
			<path id="SVGID_90_" d="M99,448.6l-0.6,17.2l117.2-33.6v-12.7C213.4,419.5,99,448.6,99,448.6"/>
		</defs>
		<clipPath id="SVGID_91_">
			<use xlink:href="#SVGID_90_"  overflow="visible"/>
		</clipPath>
		
			<linearGradient id="SVGID_92_" gradientUnits="userSpaceOnUse" x1="4.557050e-07" y1="595.275" x2="1" y2="595.275" gradientTransform="matrix(117.1938 0 0 -117.1938 98.3979 70205.2031)">
			<stop  offset="0" style="stop-color:#F2F2F2"/>
			<stop  offset="0.806" style="stop-color:#908F8F"/>
			<stop  offset="1" style="stop-color:#787777"/>
		</linearGradient>
		<rect x="98.4" y="419.5" clip-path="url(#SVGID_91_)" fill="url(#SVGID_92_)" width="117.2" height="46.3"/>
	</g>
	<g clip-path="url(#SVGID_2_)">
		<defs>
			<path id="SVGID_93_" d="M612.2,322.4C612.2,322.4,612.2,322.4,612.2,322.4L612.2,322.4z M215.3,418.6v14.4
				c0,0,395.6-111,396.9-110.6l-1.1-9.9L215.3,418.6z"/>
		</defs>
		<clipPath id="SVGID_94_">
			<use xlink:href="#SVGID_93_"  overflow="visible"/>
		</clipPath>
		
			<linearGradient id="SVGID_95_" gradientUnits="userSpaceOnUse" x1="-4.997592e-07" y1="595.275" x2="1" y2="595.275" gradientTransform="matrix(396.9189 0 0 -396.9189 215.3252 236648.6094)">
			<stop  offset="0" style="stop-color:#B47D4F"/>
			<stop  offset="0" style="stop-color:#BC8455"/>
			<stop  offset="0.5988" style="stop-color:#F2CF8E"/>
			<stop  offset="1" style="stop-color:#F2CF8E"/>
		</linearGradient>
		<rect x="215.3" y="312.4" clip-path="url(#SVGID_94_)" fill="url(#SVGID_95_)" width="396.9" height="120.5"/>
	</g>
	<g clip-path="url(#SVGID_2_)">
		<defs>
			<polygon id="SVGID_96_" points="610.6,312.9 612.2,322.4 729.4,242.8 729.7,231.4 			"/>
		</defs>
		<clipPath id="SVGID_97_">
			<use xlink:href="#SVGID_96_"  overflow="visible"/>
		</clipPath>
		
			<linearGradient id="SVGID_98_" gradientUnits="userSpaceOnUse" x1="5.123838e-07" y1="595.275" x2="1" y2="595.275" gradientTransform="matrix(119.1201 0 0 -119.1201 610.5859 71186.1172)">
			<stop  offset="0" style="stop-color:#B47D4F"/>
			<stop  offset="0" style="stop-color:#BC8455"/>
			<stop  offset="0.5988" style="stop-color:#F2CF8E"/>
			<stop  offset="1" style="stop-color:#F2CF8E"/>
		</linearGradient>
		<rect x="610.6" y="231.4" clip-path="url(#SVGID_97_)" fill="url(#SVGID_98_)" width="119.1" height="91"/>
	</g>
	<g clip-path="url(#SVGID_2_)">
		<defs>
			<polygon id="SVGID_99_" points="0,406.4 98.4,441.8 100.1,424.1 2.2,390.9 			"/>
		</defs>
		<clipPath id="SVGID_100_">
			<use xlink:href="#SVGID_99_"  overflow="visible"/>
		</clipPath>
		
			<linearGradient id="SVGID_101_" gradientUnits="userSpaceOnUse" x1="0" y1="595.275" x2="1" y2="595.275" gradientTransform="matrix(100.0542 0 0 -100.0542 0 59976.0938)">
			<stop  offset="0" style="stop-color:#F2F2F2"/>
			<stop  offset="0.806" style="stop-color:#908F8F"/>
			<stop  offset="1" style="stop-color:#787777"/>
		</linearGradient>
		<rect y="390.9" clip-path="url(#SVGID_100_)" fill="url(#SVGID_101_)" width="100.1" height="50.9"/>
	</g>
	<g clip-path="url(#SVGID_2_)">
		<defs>
			<path id="SVGID_102_" d="M100.6,424.4l-2.2,17.4l117.2-33.6v-12.7C213.4,395.4,100.6,424.4,100.6,424.4"/>
		</defs>
		<clipPath id="SVGID_103_">
			<use xlink:href="#SVGID_102_"  overflow="visible"/>
		</clipPath>
		
			<linearGradient id="SVGID_104_" gradientUnits="userSpaceOnUse" x1="4.557050e-07" y1="595.275" x2="1" y2="595.275" gradientTransform="matrix(117.1938 0 0 -117.1938 98.3979 70181.1719)">
			<stop  offset="0" style="stop-color:#F2F2F2"/>
			<stop  offset="0.806" style="stop-color:#908F8F"/>
			<stop  offset="1" style="stop-color:#787777"/>
		</linearGradient>
		<rect x="98.4" y="395.4" clip-path="url(#SVGID_103_)" fill="url(#SVGID_104_)" width="117.2" height="46.3"/>
	</g>
	<g clip-path="url(#SVGID_2_)">
		<defs>
			<path id="SVGID_105_" d="M612.5,299.1C612.5,299.1,612.5,299.1,612.5,299.1L612.5,299.1z M215.6,395.3v14.4
				c0,0,395.6-111,396.9-110.6l-1.1-9.9L215.6,395.3z"/>
		</defs>
		<clipPath id="SVGID_106_">
			<use xlink:href="#SVGID_105_"  overflow="visible"/>
		</clipPath>
		
			<linearGradient id="SVGID_107_" gradientUnits="userSpaceOnUse" x1="-1.999040e-06" y1="595.275" x2="1" y2="595.275" gradientTransform="matrix(396.9189 0 0 -396.9189 215.5918 236625.375)">
			<stop  offset="0" style="stop-color:#B47D4F"/>
			<stop  offset="0" style="stop-color:#BC8455"/>
			<stop  offset="0.5988" style="stop-color:#F2CF8E"/>
			<stop  offset="1" style="stop-color:#F2CF8E"/>
		</linearGradient>
		<rect x="215.6" y="289.2" clip-path="url(#SVGID_106_)" fill="url(#SVGID_107_)" width="396.9" height="120.5"/>
	</g>
	<g clip-path="url(#SVGID_2_)">
		<defs>
			<polygon id="SVGID_108_" points="611.4,288.1 612.2,299.9 729.7,219.5 729.7,207.4 			"/>
		</defs>
		<clipPath id="SVGID_109_">
			<use xlink:href="#SVGID_108_"  overflow="visible"/>
		</clipPath>
		
			<linearGradient id="SVGID_110_" gradientUnits="userSpaceOnUse" x1="-9.094947e-13" y1="595.275" x2="1" y2="595.275" gradientTransform="matrix(118.3091 0 0 -118.3091 611.397 70680.0859)">
			<stop  offset="0" style="stop-color:#B47D4F"/>
			<stop  offset="0" style="stop-color:#BC8455"/>
			<stop  offset="0.5988" style="stop-color:#F2CF8E"/>
			<stop  offset="1" style="stop-color:#F2CF8E"/>
		</linearGradient>
		<rect x="611.4" y="207.4" clip-path="url(#SVGID_109_)" fill="url(#SVGID_110_)" width="118.3" height="92.5"/>
	</g>
	<g clip-path="url(#SVGID_2_)">
		<defs>
			<polygon id="SVGID_111_" points="121.2,415.1 423.6,353.2 467,317.3 			"/>
		</defs>
		<clipPath id="SVGID_112_">
			<use xlink:href="#SVGID_111_"  overflow="visible"/>
		</clipPath>
		
			<linearGradient id="SVGID_113_" gradientUnits="userSpaceOnUse" x1="2.316407e-06" y1="595.275" x2="1" y2="595.275" gradientTransform="matrix(345.8315 0 0 -345.8315 121.1792 206231.0469)">
			<stop  offset="0" style="stop-color:#F2F2F2"/>
			<stop  offset="0.806" style="stop-color:#908F8F"/>
			<stop  offset="1" style="stop-color:#787777"/>
		</linearGradient>
		<rect x="121.2" y="317.3" clip-path="url(#SVGID_112_)" fill="url(#SVGID_113_)" width="345.8" height="97.8"/>
	</g>
	<g clip-path="url(#SVGID_2_)">
		<defs>
			<polygon id="SVGID_114_" points="423.6,352.7 425.1,361.2 467.5,324.8 467,317.3 			"/>
		</defs>
		<clipPath id="SVGID_115_">
			<use xlink:href="#SVGID_114_"  overflow="visible"/>
		</clipPath>
		
			<linearGradient id="SVGID_116_" gradientUnits="userSpaceOnUse" x1="-4.169167e-06" y1="595.275" x2="1" y2="595.275" gradientTransform="matrix(43.9189 0 0 -43.9189 423.5962 26483.0723)">
			<stop  offset="0" style="stop-color:#F2F2F2"/>
			<stop  offset="0.806" style="stop-color:#908F8F"/>
			<stop  offset="1" style="stop-color:#787777"/>
		</linearGradient>
		<rect x="423.6" y="317.3" clip-path="url(#SVGID_115_)" fill="url(#SVGID_116_)" width="43.9" height="43.9"/>
	</g>
	<g clip-path="url(#SVGID_2_)">
		<defs>
			<polygon id="SVGID_117_" points="121.7,415.6 124.2,421.6 425.1,361.2 422.6,352.7 			"/>
		</defs>
		<clipPath id="SVGID_118_">
			<use xlink:href="#SVGID_117_"  overflow="visible"/>
		</clipPath>
		
			<linearGradient id="SVGID_119_" gradientUnits="userSpaceOnUse" x1="-2.439050e-06" y1="595.275" x2="1" y2="595.275" gradientTransform="matrix(303.418 0 0 -303.418 121.6777 181004.2656)">
			<stop  offset="0" style="stop-color:#F2F2F2"/>
			<stop  offset="0.806" style="stop-color:#908F8F"/>
			<stop  offset="1" style="stop-color:#787777"/>
		</linearGradient>
		<rect x="121.7" y="352.7" clip-path="url(#SVGID_118_)" fill="url(#SVGID_119_)" width="303.4" height="68.9"/>
	</g>
	<g clip-path="url(#SVGID_2_)">
		<defs>
			<path id="SVGID_120_" d="M121.2,439c0,1,0.5,7,0.5,7l490.6-5l-0.5-8.5L121.2,439z"/>
		</defs>
		<clipPath id="SVGID_121_">
			<use xlink:href="#SVGID_120_"  overflow="visible"/>
		</clipPath>
		
			<linearGradient id="SVGID_122_" gradientUnits="userSpaceOnUse" x1="1.631370e-06" y1="595.275" x2="1" y2="595.275" gradientTransform="matrix(491.0513 0 0 -491.0513 121.1792 292749.8438)">
			<stop  offset="0" style="stop-color:#F2F2F2"/>
			<stop  offset="0.806" style="stop-color:#908F8F"/>
			<stop  offset="1" style="stop-color:#787777"/>
		</linearGradient>
		<rect x="121.2" y="432.5" clip-path="url(#SVGID_121_)" fill="url(#SVGID_122_)" width="491" height="13.5"/>
	</g>
	<g clip-path="url(#SVGID_2_)">
		<defs>
			<path id="SVGID_123_" d="M668.9,377.4c-100.1,14.4-231.2,22-394.4,22.9c-62.7,17.2-113.5,29.6-152.4,37.5
				c154.3-0.6,318-3,490.3-5.7c51.9-28.2,112.6-41.5,182.9-41.3c-17.3-9.7-47.6-14.2-91.3-14.2C693.2,376.6,681.5,376.9,668.9,377.4
				"/>
		</defs>
		<clipPath id="SVGID_124_">
			<use xlink:href="#SVGID_123_"  overflow="visible"/>
		</clipPath>
		
			<linearGradient id="SVGID_125_" gradientUnits="userSpaceOnUse" x1="4.116373e-09" y1="595.275" x2="1" y2="595.275" gradientTransform="matrix(-673.2476 6.100000e-05 6.100000e-05 673.2476 795.2967 -400360.2812)">
			<stop  offset="0" style="stop-color:#F2F2F2"/>
			<stop  offset="0.806" style="stop-color:#908F8F"/>
			<stop  offset="1" style="stop-color:#787777"/>
		</linearGradient>
		<rect x="122.1" y="376.6" clip-path="url(#SVGID_124_)" fill="url(#SVGID_125_)" width="673.2" height="61.2"/>
	</g>
	<g clip-path="url(#SVGID_2_)">
		<defs>
			<path id="SVGID_126_" d="M612.4,433.3c0,4,0,6.8,0.6,7.6c66.1-30.9,127.9-45.7,185.5-44.5c-1.5-2.1-2.5-4.2-3.8-6.4
				C723.3,390.1,662.6,404.5,612.4,433.3"/>
		</defs>
		<clipPath id="SVGID_127_">
			<use xlink:href="#SVGID_126_"  overflow="visible"/>
		</clipPath>
		
			<linearGradient id="SVGID_128_" gradientUnits="userSpaceOnUse" x1="-3.279820e-07" y1="595.275" x2="1" y2="595.275" gradientTransform="matrix(186.0933 0 0 -186.0933 612.415 111192.2031)">
			<stop  offset="0" style="stop-color:#F2F2F2"/>
			<stop  offset="0.806" style="stop-color:#908F8F"/>
			<stop  offset="1" style="stop-color:#787777"/>
		</linearGradient>
		<rect x="612.4" y="390.1" clip-path="url(#SVGID_127_)" fill="url(#SVGID_128_)" width="186.1" height="50.8"/>
	</g>
	<g clip-path="url(#SVGID_2_)">
		<defs>
			<rect id="SVGID_129_" width="841.9" height="595.3"/>
		</defs>
		<clipPath id="SVGID_130_">
			<use xlink:href="#SVGID_129_"  overflow="visible"/>
		</clipPath>
		<g clip-path="url(#SVGID_130_)">
			<g>
				<defs>
					<rect id="SVGID_131_" x="356.5" y="389" width="400.1" height="45.6"/>
				</defs>
				<clipPath id="SVGID_132_">
					<use xlink:href="#SVGID_131_"  overflow="visible"/>
				</clipPath>
				<g clip-path="url(#SVGID_132_)">
					<defs>
						<path id="SVGID_133_" d="M611.8,428.9c40.6-22.7,88.9-35.6,144.8-38.7c-166.4-5.5-299.6,9.1-400.1,44.5
							C534.5,431.4,619.8,429.7,611.8,428.9"/>
					</defs>
					<clipPath id="SVGID_134_">
						<use xlink:href="#SVGID_133_"  overflow="visible"/>
					</clipPath>
					
						<linearGradient id="SVGID_135_" gradientUnits="userSpaceOnUse" x1="-3.050736e-07" y1="595.2805" x2="1" y2="595.2805" gradientTransform="matrix(400.1338 0 0 -400.1338 356.4531 238601.4375)">
						<stop  offset="0" style="stop-color:#FFFFFF"/>
						<stop  offset="1" style="stop-color:#787777"/>
					</linearGradient>
					<rect x="356.5" y="384.6" clip-path="url(#SVGID_134_)" fill="url(#SVGID_135_)" width="400.1" height="50"/>
				</g>
			</g>
		</g>
	</g>
	<g clip-path="url(#SVGID_2_)">
		<defs>
			<path id="SVGID_136_" d="M521.2,422.6c-1.1,0-2.3,0-3.5-0.1C518.9,422.5,520.1,422.6,521.2,422.6 M521.2,422.6
				c66.6,1.2,95.5,1.6,86.7,1.2c10.4-6.8,23.3-12.5,40-17.8C609.8,417.2,568.1,423.3,521.2,422.6"/>
		</defs>
		<clipPath id="SVGID_137_">
			<use xlink:href="#SVGID_136_"  overflow="visible"/>
		</clipPath>
		
			<linearGradient id="SVGID_138_" gradientUnits="userSpaceOnUse" x1="-3.281369e-06" y1="595.274" x2="1" y2="595.274" gradientTransform="matrix(130.2036 0 0 -130.2036 517.7773 77921.9375)">
			<stop  offset="0" style="stop-color:#F2F2F2"/>
			<stop  offset="0.806" style="stop-color:#908F8F"/>
			<stop  offset="1" style="stop-color:#787777"/>
		</linearGradient>
		<rect x="517.8" y="406" clip-path="url(#SVGID_137_)" fill="url(#SVGID_138_)" width="130.2" height="18.2"/>
	</g>
	<g clip-path="url(#SVGID_2_)">
		<defs>
			<rect id="SVGID_139_" width="841.9" height="595.3"/>
		</defs>
		<clipPath id="SVGID_140_">
			<use xlink:href="#SVGID_139_"  overflow="visible"/>
		</clipPath>
		<g clip-path="url(#SVGID_140_)">
			<g>
				<defs>
					<rect id="SVGID_141_" x="348.2" y="333" width="79.4" height="24.1"/>
				</defs>
				<clipPath id="SVGID_142_">
					<use xlink:href="#SVGID_141_"  overflow="visible"/>
				</clipPath>
				<g clip-path="url(#SVGID_142_)">
					<defs>
						<path id="SVGID_143_" d="M348.2,357.1c37.5-4.9,56.7-7.6,57.8-8.3c8-5.7,15.2-10.8,21.6-15.9
							C413.6,342.5,386.9,351,348.2,357.1"/>
					</defs>
					<clipPath id="SVGID_144_">
						<use xlink:href="#SVGID_143_"  overflow="visible"/>
					</clipPath>
					
						<linearGradient id="SVGID_145_" gradientUnits="userSpaceOnUse" x1="-3.459792e-06" y1="595.275" x2="1" y2="595.275" gradientTransform="matrix(79.3857 0 0 -79.3857 348.1982 47601.3828)">
						<stop  offset="0" style="stop-color:#FFFFFF"/>
						<stop  offset="1" style="stop-color:#787777"/>
					</linearGradient>
					<rect x="348.2" y="333" clip-path="url(#SVGID_144_)" fill="url(#SVGID_145_)" width="79.4" height="24.1"/>
				</g>
			</g>
		</g>
		<g clip-path="url(#SVGID_140_)">
			<g>
				<defs>
					<rect id="SVGID_146_" x="691.9" y="152.9" width="36.1" height="27.8"/>
				</defs>
				<clipPath id="SVGID_147_">
					<use xlink:href="#SVGID_146_"  overflow="visible"/>
				</clipPath>
				<g clip-path="url(#SVGID_147_)">
					<defs>
						<path id="SVGID_148_" d="M715.3,178.2c-6.1-8-1.9-16.4,12.6-25.4c-33.2,8.7-43.4,17.5-30.9,26.1
							C706.4,181.3,712.4,181.3,715.3,178.2"/>
					</defs>
					<clipPath id="SVGID_149_">
						<use xlink:href="#SVGID_148_"  overflow="visible"/>
					</clipPath>
					
						<linearGradient id="SVGID_150_" gradientUnits="userSpaceOnUse" x1="0" y1="595.2658" x2="1" y2="595.2658" gradientTransform="matrix(36.0835 0 0 -36.0835 691.9087 21646.3633)">
						<stop  offset="0" style="stop-color:#FFFFFF"/>
						<stop  offset="1" style="stop-color:#787777"/>
					</linearGradient>
					<rect x="684.6" y="152.9" clip-path="url(#SVGID_149_)" fill="url(#SVGID_150_)" width="43.4" height="28.4"/>
				</g>
			</g>
		</g>
	</g>
	<g clip-path="url(#SVGID_2_)">
		<defs>
			<path id="SVGID_151_" d="M350.5,192.4l-23.7,23.9c-3.6,3.6-3.6,6.6,0.1,6.6c3.6,0,9.5-3,13.1-6.6l23.7-23.9
				c3.6-3.6,3.6-6.6-0.1-6.6C360,185.8,354.1,188.7,350.5,192.4"/>
		</defs>
		<clipPath id="SVGID_152_">
			<use xlink:href="#SVGID_151_"  overflow="visible"/>
		</clipPath>
		
			<linearGradient id="SVGID_153_" gradientUnits="userSpaceOnUse" x1="0" y1="595.275" x2="1" y2="595.275" gradientTransform="matrix(42.2295 0 0 -42.2295 324.1411 25342.4629)">
			<stop  offset="0" style="stop-color:#F2F2F2"/>
			<stop  offset="0.806" style="stop-color:#908F8F"/>
			<stop  offset="1" style="stop-color:#787777"/>
		</linearGradient>
		<rect x="323.2" y="185.8" clip-path="url(#SVGID_152_)" fill="url(#SVGID_153_)" width="44.1" height="37"/>
	</g>
	<g clip-path="url(#SVGID_2_)">
		<defs>
			<path id="SVGID_154_" d="M390.9,192.4l-23.7,23.9c-3.6,3.6-3.6,6.6,0.1,6.6c3.6,0,9.5-3,13.1-6.6l23.7-23.9
				c3.6-3.6,3.6-6.6-0.1-6.6C400.4,185.8,394.5,188.7,390.9,192.4"/>
		</defs>
		<clipPath id="SVGID_155_">
			<use xlink:href="#SVGID_154_"  overflow="visible"/>
		</clipPath>
		
			<linearGradient id="SVGID_156_" gradientUnits="userSpaceOnUse" x1="0" y1="595.275" x2="1" y2="595.275" gradientTransform="matrix(42.2256 0 0 -42.2256 364.4863 25340.1387)">
			<stop  offset="0" style="stop-color:#F2F2F2"/>
			<stop  offset="0.806" style="stop-color:#908F8F"/>
			<stop  offset="1" style="stop-color:#787777"/>
		</linearGradient>
		<rect x="363.6" y="185.8" clip-path="url(#SVGID_155_)" fill="url(#SVGID_156_)" width="44.1" height="37"/>
	</g>
	<g clip-path="url(#SVGID_2_)">
		<defs>
			<path id="SVGID_157_" d="M431.2,192.4l-23.7,23.9c-3.6,3.6-3.6,6.6,0,6.6c3.6,0,9.5-3,13.1-6.6l23.7-23.9c3.6-3.6,3.6-6.6,0-6.6
				C440.7,185.8,434.8,188.7,431.2,192.4"/>
		</defs>
		<clipPath id="SVGID_158_">
			<use xlink:href="#SVGID_157_"  overflow="visible"/>
		</clipPath>
		
			<linearGradient id="SVGID_159_" gradientUnits="userSpaceOnUse" x1="0" y1="595.275" x2="1" y2="595.275" gradientTransform="matrix(42.2295 0 0 -42.2295 404.8276 25342.4629)">
			<stop  offset="0" style="stop-color:#F2F2F2"/>
			<stop  offset="0.806" style="stop-color:#908F8F"/>
			<stop  offset="1" style="stop-color:#787777"/>
		</linearGradient>
		<rect x="403.9" y="185.8" clip-path="url(#SVGID_158_)" fill="url(#SVGID_159_)" width="44.1" height="37"/>
	</g>
	<g clip-path="url(#SVGID_2_)">
		<defs>
			<path id="SVGID_160_" d="M471.5,192.4l-23.7,23.9c-3.6,3.6-3.6,6.6,0.1,6.6c3.6,0,9.5-3,13.1-6.6l23.7-23.9
				c3.6-3.6,3.6-6.6,0-6.6C481,185.8,475.1,188.7,471.5,192.4"/>
		</defs>
		<clipPath id="SVGID_161_">
			<use xlink:href="#SVGID_160_"  overflow="visible"/>
		</clipPath>
		
			<linearGradient id="SVGID_162_" gradientUnits="userSpaceOnUse" x1="0" y1="595.275" x2="1" y2="595.275" gradientTransform="matrix(42.2305 0 0 -42.2305 445.1694 25343.0449)">
			<stop  offset="0" style="stop-color:#F2F2F2"/>
			<stop  offset="0.806" style="stop-color:#908F8F"/>
			<stop  offset="1" style="stop-color:#787777"/>
		</linearGradient>
		<rect x="444.3" y="185.8" clip-path="url(#SVGID_161_)" fill="url(#SVGID_162_)" width="44.1" height="37"/>
	</g>
	<g clip-path="url(#SVGID_2_)">
		<defs>
			<path id="SVGID_163_" d="M519.3,183.7l-23.7,23.9c-3.6,3.6-3.6,6.6,0.1,6.6c3.6,0,9.5-3,13.1-6.6l23.7-23.9
				c3.6-3.6,3.6-6.6-0.1-6.6C528.8,177.1,522.9,180.1,519.3,183.7"/>
		</defs>
		<clipPath id="SVGID_164_">
			<use xlink:href="#SVGID_163_"  overflow="visible"/>
		</clipPath>
		
			<linearGradient id="SVGID_165_" gradientUnits="userSpaceOnUse" x1="0" y1="595.275" x2="1" y2="595.275" gradientTransform="matrix(42.2256 0 0 -42.2256 492.9248 25331.4922)">
			<stop  offset="0" style="stop-color:#F2F2F2"/>
			<stop  offset="0.806" style="stop-color:#908F8F"/>
			<stop  offset="1" style="stop-color:#787777"/>
		</linearGradient>
		<rect x="492" y="177.1" clip-path="url(#SVGID_164_)" fill="url(#SVGID_165_)" width="44.1" height="37.1"/>
	</g>
	<g clip-path="url(#SVGID_2_)">
		<defs>
			<rect id="SVGID_166_" width="841.9" height="595.3"/>
		</defs>
		<clipPath id="SVGID_167_">
			<use xlink:href="#SVGID_166_"  overflow="visible"/>
		</clipPath>
		<g clip-path="url(#SVGID_167_)">
			<g>
				<defs>
					<rect id="SVGID_168_" x="213.5" y="185.1" width="497.9" height="178"/>
				</defs>
				<clipPath id="SVGID_169_">
					<use xlink:href="#SVGID_168_"  overflow="visible"/>
				</clipPath>
				<g clip-path="url(#SVGID_169_)">
					<defs>
						<path id="SVGID_170_" d="M213.6,363.2l389.3-105.6l108.6-72.4l-104.1,81.5C607.4,266.6,212,363.2,213.6,363.2"/>
					</defs>
					<clipPath id="SVGID_171_">
						<use xlink:href="#SVGID_170_"  overflow="visible"/>
					</clipPath>
					
						<linearGradient id="SVGID_172_" gradientUnits="userSpaceOnUse" x1="0" y1="595.275" x2="1" y2="595.275" gradientTransform="matrix(497.9326 0 0 -497.9326 213.5503 296680.9688)">
						<stop  offset="0" style="stop-color:#FFFFFF"/>
						<stop  offset="1" style="stop-color:#787777"/>
					</linearGradient>
					<rect x="212" y="185.1" clip-path="url(#SVGID_171_)" fill="url(#SVGID_172_)" width="499.4" height="178"/>
				</g>
			</g>
		</g>
	</g>
	<g clip-path="url(#SVGID_2_)">
		<defs>
			<polygon id="SVGID_173_" points="666.2,250.1 666.4,262.8 729.7,219.6 729.7,207.5 			"/>
		</defs>
		<clipPath id="SVGID_174_">
			<use xlink:href="#SVGID_173_"  overflow="visible"/>
		</clipPath>
		
			<linearGradient id="SVGID_175_" gradientUnits="userSpaceOnUse" x1="-4.806694e-06" y1="595.275" x2="1" y2="595.275" gradientTransform="matrix(63.4897 0 0 -63.4897 666.2163 38028.9883)">
			<stop  offset="0" style="stop-color:#F2F2F2"/>
			<stop  offset="0.806" style="stop-color:#908F8F"/>
			<stop  offset="1" style="stop-color:#787777"/>
		</linearGradient>
		<rect x="666.2" y="207.5" clip-path="url(#SVGID_174_)" fill="url(#SVGID_175_)" width="63.5" height="55.3"/>
	</g>
	<g clip-path="url(#SVGID_2_)">
		<defs>
			<polygon id="SVGID_176_" points="665.9,274.4 666.1,287.1 729.4,243.9 729.4,231.7 			"/>
		</defs>
		<clipPath id="SVGID_177_">
			<use xlink:href="#SVGID_176_"  overflow="visible"/>
		</clipPath>
		
			<linearGradient id="SVGID_178_" gradientUnits="userSpaceOnUse" x1="-6.729217e-06" y1="595.275" x2="1" y2="595.275" gradientTransform="matrix(63.4912 0 0 -63.4912 665.8794 38054.1289)">
			<stop  offset="0" style="stop-color:#F2F2F2"/>
			<stop  offset="0.806" style="stop-color:#908F8F"/>
			<stop  offset="1" style="stop-color:#787777"/>
		</linearGradient>
		<rect x="665.9" y="231.7" clip-path="url(#SVGID_177_)" fill="url(#SVGID_178_)" width="63.5" height="55.3"/>
	</g>
</g>
</svg>
