<?xml version="1.0" encoding="utf-8"?>
<!-- Generator: Adobe Illustrator 14.0.0, SVG Export Plug-In . SVG Version: 6.00 Build 43363)  -->
<!DOCTYPE svg PUBLIC "-//W3C//DTD SVG 1.1//EN" "http://www.w3.org/Graphics/SVG/1.1/DTD/svg11.dtd">
<svg version="1.1" id="Layer_1" xmlns="http://www.w3.org/2000/svg" xmlns:xlink="http://www.w3.org/1999/xlink" x="0px" y="0px"
	 width="200px" height="250px" viewBox="0 0 200 250" enable-background="new 0 0 200 250" xml:space="preserve">
<radialGradient id="SVGID_1_" cx="100.0664" cy="123.9639" r="172.8867" gradientTransform="matrix(0.9259 0 0 1.0256 7.3511 -2.1349)" gradientUnits="userSpaceOnUse">
	<stop  offset="0.7697" style="stop-color:#FFFFFF"/>
	<stop  offset="1" style="stop-color:#EDEDED"/>
</radialGradient>
<rect fill-rule="evenodd" clip-rule="evenodd" fill="url(#SVGID_1_)" width="200" height="250"/>
<g>
	<path fill-rule="evenodd" clip-rule="evenodd" fill="#E5E5E5" d="M109.354,215.004c0.468,0.403,0.716,0.823,0.716,1.254
		c0,3.203-13.641,5.802-30.46,5.802s-30.46-2.599-30.46-5.802c0-3.093,12.709-5.621,28.719-5.793
		c-0.081-0.14-0.124-0.281-0.124-0.424c0-2.746,15.125-4.973,33.775-4.973s33.775,2.227,33.775,4.973s-15.125,4.973-33.775,4.973
		C110.792,215.014,110.07,215.011,109.354,215.004z"/>
	<path fill-rule="evenodd" clip-rule="evenodd" d="M147.963,174.654c0.463,8.057,1.646,22.086-4.018,30.754
		c-4.302,6.584-11.027,7.682-18.419,7.472c-5.974-0.169-13.96-2.636-19.741-4.022c-3.971,9.432-7.24,11.354-16.771,11.563
		c-8.431,0.186-21.885-0.988-29.856-3.51c-5.443-1.723-7.975-3.705-9.875-9.27c-2.643-7.742-1.811-15.83,0.565-23.561
		c-9.339-2.712-22.712-11.093-20.152-22.584c6.055-22.512,20.991-38.757,42.518-48.408l0.553-0.124
		c16.712-0.317,33.409,0.796,50.121,0.479l0.729,0.186c12.736,7.263,32.462,28.461,33.011,44.508
		C156.313,163.62,152.665,171.333,147.963,174.654L147.963,174.654z M145.946,175.137L145.946,175.137
		c-0.104-10.054-5.896-27.385-13.381-34.208c11.867,6.247,14.788,26.604,15.127,32.063c2.33-2.21,4.707-6.391,5.918-14.487
		c-0.347-10.131-12.279-33.145-30.696-43.646c-16.866,0.32-33.253-0.799-50.12-0.479c-22.233,9.967-34.203,26.644-39.809,47.482
		c-1.949,10.94,8.503,18.572,18.042,21.071c5.005,1.103,14.601,0.7,14.881-5.633c0.521-11.792,0.563-23.344,7.225-35.443
		c-2.511,6.339-3.521,14.446-3.916,18.09c-0.674,6.207-0.513,12.391-0.778,18.372c-0.321,7.23-11.068,7.326-17.211,6.098
		c-2.316,7.481-2.198,14.962,0.357,22.444c1.704,4.99,3.462,6.097,8.641,7.735c10.742,3.399,28.849,4.519,36.406,2.354
		c4.164-1.193,6.218-5.606,7.71-9.443c2.905-7.596,4.599-15.757,5.705-23.794c0.676,6.433-2.307,19.764-3.637,23.772
		c5.136,1.212,10.838,2.203,16.916,2.376c9.418,0.268,14.71,0.037,18.152-5.229C146.914,196.313,146.088,184.664,145.946,175.137z"
		/>
	<path fill-rule="evenodd" clip-rule="evenodd" fill="#FFFFFF" d="M106.411,207.487c5.136,1.212,10.838,2.203,16.916,2.376
		c9.418,0.268,14.71,0.037,18.152-5.229c5.436-8.321,4.609-19.97,4.468-29.497l0,0c-0.104-10.054-5.896-27.385-13.381-34.208
		c11.867,6.247,14.788,26.604,15.127,32.063c2.33-2.21,4.707-6.391,5.918-14.487c-0.347-10.131-12.279-33.145-30.696-43.646
		c-16.866,0.32-33.253-0.799-50.12-0.479c-22.233,9.967-34.203,26.644-39.809,47.482c-1.949,10.94,8.503,18.572,18.042,21.071
		c5.005,1.103,14.601,0.7,14.881-5.633c0.521-11.792,0.563-23.344,7.225-35.443c-2.511,6.339-3.521,14.446-3.916,18.09
		c-0.674,6.207-0.513,12.391-0.778,18.372c-0.321,7.23-11.068,7.326-17.211,6.098c-2.316,7.481-2.198,14.962,0.357,22.444
		c1.704,4.99,3.462,6.097,8.641,7.735c10.742,3.399,28.849,4.519,36.406,2.354c4.164-1.193,6.218-5.606,7.71-9.443
		c2.905-7.596,4.599-15.757,5.705-23.794C110.724,190.148,107.741,203.479,106.411,207.487z"/>
	<path fill-rule="evenodd" clip-rule="evenodd" fill="#E5E5E5" d="M106.411,207.486c1.043,0.246,2.109,0.483,3.198,0.707l0,0
		c0.502,0.103,1.009,0.203,1.521,0.299l0,0l0.256,0.048v0.001l0.257,0.047l0,0l0.517,0.092v0.001l0.258,0.045l0,0l0.261,0.045l0,0
		l0.26,0.044l0,0l0.262,0.043v0.001l0.262,0.042l0,0l0.263,0.043l0,0l0.264,0.041l0,0l0.264,0.04v0.001l0.265,0.039l0,0l0.266,0.039
		l0,0l0.266,0.039l0,0l0.267,0.037h0.001l0.267,0.037l0.269,0.035l0,0l0.269,0.035l0,0l0.27,0.034l0,0l0.271,0.034l0.271,0.031
		v0.001l0.271,0.031l0.271,0.03h0.001l0.271,0.03h0.001l0.273,0.028l0.273,0.028l0,0l0.274,0.027l0.275,0.026l0.275,0.024
		l0.277,0.024l0,0l0.276,0.022l0.278,0.022l0.278,0.021l0.278,0.02l0.279,0.019l0,0c0.373,0.024,0.748,0.046,1.124,0.064l0,0
		l0.282,0.013v0.001l0.283,0.013l0.283,0.01l0.284,0.01l0.284,0.01c9.418,0.268,14.71,0.037,18.152-5.229
		c0.173-0.265,0.339-0.534,0.5-0.806l0.066-0.113c0.056-0.098,0.112-0.194,0.168-0.291l0.088-0.161l0.139-0.254l0.09-0.171
		c0.042-0.08,0.085-0.16,0.126-0.241l0.102-0.206l0.107-0.216l0.101-0.214l0.098-0.207l0.114-0.252l0.074-0.168l0.098-0.229
		l0.098-0.23l0.072-0.18l0.099-0.246l0.091-0.234l0.073-0.193l0.091-0.248l0.073-0.207l0.082-0.236l0.071-0.209l0.072-0.221
		l0.079-0.246l0.063-0.206l0.075-0.251l0.057-0.193l0.073-0.256l0.063-0.225l0.065-0.246l0.05-0.189l0.072-0.288l0.045-0.185
		l0.064-0.271l0.045-0.194l0.064-0.291l0.038-0.179l0.061-0.289l0.037-0.184l0.056-0.284l0.037-0.2l0.049-0.265l0.038-0.219
		l0.05-0.294l0.025-0.155l0.058-0.367l0.017-0.107l0.055-0.379l0.016-0.11l0.047-0.346l0.02-0.152l0.046-0.372l0.012-0.098
		l0.044-0.388l0.013-0.111l0.046-0.445l0.003-0.029l0.04-0.424l0.008-0.08l0.03-0.358l0.011-0.125l0.004-0.046l0.034-0.451
		c0.036-0.494,0.065-0.989,0.091-1.485v-0.009l0.022-0.476l0.001-0.023l0.02-0.499l0.016-0.449l0.001-0.05
		c0.025-0.823,0.038-1.647,0.043-2.467v-0.087c0.005-0.972-0.003-1.939-0.016-2.897l-0.004-0.278l-0.004-0.21l-0.004-0.263
		l-0.004-0.224c-0.016-0.87-0.034-1.731-0.052-2.58l-0.007-0.295l-0.003-0.164l-0.007-0.306l0.001,0.023
		c-0.057,6.831-1.138,13.119-3.246,18.053c-5.059,11.834-27.397,13.389-33.576,0.817c-0.133,0.781-0.272,1.557-0.418,2.319
		l-0.044,0.229c-0.322,1.67-0.668,3.268-1.004,4.693l-0.046,0.193c-0.122,0.513-0.243,1.001-0.36,1.462l-0.044,0.171l-0.044,0.169
		l-0.043,0.166l-0.043,0.163l-0.042,0.16l-0.007,0.028l-0.035,0.129c-0.098,0.363-0.193,0.702-0.284,1.014l-0.039,0.132l-0.02,0.068
		l-0.018,0.06l-0.038,0.125l-0.037,0.121l-0.036,0.118l-0.009,0.029l-0.026,0.084l-0.035,0.109l-0.005,0.016l-0.03,0.092
		L106.411,207.486L106.411,207.486z M145.971,176.49c-0.009-0.455-0.018-0.906-0.024-1.353
		C145.953,175.584,145.962,176.035,145.971,176.49L145.971,176.49z M147.692,172.993l0.109-0.105l0.002-0.002l0.071-0.071
		l0.036-0.036l0.053-0.053l0.022-0.023l0.081-0.083l0.053-0.055l0.01-0.01l0.108-0.117l0.001,0l0.128-0.142l0.035-0.039l0.08-0.091
		l0.053-0.061l0.106-0.126l0.011-0.012l0.131-0.161l0.002-0.002l0.124-0.156l0.036-0.047l0.087-0.113l0.054-0.07l0.059-0.079
		l0.066-0.09l0.005-0.007l0.107-0.15l0.004-0.006l0.103-0.148l0.01-0.014l0.056-0.083l0.078-0.116l0.045-0.068l0.06-0.092
		l0.069-0.109l0.001-0.001l0.105-0.168l0.007-0.01l0.098-0.162l0.008-0.014l0.075-0.126l0.039-0.065l0.07-0.123l0.077-0.137
		l0.024-0.042l0.018-0.032l0.103-0.188l0.009-0.016l0.033-0.064l0.081-0.154l0.032-0.062l0.082-0.16l0.047-0.093l0.073-0.148
		l0.031-0.064l0.015-0.031l0.1-0.208l0.01-0.021l0.015-0.031l0.094-0.204l0.048-0.104l0.055-0.125l0.053-0.121l0.079-0.183
		l0.023-0.056l0.013-0.03l0.095-0.229l0.012-0.029l0.083-0.205l0.013-0.034l0.052-0.132l0.061-0.157l0.041-0.11l0.101-0.271
		l0.01-0.027l0.091-0.252l0.002-0.007l0.05-0.144l0.051-0.148l0.05-0.147l0.053-0.159l0.046-0.14l0.076-0.241l0.016-0.047
		l0.007-0.023l0.085-0.276v0l0.057-0.19l0.042-0.143l0.039-0.133l0.063-0.224l0.034-0.124l0.012-0.044l0.075-0.276l0.005-0.02
		l0.089-0.339l0.023-0.093l0.063-0.253l0.031-0.125l0.061-0.253l0.026-0.114l0.077-0.336l0.007-0.028l0.003-0.014l0.071-0.327
		l0.002-0.006l0.05-0.238l0.029-0.138l0.042-0.208l0.043-0.217l0.032-0.162l0.009-0.043l0.063-0.341l0.002-0.007l0.073-0.405
		l0.023-0.137l0.045-0.266l0.029-0.175l0.042-0.257l0.025-0.154l0.066-0.433c-0.347-10.131-12.279-33.145-30.696-43.646l-0.554,0.01
		l-0.236,0.004l-0.078,0.001l-0.656,0.01l-0.055,0.001l-0.082,0.001l-0.554,0.007l-0.153,0.002l-0.399,0.004l-0.39,0.003
		l-0.787,0.006l-0.479,0.003l-0.308,0.001l-0.244,0.001l-0.543,0.001h-0.009l-0.551,0.001l-0.227,0h-0.324l-0.461,0l-0.09,0
		l-0.551-0.001h-0.145l-0.405-0.002l-0.379-0.002l-0.171-0.001l-0.55-0.003l-0.063,0l-0.486-0.003l-0.297-0.003l-0.252-0.002
		l-0.531-0.005h-0.019l-0.549-0.006l-0.215-0.003l-0.334-0.004l-0.449-0.006l-0.099-0.001l-0.549-0.008l-0.134-0.001l-0.414-0.006
		l-0.368-0.006l-0.18-0.003l-0.548-0.009l-0.054-0.001l-0.494-0.008l-0.287-0.005l-0.78-0.014l-0.028,0l-0.547-0.011l-0.206-0.004
		l-0.341-0.007l-0.439-0.009l-0.108-0.002l-0.547-0.012l-0.125-0.002l-0.422-0.009l-0.358-0.008l-0.188-0.004l-0.547-0.012
		l-0.044-0.001l-0.502-0.011l-0.277-0.006l-0.269-0.006l-0.51-0.012l-0.037-0.001l-0.547-0.013l-0.196-0.005l-0.35-0.008
		l-0.429-0.01l-0.117-0.002l-0.546-0.013l-0.116-0.003l-0.431-0.01l-0.349-0.008l-0.198-0.005l-0.546-0.013l-0.035-0.001
		l-0.511-0.012l-0.268-0.006l-0.279-0.006l-0.501-0.012l-0.045-0.001l-0.546-0.013l-0.188-0.005l-0.359-0.008l-0.42-0.01
		l-0.126-0.003l-0.547-0.013l-0.107-0.002l-0.439-0.01l-0.34-0.007l-0.207-0.004l-0.547-0.012l-0.026,0l-0.521-0.011l-0.259-0.005
		l-0.288-0.006l-0.492-0.01l-0.055-0.001l-0.547-0.01l-0.179-0.003l-0.369-0.007l-0.412-0.007l-0.136-0.002l-0.547-0.01
		c12.053,1.131,21.419,4.557,35.102,4.298c18.417,4.74,28.271,27.916,28.618,38.046c-1.229,8.213-2.509,9.992-4.43,11.254
		C147.444,170.125,147.623,171.873,147.692,172.993L147.692,172.993z M78.292,114.324l-0.085,0H78.12l-0.428,0.001l-0.086,0h-0.08
		h-0.005l-0.086,0l-0.086,0l-0.085,0l-0.172,0.001l-0.085,0l-0.257,0.001h-0.01l-0.677,0.005l-0.086,0.001h-0.025l-0.662,0.007
		l-0.086,0l-0.04,0l-0.132,0.001l-0.085,0.001l-0.344,0.004l-0.086,0.001l-0.086,0.001l-0.056,0.001h-0.03l-0.602,0.009
		l-0.086,0.001l-0.071,0.001l-0.015,0l-0.086,0.001l-0.086,0.001l-0.086,0.001l-0.172,0.003l-0.086,0.001l-0.086,0.001l-0.086,0.001
		l-0.086,0.002c-22.233,9.967-34.203,26.644-39.809,47.482c-1.949,10.94,8.503,18.572,18.042,21.071
		c5.005,1.103,14.601,0.7,14.881-5.633l0.019-0.437l0.005-0.116l0.014-0.32l0.01-0.232l0.008-0.204l0.015-0.348l0.003-0.087
		L66,175.122l0.001-0.029l0.017-0.406l0.006-0.145l0.012-0.29l0.011-0.261l0.007-0.174l0.016-0.377l0.002-0.058l0.019-0.435
		l0.002-0.059l0.017-0.376l0.007-0.174l0.012-0.261l0.013-0.29l0.007-0.145l0.019-0.406l0.001-0.029l0.021-0.434l0.004-0.087
		l0.018-0.347l0.011-0.203l0.012-0.231l0.018-0.319l0.006-0.115l0.002-0.032l0.044-0.756l0.004-0.079l0.007-0.116l0.021-0.318
		l0-0.012l0.026-0.405l0.004-0.051l0.027-0.398l0.031-0.434l0.002-0.03l0.03-0.404c0.022-0.284,0.045-0.568,0.069-0.853l0.004-0.051
		l0.034-0.397l0.04-0.434l0.031-0.325l0.016-0.163l0.037-0.369l0.002-0.019c0.072-0.709,0.153-1.419,0.243-2.129l0.011-0.086
		c0.09-0.702,0.189-1.404,0.3-2.107l0.007-0.045c0.065-0.417,0.136-0.833,0.209-1.25l0.005-0.029
		c0.153-0.861,0.325-1.722,0.517-2.585l0.012-0.051c0.29-1.294,0.625-2.592,1.019-3.894l0.009-0.029
		c0.22-0.727,0.458-1.456,0.714-2.186c-4.588,9.111-4.967,19.274-6.75,24.978c-2.988,9.557-12.157,1.051-16.606-2.956
		c-4.211-3.791-6.276-7.478-4.584-14.343C48.326,130.625,53.358,125.581,78.292,114.324L78.292,114.324L78.292,114.324z
		 M51.228,184.419c-2.316,7.481-2.198,14.962,0.357,22.444c1.704,4.99,3.462,6.097,8.641,7.735
		c10.742,3.399,28.849,4.519,36.406,2.354c0.061-0.018,0.12-0.036,0.18-0.055l0.086-0.028l0.1-0.032l0.083-0.029l0.094-0.034
		l0.077-0.029l0.113-0.044l0.059-0.023l0.111-0.047l0.071-0.031l0.096-0.043l0.078-0.037l0.106-0.051l0.052-0.025l0.118-0.061
		l0.056-0.029l0.104-0.057l0.052-0.027l0.013-0.008l0.152-0.088l0.002-0.002l0.147-0.09l0.018-0.011l0.055-0.034l0.089-0.059
		l0.067-0.045l0.093-0.063l0.044-0.03l0.116-0.084l0.029-0.021l0.114-0.085l0.051-0.039l0.081-0.063l0.075-0.061l0.064-0.052
		l0.077-0.063l0.014-0.012l0.11-0.095l0.022-0.021l0.039-0.034l0.092-0.082l0.129-0.119l0.004-0.004l0.123-0.118l0.001-0.002
		l0.089-0.088l0.042-0.043l0.081-0.082l0.049-0.051l0.06-0.064l0.087-0.094l0.028-0.031l0.093-0.104l0.04-0.045l0.082-0.094
		l0.042-0.051l0.078-0.092l0.05-0.061l0.012-0.016l0.094-0.117l0.018-0.021l0.104-0.133l0.006-0.008l0.108-0.143l0.005-0.008
		l0.102-0.137l0.016-0.021l0.089-0.125l0.002-0.004l0.093-0.132l0.014-0.021l0.06-0.087l0.07-0.104l0.027-0.04l0.073-0.111
		l0.05-0.077l0.017-0.024l0.064-0.102l0.033-0.053l0.034-0.055l0.058-0.094l0.004-0.006l0.082-0.135l0.013-0.021l0.089-0.151
		l0.004-0.006l0.091-0.159l0.071-0.125l0.019-0.033l0.015-0.027l0.074-0.134l0.023-0.043l0.026-0.049l0.062-0.114l0.021-0.039
		l0.069-0.13l0.013-0.024l0.044-0.086l0.048-0.094l0.036-0.07l0.055-0.11l0.027-0.054l0.063-0.127l0.018-0.038l0.07-0.145
		l0.01-0.021l0.077-0.162l0.002-0.004l0.078-0.166l0.006-0.013l0.07-0.153l0.014-0.03l0.062-0.137l0.021-0.047l0.054-0.12
		l0.028-0.063l0.014-0.032l0.14-0.322l0.006-0.014l0.03-0.068l0.049-0.115l0.077-0.184l0.015-0.035l0.061-0.148l0.007-0.018
		c-18.996,16.037-57.328-6.182-41.085-24.247l-0.011,0.003c-0.105,0.029-0.212,0.058-0.319,0.085l-0.024,0.006
		c-0.108,0.028-0.217,0.054-0.327,0.079l-0.016,0.004c-0.174,0.04-0.351,0.078-0.529,0.112l-0.18,0.034l-0.178,0.032l-0.003,0
		l-0.182,0.031l-0.174,0.028l-0.027,0.004c-0.219,0.033-0.44,0.063-0.662,0.09l-0.104,0.012c-0.173,0.02-0.346,0.037-0.52,0.053
		l-0.189,0.017l-0.187,0.015h-0.002l-0.189,0.013l-0.188,0.012h-0.001l-0.19,0.011l-0.188,0.008l-0.012,0
		c-0.229,0.01-0.458,0.017-0.687,0.021l-0.125,0.002l-0.133,0.001l-0.191,0.001h-0.022l-0.162,0h-0.007l-0.19-0.001h-0.005
		l-0.176-0.003h-0.009l-0.19-0.004l-0.163-0.004l-0.027-0.001l-0.189-0.006l-0.124-0.005l-0.065-0.002l-0.188-0.009l-0.009,0
		l-0.179-0.009l-0.169-0.01l-0.018-0.001l-0.187-0.012l-0.031-0.002l-0.21-0.015l-0.191-0.015l-0.051-0.004l-0.072-0.006
		l-0.184-0.016l-0.084-0.008l-0.04-0.004l-0.24-0.023l-0.057-0.006l-0.047-0.005l-0.255-0.027l-0.031-0.003l-0.147-0.018
		l-0.177-0.021l-0.004,0l-0.171-0.022l-0.153-0.02l-0.021-0.003l-0.173-0.024l-0.125-0.018l-0.046-0.007l-0.242-0.037l-0.026-0.004
		l-0.07-0.011l-0.167-0.027l-0.073-0.012l-0.092-0.016l-0.164-0.028l-0.047-0.008l-0.114-0.021l-0.16-0.03l-0.023-0.004
		l-0.135-0.026L51.228,184.419z"/>
	<path fill-rule="evenodd" clip-rule="evenodd" d="M129.698,47.271c-5.326-4.458-12.166-8.804-17.707-13.445
		c0.223-0.35,0.444-0.699,0.666-1.049c2.706-4.268,11.839-9.918,16.75-10.301c21.206,3.621,40.66,9.948,57.65,23.156
		C171.661,48.588,144.567,54.677,129.698,47.271L129.698,47.271z M113.854,33.537c5.76,4.821,9.796,7.347,15.556,12.168
		c23.485,5.434,37.882,2.35,53.028-0.555c-10.036-7.804-21.681-15.406-52.31-20.636C121.186,27.521,115.761,30.529,113.854,33.537z"
		/>
	<path fill-rule="evenodd" clip-rule="evenodd" fill="#FFFFFF" d="M113.854,33.537c1.907-3.007,7.332-6.015,16.274-9.023
		c30.629,5.23,42.273,12.832,52.31,20.636c-15.146,2.904-29.543,5.989-53.028,0.555C123.649,40.884,119.613,38.357,113.854,33.537z"
		/>
	<path fill-rule="evenodd" clip-rule="evenodd" fill="#E5E5E5" d="M113.854,33.537c1.907-3.007,7.332-6.015,16.274-9.023
		c4.551,0.777,8.679,1.607,12.448,2.481c-21.485,1.582-27.879,10.766-7.531,16.858c8.404,2.516,16.823,3.056,25.054,2.532
		c7.46-0.476,22.938-1.067,9.756-9.651c4.799,2.625,8.331,5.116,12.583,8.416c-15.146,2.904-29.543,5.989-53.028,0.555
		C123.649,40.884,119.613,38.357,113.854,33.537z"/>
	<path fill-rule="evenodd" clip-rule="evenodd" d="M98.535,27.896c26.677,0,43.569,25.604,43.569,51.327
		c0,17.037-17.349,49.461-38.029,48.607c-11.772-0.485-24.514-4.848-34.397-11.327c-13.423-8.8-20.313-21.723-20.95-37.704
		C47.677,52.477,72.297,27.896,98.535,27.896L98.535,27.896z M98.215,30.273c-25.043,0-47.827,22.521-46.791,48.47
		c1.439,36.048,34.723,46.234,53.989,47.031c11.604,0.48,35.273-20.581,35.273-46.551S123.257,30.273,98.215,30.273z"/>
	<path fill-rule="evenodd" clip-rule="evenodd" fill="#FFFFFF" d="M98.215,30.273c25.042,0,42.472,22.979,42.472,48.95
		s-23.669,47.031-35.273,46.551c-19.267-0.796-52.55-10.983-53.989-47.031c-0.157-3.937,0.237-7.793,1.101-11.505
		c-7.335,10.694-17.191,18.985-26.056,22.063c1.121-21.247-3.777-40.029,19.677-62.629c11.721,0.238,22.041,3.064,31.243,8.891
		C83.78,32.196,90.9,30.273,98.215,30.273z"/>
	<path fill-rule="evenodd" clip-rule="evenodd" fill="#E5E5E5" d="M98.215,30.273c1.728,0,3.418,0.113,5.071,0.326
		c-8.334,0.08-16.057,2.741-22.608,7.211c-1.08-0.792-2.176-1.542-3.289-2.247C83.78,32.196,90.9,30.273,98.215,30.273
		L98.215,30.273z M67.511,51.59c-5.147,8.186-7.998,18.07-7.594,28.357c0.646,16.491,5.901,27.18,13.595,33.835
		c5.759,4.982,31.895,15.915,34.729,2.978c1.635,5.05,3.918,7.302,8.882,4.773c-4.324,2.839-8.483,4.373-11.71,4.24
		c-19.267-0.796-52.55-10.983-53.989-47.031c-0.157-3.937,0.237-7.793,1.101-11.505c2.724-3.972,5.101-8.274,6.949-12.765
		C61.327,52.968,64.307,52.112,67.511,51.59z"/>
	<path fill-rule="evenodd" clip-rule="evenodd" fill="#E5E5E5" d="M56.55,60.64c-7.426,13.814-19.465,24.976-30.082,28.662
		c1.121-21.247-3.777-40.029,19.677-62.629c12.466,0.253,23.346,3.434,32.983,10.039c-10.357-6.06-23.542-9.896-33.563-2.106
		c-6.506,5.058-11.662,11.552-11.907,28.845C33.311,88.124,46.877,75.332,56.55,60.64z"/>
	<path fill-rule="evenodd" clip-rule="evenodd" fill="#E5E5E5" d="M74.335,104.792c-6.949-7.939-10.26-26.868-5.622-33.51
		c7.227,0.734,15.773,5.583,21.399,10.472c5.829,5.066,11.239,13.523,14.01,21.507C95.786,106.888,81.624,113.118,74.335,104.792z"
		/>
	<path fill-rule="evenodd" clip-rule="evenodd" d="M83.977,105.428c-10.199-2.2-18.988-22.603-15.405-32.216
		c7.227,0.733,15.086,3.859,20.712,8.749c5.831,5.067,10.008,12.582,12.778,20.566C96.73,104.846,89.877,106.7,83.977,105.428z"/>
	<path fill-rule="evenodd" clip-rule="evenodd" fill="#FF0000" d="M99.653,101.431c-6.631-19.118-17.264-24.229-29.017-25.42
		c-3.006,8.055,5.922,25.874,14.439,27.712C89.234,104.62,94.154,103.822,99.653,101.431z"/>
	<path fill-rule="evenodd" clip-rule="evenodd" fill="#E5E5E5" d="M140.431,83.366c-3.105,7.959-6.99,18.17-14.649,20.986
		c-3.198,1.176-10.469,0.051-14.565-1.123c2.25-6.836,8.088-13.014,12.989-15.661C129.107,84.92,135.241,83.729,140.431,83.366z"/>
	<path fill-rule="evenodd" clip-rule="evenodd" d="M139.472,84.26c-3.313,6.924-7.244,14.753-14.904,17.57
		c-3.198,1.177-7.675,1.726-11.771,0.552c2.25-6.836,6.278-11.422,11.408-14.193C128.88,85.665,134.282,84.623,139.472,84.26z"/>
	<path fill-rule="evenodd" clip-rule="evenodd" fill="#FF0000" d="M115.001,101.191c3.197-9.712,10.951-14.109,21.822-14.868
		C130.744,99.033,122.816,102.175,115.001,101.191z"/>
	<path d="M108.256,115.792c0.741,3.361,1.091,6.756,0.017,10.061l-1.705,0.406c1.127-3.468,1.715-6.629,1.051-10.133l-5.567-3.185
		l5.396,0.664l4.196-3.062L108.256,115.792z"/>
	<path d="M59.473,54.474c1.676-3.99,2.68-9.887,3.25-14.209c0.497,2.13-0.481,9.36-1.421,13.079
		c2.798-1.345,6.761-1.94,10.493-2.275c-2.902,0.643-7.584,2.015-11.312,4.926C53.911,71.703,41.333,87.56,24.942,93.25
		c0.813-15.37-1.904-32.475,3.958-46.701c3.591-8.715,9.967-14.817,16.686-21.306c17.946,0.363,28.128,2.66,40.186,16.682
		l-0.037,0.027C74.527,31.767,61.546,26.984,46.146,26.672C22.692,49.272,27.59,68.054,26.469,89.301
		C38.625,85.081,52.648,71.058,59.473,54.474z"/>
	<path fill-rule="evenodd" clip-rule="evenodd" d="M115.956,163.76c-5.724-0.555-3.175,8.313,0.882,4.554
		C117.958,167.276,117.767,163.935,115.956,163.76L115.956,163.76z M101.651,149.572c-3.86,0.851-10.968-4.676-10.039-8.982
		c3.388-15.691,39.465-6.237,32.229,2.466c-2.821,3.392-17.119,6.316-12.856,13.032c5.94,9.362-3.651,7.013-5.284,2.113
		c-2.601-7.807,1.351-9.563,7.749-12.68c9.005-4.386-7.079-12.086-12.68-4.403C98.902,143.683,107.4,148.304,101.651,149.572z"/>
</g>
<g>
	<path d="M67.022,236.824l0.39,1.475c0.078,0.324,0.156,0.624,0.21,0.924h0.019c0.065-0.294,0.161-0.605,0.258-0.918l0.474-1.48
		h0.443l0.45,1.451c0.107,0.348,0.191,0.653,0.258,0.947h0.018c0.048-0.294,0.126-0.6,0.222-0.941l0.414-1.457h0.521l-0.936,2.902
		h-0.479l-0.443-1.386c-0.103-0.323-0.187-0.611-0.258-0.953h-0.013c-0.071,0.348-0.161,0.647-0.264,0.959l-0.468,1.38h-0.479
		l-0.875-2.902H67.022z"/>
	<path d="M71.506,236.824l0.39,1.475c0.078,0.324,0.156,0.624,0.21,0.924h0.019c0.065-0.294,0.161-0.605,0.258-0.918l0.474-1.48
		h0.443l0.45,1.451c0.107,0.348,0.191,0.653,0.258,0.947h0.018c0.048-0.294,0.126-0.6,0.222-0.941l0.414-1.457h0.521l-0.936,2.902
		h-0.479l-0.443-1.386c-0.103-0.323-0.187-0.611-0.258-0.953h-0.013c-0.071,0.348-0.161,0.647-0.264,0.959l-0.468,1.38h-0.479
		l-0.875-2.902H71.506z"/>
	<path d="M75.992,236.824l0.39,1.475c0.078,0.324,0.156,0.624,0.21,0.924h0.019c0.065-0.294,0.161-0.605,0.258-0.918l0.474-1.48
		h0.443l0.45,1.451c0.107,0.348,0.191,0.653,0.258,0.947h0.018c0.048-0.294,0.126-0.6,0.222-0.941l0.414-1.457h0.521l-0.936,2.902
		h-0.479l-0.443-1.386c-0.103-0.323-0.187-0.611-0.258-0.953h-0.013c-0.071,0.348-0.161,0.647-0.264,0.959l-0.468,1.38h-0.479
		l-0.875-2.902H75.992z"/>
	<path d="M79.834,239.414c0-0.216,0.15-0.377,0.36-0.377s0.354,0.155,0.354,0.377c0,0.217-0.144,0.378-0.366,0.378
		C79.979,239.792,79.834,239.631,79.834,239.414z"/>
	<path d="M81.22,239.727v-4.042h0.575l1.289,2.045c0.294,0.474,0.534,0.899,0.72,1.313l0.019-0.006
		c-0.048-0.54-0.061-1.032-0.061-1.661v-1.691h0.492v4.042h-0.528l-1.283-2.051c-0.281-0.45-0.552-0.912-0.749-1.35l-0.019,0.006
		c0.03,0.51,0.036,0.996,0.036,1.667v1.728H81.22z"/>
	<path d="M88.62,237.663c0,1.386-0.846,2.129-1.877,2.129c-1.073,0-1.817-0.833-1.817-2.057c0-1.283,0.792-2.123,1.871-2.123
		C87.906,235.612,88.62,236.458,88.62,237.663z M85.477,237.724c0,0.869,0.468,1.643,1.295,1.643c0.828,0,1.296-0.762,1.296-1.679
		c0-0.81-0.42-1.649-1.289-1.649C85.909,236.038,85.477,236.842,85.477,237.724z"/>
	<path d="M89.23,239.091c0.234,0.149,0.57,0.264,0.93,0.264c0.533,0,0.846-0.282,0.846-0.689c0-0.372-0.216-0.594-0.762-0.798
		c-0.66-0.239-1.067-0.588-1.067-1.151c0-0.63,0.521-1.098,1.308-1.098c0.407,0,0.713,0.097,0.887,0.198l-0.144,0.426
		c-0.126-0.078-0.396-0.191-0.762-0.191c-0.552,0-0.762,0.329-0.762,0.605c0,0.378,0.246,0.563,0.804,0.779
		c0.684,0.264,1.025,0.594,1.025,1.188c0,0.624-0.456,1.169-1.409,1.169c-0.39,0-0.815-0.12-1.031-0.264L89.23,239.091z"/>
	<path d="M92.252,235.685h0.521v1.949h0.018c0.108-0.156,0.216-0.3,0.318-0.432l1.235-1.518h0.647l-1.463,1.715l1.577,2.327h-0.618
		l-1.325-1.985l-0.39,0.444v1.541h-0.521V235.685z"/>
	<path d="M96.024,235.685v4.042h-0.527v-4.042H96.024z"/>
	<path d="M96.929,235.685h0.527v3.604h1.727v0.438h-2.254V235.685z"/>
	<path d="M99.759,235.685h0.527v3.604h1.727v0.438h-2.254V235.685z"/>
	<path d="M103.554,236.32h-0.012l-0.678,0.365l-0.102-0.401l0.852-0.456h0.449v3.898h-0.51V236.32z"/>
	<path d="M105.611,239.127c0.15,0.09,0.492,0.239,0.864,0.239c0.671,0,0.887-0.426,0.881-0.755c-0.006-0.546-0.497-0.78-1.007-0.78
		h-0.294v-0.396h0.294c0.384,0,0.869-0.198,0.869-0.659c0-0.313-0.198-0.588-0.684-0.588c-0.312,0-0.611,0.138-0.779,0.258
		l-0.145-0.384c0.21-0.15,0.605-0.3,1.025-0.3c0.768,0,1.115,0.455,1.115,0.93c0,0.407-0.245,0.749-0.719,0.923v0.013
		c0.479,0.09,0.863,0.449,0.869,0.995c0,0.624-0.492,1.169-1.421,1.169c-0.438,0-0.822-0.138-1.014-0.264L105.611,239.127z"/>
	<path d="M110.192,239.727v-1.067h-1.812v-0.342l1.739-2.489h0.569v2.423h0.546v0.408h-0.546v1.067H110.192z M110.192,238.251
		v-1.301c0-0.204,0.006-0.408,0.018-0.612h-0.018c-0.12,0.229-0.216,0.396-0.324,0.576l-0.953,1.325v0.012H110.192z"/>
	<path d="M111.762,239.127c0.15,0.09,0.492,0.239,0.864,0.239c0.671,0,0.886-0.426,0.88-0.755c-0.006-0.546-0.497-0.78-1.006-0.78
		h-0.294v-0.396h0.294c0.384,0,0.869-0.198,0.869-0.659c0-0.313-0.198-0.588-0.684-0.588c-0.312,0-0.611,0.138-0.779,0.258
		l-0.145-0.384c0.21-0.15,0.605-0.3,1.025-0.3c0.767,0,1.115,0.455,1.115,0.93c0,0.407-0.245,0.749-0.718,0.923v0.013
		c0.479,0.09,0.863,0.449,0.869,0.995c0,0.624-0.492,1.169-1.42,1.169c-0.438,0-0.822-0.138-1.014-0.264L111.762,239.127z"/>
	<path d="M114.753,239.414c0-0.216,0.15-0.377,0.36-0.377s0.354,0.155,0.354,0.377c0,0.217-0.144,0.378-0.366,0.378
		C114.897,239.792,114.753,239.631,114.753,239.414z"/>
	<path d="M118.189,239.624c-0.138,0.066-0.444,0.168-0.834,0.168c-0.875,0-1.445-0.594-1.445-1.48c0-0.894,0.612-1.548,1.56-1.548
		c0.312,0,0.588,0.078,0.731,0.156l-0.12,0.401c-0.126-0.065-0.323-0.138-0.611-0.138c-0.666,0-1.025,0.498-1.025,1.098
		c0,0.672,0.432,1.085,1.007,1.085c0.301,0,0.498-0.071,0.648-0.138L118.189,239.624z"/>
	<path d="M121.397,238.251c0,1.073-0.75,1.541-1.445,1.541c-0.779,0-1.392-0.575-1.392-1.493c0-0.965,0.642-1.535,1.439-1.535
		C120.834,236.764,121.397,237.369,121.397,238.251z M119.101,238.281c0,0.636,0.359,1.115,0.876,1.115
		c0.503,0,0.881-0.474,0.881-1.127c0-0.492-0.246-1.109-0.869-1.109C119.37,237.16,119.101,237.735,119.101,238.281z"/>
	<path d="M122.063,237.609c0-0.306-0.012-0.546-0.023-0.785h0.462l0.023,0.474h0.019c0.161-0.276,0.432-0.534,0.917-0.534
		c0.39,0,0.689,0.24,0.815,0.582h0.012c0.091-0.168,0.21-0.288,0.33-0.378c0.174-0.132,0.36-0.204,0.636-0.204
		c0.39,0,0.96,0.252,0.96,1.26v1.703h-0.517v-1.638c0-0.563-0.209-0.894-0.629-0.894c-0.306,0-0.534,0.223-0.63,0.475
		c-0.024,0.077-0.042,0.167-0.042,0.264v1.793h-0.516v-1.739c0-0.462-0.204-0.792-0.605-0.792c-0.324,0-0.57,0.265-0.654,0.528
		c-0.029,0.071-0.042,0.168-0.042,0.258v1.745h-0.516V237.609z"/>
</g>
</svg>
