<?xml version="1.0" encoding="utf-8"?>
<!-- Generator: Adobe Illustrator 17.1.0, SVG Export Plug-In . SVG Version: 6.00 Build 0)  -->
<!DOCTYPE svg PUBLIC "-//W3C//DTD SVG 1.1//EN" "http://www.w3.org/Graphics/SVG/1.1/DTD/svg11.dtd">
<svg version="1.1" id="Lager_1" xmlns="http://www.w3.org/2000/svg" xmlns:xlink="http://www.w3.org/1999/xlink" x="0px" y="0px"
	 viewBox="0 0 841.9 595.3" enable-background="new 0 0 841.9 595.3" xml:space="preserve">
<g>
	<defs>
		<rect id="SVGID_1_" width="841.9" height="595.3"/>
	</defs>
	<clipPath id="SVGID_2_">
		<use xlink:href="#SVGID_1_"  overflow="visible"/>
	</clipPath>
	<g clip-path="url(#SVGID_2_)">
		<defs>
			<path id="SVGID_3_" d="M120.2,243.6V273c13.1-16.6,66.3-23.3,77.3,10.2c10.9,33.5,22.6,30.1,22.6,30.1l-2-49.9l-43.7-34.2
				L120.2,243.6z"/>
		</defs>
		<clipPath id="SVGID_4_">
			<use xlink:href="#SVGID_3_"  overflow="visible"/>
		</clipPath>
		
			<linearGradient id="SVGID_5_" gradientUnits="userSpaceOnUse" x1="0" y1="595.2396" x2="1" y2="595.2396" gradientTransform="matrix(74.4881 57.4037 57.4037 -74.488 -34014.4961 44599.1055)">
			<stop  offset="0" style="stop-color:#E2E2E2"/>
			<stop  offset="1" style="stop-color:#666666"/>
		</linearGradient>
		<polygon clip-path="url(#SVGID_4_)" fill="url(#SVGID_5_)" points="157.4,180.9 262.3,261.8 182.9,364.9 77.9,284.1 		"/>
	</g>
	<g clip-path="url(#SVGID_2_)">
		<defs>
			<path id="SVGID_6_" d="M224.1,355.6c-30.9,18.1-90.5,30.3-112.9-6l4.6,48.8l89.2,12.6l54.6-25.3l36.3-44.1c0,0-3.9-0.4-10.1-0.4
				C271.8,341.2,245.6,343.1,224.1,355.6"/>
		</defs>
		<clipPath id="SVGID_7_">
			<use xlink:href="#SVGID_6_"  overflow="visible"/>
		</clipPath>
		
			<linearGradient id="SVGID_8_" gradientUnits="userSpaceOnUse" x1="0" y1="595.4625" x2="1" y2="595.4625" gradientTransform="matrix(-51.9372 75.8557 75.8557 51.9372 -44910.957 -30630.4336)">
			<stop  offset="0" style="stop-color:#E2E2E2"/>
			<stop  offset="1" style="stop-color:#666666"/>
		</linearGradient>
		<polygon clip-path="url(#SVGID_7_)" fill="url(#SVGID_8_)" points="328.5,363.5 237,497.1 78.7,388.7 170.2,255.1 		"/>
	</g>
	<g clip-path="url(#SVGID_2_)">
		<defs>
			<path id="SVGID_9_" d="M772.5,269.1c-6.2-7.2-7.5-17.9-5.7-24.4c3.9-13.8,17.2-18.8,28.3-16.6c12.2,2.4,20.3,10.5,21.8,21.8
				c0.9,7-0.8,15.9-6.8,25c-3.1,1-6.6,1.7-10.4,2.2c-2.2,0.3-4.3,0.4-6.3,0.4C784.2,277.5,777.2,274.7,772.5,269.1 M229.4,169.1
				l0.5,13.7c63.5-7.7,179-14.9,293.5-12.3c123.8,2.8,248.9,20.1,289.2,50.1c-4.4-2.7-9.4-4.7-15-5.8c-20.1-3.9-38.6,7.1-44.1,26.3
				c-2.8,9.8-1.3,25.6,8.5,37c5.5,6.4,15.3,13.4,32.1,13.2c-4,3-8.7,5.8-14.1,8.4c-28.3,14-130.1,43.8-245.6,68.4
				C440,388.2,336.3,403.5,256,415.2l2,13.5c107.1-15.5,240.7-34.3,310.9-53.9c99.5-27.8,188.9-48.8,217.4-62.9
				c15.1-7.4,25.7-16.4,32.7-25.6c8.9-3.6,15.2-9.2,19.1-16.6c10.2-19.7-2.7-44.4-3.3-45.4l-0.1-0.2l-0.1-0.2
				c-13.2-21.4-52.6-37.4-120.4-49c-52.2-8.9-120.9-14.9-204.3-18.1c-18.7-0.7-37.2-1-55.4-1C334.1,155.8,230.5,169,229.4,169.1"/>
		</defs>
		<clipPath id="SVGID_10_">
			<use xlink:href="#SVGID_9_"  overflow="visible"/>
		</clipPath>
		
			<linearGradient id="SVGID_11_" gradientUnits="userSpaceOnUse" x1="0" y1="595.275" x2="1" y2="595.275" gradientTransform="matrix(-650.5767 -6.100000e-05 -6.100000e-05 650.5767 884.3312 -386979.7812)">
			<stop  offset="0" style="stop-color:#E2E2E2"/>
			<stop  offset="1" style="stop-color:#666666"/>
		</linearGradient>
		<rect x="229.4" y="155.8" clip-path="url(#SVGID_10_)" fill="url(#SVGID_11_)" width="618.8" height="272.8"/>
	</g>
	<g clip-path="url(#SVGID_2_)">
		<defs>
			<rect id="SVGID_12_" width="841.9" height="595.3"/>
		</defs>
		<clipPath id="SVGID_13_">
			<use xlink:href="#SVGID_12_"  overflow="visible"/>
		</clipPath>
		<g clip-path="url(#SVGID_13_)">
			<g>
				<defs>
					<rect id="SVGID_14_" x="741.3" y="187.7" width="91.6" height="80.6"/>
				</defs>
				<clipPath id="SVGID_15_">
					<use xlink:href="#SVGID_14_"  overflow="visible"/>
				</clipPath>
				<g clip-path="url(#SVGID_15_)">
					<defs>
						<path id="SVGID_16_" d="M741.3,187.7c0,0,129.4,18.7,80.6,80.6C822,268.3,865.3,220.5,741.3,187.7"/>
					</defs>
					<clipPath id="SVGID_17_">
						<use xlink:href="#SVGID_16_"  overflow="visible"/>
					</clipPath>
					
						<linearGradient id="SVGID_18_" gradientUnits="userSpaceOnUse" x1="0" y1="595.3533" x2="1" y2="595.3533" gradientTransform="matrix(53.3038 155.3548 155.3548 -53.3038 -91705.7266 31902.1328)">
						<stop  offset="0" style="stop-color:#FFFFFF"/>
						<stop  offset="1" style="stop-color:#666666"/>
					</linearGradient>
					<polygon clip-path="url(#SVGID_17_)" fill="url(#SVGID_18_)" points="857.1,148 895.4,259.8 755,308 716.6,196.2 					"/>
				</g>
			</g>
		</g>
		<g opacity="0.65" clip-path="url(#SVGID_13_)">
			<g>
				<defs>
					<rect id="SVGID_19_" x="662" y="286.3" width="156.9" height="63.2"/>
				</defs>
				<clipPath id="SVGID_20_">
					<use xlink:href="#SVGID_19_"  overflow="visible"/>
				</clipPath>
				<g clip-path="url(#SVGID_20_)">
					<defs>
						<path id="SVGID_21_" d="M794.2,291.2c0,0,22.7-2.9,24.7-4.9c0,0-23.8,33.1-156.9,63.2C662,349.5,772,321.9,794.2,291.2"/>
					</defs>
					<clipPath id="SVGID_22_">
						<use xlink:href="#SVGID_21_"  overflow="visible"/>
					</clipPath>
					
						<linearGradient id="SVGID_23_" gradientUnits="userSpaceOnUse" x1="0" y1="595.2811" x2="1" y2="595.2811" gradientTransform="matrix(153.9864 -99.3177 -99.3177 -153.9864 59814.8203 92013.7656)">
						<stop  offset="0" style="stop-color:#FFFFFF"/>
						<stop  offset="1" style="stop-color:#666666"/>
					</linearGradient>
					<polygon clip-path="url(#SVGID_22_)" fill="url(#SVGID_23_)" points="633.2,304.8 772.8,214.8 847.7,330.9 708.1,421 					"/>
				</g>
			</g>
		</g>
		<g clip-path="url(#SVGID_13_)">
			<g>
				<defs>
					<rect id="SVGID_24_" x="777.2" y="247.9" width="60.6" height="37.4"/>
				</defs>
				<clipPath id="SVGID_25_">
					<use xlink:href="#SVGID_24_"  overflow="visible"/>
				</clipPath>
				<g clip-path="url(#SVGID_25_)">
					<defs>
						<path id="SVGID_26_" d="M837.8,247.9c0,0-7.7,41-60.6,29.6C777.2,277.5,829.6,308,837.8,247.9"/>
					</defs>
					<clipPath id="SVGID_27_">
						<use xlink:href="#SVGID_26_"  overflow="visible"/>
					</clipPath>
					
						<radialGradient id="SVGID_28_" cx="0" cy="595.275" r="1" gradientTransform="matrix(30.1692 0 0 -30.1692 821.4248 18252.8594)" gradientUnits="userSpaceOnUse">
						<stop  offset="0" style="stop-color:#FFFFFF"/>
						<stop  offset="1" style="stop-color:#000000"/>
					</radialGradient>
					<rect x="777.2" y="247.9" clip-path="url(#SVGID_27_)" fill="url(#SVGID_28_)" width="60.6" height="60.1"/>
				</g>
			</g>
		</g>
		<g clip-path="url(#SVGID_13_)">
			<g>
				<defs>
					<rect id="SVGID_29_" x="806.1" y="225" width="17.2" height="48.8"/>
				</defs>
				<clipPath id="SVGID_30_">
					<use xlink:href="#SVGID_29_"  overflow="visible"/>
				</clipPath>
				<g clip-path="url(#SVGID_30_)">
					<defs>
						<path id="SVGID_31_" d="M810.7,273.8c0,0,20.5-21.7-4.6-48.8c0,0,25.7,23.2,14.2,44.4L810.7,273.8z"/>
					</defs>
					<clipPath id="SVGID_32_">
						<use xlink:href="#SVGID_31_"  overflow="visible"/>
					</clipPath>
					
						<linearGradient id="SVGID_33_" gradientUnits="userSpaceOnUse" x1="0" y1="595.3173" x2="1" y2="595.3173" gradientTransform="matrix(6.5535 84.9527 84.9527 -6.5535 -49756.4531 4129.7793)">
						<stop  offset="0" style="stop-color:#FFFFFF"/>
						<stop  offset="1" style="stop-color:#666666"/>
					</linearGradient>
					<polygon clip-path="url(#SVGID_32_)" fill="url(#SVGID_33_)" points="831.7,223 835.6,273.5 806.3,275.8 802.4,225.3 					"/>
				</g>
			</g>
		</g>
		<g clip-path="url(#SVGID_13_)">
			<g>
				<defs>
					<rect id="SVGID_34_" x="754.4" y="216.9" width="44.5" height="64.9"/>
				</defs>
				<clipPath id="SVGID_35_">
					<use xlink:href="#SVGID_34_"  overflow="visible"/>
				</clipPath>
				<g clip-path="url(#SVGID_35_)">
					<defs>
						<path id="SVGID_36_" d="M798.9,217.3c0,0-42.1-5.8-44.4,31.4c-2,32.8,40.9,33.1,40.9,33.1s-39.9-11.3-32.3-38.3
							C770.6,216.6,798.9,217.3,798.9,217.3"/>
					</defs>
					<clipPath id="SVGID_37_">
						<use xlink:href="#SVGID_36_"  overflow="visible"/>
					</clipPath>
					
						<radialGradient id="SVGID_38_" cx="0" cy="595.275" r="1" gradientTransform="matrix(38.146 0 0 -38.146 742.8135 22945.2988)" gradientUnits="userSpaceOnUse">
						<stop  offset="0" style="stop-color:#FFFFFF"/>
						<stop  offset="1" style="stop-color:#000000"/>
					</radialGradient>
					<rect x="752.4" y="211.4" clip-path="url(#SVGID_37_)" fill="url(#SVGID_38_)" width="46.4" height="70.4"/>
				</g>
			</g>
		</g>
		<g clip-path="url(#SVGID_13_)">
			<g>
				<defs>
					<rect id="SVGID_39_" x="229.5" y="160.8" width="257.5" height="17.4"/>
				</defs>
				<clipPath id="SVGID_40_">
					<use xlink:href="#SVGID_39_"  overflow="visible"/>
				</clipPath>
				<g clip-path="url(#SVGID_40_)">
					<defs>
						<path id="SVGID_41_" d="M229.7,178.2c0,0,131.5-12,257.3-15.5c0,0-109.4-8.3-257.5,10.1L229.7,178.2z"/>
					</defs>
					<clipPath id="SVGID_42_">
						<use xlink:href="#SVGID_41_"  overflow="visible"/>
					</clipPath>
					
						<radialGradient id="SVGID_43_" cx="0" cy="595.275" r="1" gradientTransform="matrix(160.9547 0 0 -160.9547 392.2612 95897.5859)" gradientUnits="userSpaceOnUse">
						<stop  offset="0" style="stop-color:#FFFFFF"/>
						<stop  offset="1" style="stop-color:#000000"/>
					</radialGradient>
					<rect x="229.5" y="154.4" clip-path="url(#SVGID_42_)" fill="url(#SVGID_43_)" width="257.5" height="23.8"/>
				</g>
			</g>
		</g>
		<g clip-path="url(#SVGID_13_)">
			<g>
				<defs>
					<rect id="SVGID_44_" x="256.6" y="360.6" width="326.3" height="66.7"/>
				</defs>
				<clipPath id="SVGID_45_">
					<use xlink:href="#SVGID_44_"  overflow="visible"/>
				</clipPath>
				<g clip-path="url(#SVGID_45_)">
					<defs>
						<path id="SVGID_46_" d="M257.9,427.3c186.4-24.7,325-66.7,325-66.7c-78.8,23-326.3,58.9-326.3,58.9L257.9,427.3z"/>
					</defs>
					<clipPath id="SVGID_47_">
						<use xlink:href="#SVGID_46_"  overflow="visible"/>
					</clipPath>
					
						<radialGradient id="SVGID_48_" cx="0" cy="595.275" r="1" gradientTransform="matrix(170.6247 0 0 -170.6247 466.0664 101984.6094)" gradientUnits="userSpaceOnUse">
						<stop  offset="0" style="stop-color:#FFFFFF"/>
						<stop  offset="1" style="stop-color:#000000"/>
					</radialGradient>
					<rect x="256.6" y="360.6" clip-path="url(#SVGID_47_)" fill="url(#SVGID_48_)" width="326.3" height="66.7"/>
				</g>
			</g>
		</g>
	</g>
	<g clip-path="url(#SVGID_2_)">
		<defs>
			<path id="SVGID_49_" d="M0,311.2c0,149,184.1,144.5,358.1,103.9c0,0-11.8-115.4-123-57.4c-94.3,49.2-144.1-6.8-132.6-56
				c9.6-41,76.5-69.7,101.1-20.5c0,0,6.2,32.1,16.4,32.1c34.9,0,72.6-125.3,72.6-150.4c0,0,0,0-0.1,0C288.2,162.8,0,163.4,0,311.2"
				/>
		</defs>
		<clipPath id="SVGID_50_">
			<use xlink:href="#SVGID_49_"  overflow="visible"/>
		</clipPath>
		
			<linearGradient id="SVGID_51_" gradientUnits="userSpaceOnUse" x1="0" y1="595.2825" x2="1" y2="595.2825" gradientTransform="matrix(-442.8358 54.6708 54.6708 442.8358 -32208.8359 -263320.25)">
			<stop  offset="0" style="stop-color:#E2E2E2"/>
			<stop  offset="1" style="stop-color:#666666"/>
		</linearGradient>
		<polygon clip-path="url(#SVGID_50_)" fill="url(#SVGID_51_)" points="394.3,455.7 5.4,503.7 -36.2,167.3 352.7,119.3 		"/>
	</g>
	<g clip-path="url(#SVGID_2_)">
		<defs>
			<rect id="SVGID_52_" width="841.9" height="595.3"/>
		</defs>
		<clipPath id="SVGID_53_">
			<use xlink:href="#SVGID_52_"  overflow="visible"/>
		</clipPath>
		<g clip-path="url(#SVGID_53_)">
			<g>
				<defs>
					<rect id="SVGID_54_" x="30.2" y="177.3" width="247.3" height="237.8"/>
				</defs>
				<clipPath id="SVGID_55_">
					<use xlink:href="#SVGID_54_"  overflow="visible"/>
				</clipPath>
				<g clip-path="url(#SVGID_55_)">
					<defs>
						<path id="SVGID_56_" d="M277.5,177.3c0,0-222.8,4.1-246,128.5c0,0-27.3,109.3,173.6,109.3c0,0-177.5-6.5-158.5-106.6
							C65.4,208.4,277.5,177.3,277.5,177.3"/>
					</defs>
					<clipPath id="SVGID_57_">
						<use xlink:href="#SVGID_56_"  overflow="visible"/>
					</clipPath>
					
						<radialGradient id="SVGID_58_" cx="0" cy="595.275" r="1" gradientTransform="matrix(421.355 0 0 -421.355 -148.9775 250969.3125)" gradientUnits="userSpaceOnUse">
						<stop  offset="0" style="stop-color:#8C8C8C"/>
						<stop  offset="1" style="stop-color:#FFFFFF"/>
					</radialGradient>
					<rect x="4.1" y="177.3" clip-path="url(#SVGID_57_)" fill="url(#SVGID_58_)" width="273.4" height="237.8"/>
				</g>
			</g>
		</g>
		<g clip-path="url(#SVGID_53_)">
			<g>
				<defs>
					<rect id="SVGID_59_" x="6.8" y="189.6" width="226.9" height="245.5"/>
				</defs>
				<clipPath id="SVGID_60_">
					<use xlink:href="#SVGID_59_"  overflow="visible"/>
				</clipPath>
				<g clip-path="url(#SVGID_60_)">
					<defs>
						<path id="SVGID_61_" d="M149,189.6c0,0-142.1,27.3-142.1,127.1c0,99.8,120.3,133.9,226.9,112.1c0,0-212.3,21.7-205-113.4
							C34.2,214.2,149,189.6,149,189.6"/>
					</defs>
					<clipPath id="SVGID_62_">
						<use xlink:href="#SVGID_61_"  overflow="visible"/>
					</clipPath>
					
						<radialGradient id="SVGID_63_" cx="0" cy="595.275" r="1" gradientTransform="matrix(250.1181 0 0 -250.1181 -133.9429 149194.7969)" gradientUnits="userSpaceOnUse">
						<stop  offset="0" style="stop-color:#FFFFFF"/>
						<stop  offset="0.264" style="stop-color:#FFFFFF"/>
						<stop  offset="0.8764" style="stop-color:#000000"/>
						<stop  offset="1" style="stop-color:#000000"/>
					</radialGradient>
					<rect x="6.8" y="189.6" clip-path="url(#SVGID_62_)" fill="url(#SVGID_63_)" width="226.9" height="261.1"/>
				</g>
			</g>
		</g>
		<g clip-path="url(#SVGID_53_)">
			<g>
				<defs>
					<rect id="SVGID_64_" x="149.9" y="347.4" width="197.7" height="64.3"/>
				</defs>
				<clipPath id="SVGID_65_">
					<use xlink:href="#SVGID_64_"  overflow="visible"/>
				</clipPath>
				<g clip-path="url(#SVGID_65_)">
					<defs>
						<path id="SVGID_66_" d="M347.6,398.7c0,0-29.2-74.7-84.7-43.7c-55.6,31-89.3,54.7-113,48.3
							C149.9,403.2,226.4,425.1,347.6,398.7"/>
					</defs>
					<clipPath id="SVGID_67_">
						<use xlink:href="#SVGID_66_"  overflow="visible"/>
					</clipPath>
					
						<radialGradient id="SVGID_68_" cx="0" cy="595.275" r="1" gradientTransform="matrix(128.1271 0 0 -128.1271 366.748 76693.2656)" gradientUnits="userSpaceOnUse">
						<stop  offset="0" style="stop-color:#8C8C8C"/>
						<stop  offset="1" style="stop-color:#FFFFFF"/>
					</radialGradient>
					<rect x="149.9" y="324" clip-path="url(#SVGID_67_)" fill="url(#SVGID_68_)" width="197.7" height="101.1"/>
				</g>
			</g>
		</g>
		<g clip-path="url(#SVGID_53_)">
			<g>
				<defs>
					<rect id="SVGID_69_" x="61.5" y="250.2" width="83.8" height="130.3"/>
				</defs>
				<clipPath id="SVGID_70_">
					<use xlink:href="#SVGID_69_"  overflow="visible"/>
				</clipPath>
				<g clip-path="url(#SVGID_70_)">
					<defs>
						<path id="SVGID_71_" d="M145.3,250.2c0,0-83.8,3.6-83.8,62.9c0,59.2,83.8,67.4,83.8,67.4s-55.6-20-55.6-70.2
							S145.3,250.2,145.3,250.2"/>
					</defs>
					<clipPath id="SVGID_72_">
						<use xlink:href="#SVGID_71_"  overflow="visible"/>
					</clipPath>
					
						<radialGradient id="SVGID_73_" cx="0" cy="595.275" r="1" gradientTransform="matrix(136.525 0 0 -136.525 12.3003 81555.6016)" gradientUnits="userSpaceOnUse">
						<stop  offset="0" style="stop-color:#FFFFFF"/>
						<stop  offset="0.264" style="stop-color:#FFFFFF"/>
						<stop  offset="0.8764" style="stop-color:#000000"/>
						<stop  offset="1" style="stop-color:#000000"/>
					</radialGradient>
					<rect x="61.5" y="250.2" clip-path="url(#SVGID_72_)" fill="url(#SVGID_73_)" width="83.8" height="130.3"/>
				</g>
			</g>
		</g>
		<g clip-path="url(#SVGID_53_)">
			<g>
				<defs>
					<rect id="SVGID_74_" x="149.9" y="185.5" width="130.3" height="110.3"/>
				</defs>
				<clipPath id="SVGID_75_">
					<use xlink:href="#SVGID_74_"  overflow="visible"/>
				</clipPath>
				<g clip-path="url(#SVGID_75_)">
					<defs>
						<path id="SVGID_76_" d="M149.9,231c0,0,55.6-39.2,130.3-45.6c0,0-16.4,90.2-53.8,110.3c0,0-15.5-1.8-15.5-38.3
							C210.9,221,149.9,231,149.9,231"/>
					</defs>
					<clipPath id="SVGID_77_">
						<use xlink:href="#SVGID_76_"  overflow="visible"/>
					</clipPath>
					
						<radialGradient id="SVGID_78_" cx="0" cy="595.275" r="1" gradientTransform="matrix(120.6393 0 0 -120.6393 283.8306 72084.7109)" gradientUnits="userSpaceOnUse">
						<stop  offset="0" style="stop-color:#FFFFFF"/>
						<stop  offset="0.264" style="stop-color:#FFFFFF"/>
						<stop  offset="0.8764" style="stop-color:#000000"/>
						<stop  offset="1" style="stop-color:#000000"/>
					</radialGradient>
					<rect x="149.9" y="185.5" clip-path="url(#SVGID_77_)" fill="url(#SVGID_78_)" width="130.3" height="110.3"/>
				</g>
			</g>
		</g>
	</g>
</g>
</svg>
