<?xml version="1.0" encoding="utf-8"?>
<!-- Generator: Adobe Illustrator 17.1.0, SVG Export Plug-In . SVG Version: 6.00 Build 0)  -->
<!DOCTYPE svg PUBLIC "-//W3C//DTD SVG 1.1//EN" "http://www.w3.org/Graphics/SVG/1.1/DTD/svg11.dtd">
<svg version="1.1" id="Lager_1" xmlns="http://www.w3.org/2000/svg" xmlns:xlink="http://www.w3.org/1999/xlink" x="0px" y="0px"
	 viewBox="0 0 841.9 595.3" enable-background="new 0 0 841.9 595.3" xml:space="preserve">
<g>
	<defs>
		<rect id="SVGID_1_" width="841.9" height="595.3"/>
	</defs>
	<clipPath id="SVGID_2_">
		<use xlink:href="#SVGID_1_"  overflow="visible"/>
	</clipPath>
	<g clip-path="url(#SVGID_2_)">
		<defs>
			<path id="SVGID_3_" d="M21.7,296.1v88.5c0,0,0.2,0.1,0.5,0.2c2,7.1,4.1,14.2,6.2,21.2c4.8-4.9,9.6-9.8,14.4-14.7
				c0.4,0.1,0.8,0.2,1.2,0.3c2,6.5,4,13,6,19.6c4.5-4.7,9-9.5,13.5-14.2c0.7,0.2,1.4,0.4,2.1,0.5c2,6.2,4,12.4,6,18.6
				c4.4-4.7,8.7-9.3,13-14c0.9,0.2,1.7,0.4,2.6,0.6c2,6,4,12,6.1,18.1c4.2-4.6,8.4-9.3,12.6-14c1,0.2,1.9,0.4,2.9,0.6
				c2.1,5.9,4.1,11.8,6.2,17.7c4.1-4.7,8.2-9.4,12.3-14.1c1,0.2,2,0.4,3,0.6c2.1,5.9,4.3,11.7,6.5,17.6c4.1-4.8,8.1-9.5,12.1-14.3
				c1,0.2,2,0.3,2.9,0.5c2.2,5.9,4.4,11.7,6.7,17.5c4.1-4.8,8.1-9.7,12-14.6c0.9,0.1,1.9,0.3,2.8,0.4c2.3,5.9,4.6,11.7,7,17.6
				c4-5,8-9.9,12-14.9c0.9,0.1,1.7,0.2,2.6,0.3c2.4,5.9,4.8,11.8,7.3,17.7c4-5.1,8-10.2,11.9-15.3c0.8,0.1,1.5,0.2,2.3,0.3
				c2.5,6,5.1,11.9,7.7,17.9c4-5.2,8-10.4,11.9-15.7c0.7,0.1,1.3,0.1,2,0.2c2.6,6,5.3,12,8,18c4-5.3,7.9-10.7,11.9-16.1
				c0.6,0,1.1,0.1,1.7,0.1c2.8,6.1,5.5,12.1,8.4,18.2c4-5.5,7.9-11,11.8-16.5c0.5,0,0.9,0.1,1.4,0.1c2.9,6.1,5.8,12.2,8.8,18.3
				c4-5.6,7.9-11.3,11.8-16.9c0.4,0,0.7,0,1.1,0.1c3,6.2,6,12.3,9.1,18.5c3.9-5.7,7.8-11.5,11.7-17.3c0.3,0,0.5,0,0.8,0
				c3.1,6.2,6.3,12.4,9.5,18.6c3.9-5.9,7.8-11.7,11.6-17.6c0.2,0,0.4,0,0.6,0c3.2,6.2,6.5,12.5,9.9,18.7c3.9-6,7.7-12,11.4-18
				c0.1,0,0.3,0,0.4,0c3.4,6.2,6.8,12.5,10.2,18.7c3.8-6.1,7.5-12.1,11.3-18.2c0.1,0,0.2,0,0.3,0c3.5,6.2,7,12.5,10.5,18.7
				c3.7-6.1,7.4-12.3,11-18.4h0.2c3.6,6.2,7.2,12.4,10.8,18.6c3.6-6.2,7.2-12.4,10.8-18.6h0.2c3.6,6.2,7.3,12.3,11,18.4
				c3.6-6.2,7.1-12.4,10.5-18.7c0.1,0,0.2,0,0.2,0c3.7,6.1,7.5,12.2,11.3,18.2c3.4-6.2,6.8-12.5,10.2-18.7c0.1,0,0.2,0,0.4,0
				c3.8,6,7.6,12,11.5,18c3.3-6.2,6.6-12.5,9.9-18.7c0.2,0,0.4,0,0.5,0c3.8,5.9,7.7,11.8,11.6,17.7c3.2-6.2,6.4-12.4,9.5-18.7
				c0.2,0,0.5,0,0.7,0c3.9,5.8,7.8,11.6,11.7,17.4c3.1-6.2,6.1-12.4,9.2-18.6c0.3,0,0.7,0,1-0.1c3.9,5.7,7.8,11.3,11.8,17
				c3-6.1,5.9-12.3,8.8-18.4c0.4,0,0.8-0.1,1.3-0.1c3.9,5.5,7.9,11.1,11.9,16.6c2.9-6.1,5.7-12.2,8.4-18.3c0.5,0,1-0.1,1.6-0.1
				c4,5.4,7.9,10.8,11.9,16.2c2.7-6,5.4-12.1,8.1-18.2c0.6-0.1,1.2-0.1,1.8-0.2c4,5.3,8,10.6,12,15.8c2.6-6,5.2-12,7.7-18
				c0.7-0.1,1.4-0.2,2.1-0.2c4,5.2,8,10.3,12,15.4c2.5-6,5-11.9,7.4-17.9c0.8-0.1,1.6-0.2,2.4-0.3c4,5,8,10.1,12.1,15.1
				c2.4-5.9,4.8-11.9,7.1-17.8c0.9-0.1,1.7-0.3,2.5-0.4c4,4.9,8.1,9.9,12.2,14.8c2.3-5.9,4.6-11.9,6.8-17.8c0.9-0.1,1.8-0.3,2.7-0.5
				c4.1,4.9,8.2,9.7,12.3,14.5c2.2-5.9,4.4-11.9,6.6-17.9c0.9-0.2,1.8-0.3,2.7-0.5c4.1,4.8,8.3,9.6,12.5,14.3c2.2-6,4.3-12,6.4-18
				c0.9-0.2,1.7-0.4,2.6-0.5c4.2,4.8,8.5,9.5,12.8,14.3c2.1-6.1,4.2-12.3,6.2-18.4c0.8-0.2,1.5-0.3,2.3-0.5
				c4.4,4.8,8.8,9.6,13.2,14.3c2.1-6.3,4.1-12.7,6.1-19c0.6-0.1,1.1-0.3,1.7-0.4c4.6,4.9,9.2,9.7,13.8,14.5c2.1-6.7,4.1-13.3,6.2-20
				c0.2-0.1,0.5-0.1,0.7-0.2c4.9,5,9.7,10,14.7,15c2.2-7.3,4.3-14.5,6.4-21.8c-0.4,0.1-0.7,0.2-1.1,0.3v-88.4H21.7z"/>
		</defs>
		<clipPath id="SVGID_4_">
			<use xlink:href="#SVGID_3_"  overflow="visible"/>
		</clipPath>
		
			<linearGradient id="SVGID_5_" gradientUnits="userSpaceOnUse" x1="-9.471460e-07" y1="595.2449" x2="1" y2="595.2449" gradientTransform="matrix(643.034 371.2559 371.2559 -643.034 -220900.7188 382944.9375)">
			<stop  offset="0" style="stop-color:#E5E3DE"/>
			<stop  offset="0" style="stop-color:#D7D5D2"/>
			<stop  offset="0" style="stop-color:#B2B2B2"/>
			<stop  offset="0.2652" style="stop-color:#989898"/>
			<stop  offset="0.3708" style="stop-color:#8C8C8C"/>
			<stop  offset="0.736" style="stop-color:#FFFFFF"/>
			<stop  offset="0.7912" style="stop-color:#F5F5F5"/>
			<stop  offset="0.8839" style="stop-color:#DBDBDB"/>
			<stop  offset="1" style="stop-color:#B2B2B2"/>
		</linearGradient>
		<polygon clip-path="url(#SVGID_4_)" fill="url(#SVGID_5_)" points="221.8,-50.4 890.5,335.7 621.9,800.9 -46.8,414.8 		"/>
	</g>
	<g clip-path="url(#SVGID_2_)">
		<defs>
			<rect id="SVGID_6_" y="140.9" width="24" height="251.6"/>
		</defs>
		<clipPath id="SVGID_7_">
			<use xlink:href="#SVGID_6_"  overflow="visible"/>
		</clipPath>
		
			<linearGradient id="SVGID_8_" gradientUnits="userSpaceOnUse" x1="-9.094947e-13" y1="595.275" x2="1" y2="595.275" gradientTransform="matrix(23.9985 0 0 -23.9985 0 14552.4658)">
			<stop  offset="0" style="stop-color:#E5E3DE"/>
			<stop  offset="0" style="stop-color:#E5DBCF"/>
			<stop  offset="0" style="stop-color:#E4C6A8"/>
			<stop  offset="0" style="stop-color:#E4BC96"/>
			<stop  offset="0.1054" style="stop-color:#CEA47B"/>
			<stop  offset="0.3308" style="stop-color:#966736"/>
			<stop  offset="0.3708" style="stop-color:#8B5C29"/>
			<stop  offset="0.736" style="stop-color:#E4BC96"/>
			<stop  offset="0.8009" style="stop-color:#E2B68C"/>
			<stop  offset="0.9094" style="stop-color:#DBA773"/>
			<stop  offset="1" style="stop-color:#D59758"/>
		</linearGradient>
		<rect y="140.9" clip-path="url(#SVGID_7_)" fill="url(#SVGID_8_)" width="24" height="251.6"/>
	</g>
	<g clip-path="url(#SVGID_2_)">
		<defs>
			<rect id="SVGID_9_" y="282.3" width="24" height="110.2"/>
		</defs>
		<clipPath id="SVGID_10_">
			<use xlink:href="#SVGID_9_"  overflow="visible"/>
		</clipPath>
		
			<linearGradient id="SVGID_11_" gradientUnits="userSpaceOnUse" x1="-9.094947e-13" y1="595.275" x2="1" y2="595.275" gradientTransform="matrix(23.9985 0 0 -23.9985 0 14623.1719)">
			<stop  offset="0" style="stop-color:#B2B2B2"/>
			<stop  offset="5.615230e-03" style="stop-color:#B2B2B2"/>
			<stop  offset="0.1598" style="stop-color:#949494"/>
			<stop  offset="0.3708" style="stop-color:#666666"/>
			<stop  offset="0.736" style="stop-color:#FFFFFF"/>
			<stop  offset="0.7912" style="stop-color:#F5F5F5"/>
			<stop  offset="0.8839" style="stop-color:#DBDBDB"/>
			<stop  offset="1" style="stop-color:#B2B2B2"/>
		</linearGradient>
		<rect y="282.3" clip-path="url(#SVGID_10_)" fill="url(#SVGID_11_)" width="24" height="110.2"/>
	</g>
	<g clip-path="url(#SVGID_2_)">
		<defs>
			<rect id="SVGID_12_" x="817.9" y="140.9" width="24" height="251.6"/>
		</defs>
		<clipPath id="SVGID_13_">
			<use xlink:href="#SVGID_12_"  overflow="visible"/>
		</clipPath>
		
			<linearGradient id="SVGID_14_" gradientUnits="userSpaceOnUse" x1="-2.797445e-05" y1="595.275" x2="1" y2="595.275" gradientTransform="matrix(24 0 0 -24 817.8896 14553.3379)">
			<stop  offset="0" style="stop-color:#E5E3DE"/>
			<stop  offset="0" style="stop-color:#E5DBCF"/>
			<stop  offset="0" style="stop-color:#E4C6A8"/>
			<stop  offset="0" style="stop-color:#E4BC96"/>
			<stop  offset="0.1054" style="stop-color:#CEA47B"/>
			<stop  offset="0.3308" style="stop-color:#966736"/>
			<stop  offset="0.3708" style="stop-color:#8B5C29"/>
			<stop  offset="0.736" style="stop-color:#E4BC96"/>
			<stop  offset="0.8009" style="stop-color:#E2B68C"/>
			<stop  offset="0.9094" style="stop-color:#DBA773"/>
			<stop  offset="1" style="stop-color:#D59758"/>
		</linearGradient>
		<rect x="817.9" y="140.9" clip-path="url(#SVGID_13_)" fill="url(#SVGID_14_)" width="24" height="251.6"/>
	</g>
	<g clip-path="url(#SVGID_2_)">
		<defs>
			<rect id="SVGID_15_" x="817.9" y="282.3" width="24" height="110.2"/>
		</defs>
		<clipPath id="SVGID_16_">
			<use xlink:href="#SVGID_15_"  overflow="visible"/>
		</clipPath>
		
			<linearGradient id="SVGID_17_" gradientUnits="userSpaceOnUse" x1="-2.797445e-05" y1="595.275" x2="1" y2="595.275" gradientTransform="matrix(24 0 0 -24 817.8896 14624.0439)">
			<stop  offset="0" style="stop-color:#B2B2B2"/>
			<stop  offset="0.1566" style="stop-color:#949494"/>
			<stop  offset="0.3708" style="stop-color:#666666"/>
			<stop  offset="0.736" style="stop-color:#FFFFFF"/>
			<stop  offset="0.7912" style="stop-color:#F5F5F5"/>
			<stop  offset="0.8839" style="stop-color:#DBDBDB"/>
			<stop  offset="1" style="stop-color:#B2B2B2"/>
		</linearGradient>
		<rect x="817.9" y="282.3" clip-path="url(#SVGID_16_)" fill="url(#SVGID_17_)" width="24" height="110.2"/>
	</g>
	<g clip-path="url(#SVGID_2_)">
		<defs>
			<rect id="SVGID_18_" width="841.9" height="595.3"/>
		</defs>
		<clipPath id="SVGID_19_">
			<use xlink:href="#SVGID_18_"  overflow="visible"/>
		</clipPath>
		<g clip-path="url(#SVGID_19_)">
			<g>
				<defs>
					<rect id="SVGID_20_" x="29.6" y="302.1" width="781.6" height="83.1"/>
				</defs>
				<clipPath id="SVGID_21_">
					<use xlink:href="#SVGID_20_"  overflow="visible"/>
				</clipPath>
				<g clip-path="url(#SVGID_21_)">
					<defs>
						<path id="SVGID_22_" d="M29.6,302.1v83.1c0,0,267.2-83.1,781.6-83.1H29.6z"/>
					</defs>
					<clipPath id="SVGID_23_">
						<use xlink:href="#SVGID_22_"  overflow="visible"/>
					</clipPath>
					
						<linearGradient id="SVGID_24_" gradientUnits="userSpaceOnUse" x1="0" y1="595.275" x2="1" y2="595.275" gradientTransform="matrix(265.0804 496.4996 496.4996 -265.0804 -295429.25 157585.3125)">
						<stop  offset="0" style="stop-color:#FFFFFF"/>
						<stop  offset="8.507468e-02" style="stop-color:#F5F5F5"/>
						<stop  offset="0.2289" style="stop-color:#DBDBDB"/>
						<stop  offset="0.4139" style="stop-color:#B0B0B0"/>
						<stop  offset="0.633" style="stop-color:#747474"/>
						<stop  offset="0.8778" style="stop-color:#282828"/>
						<stop  offset="1" style="stop-color:#000000"/>
					</linearGradient>
					<polygon clip-path="url(#SVGID_23_)" fill="url(#SVGID_24_)" points="637.8,-22.6 845.7,366.8 203,709.9 -4.9,320.6 					"/>
				</g>
			</g>
		</g>
		<g clip-path="url(#SVGID_19_)">
			<g>
				<defs>
					<rect id="SVGID_25_" x="305.9" y="300.3" width="510.8" height="145.7"/>
				</defs>
				<clipPath id="SVGID_26_">
					<use xlink:href="#SVGID_25_"  overflow="visible"/>
				</clipPath>
				<g clip-path="url(#SVGID_26_)">
					<defs>
						<path id="SVGID_27_" d="M811.2,302.1C732.4,357.2,452.6,406.3,305.9,429l0.6,1.3c2.1,4.2,4,8.2,5.9,12
							c2.4-3.6,4.9-7.3,7.6-11.3l1.3-2l2.4,0.1l0.4,0l0.4,0l2.4,0.1l1.1,2.2c2.2,4.3,4.2,8.4,6.2,12.2c2.4-3.7,4.9-7.5,7.6-11.6
							l1.3-2l2.4,0.1c0.1,0,0.3,0,0.4,0l0.2,0l2.4,0.1l1.1,2.2c2.3,4.4,4.4,8.4,6.5,12.3c2.4-3.7,4.9-7.7,7.5-11.9l1.3-2l2.4,0.1
							l0.1,0c0.1,0,0.2,0,0.3,0l2.4,0.1l1.1,2.1c2.3,4.4,4.6,8.5,6.7,12.4c2.4-3.9,4.9-7.9,7.4-12.1l1.2-2l2.4,0l0.2,0l0.1,0l2.4,0
							l1.2,2.1c2.4,4.4,4.7,8.5,6.9,12.4c2.4-3.9,4.8-8,7.3-12.3l1.2-2.1h2.4h0.2h2.4l1.2,2.1c2.5,4.3,4.8,8.4,7.1,12.4
							c2.3-4,4.7-8,7.1-12.4l1.2-2.1h2.4h0.2h2.4l1.2,2.1c2.5,4.3,4.9,8.3,7.3,12.3c2.2-4,4.5-8.1,7-12.4l1.2-2.2h2.5h0.1
							c0,0,0,0,0.1,0l2.4-0.1l1.3,2.1c2.6,4.3,5.1,8.3,7.5,12.1c2.2-4,4.4-8.1,6.7-12.4l1.2-2.1l2.4-0.1l0.1,0c0.1,0,0.1,0,0.2,0
							l2.4-0.1l1.3,2.1c2.7,4.2,5.2,8.2,7.6,11.9c2.1-3.9,4.2-8,6.5-12.3l1.1-2.2l2.4-0.1l0.1,0c0.1,0,0.2,0,0.3,0l2.4-0.1l1.3,2
							c2.7,4.1,5.2,8,7.6,11.7c2-3.8,4-7.9,6.2-12.2l1.1-2.2l2.4-0.1c0.1,0,0.3,0,0.4,0c0.1,0,0.2,0,0.4,0l2.4-0.1l1.3,2
							c2.7,4,5.2,7.8,7.7,11.4c1.9-3.7,3.8-7.8,6-12.1l1.1-2.2l2.4-0.2l1-0.1l2.4-0.2l1.4,2c2.7,4,5.3,7.7,7.7,11.1
							c1.8-3.7,3.6-7.6,5.7-12l1-2.2l2.4-0.2l0.7-0.1l0.5,0l2.4-0.2l1.4,1.9c2.7,3.9,5.3,7.4,7.7,10.8c1.7-3.6,3.4-7.4,5.4-11.8
							l1-2.2l2.4-0.2l1.2-0.1l0.4,0l2.4-0.2l1.4,1.9c2.8,3.8,5.3,7.2,7.6,10.4c1.6-3.5,3.3-7.3,5.1-11.6l1-2.2l2.4-0.3
							c0.5-0.1,1.1-0.1,1.6-0.2l0.2,0l2.4-0.3l1.4,1.9c2.9,3.8,5.3,7.1,7.6,10.1c1.5-3.5,3.1-7.2,4.9-11.4l1-2.3l2.4-0.3
							c0.3,0,0.6-0.1,1-0.1c0.4,0,0.8-0.1,1.1-0.1l2.4-0.3l1.5,1.9c2.9,3.7,5.3,6.9,7.6,9.8c1.4-3.4,2.9-7,4.6-11.3l0.9-2.3l2.4-0.3
							c0.5-0.1,1-0.1,1.6-0.2l0.8-0.1l2.4-0.3l1.5,1.9c2.3,2.9,4.9,6.1,7.6,9.5c1.6-4,3.1-7.7,4.4-11.1l0.9-2.3l2.4-0.4
							c0.6-0.1,1.2-0.2,1.8-0.3l0.8-0.1l2.4-0.4l1.5,1.9c2.3,2.8,4.9,5.9,7.6,9.2c1.5-3.9,2.9-7.7,4.2-11.1l0.9-2.3l2.4-0.4
							c0.7-0.1,1.4-0.2,2.1-0.4l0.5-0.1l2.4-0.4l1.5,1.8c2.3,2.8,4.9,5.9,7.6,9c1.4-3.9,2.8-7.7,4.1-11.1l0.8-2.3l2.4-0.4
							c0.5-0.1,1-0.2,1.5-0.3c0.4-0.1,0.8-0.2,1.2-0.2l2.4-0.4l1.6,1.8c2.3,2.7,5,5.8,7.8,8.9c1.5-4.2,2.8-8.1,3.9-11.3l0.8-2.3
							l2.3-0.5l0.4-0.1c0.7-0.1,1.4-0.3,2.1-0.4l2.4-0.5l1.6,1.8c2.3,2.6,5,5.7,8,8.9c1.2-3.5,2.4-7.2,3.9-11.6l0.7-2.2l2.3-0.5
							l0.7-0.2c0.5-0.1,1-0.2,1.5-0.4l2.4-0.6l1.7,1.8c3.1,3.4,5.8,6.4,8.3,9c1.2-3.7,2.5-7.7,3.9-12.2l0.7-2.2l2.3-0.6
							c0.4-0.1,0.8-0.2,1.2-0.3l0.5-0.1l2.4-0.6l1.7,1.8c3.2,3.4,6.1,6.5,8.8,9.4c1.3-4.1,2.6-8.5,4-13.2l0.7-2.2l2.2-0.6l0.2-0.1
							c0.2-0.1,0.4-0.1,0.5-0.2l2.4-0.7l1.8,1.8c3.4,3.5,6.6,6.8,9.6,9.9c1.1-3.6,2.1-7.1,3.1-10.7v-2.8v-84.2h-3.3L811.2,302.1z"/>
					</defs>
					<clipPath id="SVGID_28_">
						<use xlink:href="#SVGID_27_"  overflow="visible"/>
					</clipPath>
					
						<linearGradient id="SVGID_29_" gradientUnits="userSpaceOnUse" x1="0" y1="595.2719" x2="1" y2="595.2719" gradientTransform="matrix(26.2978 266.1345 266.1345 -26.2978 -157873.2969 15903.4141)">
						<stop  offset="0" style="stop-color:#FFFFFF"/>
						<stop  offset="0.2809" style="stop-color:#FFFFFF"/>
						<stop  offset="0.4313" style="stop-color:#F5F5F5"/>
						<stop  offset="0.6839" style="stop-color:#DBDBDB"/>
						<stop  offset="1" style="stop-color:#B2B2B2"/>
					</linearGradient>
					<polygon clip-path="url(#SVGID_28_)" fill="url(#SVGID_29_)" points="811.8,250.4 831,444.6 310.9,496 291.7,301.7 					"/>
				</g>
			</g>
		</g>
		<g clip-path="url(#SVGID_19_)">
			<g>
				<defs>
					<rect id="SVGID_30_" x="4.2" y="144.3" width="4.4" height="198.5"/>
				</defs>
				<clipPath id="SVGID_31_">
					<use xlink:href="#SVGID_30_"  overflow="visible"/>
				</clipPath>
				<g clip-path="url(#SVGID_31_)">
					<defs>
						<rect id="SVGID_32_" x="4.2" y="144.3" width="4.4" height="198.5"/>
					</defs>
					<clipPath id="SVGID_33_">
						<use xlink:href="#SVGID_32_"  overflow="visible"/>
					</clipPath>
					
						<linearGradient id="SVGID_34_" gradientUnits="userSpaceOnUse" x1="0" y1="595.275" x2="1" y2="595.275" gradientTransform="matrix(1.996 299.699 299.699 -1.996 -178398.2969 1225.975)">
						<stop  offset="0" style="stop-color:#E4BC96"/>
						<stop  offset="9.244563e-02" style="stop-color:#DAB490"/>
						<stop  offset="0.2481" style="stop-color:#C09E7E"/>
						<stop  offset="0.4477" style="stop-color:#957B62"/>
						<stop  offset="0.6837" style="stop-color:#5A4A3B"/>
						<stop  offset="0.9475" style="stop-color:#100D0A"/>
						<stop  offset="1" style="stop-color:#000000"/>
					</linearGradient>
					<polygon clip-path="url(#SVGID_33_)" fill="url(#SVGID_34_)" points="8.6,144.3 9.9,342.8 4.2,342.8 2.9,144.3 					"/>
				</g>
			</g>
		</g>
		<g clip-path="url(#SVGID_19_)">
			<g>
				<defs>
					<rect id="SVGID_35_" x="17.5" y="144.3" width="4.4" height="198.5"/>
				</defs>
				<clipPath id="SVGID_36_">
					<use xlink:href="#SVGID_35_"  overflow="visible"/>
				</clipPath>
				<g clip-path="url(#SVGID_36_)">
					<defs>
						<rect id="SVGID_37_" x="17.5" y="144.3" width="4.4" height="198.5"/>
					</defs>
					<clipPath id="SVGID_38_">
						<use xlink:href="#SVGID_37_"  overflow="visible"/>
					</clipPath>
					
						<linearGradient id="SVGID_39_" gradientUnits="userSpaceOnUse" x1="0" y1="595.275" x2="1" y2="595.275" gradientTransform="matrix(-1.530000e-05 -180.9288 -180.9288 1.530000e-05 107722.125 311.2318)">
						<stop  offset="0" style="stop-color:#FFFFFF"/>
						<stop  offset="5.615230e-03" style="stop-color:#FFFFFF"/>
						<stop  offset="0.122" style="stop-color:#FDF9F5"/>
						<stop  offset="0.3184" style="stop-color:#F6E8DB"/>
						<stop  offset="0.5708" style="stop-color:#EBCEB0"/>
						<stop  offset="0.8663" style="stop-color:#DCA975"/>
						<stop  offset="1" style="stop-color:#D59758"/>
					</linearGradient>
					<rect x="17.5" y="144.3" clip-path="url(#SVGID_38_)" fill="url(#SVGID_39_)" width="4.4" height="198.5"/>
				</g>
			</g>
		</g>
		<g clip-path="url(#SVGID_19_)">
			<g>
				<defs>
					<rect id="SVGID_40_" x="823.8" y="144.3" width="4.4" height="198.5"/>
				</defs>
				<clipPath id="SVGID_41_">
					<use xlink:href="#SVGID_40_"  overflow="visible"/>
				</clipPath>
				<g clip-path="url(#SVGID_41_)">
					<defs>
						<rect id="SVGID_42_" x="823.8" y="144.3" width="4.4" height="198.5"/>
					</defs>
					<clipPath id="SVGID_43_">
						<use xlink:href="#SVGID_42_"  overflow="visible"/>
					</clipPath>
					
						<linearGradient id="SVGID_44_" gradientUnits="userSpaceOnUse" x1="0" y1="595.275" x2="1" y2="595.275" gradientTransform="matrix(1.996 299.6997 299.6997 -1.996 -177579.1094 1225.9735)">
						<stop  offset="0" style="stop-color:#E4BC96"/>
						<stop  offset="9.244563e-02" style="stop-color:#DAB490"/>
						<stop  offset="0.2481" style="stop-color:#C09E7E"/>
						<stop  offset="0.4477" style="stop-color:#957B62"/>
						<stop  offset="0.6837" style="stop-color:#5A4A3B"/>
						<stop  offset="0.9475" style="stop-color:#100D0A"/>
						<stop  offset="1" style="stop-color:#000000"/>
					</linearGradient>
					<polygon clip-path="url(#SVGID_43_)" fill="url(#SVGID_44_)" points="828.2,144.3 829.5,342.8 823.8,342.8 822.5,144.3 					
						"/>
				</g>
			</g>
		</g>
		<g clip-path="url(#SVGID_19_)">
			<g>
				<defs>
					<rect id="SVGID_45_" x="837.1" y="144.3" width="4.4" height="198.5"/>
				</defs>
				<clipPath id="SVGID_46_">
					<use xlink:href="#SVGID_45_"  overflow="visible"/>
				</clipPath>
				<g clip-path="url(#SVGID_46_)">
					<defs>
						<rect id="SVGID_47_" x="837.1" y="144.3" width="4.4" height="198.5"/>
					</defs>
					<clipPath id="SVGID_48_">
						<use xlink:href="#SVGID_47_"  overflow="visible"/>
					</clipPath>
					
						<linearGradient id="SVGID_49_" gradientUnits="userSpaceOnUse" x1="0" y1="595.275" x2="1" y2="595.275" gradientTransform="matrix(-1.530000e-05 -180.9288 -180.9288 1.530000e-05 108541.7422 311.2318)">
						<stop  offset="0" style="stop-color:#FFFFFF"/>
						<stop  offset="5.615230e-03" style="stop-color:#FFFFFF"/>
						<stop  offset="0.122" style="stop-color:#FDF9F5"/>
						<stop  offset="0.3184" style="stop-color:#F6E8DB"/>
						<stop  offset="0.5708" style="stop-color:#EBCEB0"/>
						<stop  offset="0.8663" style="stop-color:#DCA975"/>
						<stop  offset="1" style="stop-color:#D59758"/>
					</linearGradient>
					<rect x="837.1" y="144.3" clip-path="url(#SVGID_48_)" fill="url(#SVGID_49_)" width="4.4" height="198.5"/>
				</g>
			</g>
		</g>
	</g>
</g>
</svg>
