<?xml version="1.0" encoding="utf-8"?>
<!-- Generator: Adobe Illustrator 17.1.0, SVG Export Plug-In . SVG Version: 6.00 Build 0)  -->
<!DOCTYPE svg PUBLIC "-//W3C//DTD SVG 1.1//EN" "http://www.w3.org/Graphics/SVG/1.1/DTD/svg11.dtd">
<svg version="1.1" id="Lager_1" xmlns="http://www.w3.org/2000/svg" xmlns:xlink="http://www.w3.org/1999/xlink" x="0px" y="0px"
	 viewBox="0 0 841.9 595.3" enable-background="new 0 0 841.9 595.3" xml:space="preserve">
<g>
	<defs>
		<rect id="SVGID_1_" width="841.9" height="595.3"/>
	</defs>
	<clipPath id="SVGID_2_">
		<use xlink:href="#SVGID_1_"  overflow="visible"/>
	</clipPath>
	<g clip-path="url(#SVGID_2_)">
		<defs>
			<path id="SVGID_3_" d="M214.6,0c-15.9,1.1-33.4,11.8-52.5,31.9c2.8,12.3,15.1,15.5,35.4,10.3C215.7,24.1,221.6,10.1,214.6,0z"/>
		</defs>
		<clipPath id="SVGID_4_">
			<use xlink:href="#SVGID_3_"  overflow="visible"/>
		</clipPath>
		
			<linearGradient id="SVGID_5_" gradientUnits="userSpaceOnUse" x1="-3.579989e-06" y1="595.2495" x2="1" y2="595.2495" gradientTransform="matrix(55.4092 0 0 -55.4092 162.0542 33006.0078)">
			<stop  offset="0" style="stop-color:#797878"/>
			<stop  offset="1" style="stop-color:#431803"/>
		</linearGradient>
		<rect x="162.1" y="0" clip-path="url(#SVGID_4_)" fill="url(#SVGID_5_)" width="59.6" height="47.5"/>
	</g>
	<g clip-path="url(#SVGID_2_)">
		<defs>
			<rect id="SVGID_6_" width="841.9" height="595.3"/>
		</defs>
		<clipPath id="SVGID_7_">
			<use xlink:href="#SVGID_6_"  overflow="visible"/>
		</clipPath>
		<g clip-path="url(#SVGID_7_)">
			<g>
				<defs>
					<rect id="SVGID_8_" x="164.3" width="53" height="30.9"/>
				</defs>
				<clipPath id="SVGID_9_">
					<use xlink:href="#SVGID_8_"  overflow="visible"/>
				</clipPath>
				<g clip-path="url(#SVGID_9_)">
					<defs>
						<path id="SVGID_10_" d="M164.3,29.6C182.6,11,199.3,1.1,214.6,0c1.5,2.2,2.4,4.5,2.8,7c-26.6,5-43.9,12.9-51.8,23.9
							C165,30.5,164.7,30,164.3,29.6"/>
					</defs>
					<clipPath id="SVGID_11_">
						<use xlink:href="#SVGID_10_"  overflow="visible"/>
					</clipPath>
					<defs>
						<filter id="Adobe_OpacityMaskFilter" filterUnits="userSpaceOnUse" x="164.3" y="0" width="53" height="30.9">
							<feColorMatrix  type="matrix" values="1 0 0 0 0  0 1 0 0 0  0 0 1 0 0  0 0 0 1 0"/>
						</filter>
					</defs>
					<mask maskUnits="userSpaceOnUse" x="164.3" y="0" width="53" height="30.9" id="SVGID_12_">
						<g filter="url(#Adobe_OpacityMaskFilter)">
							
								<linearGradient id="SVGID_13_" gradientUnits="userSpaceOnUse" x1="6.045379e-06" y1="595.275" x2="1" y2="595.275" gradientTransform="matrix(53.0049 0 0 -53.0049 164.3267 31567.9434)">
								<stop  offset="0" style="stop-color:#FFFFFF"/>
								<stop  offset="1" style="stop-color:#000000"/>
							</linearGradient>
							<rect x="164.3" y="0" clip-path="url(#SVGID_11_)" fill="url(#SVGID_13_)" width="53" height="30.9"/>
						</g>
					</mask>
					
						<linearGradient id="SVGID_14_" gradientUnits="userSpaceOnUse" x1="6.045379e-06" y1="595.275" x2="1" y2="595.275" gradientTransform="matrix(53.0049 0 0 -53.0049 164.3267 31567.9434)">
						<stop  offset="0" style="stop-color:#FFFFFF"/>
						<stop  offset="1" style="stop-color:#FFFFFF"/>
					</linearGradient>
					<rect x="164.3" y="0" clip-path="url(#SVGID_11_)" mask="url(#SVGID_12_)" fill="url(#SVGID_14_)" width="53" height="30.9"/>
				</g>
			</g>
		</g>
	</g>
	<g clip-path="url(#SVGID_2_)">
		<defs>
			<path id="SVGID_15_" d="M328.8,479.8c-2.4,41-7.4,63.5-14.3,68.3c-13.2,12.4-20.1,25.4-21.4,40.5c9.2,4.5,18,6.7,26.4,6.7h0.1
				c7.7,0,15-1.8,22-5.1c0.5-14,2.1-23.3,4-27.8c8.5-2.7,12.7-5.3,12.7-7.9c-4.8-27.3-5.3-56.1-1.6-85.8
				c14.5-20.9,20.1-34.9,16.7-42.1l-38.8-10C323.8,435.4,321.3,456.8,328.8,479.8"/>
		</defs>
		<clipPath id="SVGID_16_">
			<use xlink:href="#SVGID_15_"  overflow="visible"/>
		</clipPath>
		
			<linearGradient id="SVGID_17_" gradientUnits="userSpaceOnUse" x1="3.383499e-06" y1="595.275" x2="1" y2="595.275" gradientTransform="matrix(81.1758 0 0 -81.1758 293.0317 48827.8711)">
			<stop  offset="0" style="stop-color:#000000"/>
			<stop  offset="0.2282" style="stop-color:#090300"/>
			<stop  offset="0.6032" style="stop-color:#220C02"/>
			<stop  offset="1" style="stop-color:#431803"/>
		</linearGradient>
		<rect x="293" y="416.6" clip-path="url(#SVGID_16_)" fill="url(#SVGID_17_)" width="83.6" height="178.6"/>
	</g>
	<g clip-path="url(#SVGID_2_)">
		<defs>
			<path id="SVGID_18_" d="M361.3,442.5c13.5,20.1,19.1,50.8,17.5,90.5c-12.5,16.7-16.9,30.7-13.5,42.1c23.8,3.4,36.3,1.9,36.5-3.2
				c-4.7-11.4,1.1-24.4,18.3-39.7c-16.7-30.2-26.5-68.8-29.4-115.9C356.8,419,347.3,428,361.3,442.5"/>
		</defs>
		<clipPath id="SVGID_19_">
			<use xlink:href="#SVGID_18_"  overflow="visible"/>
		</clipPath>
		
			<linearGradient id="SVGID_20_" gradientUnits="userSpaceOnUse" x1="0" y1="595.2626" x2="1" y2="595.2626" gradientTransform="matrix(64.9868 0 0 -64.9868 355.0684 39181.6719)">
			<stop  offset="0" style="stop-color:#000000"/>
			<stop  offset="0.2282" style="stop-color:#090300"/>
			<stop  offset="0.6032" style="stop-color:#220C02"/>
			<stop  offset="1" style="stop-color:#431803"/>
		</linearGradient>
		<rect x="347.3" y="416.3" clip-path="url(#SVGID_19_)" fill="url(#SVGID_20_)" width="72.8" height="162.2"/>
	</g>
	<g clip-path="url(#SVGID_2_)">
		<defs>
			<path id="SVGID_21_" d="M602.7,412.4c17.7,38.1,8.5,78.3-27.8,120.7c-17.2,7.1-25.4,16.9-24.6,29.4c18,7.9,33.3,7.7,47.6-1.6
				c-2.1-9,4-12.2,19.1-11.1c1.9-23.3,14.3-52.4,38.9-88.9c11.1-35.6,3.5-53.8-22.9-53.8C624.7,407,614.6,408.8,602.7,412.4"/>
		</defs>
		<clipPath id="SVGID_22_">
			<use xlink:href="#SVGID_21_"  overflow="visible"/>
		</clipPath>
		
			<linearGradient id="SVGID_23_" gradientUnits="userSpaceOnUse" x1="0" y1="595.2648" x2="1" y2="595.2648" gradientTransform="matrix(110.5625 0 0 -110.5625 550.2241 66302.625)">
			<stop  offset="0" style="stop-color:#000000"/>
			<stop  offset="0.2282" style="stop-color:#090300"/>
			<stop  offset="0.6032" style="stop-color:#220C02"/>
			<stop  offset="1" style="stop-color:#431803"/>
		</linearGradient>
		<rect x="549.5" y="407" clip-path="url(#SVGID_22_)" fill="url(#SVGID_23_)" width="117.5" height="163.4"/>
	</g>
	<g clip-path="url(#SVGID_2_)">
		<defs>
			<path id="SVGID_24_" d="M688.4,421.9c10.1,6.9,11.6,26.5,4.8,58.8c-2.7,18.3-17.7,47.6-46.1,84.9c-4.2,5.8-6.4,10.6-6.4,14.3
				c27,4.2,44.5-1.3,52.4-15.9c1.1-2.7,5-2.1,12.7,1.6c1.8-22.2,8.2-45.3,19.8-69.9c1.1-41,7.7-69.6,19.1-86.5
				C733.4,410.2,714.9,415.3,688.4,421.9"/>
		</defs>
		<clipPath id="SVGID_25_">
			<use xlink:href="#SVGID_24_"  overflow="visible"/>
		</clipPath>
		
			<linearGradient id="SVGID_26_" gradientUnits="userSpaceOnUse" x1="1.760415e-06" y1="595.2613" x2="1" y2="595.2613" gradientTransform="matrix(104.0127 0 0 -104.0127 640.7808 62411.3828)">
			<stop  offset="0" style="stop-color:#000000"/>
			<stop  offset="0.2282" style="stop-color:#090300"/>
			<stop  offset="0.6032" style="stop-color:#220C02"/>
			<stop  offset="1" style="stop-color:#431803"/>
		</linearGradient>
		<rect x="640.8" y="409.2" clip-path="url(#SVGID_25_)" fill="url(#SVGID_26_)" width="104" height="174.9"/>
	</g>
	<g clip-path="url(#SVGID_2_)">
		<defs>
			<path id="SVGID_27_" d="M166.2,31.6c-54.2-5.9-80.7,5-78.2,30.3c-11.8,13-23.5,31.9-35.3,55.5c-18.5,20.2-18.5,37,0,50.4
				C67,188.4,77.9,191.3,88,177.9c0.8-7.6,3.4-10.1,7.6-8.8c22.3-2.5,26.8-4.1,30.5-5.4c-20.2,13-12.4,26.9,9.8,49.6
				c16,63,42,89.1,74.4,78.2c-5.9,41.2,30.3,79,108.4,110.9c13.5,21.9,33.6,30.3,58,29c33.2,13.9,53.8-1.7,64.3-46.6
				c34.5,28.2,82.4,37,143.7,30.3c44.1,15.6,79,21.9,103.4,17.7c19.3,13.4,35.3,16.8,46.6,8.8c64.7-116.4,84-216.8,55.5-302.6
				C712.5,40,566.7,16.1,351.5,66.9c-10.9,13.4-25.2,15.1-46.6,5C278,42.6,244.7,27.6,204.4,27.6C192.3,27.6,179.6,28.9,166.2,31.6"
				/>
		</defs>
		<clipPath id="SVGID_28_">
			<use xlink:href="#SVGID_27_"  overflow="visible"/>
		</clipPath>
		
			<linearGradient id="SVGID_29_" gradientUnits="userSpaceOnUse" x1="0" y1="595.2877" x2="1" y2="595.2877" gradientTransform="matrix(-12.1465 528.3768 528.3768 12.1465 -314105.0938 -7196.7588)">
			<stop  offset="0" style="stop-color:#EDEDEE"/>
			<stop  offset="1" style="stop-color:#B6B6B6"/>
		</linearGradient>
		<polygon clip-path="url(#SVGID_28_)" fill="url(#SVGID_29_)" points="828.7,16.3 818.4,467.4 24.3,449.1 34.6,-1.9 		"/>
	</g>
	<g clip-path="url(#SVGID_2_)">
		<defs>
			<rect id="SVGID_30_" width="841.9" height="595.3"/>
		</defs>
		<clipPath id="SVGID_31_">
			<use xlink:href="#SVGID_30_"  overflow="visible"/>
		</clipPath>
		<g clip-path="url(#SVGID_31_)">
			<g>
				<defs>
					<rect id="SVGID_32_" x="114.8" y="119" width="688.2" height="326.7"/>
				</defs>
				<clipPath id="SVGID_33_">
					<use xlink:href="#SVGID_32_"  overflow="visible"/>
				</clipPath>
				<path clip-path="url(#SVGID_33_)" fill-rule="evenodd" clip-rule="evenodd" fill="#E3E3E3" d="M794.2,152
					c22.5,82.8,2,178.9-59.5,289.4c-11.3,8-27.3,4.6-46.6-8.8c-24.4,4.2-59.3-2.1-103.4-17.7c-61.3,6.7-109.3-2.1-143.7-30.3
					c-10.5,45-31.1,60.5-64.3,46.6c-24.4,1.3-44.5-7.1-58-29c-78.2-31.9-114.3-69.8-108.4-110.9c-32.4,10.9-58.4-15.1-74.4-78.2
					c-22.3-22.7-29.4-36.9-9.2-50c-0.9,1.2,10.6-8.9,17.1-12.1c30.8,88.3,72.2,107,124.4,56.2c2-13.4,16.1-42.1,42.1-88.3
					c-54.8,142.5-50.8,213.4,12.1,214.7c12,65.5,42.8,92.3,92.3,76.2c36.1-70.9,50.8-154.5,44.2-252.8
					c88.3,123.7,163.2,146.5,224.7,70.2C757,236.6,793.9,212.4,794.2,152"/>
			</g>
		</g>
		<g clip-path="url(#SVGID_31_)">
			<g>
				<defs>
					<rect id="SVGID_34_" x="442.8" y="343.7" width="232.5" height="90.1"/>
				</defs>
				<clipPath id="SVGID_35_">
					<use xlink:href="#SVGID_34_"  overflow="visible"/>
				</clipPath>
				<path clip-path="url(#SVGID_35_)" fill-rule="evenodd" clip-rule="evenodd" fill="#E3E3E3" d="M675.3,433.8
					c-23.3,0.7-53.7-5.9-90.6-18.9c-59.5,6.5-106.3-1.6-140.5-27.7c1.8-11.7,1.4-26.2-1.3-43.5c89,48.8,159.8,54.2,214.7,22.1
					C643.5,388.4,650.1,411.1,675.3,433.8"/>
			</g>
		</g>
	</g>
	<g clip-path="url(#SVGID_2_)">
		<defs>
			<path id="SVGID_36_" d="M121.4,170.4c1.2-1.4,2.3-2.8,3.4-4.2C123.4,167.5,122.3,168.9,121.4,170.4 M88,61.9
				c-11.8,13-23.5,31.9-35.3,55.5c-18.5,20.2-18.5,37,0,50.4C67,188.4,77.9,191.3,88,177.9c0.8-7.6,3.4-10.1,7.6-8.8
				c15-1.7,25-3.4,30.9-5.5c7.6-12.2,7.8-25.9,0.6-41.2c-2.9-13,6.3-22.7,29-31.5c20.2-25.2,18.1-44.9-5-60.5
				c-3.9-0.2-7.6-0.3-11.1-0.3C103.5,30.1,85.9,41.1,88,61.9"/>
		</defs>
		<clipPath id="SVGID_37_">
			<use xlink:href="#SVGID_36_"  overflow="visible"/>
		</clipPath>
		
			<linearGradient id="SVGID_38_" gradientUnits="userSpaceOnUse" x1="0" y1="595.2549" x2="1" y2="595.2549" gradientTransform="matrix(131.0664 0 0 -131.0664 38.8384 78128.6328)">
			<stop  offset="0" style="stop-color:#797878"/>
			<stop  offset="1" style="stop-color:#431803"/>
		</linearGradient>
		<rect x="34.2" y="30.1" clip-path="url(#SVGID_37_)" fill="url(#SVGID_38_)" width="142" height="161.2"/>
	</g>
	<g clip-path="url(#SVGID_2_)">
		<defs>
			<path id="SVGID_39_" d="M56.2,147.3c-3.5,2.8-8,3.7-13.3,2.8c-1.3,0-2.5,0-3.4,0.2c1.5,6.4,6,12.2,13.3,17.5
				c1.7,2.5,3.4,4.7,5,6.7c18,1.5,30.7-5.1,38.4-19.3c-13,15.4-26.3,20.2-39,15.1c-8.3-9.2-8.6-14.7-1.4-17.4
				c4.7-0.9,6.7-2.4,6.4-4.6c-0.2-2.4-0.9-3.6-2.1-3.6C59.1,144.6,57.8,145.5,56.2,147.3"/>
		</defs>
		<clipPath id="SVGID_40_">
			<use xlink:href="#SVGID_39_"  overflow="visible"/>
		</clipPath>
		
			<linearGradient id="SVGID_41_" gradientUnits="userSpaceOnUse" x1="2.222137e-06" y1="595.2637" x2="1" y2="595.2637" gradientTransform="matrix(56.6504 0 0 -56.6504 39.4429 33882.1992)">
			<stop  offset="0" style="stop-color:#000000"/>
			<stop  offset="0.2282" style="stop-color:#090300"/>
			<stop  offset="0.6032" style="stop-color:#220C02"/>
			<stop  offset="1" style="stop-color:#431803"/>
		</linearGradient>
		<rect x="39.4" y="144.6" clip-path="url(#SVGID_40_)" fill="url(#SVGID_41_)" width="56.6" height="31.3"/>
	</g>
	<g clip-path="url(#SVGID_2_)">
		<defs>
			<rect id="SVGID_42_" width="841.9" height="595.3"/>
		</defs>
		<clipPath id="SVGID_43_">
			<use xlink:href="#SVGID_42_"  overflow="visible"/>
		</clipPath>
		<g clip-path="url(#SVGID_43_)">
			<g>
				<defs>
					<rect id="SVGID_44_" x="51.5" y="30.1" width="104.2" height="94.4"/>
				</defs>
				<clipPath id="SVGID_45_">
					<use xlink:href="#SVGID_44_"  overflow="visible"/>
				</clipPath>
				<g clip-path="url(#SVGID_45_)">
					<defs>
						<path id="SVGID_46_" d="M51.5,118.7l1.2-1.4C64.5,93.8,76.2,74.9,88,61.9c-2.3-22.8,19.1-33.9,63.1-31.5
							c0.6,0.4,1.2,0.8,1.8,1.2c1,2.5,2,5.3,2.9,8.4c-24.6-13.9-42.2-8.6-52.3,16.5c-13.1,15-20.8,34.9-22.9,60.5
							c-17.9,9-27.5,9.8-28.9,2.3L51.5,118.7z"/>
					</defs>
					<clipPath id="SVGID_47_">
						<use xlink:href="#SVGID_46_"  overflow="visible"/>
					</clipPath>
					<defs>
						<filter id="Adobe_OpacityMaskFilter_1_" filterUnits="userSpaceOnUse" x="51.5" y="26.1" width="104.2" height="100.8">
							<feColorMatrix  type="matrix" values="1 0 0 0 0  0 1 0 0 0  0 0 1 0 0  0 0 0 1 0"/>
						</filter>
					</defs>
					<mask maskUnits="userSpaceOnUse" x="51.5" y="26.1" width="104.2" height="100.8" id="SVGID_48_">
						<g filter="url(#Adobe_OpacityMaskFilter_1_)">
							
								<linearGradient id="SVGID_49_" gradientUnits="userSpaceOnUse" x1="1.061172e-06" y1="595.2827" x2="1" y2="595.2827" gradientTransform="matrix(104.249 0 0 -104.249 51.4839 62134.1016)">
								<stop  offset="0" style="stop-color:#FFFFFF"/>
								<stop  offset="1" style="stop-color:#000000"/>
							</linearGradient>
							<rect x="51.5" y="26.1" clip-path="url(#SVGID_47_)" fill="url(#SVGID_49_)" width="104.2" height="100.8"/>
						</g>
					</mask>
					
						<linearGradient id="SVGID_50_" gradientUnits="userSpaceOnUse" x1="1.061172e-06" y1="595.2827" x2="1" y2="595.2827" gradientTransform="matrix(104.249 0 0 -104.249 51.4839 62134.1094)">
						<stop  offset="0" style="stop-color:#FFFFFF"/>
						<stop  offset="1" style="stop-color:#FFFFFF"/>
					</linearGradient>
					
						<rect x="51.5" y="26.1" clip-path="url(#SVGID_47_)" mask="url(#SVGID_48_)" fill="url(#SVGID_50_)" width="104.2" height="100.8"/>
				</g>
			</g>
		</g>
	</g>
	<g clip-path="url(#SVGID_2_)">
		<defs>
			<path id="SVGID_51_" d="M129.6,66.6c9,17.1,17.3,15.6,24.3-3.7c-5-2.5-9.4-3.8-13-3.8C135.8,59.1,132,61.6,129.6,66.6"/>
		</defs>
		<clipPath id="SVGID_52_">
			<use xlink:href="#SVGID_51_"  overflow="visible"/>
		</clipPath>
		
			<linearGradient id="SVGID_53_" gradientUnits="userSpaceOnUse" x1="-2.323093e-05" y1="595.1672" x2="1" y2="595.1672" gradientTransform="matrix(24.3027 0 0 -24.3027 129.5815 14535.6133)">
			<stop  offset="0" style="stop-color:#797878"/>
			<stop  offset="1" style="stop-color:#431803"/>
		</linearGradient>
		<rect x="129.6" y="59.1" clip-path="url(#SVGID_52_)" fill="url(#SVGID_53_)" width="24.3" height="24.6"/>
	</g>
	<g clip-path="url(#SVGID_2_)">
		<defs>
			<path id="SVGID_54_" d="M132.3,66.6c7.3,15.3,13.5,14.5,18.8-0.9c-4.9-2.8-8.8-4.1-11.9-4.1C135.8,61.6,133.5,63.2,132.3,66.6"/>
		</defs>
		<clipPath id="SVGID_55_">
			<use xlink:href="#SVGID_54_"  overflow="visible"/>
		</clipPath>
		
			<linearGradient id="SVGID_56_" gradientUnits="userSpaceOnUse" x1="0" y1="595.3748" x2="1" y2="595.3748" gradientTransform="matrix(-21.7603 1.4778 1.4778 21.7603 -724.2573 -12884.7754)">
			<stop  offset="0" style="stop-color:#000000"/>
			<stop  offset="0.2282" style="stop-color:#090300"/>
			<stop  offset="0.6032" style="stop-color:#220C02"/>
			<stop  offset="1" style="stop-color:#431803"/>
		</linearGradient>
		<polygon clip-path="url(#SVGID_55_)" fill="url(#SVGID_56_)" points="152.5,81.8 132.4,83.2 131,61.6 151,60.3 		"/>
	</g>
	<g clip-path="url(#SVGID_2_)">
		<defs>
			<rect id="SVGID_57_" width="841.9" height="595.3"/>
		</defs>
		<clipPath id="SVGID_58_">
			<use xlink:href="#SVGID_57_"  overflow="visible"/>
		</clipPath>
		<path clip-path="url(#SVGID_58_)" fill-rule="evenodd" clip-rule="evenodd" d="M139.2,72.6c2.3,0,4.1-1.9,4.1-4.4
			c0-2.4-1.9-4.4-4.1-4.4c-2.3,0-4.1,2-4.1,4.4C135.1,70.6,136.9,72.6,139.2,72.6"/>
		<g opacity="0.49" clip-path="url(#SVGID_58_)">
			<g>
				<defs>
					<rect id="SVGID_59_" x="141" y="65.7" width="4.1" height="3.7"/>
				</defs>
				<clipPath id="SVGID_60_">
					<use xlink:href="#SVGID_59_"  overflow="visible"/>
				</clipPath>
				<path clip-path="url(#SVGID_60_)" fill-rule="evenodd" clip-rule="evenodd" fill="#FFFFFF" d="M143.1,69.4
					c1.1,0,2.1-0.8,2.1-1.8c0-1-0.9-1.8-2.1-1.8c-1.1,0-2.1,0.8-2.1,1.8C141,68.5,142,69.4,143.1,69.4"/>
			</g>
		</g>
	</g>
	<g clip-path="url(#SVGID_2_)">
		<defs>
			<path id="SVGID_61_" d="M188.1,37.8c-7.9-0.6-11.9,1.1-9.8,3.4c-3.6,26.2,2.6,38,18.6,35.3c3.3-0.8,7.9-4.3,13.7-11.3
				c32.7-7,50.2-24.2,53-51.5c-1.2-0.1-2.5-0.2-3.9-0.2C244.2,13.6,220.1,21.4,188.1,37.8"/>
		</defs>
		<clipPath id="SVGID_62_">
			<use xlink:href="#SVGID_61_"  overflow="visible"/>
		</clipPath>
		
			<linearGradient id="SVGID_63_" gradientUnits="userSpaceOnUse" x1="0" y1="595.262" x2="1" y2="595.262" gradientTransform="matrix(86.395 0 0 -86.395 177.2695 51474.0469)">
			<stop  offset="0" style="stop-color:#797878"/>
			<stop  offset="1" style="stop-color:#431803"/>
		</linearGradient>
		<rect x="174.7" y="13.6" clip-path="url(#SVGID_62_)" fill="url(#SVGID_63_)" width="89" height="65.6"/>
	</g>
	<g clip-path="url(#SVGID_2_)">
		<defs>
			<rect id="SVGID_64_" width="841.9" height="595.3"/>
		</defs>
		<clipPath id="SVGID_65_">
			<use xlink:href="#SVGID_64_"  overflow="visible"/>
		</clipPath>
		<g clip-path="url(#SVGID_65_)">
			<g>
				<defs>
					<rect id="SVGID_66_" x="201.7" y="20.1" width="56.5" height="41.2"/>
				</defs>
				<clipPath id="SVGID_67_">
					<use xlink:href="#SVGID_66_"  overflow="visible"/>
				</clipPath>
				<path clip-path="url(#SVGID_67_)" fill-rule="evenodd" clip-rule="evenodd" fill="#B7B7B7" d="M201.8,60.4
					c-1.1-25.9,17.7-39.3,56.4-40.3c-6,26.2-23.9,39.6-52.5,41.2c-4.6-1-5.2-2.8-2-4.9"/>
			</g>
		</g>
		<g clip-path="url(#SVGID_65_)">
			<g>
				<defs>
					<rect id="SVGID_68_" x="205.3" y="26" width="41.2" height="33.2"/>
				</defs>
				<clipPath id="SVGID_69_">
					<use xlink:href="#SVGID_68_"  overflow="visible"/>
				</clipPath>
				<path clip-path="url(#SVGID_69_)" fill-rule="evenodd" clip-rule="evenodd" fill="#B7B7B7" d="M205.3,56
					c0.6-15.5,13.7-25.5,39.3-29.9c-22.6,9.7-32.9,17-30.4,22.1c9.5,3.9,20.3,1.8,32.4-5.9C229.6,58.6,215.9,63,205.3,56"/>
			</g>
		</g>
		<g clip-path="url(#SVGID_65_)">
			<g>
				<defs>
					<rect id="SVGID_70_" x="715.7" y="201.2" width="78.3" height="234.7"/>
				</defs>
				<clipPath id="SVGID_71_">
					<use xlink:href="#SVGID_70_"  overflow="visible"/>
				</clipPath>
				<path clip-path="url(#SVGID_71_)" fill-rule="evenodd" clip-rule="evenodd" fill="#E3E3E3" d="M723.7,436
					c24.1-51.5,21.4-88.3-8-110.3c40.8-20.1,66.2-60.9,78.2-124.4C795.3,299.5,771.9,377.8,723.7,436"/>
			</g>
		</g>
		<g clip-path="url(#SVGID_65_)">
			<g>
				<defs>
					<rect id="SVGID_72_" x="318.3" y="55.3" width="431.2" height="254.1"/>
				</defs>
				<clipPath id="SVGID_73_">
					<use xlink:href="#SVGID_72_"  overflow="visible"/>
				</clipPath>
				<g clip-path="url(#SVGID_73_)">
					<defs>
						<path id="SVGID_74_" d="M334.5,113c-34.8,163.2-13.4,224.7,64.2,184.6c36.1-44.8,53.5-96.3,52.2-162.5
							c62.9,78.9,138.4,95,228.7,44.1c66.2-12,84.9-32.8,58.2-68.2C612,36.7,478.9,36,334.5,113"/>
					</defs>
					<clipPath id="SVGID_75_">
						<use xlink:href="#SVGID_74_"  overflow="visible"/>
					</clipPath>
					<defs>
						<filter id="Adobe_OpacityMaskFilter_2_" filterUnits="userSpaceOnUse" x="299.7" y="36" width="464.8" height="301.6">
							<feColorMatrix  type="matrix" values="1 0 0 0 0  0 1 0 0 0  0 0 1 0 0  0 0 0 1 0"/>
						</filter>
					</defs>
					<mask maskUnits="userSpaceOnUse" x="299.7" y="36" width="464.8" height="301.6" id="SVGID_76_">
						<g filter="url(#Adobe_OpacityMaskFilter_2_)">
							
								<linearGradient id="SVGID_77_" gradientUnits="userSpaceOnUse" x1="0" y1="595.2646" x2="1" y2="595.2646" gradientTransform="matrix(431.1728 0 0 -431.1728 318.3442 256848.75)">
								<stop  offset="0" style="stop-color:#FFFFFF"/>
								<stop  offset="1" style="stop-color:#000000"/>
							</linearGradient>
							<rect x="299.7" y="36" clip-path="url(#SVGID_75_)" fill="url(#SVGID_77_)" width="464.8" height="301.6"/>
						</g>
					</mask>
					
						<linearGradient id="SVGID_78_" gradientUnits="userSpaceOnUse" x1="0" y1="595.2646" x2="1" y2="595.2646" gradientTransform="matrix(431.1729 0 0 -431.1729 318.3442 256848.7656)">
						<stop  offset="0" style="stop-color:#FFFFFF"/>
						<stop  offset="1" style="stop-color:#FFFFFF"/>
					</linearGradient>
					
						<rect x="299.7" y="36" clip-path="url(#SVGID_75_)" mask="url(#SVGID_76_)" fill="url(#SVGID_78_)" width="464.8" height="301.6"/>
				</g>
			</g>
		</g>
	</g>
</g>
</svg>
