<?xml version="1.0" encoding="utf-8"?>
<!-- Generator: Adobe Illustrator 17.1.0, SVG Export Plug-In . SVG Version: 6.00 Build 0)  -->
<!DOCTYPE svg PUBLIC "-//W3C//DTD SVG 1.1//EN" "http://www.w3.org/Graphics/SVG/1.1/DTD/svg11.dtd">
<svg version="1.1" id="Lager_1" xmlns="http://www.w3.org/2000/svg" xmlns:xlink="http://www.w3.org/1999/xlink" x="0px" y="0px"
	 viewBox="0 0 326.2 721" enable-background="new 0 0 326.2 721" xml:space="preserve">
<g>
	<g>
		<defs>
			<path id="SVGID_1_" d="M22.4,699.9l53,18.4c44.2-30,96.4-72,116.7-158.8L135,528.2l-35.3-9.1l-59.2-14.2
				C40.5,504.9-6.4,607,22.4,699.9"/>
		</defs>
		<clipPath id="SVGID_2_">
			<use xlink:href="#SVGID_1_"  overflow="visible"/>
		</clipPath>
		
			<linearGradient id="SVGID_3_" gradientUnits="userSpaceOnUse" x1="-269.0918" y1="841.9274" x2="-268.0918" y2="841.9274" gradientTransform="matrix(151.5828 59.8354 59.8354 -151.5828 -9576.8115 144302.2344)">
			<stop  offset="0" style="stop-color:#87888A"/>
			<stop  offset="0.456" style="stop-color:#F6F6F6"/>
			<stop  offset="1" style="stop-color:#B1B3B4"/>
		</linearGradient>
		<polygon clip-path="url(#SVGID_2_)" fill="url(#SVGID_3_)" points="19.3,436.6 265.1,533.6 165.2,786.6 -80.6,689.5 		"/>
	</g>
	<g>
		<defs>
			<path id="SVGID_4_" d="M246.7,9.2c-2.8,10.2,9.8,15.3,21.2,18.5c11.4,3.2,20.3,4.2,23.1-6c2.8-10.2-7.2-16.7-18.6-19.8
				C268.5,0.7,264.6,0,261,0C254.1,0,248.5,2.5,246.7,9.2"/>
		</defs>
		<clipPath id="SVGID_5_">
			<use xlink:href="#SVGID_4_"  overflow="visible"/>
		</clipPath>
		
			<radialGradient id="SVGID_6_" cx="-269.0918" cy="841.89" r="1" gradientTransform="matrix(32.8037 0 0 -32.8037 9111.3203 27635.1973)" gradientUnits="userSpaceOnUse">
			<stop  offset="0" style="stop-color:#8A5D3B"/>
			<stop  offset="1" style="stop-color:#C3996B"/>
		</radialGradient>
		<rect x="243.8" y="0" clip-path="url(#SVGID_5_)" fill="url(#SVGID_6_)" width="50" height="31.8"/>
	</g>
	<g>
		<defs>
			<path id="SVGID_7_" d="M255.3,9.9L142.9,389.3l26.1,9.1L281.4,17.7c-7-7-15.5-8.3-20.9-8.3C257.4,9.4,255.3,9.9,255.3,9.9"/>
		</defs>
		<clipPath id="SVGID_8_">
			<use xlink:href="#SVGID_7_"  overflow="visible"/>
		</clipPath>
		
			<linearGradient id="SVGID_9_" gradientUnits="userSpaceOnUse" x1="-269.0918" y1="841.8085" x2="-268.0918" y2="841.8085" gradientTransform="matrix(15.9941 4.5862 4.5862 -15.9941 645.3312 14899.1357)">
			<stop  offset="0" style="stop-color:#EFD0B1"/>
			<stop  offset="0.3901" style="stop-color:#F6F6F6"/>
			<stop  offset="1" style="stop-color:#C3996B"/>
		</linearGradient>
		<polygon clip-path="url(#SVGID_8_)" fill="url(#SVGID_9_)" points="153.4,-27.3 384.5,39 270.9,435.2 39.8,368.9 		"/>
	</g>
	<g>
		<defs>
			<path id="SVGID_10_" d="M142.9,389.3l-42.2,130.1c10.5,0,30.4,8.8,30.4,8.8L169,398.5c-4.3-8.6-11.7-10.5-17.5-10.5
				C146.7,388,142.9,389.3,142.9,389.3"/>
		</defs>
		<clipPath id="SVGID_11_">
			<use xlink:href="#SVGID_10_"  overflow="visible"/>
		</clipPath>
		
			<linearGradient id="SVGID_12_" gradientUnits="userSpaceOnUse" x1="-269.0918" y1="841.9681" x2="-268.0918" y2="841.9681" gradientTransform="matrix(-27.7885 -8.133 -8.133 27.7885 -481.0623 -25123.4219)">
			<stop  offset="0" style="stop-color:#87888A"/>
			<stop  offset="0.456" style="stop-color:#F6F6F6"/>
			<stop  offset="1" style="stop-color:#B1B3B4"/>
		</linearGradient>
		<polygon clip-path="url(#SVGID_11_)" fill="url(#SVGID_12_)" points="163.6,546.6 62.9,517.2 106.1,369.5 206.8,399 		"/>
	</g>
	<g>
		<defs>
			<polygon id="SVGID_13_" points="76.7,631.1 131.6,527.4 126.9,524.3 			"/>
		</defs>
		<clipPath id="SVGID_14_">
			<use xlink:href="#SVGID_13_"  overflow="visible"/>
		</clipPath>
		
			<linearGradient id="SVGID_15_" gradientUnits="userSpaceOnUse" x1="-269.0918" y1="841.8851" x2="-268.0918" y2="841.8851" gradientTransform="matrix(-55.5 120.2502 120.2502 55.5 -116052.4609 -13820.6748)">
			<stop  offset="0" style="stop-color:#707173"/>
			<stop  offset="1" style="stop-color:#B1B3B4"/>
		</linearGradient>
		<polygon clip-path="url(#SVGID_14_)" fill="url(#SVGID_15_)" points="172.2,543.1 121.9,651.9 36.1,612.3 86.4,503.5 		"/>
	</g>
	<g>
		<defs>
			<path id="SVGID_16_" d="M100.7,519.4l-24,111.7l50.5-107.2c0,0-7.8-7.3-17.2-7.3C107,516.7,103.8,517.4,100.7,519.4"/>
		</defs>
		<clipPath id="SVGID_17_">
			<use xlink:href="#SVGID_16_"  overflow="visible"/>
		</clipPath>
		
			<linearGradient id="SVGID_18_" gradientUnits="userSpaceOnUse" x1="-269.0918" y1="841.8033" x2="-268.0918" y2="841.8033" gradientTransform="matrix(-23.0083 -7.0343 -7.0343 23.0083 -162.3759 -20685.8203)">
			<stop  offset="0" style="stop-color:#87888A"/>
			<stop  offset="0.456" style="stop-color:#F6F6F6"/>
			<stop  offset="1" style="stop-color:#B1B3B4"/>
		</linearGradient>
		<polygon clip-path="url(#SVGID_17_)" fill="url(#SVGID_18_)" points="122.9,645.2 44.7,621.3 81,502.5 159.2,526.4 		"/>
	</g>
</g>
</svg>
