<?xml version="1.0" encoding="utf-8"?>
<!-- Generator: Adobe Illustrator 17.1.0, SVG Export Plug-In . SVG Version: 6.00 Build 0)  -->
<!DOCTYPE svg PUBLIC "-//W3C//DTD SVG 1.1//EN" "http://www.w3.org/Graphics/SVG/1.1/DTD/svg11.dtd">
<svg version="1.1" id="Lager_1" xmlns="http://www.w3.org/2000/svg" xmlns:xlink="http://www.w3.org/1999/xlink" x="0px" y="0px"
	 viewBox="0 0 841.9 595.3" enable-background="new 0 0 841.9 595.3" xml:space="preserve">
<g>
	<defs>
		<rect id="SVGID_1_" width="841.9" height="595.3"/>
	</defs>
	<clipPath id="SVGID_2_">
		<use xlink:href="#SVGID_1_"  overflow="visible"/>
	</clipPath>
	<g clip-path="url(#SVGID_2_)">
		<defs>
			<path id="SVGID_3_" d="M140,0c-8.3,0-17.2,0.4-26.5,1.2C64.1,4.7,45,36.1,56.4,95.2c7.1,21.6,10.3,44.9,9.7,70.7
				c-2.3,38.1,33.6,86.5,106.6,145.3c17.1,35.8,68.5,81.4,156,137.6c4.5,7.1,22,25.8,55.2,58.1c15.8,1.9,28.4,6.5,39.7,15.5
				c88.7,48.3,166.4,72.7,233.2,72.8h0.9c17.3,0,33.9-1.7,49.8-5c80.1-34.9,100.8-71,63-109.5c-56.2-25.2-102.1-49.1-137.6-71.7
				c-9.4-42.3-38.8-81.4-90.1-118.2c2.3-32.6-59.4-91.7-185.1-177.3C290.2,91,250.4,68.4,237.5,45.8C225,15.7,192.8,0,140.3,0H140z"
				/>
		</defs>
		<clipPath id="SVGID_4_">
			<use xlink:href="#SVGID_3_"  overflow="visible"/>
		</clipPath>
		
			<linearGradient id="SVGID_5_" gradientUnits="userSpaceOnUse" x1="0" y1="595.3034" x2="1" y2="595.3034" gradientTransform="matrix(-239.1686 349.3479 349.3479 239.1686 -207457.0312 -142203.4375)">
			<stop  offset="0" style="stop-color:#71B340"/>
			<stop  offset="1" style="stop-color:#006329"/>
		</linearGradient>
		<polygon clip-path="url(#SVGID_4_)" fill="url(#SVGID_5_)" points="1085.7,190 564.7,951 -232.4,405.3 288.6,-355.7 		"/>
	</g>
	<g clip-path="url(#SVGID_2_)">
		<defs>
			<rect id="SVGID_6_" width="841.9" height="595.3"/>
		</defs>
		<clipPath id="SVGID_7_">
			<use xlink:href="#SVGID_6_"  overflow="visible"/>
		</clipPath>
		<path clip-path="url(#SVGID_7_)" fill-rule="evenodd" clip-rule="evenodd" fill="#006329" d="M56.4,95.2
			c-9.9-51.8,3.5-82.2,40.2-91.4c-23.4,18.8-23.9,42.5-1.5,71c8.1,32.6,8.1,62-1,88.2c-3.9,13.6-1.3,19.1,7.7,17.4
			c25.5,17.8,36.2,37.5,32,59.1c-0.3,5.8,7.8,7.4,24.2,5.8c17.8-2.6,27.1,3.9,28.1,19.4c16.1-42,32.6-55.2,48.4-40.7
			c0.6,6.5-5.5,26.2-21.3,58.1c-21.3,43.6-16.5,57.2,13.6,39.7c7.4-7.7,11.6,0,12.6,23.3c22.9,27.1,48.1,22.6,74.6-15.5
			c24.5-21.3,30.4-17.8,19.4,9.7c-44.2,50.7-43,77.8,4.8,80.4c14.5-8.1,23.2-1.3,26.2,20.3c10,31.7,32.6,30,66.9-5.8
			c32.6-29.7,44.9-30,37.8,0c-40,17.4-46.8,43-19.4,75.6c23.9-21.3,37.1-18.1,40.7,9.7c-5.5,16.5,14.2,23.6,59.1,20.3
			c20-0.3,25.8,5.5,17.4,16.5c4.5,7.1,8.4,1.3,13.6-17.4c26.2-49.4,36.2-50.4,30-2.9c2.6,32.9,15.2,33.6,38.8,1.9
			c14.5-34.9,25.8-43,33.9-23.3c13.6,14.9,28.7,7.8,44.6-21.3c0-17.8,4.8-22.9,11.6-12.6c7.7,8.3,15.9,7.5,24.6-2.9
			c2.1,1,4.3,1.9,6.4,2.9c37.8,38.4,17.1,74.6-63,109.5c-77.2,16.1-171.8-6.8-283.9-67.8c-11.3-9-23.9-13.6-39.7-15.5
			c-33.3-32.3-50.7-51-55.2-58.1c-87.5-56.2-138.9-101.7-156-137.6C99.6,252.4,63.8,204,66,165.9C66.7,140.1,63.5,116.8,56.4,95.2"
			/>
		<path clip-path="url(#SVGID_7_)" fill-rule="evenodd" clip-rule="evenodd" fill="#006329" d="M237.5,97.1
			c8.1-22.3-10.3-46.5-55.2-72.7c-27.1-14.2-49.7-2.6-69.8,34.9c-11.9,48.1,6.8,63,55.2,45.5C192.6,93.6,215.2,91.9,237.5,97.1"/>
		<g clip-path="url(#SVGID_7_)">
			<g>
				<defs>
					<rect id="SVGID_8_" x="110.8" y="18.6" width="128.1" height="74.1"/>
				</defs>
				<clipPath id="SVGID_9_">
					<use xlink:href="#SVGID_8_"  overflow="visible"/>
				</clipPath>
				<g clip-path="url(#SVGID_9_)">
					<defs>
						<path id="SVGID_10_" d="M238.9,81.3c-3.2-17.8-22.1-36.8-56.6-56.8c-27.1-14.2-49.7-2.6-69.8,34.9c-0.7,2.8-1.3,5.5-1.8,8
							c2.4,17.5,20.6,23.8,54,18.9c26.6-6.1,49.1-3.1,69.9,6.4C236.9,89.1,238.3,85.3,238.9,81.3"/>
					</defs>
					<clipPath id="SVGID_11_">
						<use xlink:href="#SVGID_10_"  overflow="visible"/>
					</clipPath>
					
						<linearGradient id="SVGID_12_" gradientUnits="userSpaceOnUse" x1="0" y1="595.2144" x2="1" y2="595.2144" gradientTransform="matrix(-20.9802 86.2521 86.2521 20.9802 -51156.0625 -12467.6123)">
						<stop  offset="0" style="stop-color:#787777"/>
						<stop  offset="0.2582" style="stop-color:#444544"/>
						<stop  offset="0.9676" style="stop-color:#0C0A0C"/>
						<stop  offset="1" style="stop-color:#090709"/>
					</linearGradient>
					<polygon clip-path="url(#SVGID_11_)" fill="url(#SVGID_12_)" points="257.8,14.8 231.7,122.1 91.9,88.1 117.9,-19.2 					"/>
				</g>
			</g>
		</g>
		<path clip-path="url(#SVGID_7_)" fill-rule="evenodd" clip-rule="evenodd" fill="#006329" d="M234.6,96.1
			c69.1,58.5,147.3,143.4,234.5,254.8c87.8,97.9,157.6,143.4,209.3,136.6c-49.7,0-116.6-46.8-199.6-139.5
			C382.9,231.8,302.4,148.1,234.6,96.1"/>
		<path clip-path="url(#SVGID_7_)" fill-rule="evenodd" clip-rule="evenodd" fill="#006329" d="M401.3,163
			c-55.6,22-105.9,41.3-151.1,58.1C303.1,190.8,353.5,171.4,401.3,163"/>
		<path clip-path="url(#SVGID_7_)" fill-rule="evenodd" clip-rule="evenodd" fill="#006329" d="M489.4,257
			c-81.1-0.3-124,18.1-128.9,55.2C359.3,263.1,401.6,244.1,489.4,257"/>
		<path clip-path="url(#SVGID_7_)" fill-rule="evenodd" clip-rule="evenodd" fill="#006329" d="M125.1,129.1
			c-2.3,9.8,5.8,47.1,9.7,30c0.9-3.7,5.1-31.1,6.8-18.4l4.8,36.8c2,15.3,4.9-14.3,4.9-19.4c0-7.8-3.7-25.2,3.9-24.2
			c3,0.4,14.5,0.3,14.5,2.9c0,27.6,19.4,22.5,7.7,1.9c-9.3-16.5,14.6-3.5,21.3-1c4.2,1.6,18.1,26.4,19.4,16.5
			c1.3-10-11.4-13.3-12.6-22.3c-0.9-6.7,10.8-6,15.5-9.7c8.5-6.8,4.4-6.1-2.9-10.7c-3-1.9-9.2,9.9-11.6,10.7c-10.1,3-23,2-33.9,5.8
			c-10.4,3.6-44.3,4.1-50.4-1.9c-3.7-3.7-14.5-13-12.6,1.9c0.7,5.6,5.3,1.5,6.8,0C120.9,123.6,121.1,129.8,125.1,129.1"/>
		<path clip-path="url(#SVGID_7_)" fill-rule="evenodd" clip-rule="evenodd" fill="#006329" d="M264.7,95.2
			c0.7,8.7,4.9,6.9,12.6,7.8c5.1,0.6,8.6,4.1,13.6,6.8c4,2.2,8.6,1.1,5.8-3.9c-1.1-1.9-6.2-3.3-8.7-3.9c-2.9-0.7-6.1-2.5-7.8-3.9
			c-2.4-2-14.3-7.7-2.9-7.7c6.6,0,3.3-4.5,0-5.8c-1.7-0.7-13.6-6.3-13.6-1.9c0,1.9,0,3,1,3.9C268.7,90.5,267.3,91.3,264.7,95.2"/>
		<path clip-path="url(#SVGID_7_)" fill-rule="evenodd" clip-rule="evenodd" fill="#006329" d="M292.8,263.8
			c-21,17.8-24.5,35.3-32.9,57.2c-8,20.7-14-3.1-7.8-17.4c16.5-38,20.5-39.8,58.1-62c22-13,50.3-23.9,74.6-32
			c4.9-1.6,52.1-10.9,46.5-7.8c-39.8,22.5-120.4,30.3-146.3,64.9"/>
		<path clip-path="url(#SVGID_7_)" fill-rule="evenodd" clip-rule="evenodd" fill="#006329" d="M375.1,402.3
			c-11.4,24.7-17.9,1.2-2.9-18.4c30.2-39.6,67.6-54.6,110.4-76.5c8.3-4.3,17.7-4.5,26.2-7.7c15.6-6-23.6,15.4-32,18.4
			c-24.3,8.8-46.8,30.7-71.7,44.6C381.4,375.9,378.8,380.5,375.1,402.3"/>
		<g clip-path="url(#SVGID_7_)">
			<g>
				<defs>
					<rect id="SVGID_13_" x="104.5" y="0.8" width="435.9" height="287"/>
				</defs>
				<clipPath id="SVGID_14_">
					<use xlink:href="#SVGID_13_"  overflow="visible"/>
				</clipPath>
				<path clip-path="url(#SVGID_14_)" fill-rule="evenodd" clip-rule="evenodd" fill="#FFFFFF" d="M130.7,0.9
					C188.7-1,224,14.7,237.3,46.5c12.9,22.6,52.6,45.2,120.1,67.8c110.4,75.2,171.4,130,183.1,164.3c-31.4,5.9-64.7,9.1-99.2,9.1
					c-185.9,0-336.7-92.6-336.7-206.9C104.5,52.6,113.8,25.6,130.7,0.9"/>
			</g>
		</g>
	</g>
</g>
</svg>
