<?xml version="1.0" encoding="utf-8"?>
<!-- Generator: Adobe Illustrator 17.1.0, SVG Export Plug-In . SVG Version: 6.00 Build 0)  -->
<!DOCTYPE svg PUBLIC "-//W3C//DTD SVG 1.1//EN" "http://www.w3.org/Graphics/SVG/1.1/DTD/svg11.dtd">
<svg version="1.1" id="Lager_1" xmlns="http://www.w3.org/2000/svg" xmlns:xlink="http://www.w3.org/1999/xlink" x="0px" y="0px"
	 viewBox="0 0 841.9 595.3" enable-background="new 0 0 841.9 595.3" xml:space="preserve">
<g>
	<defs>
		<rect id="SVGID_1_" width="841.9" height="595.3"/>
	</defs>
	<clipPath id="SVGID_2_">
		<use xlink:href="#SVGID_1_"  overflow="visible"/>
	</clipPath>
	<g clip-path="url(#SVGID_2_)">
		<defs>
			<path id="SVGID_3_" d="M382.2,69.4C258.5,84.7,131.7,199,1.9,412.3c186.9,47,366.3,85,538.2,116.8
				c133.6-81.6,234.2-134.5,300.9-162.6C680.4,166.3,539.9,66.1,419.2,66.2C406.7,66.2,394.3,67.2,382.2,69.4"/>
		</defs>
		<clipPath id="SVGID_4_">
			<use xlink:href="#SVGID_3_"  overflow="visible"/>
		</clipPath>
		
			<linearGradient id="SVGID_5_" gradientUnits="userSpaceOnUse" x1="0" y1="595.2696" x2="1" y2="595.2696" gradientTransform="matrix(-26.1603 662.7267 662.7267 26.1603 -394069.0625 -15543.751)">
			<stop  offset="0" style="stop-color:#E1001A"/>
			<stop  offset="0.2821" style="stop-color:#CB051A"/>
			<stop  offset="0.8654" style="stop-color:#941119"/>
			<stop  offset="1" style="stop-color:#861419"/>
		</linearGradient>
		<polygon clip-path="url(#SVGID_4_)" fill="url(#SVGID_5_)" points="859.2,66.9 839.6,562.2 -16.4,528.4 3.2,33.1 		"/>
	</g>
	<g clip-path="url(#SVGID_2_)">
		<defs>
			<path id="SVGID_6_" d="M382.2,69.4c-1.8,0.2-3.7,0.5-5.5,0.8c92.1,141.9,147.6,294.3,166.6,457
				c132.1-80.5,231.6-132.9,297.8-160.7C680.4,166.3,539.9,66.1,419.2,66.2C406.7,66.2,394.3,67.2,382.2,69.4"/>
		</defs>
		<clipPath id="SVGID_7_">
			<use xlink:href="#SVGID_6_"  overflow="visible"/>
		</clipPath>
		
			<linearGradient id="SVGID_8_" gradientUnits="userSpaceOnUse" x1="7.229974e-07" y1="595.275" x2="1" y2="595.275" gradientTransform="matrix(464.3076 0 0 -464.3076 376.6177 276687.4062)">
			<stop  offset="0" style="stop-color:#477DB9"/>
			<stop  offset="0.3199" style="stop-color:#2F6AAD"/>
			<stop  offset="1" style="stop-color:#004594"/>
		</linearGradient>
		<rect x="376.6" y="66.1" clip-path="url(#SVGID_7_)" fill="url(#SVGID_8_)" width="464.3" height="461.1"/>
	</g>
	<g clip-path="url(#SVGID_2_)">
		<defs>
			<path id="SVGID_9_" d="M0,414.2c283.4,64.5,464.4,100.6,543.8,110.3c-80-242.3-190.6-365-330.8-369.1C77.2,183.7,6.2,270,0,414.2
				"/>
		</defs>
		<clipPath id="SVGID_10_">
			<use xlink:href="#SVGID_9_"  overflow="visible"/>
		</clipPath>
		
			<linearGradient id="SVGID_11_" gradientUnits="userSpaceOnUse" x1="9.409732e-07" y1="595.275" x2="1" y2="595.275" gradientTransform="matrix(543.7988 0 0 -543.7988 4.882999e-04 324049.7812)">
			<stop  offset="0" style="stop-color:#477DB9"/>
			<stop  offset="0.3199" style="stop-color:#2F6AAD"/>
			<stop  offset="1" style="stop-color:#004594"/>
		</linearGradient>
		<rect x="0" y="155.4" clip-path="url(#SVGID_10_)" fill="url(#SVGID_11_)" width="543.8" height="369.1"/>
	</g>
	<g clip-path="url(#SVGID_2_)">
		<defs>
			<path id="SVGID_12_" d="M5.6,411.4c29,12.5,207.7,49.2,537.3,114c0.9-10.9-13.7-49.8-44.8-116.8
				c-71.9-134.9-138.3-211.8-200-229.9c-8.9-1.4-17.8-2.2-26.7-2.2C179.1,176.6,90.6,254.8,5.6,411.4"/>
		</defs>
		<clipPath id="SVGID_13_">
			<use xlink:href="#SVGID_12_"  overflow="visible"/>
		</clipPath>
		
			<linearGradient id="SVGID_14_" gradientUnits="userSpaceOnUse" x1="1.659582e-07" y1="595.275" x2="1" y2="595.275" gradientTransform="matrix(537.2939 0 0 -537.2939 5.6079 320188.625)">
			<stop  offset="0" style="stop-color:#E1001A"/>
			<stop  offset="0.2821" style="stop-color:#CB051A"/>
			<stop  offset="0.8654" style="stop-color:#941119"/>
			<stop  offset="1" style="stop-color:#861419"/>
		</linearGradient>
		<rect x="5.6" y="176.6" clip-path="url(#SVGID_13_)" fill="url(#SVGID_14_)" width="538.2" height="348.8"/>
	</g>
	<g clip-path="url(#SVGID_2_)">
		<defs>
			<path id="SVGID_15_" d="M99,399.2c132.4,32.7,243.9,52,336.4,60.7c-1.9-135.8-38.6-214.3-110.3-236.4
				C214.9,224.8,139.5,283.4,99,399.2"/>
		</defs>
		<clipPath id="SVGID_16_">
			<use xlink:href="#SVGID_15_"  overflow="visible"/>
		</clipPath>
		
			<linearGradient id="SVGID_17_" gradientUnits="userSpaceOnUse" x1="-1.610400e-06" y1="595.275" x2="1" y2="595.275" gradientTransform="matrix(336.3682 0 0 -336.3682 99.0405 200573.3438)">
			<stop  offset="0" style="stop-color:#787777"/>
			<stop  offset="0.2582" style="stop-color:#444544"/>
			<stop  offset="0.9676" style="stop-color:#0C0A0C"/>
			<stop  offset="1" style="stop-color:#090709"/>
		</linearGradient>
		<rect x="99" y="223.6" clip-path="url(#SVGID_16_)" fill="url(#SVGID_17_)" width="336.4" height="236.4"/>
	</g>
	<g clip-path="url(#SVGID_2_)">
		<defs>
			<rect id="SVGID_18_" width="841.9" height="595.3"/>
		</defs>
		<clipPath id="SVGID_19_">
			<use xlink:href="#SVGID_18_"  overflow="visible"/>
		</clipPath>
		<path clip-path="url(#SVGID_19_)" fill-rule="evenodd" clip-rule="evenodd" fill="#611216" d="M342,230.1
			c29.2,13.9,51.5,38.8,67,74.9c-50.6-6.4-74.6-8.3-71.8-5.7C340.1,272.9,341.8,250,342,230.1"/>
	</g>
	<g clip-path="url(#SVGID_2_)">
		<defs>
			<path id="SVGID_20_" d="M114.5,361.3c34.9-26.9,109.2-47.5,222.8-62c0.7-21.3,2.8-44.1,6.3-68.3c-5.9-2.9-12-5.3-18.5-7.3
				C227.7,224.7,157.5,270.6,114.5,361.3"/>
		</defs>
		<clipPath id="SVGID_21_">
			<use xlink:href="#SVGID_20_"  overflow="visible"/>
		</clipPath>
		
			<linearGradient id="SVGID_22_" gradientUnits="userSpaceOnUse" x1="0" y1="595.2643" x2="1" y2="595.2643" gradientTransform="matrix(-10.0593 91.6378 91.6378 10.0593 -54309.0781 -5791.6914)">
			<stop  offset="0" style="stop-color:#477DB9"/>
			<stop  offset="0.3199" style="stop-color:#2F6AAD"/>
			<stop  offset="1" style="stop-color:#004594"/>
		</linearGradient>
		<polygon clip-path="url(#SVGID_21_)" fill="url(#SVGID_22_)" points="358.5,225.2 340.9,386.2 99.6,359.7 117.2,198.7 		"/>
	</g>
	<g clip-path="url(#SVGID_2_)">
		<defs>
			<path id="SVGID_23_" d="M91.6,402c0,6.7,5.5,13.1,12.1,14.2l327,54.6c6.7,1.1,12.1-3.4,12.1-10.1c0-6.7-5.5-13.1-12.1-14.2
				l-327-54.6c-0.7-0.1-1.3-0.2-2-0.2C96,391.8,91.6,396,91.6,402"/>
		</defs>
		<clipPath id="SVGID_24_">
			<use xlink:href="#SVGID_23_"  overflow="visible"/>
		</clipPath>
		
			<linearGradient id="SVGID_25_" gradientUnits="userSpaceOnUse" x1="0" y1="595.2788" x2="1" y2="595.2788" gradientTransform="matrix(-9.0952 32.4784 32.4784 9.0952 -19060.7363 -5002.7852)">
			<stop  offset="0" style="stop-color:#E1001A"/>
			<stop  offset="0.2821" style="stop-color:#CB051A"/>
			<stop  offset="0.8654" style="stop-color:#941119"/>
			<stop  offset="1" style="stop-color:#861419"/>
		</linearGradient>
		<polygon clip-path="url(#SVGID_24_)" fill="url(#SVGID_25_)" points="463.7,397.6 417.3,563.2 70.7,466.2 117.1,300.5 		"/>
	</g>
	<g clip-path="url(#SVGID_2_)">
		<defs>
			<rect id="SVGID_26_" width="841.9" height="595.3"/>
		</defs>
		<clipPath id="SVGID_27_">
			<use xlink:href="#SVGID_26_"  overflow="visible"/>
		</clipPath>
		<g clip-path="url(#SVGID_27_)">
			<g>
				<defs>
					<rect id="SVGID_28_" x="100.9" y="398.4" width="328.9" height="59.7"/>
				</defs>
				<clipPath id="SVGID_29_">
					<use xlink:href="#SVGID_28_"  overflow="visible"/>
				</clipPath>
				<path clip-path="url(#SVGID_29_)" fill-rule="evenodd" clip-rule="evenodd" fill="#FFFFFF" d="M103.7,398.5l323.3,54
					c1.5,0.3,2.8,1.7,2.8,3.3c0,1.5-1.3,2.6-2.8,2.3l-323.3-54c-1.5-0.3-2.8-1.7-2.8-3.3C100.9,399.3,102.2,398.2,103.7,398.5"/>
			</g>
		</g>
		<g clip-path="url(#SVGID_27_)">
			<g>
				<defs>
					<rect id="SVGID_30_" x="381.6" y="70.7" width="460.3" height="454.4"/>
				</defs>
				<clipPath id="SVGID_31_">
					<use xlink:href="#SVGID_30_"  overflow="visible"/>
				</clipPath>
				<path clip-path="url(#SVGID_31_)" fill-rule="evenodd" clip-rule="evenodd" fill="#FFFFFF" d="M381.6,70.7
					C463.2,233.6,616,327.5,841.9,364.3C669.9,451,570.2,504.7,542.5,525.1C539.3,392.5,486.3,245,381.6,70.7"/>
			</g>
		</g>
		<g clip-path="url(#SVGID_27_)">
			<g>
				<defs>
					<rect id="SVGID_32_" x="5.2" y="180.8" width="309.1" height="230.2"/>
				</defs>
				<clipPath id="SVGID_33_">
					<use xlink:href="#SVGID_32_"  overflow="visible"/>
				</clipPath>
				<path clip-path="url(#SVGID_33_)" fill-rule="evenodd" clip-rule="evenodd" fill="#9D9D9D" d="M30.6,409.1
					c92.6-169,187.2-241.8,283.8-218.4C211.9,152.3,108.6,226.1,5.2,411.1C7.5,410.1,15.3,409.1,30.6,409.1"/>
			</g>
		</g>
		<g clip-path="url(#SVGID_27_)">
			<g>
				<defs>
					<rect id="SVGID_34_" x="231.2" y="66.2" width="426" height="120.6"/>
				</defs>
				<clipPath id="SVGID_35_">
					<use xlink:href="#SVGID_34_"  overflow="visible"/>
				</clipPath>
				<path clip-path="url(#SVGID_35_)" fill-rule="evenodd" clip-rule="evenodd" fill="#FFFFFF" d="M231.2,136.1
					c50.8-38.3,101.2-60.5,151-66.7c81.8-14.7,173.5,20.1,275,104.3c-45.5,8.3-98.7,13.1-155.6,13.1
					C383.6,186.8,281.3,166.2,231.2,136.1"/>
			</g>
		</g>
	</g>
</g>
</svg>
