<?xml version="1.0" encoding="utf-8"?>
<!-- Generator: Adobe Illustrator 17.1.0, SVG Export Plug-In . SVG Version: 6.00 Build 0)  -->
<!DOCTYPE svg PUBLIC "-//W3C//DTD SVG 1.1//EN" "http://www.w3.org/Graphics/SVG/1.1/DTD/svg11.dtd">
<svg version="1.1" id="Lager_1" xmlns="http://www.w3.org/2000/svg" xmlns:xlink="http://www.w3.org/1999/xlink" x="0px" y="0px"
	 viewBox="0 0 595.3 841.9" enable-background="new 0 0 595.3 841.9" xml:space="preserve">
<g>
	<defs>
		<rect id="SVGID_1_" width="595.3" height="841.9"/>
	</defs>
	<clipPath id="SVGID_2_">
		<use xlink:href="#SVGID_1_"  overflow="visible"/>
	</clipPath>
	<g clip-path="url(#SVGID_2_)">
		<defs>
			<path id="SVGID_3_" d="M558.2,662.4v-8.8c-42.3-26.1-40.9-192.2-40.9-192.2l-5.9-0.3C508,644.3,558.2,662.4,558.2,662.4"/>
		</defs>
		<clipPath id="SVGID_4_">
			<use xlink:href="#SVGID_3_"  overflow="visible"/>
		</clipPath>
		
			<linearGradient id="SVGID_5_" gradientUnits="userSpaceOnUse" x1="0" y1="841.8798" x2="1" y2="841.8798" gradientTransform="matrix(-99.8783 -340.1659 -340.1659 99.8783 286940.2188 -83427.2812)">
			<stop  offset="0" style="stop-color:#DCDDDE"/>
			<stop  offset="5.615230e-03" style="stop-color:#DCDDDE"/>
			<stop  offset="1" style="stop-color:#747577"/>
		</linearGradient>
		<polygon clip-path="url(#SVGID_4_)" fill="url(#SVGID_5_)" points="512,675.9 453.6,477.1 554.2,447.6 612.6,646.4 		"/>
	</g>
	<g clip-path="url(#SVGID_2_)">
		<defs>
			<path id="SVGID_6_" d="M455.2,659.7c53.2,27.6,103,2.7,103,2.7c-50.8-30.3-46-202.8-46-202.8l-127.1-5.4
				C385.1,454.1,401.9,632.1,455.2,659.7"/>
		</defs>
		<clipPath id="SVGID_7_">
			<use xlink:href="#SVGID_6_"  overflow="visible"/>
		</clipPath>
		
			<linearGradient id="SVGID_8_" gradientUnits="userSpaceOnUse" x1="0" y1="841.89" x2="1" y2="841.89" gradientTransform="matrix(-1.530000e-05 -206.1575 -206.1575 1.530000e-05 174033.6562 724.3586)">
			<stop  offset="0" style="stop-color:#FFFFFF"/>
			<stop  offset="5.615230e-03" style="stop-color:#FFFFFF"/>
			<stop  offset="1" style="stop-color:#B7B8BA"/>
		</linearGradient>
		<rect x="385.1" y="454.1" clip-path="url(#SVGID_7_)" fill="url(#SVGID_8_)" width="173.1" height="233.2"/>
	</g>
	<g clip-path="url(#SVGID_2_)">
		<defs>
			<rect id="SVGID_9_" width="595.3" height="841.9"/>
		</defs>
		<clipPath id="SVGID_10_">
			<use xlink:href="#SVGID_9_"  overflow="visible"/>
		</clipPath>
		<g clip-path="url(#SVGID_10_)">
			<g>
				<defs>
					<rect id="SVGID_11_" x="480.6" y="461.2" width="32.5" height="208.1"/>
				</defs>
				<clipPath id="SVGID_12_">
					<use xlink:href="#SVGID_11_"  overflow="visible"/>
				</clipPath>
				<g clip-path="url(#SVGID_12_)">
					<defs>
						<path id="SVGID_13_" d="M513,461.2c0,0-12,149,0,200.1l-32.5,8L513,461.2z"/>
					</defs>
					<clipPath id="SVGID_14_">
						<use xlink:href="#SVGID_13_"  overflow="visible"/>
					</clipPath>
					
						<linearGradient id="SVGID_15_" gradientUnits="userSpaceOnUse" x1="0" y1="842.0295" x2="1" y2="842.0295" gradientTransform="matrix(17.3703 -109.0473 -109.0473 -17.3703 92305.7812 15266.9111)">
						<stop  offset="0" style="stop-color:#FFFFFF"/>
						<stop  offset="5.615230e-03" style="stop-color:#FFFFFF"/>
						<stop  offset="1" style="stop-color:#B2B2B2"/>
					</linearGradient>
					<polygon clip-path="url(#SVGID_14_)" fill="url(#SVGID_15_)" points="448.2,664.2 481.4,456.2 545.3,466.4 512.2,674.4 					
						"/>
				</g>
			</g>
		</g>
	</g>
	<g clip-path="url(#SVGID_2_)">
		<defs>
			<path id="SVGID_16_" d="M414.9,308.8c0,9.9,8.1,18,18,18c1.8,0,3.5-0.3,5.1-0.8c-7.4-2.2-12.9-9.1-12.9-17.3
				c0-8.2,5.4-15,12.9-17.3c-1.6-0.5-3.3-0.8-5.1-0.8C423,290.8,414.9,298.8,414.9,308.8"/>
		</defs>
		<clipPath id="SVGID_17_">
			<use xlink:href="#SVGID_16_"  overflow="visible"/>
		</clipPath>
		
			<linearGradient id="SVGID_18_" gradientUnits="userSpaceOnUse" x1="-3.388361e-06" y1="841.89" x2="1" y2="841.89" gradientTransform="matrix(0 36.0264 36.0264 0 -29903.7324 290.7772)">
			<stop  offset="0" style="stop-color:#DCDDDE"/>
			<stop  offset="5.615230e-03" style="stop-color:#DCDDDE"/>
			<stop  offset="1" style="stop-color:#747577"/>
		</linearGradient>
		<rect x="414.9" y="290.8" clip-path="url(#SVGID_17_)" fill="url(#SVGID_18_)" width="23.1" height="36"/>
	</g>
	<g clip-path="url(#SVGID_2_)">
		<defs>
			<path id="SVGID_19_" d="M414.9,369.5c0,10,8.1,18,18,18c1.8,0,3.5-0.3,5.1-0.8c-7.4-2.2-12.9-9.1-12.9-17.3
				c0-8.2,5.4-15,12.9-17.3c-1.6-0.5-3.3-0.8-5.1-0.8C423,351.5,414.9,359.5,414.9,369.5"/>
		</defs>
		<clipPath id="SVGID_20_">
			<use xlink:href="#SVGID_19_"  overflow="visible"/>
		</clipPath>
		
			<linearGradient id="SVGID_21_" gradientUnits="userSpaceOnUse" x1="-4.235508e-06" y1="841.89" x2="1" y2="841.89" gradientTransform="matrix(0 36.0259 36.0259 0 -29903.3223 351.4672)">
			<stop  offset="0" style="stop-color:#DCDDDE"/>
			<stop  offset="5.615230e-03" style="stop-color:#DCDDDE"/>
			<stop  offset="1" style="stop-color:#747577"/>
		</linearGradient>
		<rect x="414.9" y="351.5" clip-path="url(#SVGID_20_)" fill="url(#SVGID_21_)" width="23.1" height="36"/>
	</g>
	<g clip-path="url(#SVGID_2_)">
		<defs>
			<path id="SVGID_22_" d="M416.3,370.4c0-9.6,7-17.3,15.6-17.3s15.6,7.7,15.6,17.3c0,9.6-7,17.3-15.6,17.3S416.3,379.9,416.3,370.4
				 M416.3,308.4c0-9.6,7-17.3,15.6-17.3s15.6,7.7,15.6,17.3s-7,17.3-15.6,17.3S416.3,317.9,416.3,308.4 M416.3,244.9
				c0-9.6,7-17.3,15.6-17.3s15.6,7.7,15.6,17.3c0,9.6-7,17.3-15.6,17.3S416.3,254.5,416.3,244.9 M416.3,181.5
				c0-9.6,7-17.3,15.6-17.3s15.6,7.7,15.6,17.3c0,9.6-7,17.3-15.6,17.3S416.3,191.1,416.3,181.5 M361.5,455.3l143.7,11
				C541.4,30.8,429.5,10,429.5,10L250.3,2C407.3,26.7,361.5,455.3,361.5,455.3"/>
		</defs>
		<clipPath id="SVGID_23_">
			<use xlink:href="#SVGID_22_"  overflow="visible"/>
		</clipPath>
		
			<linearGradient id="SVGID_24_" gradientUnits="userSpaceOnUse" x1="0" y1="841.8507" x2="1" y2="841.8507" gradientTransform="matrix(18.2145 -435.3614 -435.3614 -18.2145 366896.1875 15782.0605)">
			<stop  offset="0" style="stop-color:#FFFFFF"/>
			<stop  offset="5.615230e-03" style="stop-color:#FFFFFF"/>
			<stop  offset="1" style="stop-color:#B7B8BA"/>
		</linearGradient>
		<polygon clip-path="url(#SVGID_23_)" fill="url(#SVGID_24_)" points="230.9,465.5 250.8,-10.2 560.8,2.8 540.9,478.5 		"/>
	</g>
	<g clip-path="url(#SVGID_2_)">
		<defs>
			<path id="SVGID_25_" d="M202.3,823.6L372,841.4c-1.4-1.9,123.3-31.5,137.9-402.3l-143.7-11.6
				C366.2,427.5,360.8,824.7,202.3,823.6"/>
		</defs>
		<clipPath id="SVGID_26_">
			<use xlink:href="#SVGID_25_"  overflow="visible"/>
		</clipPath>
		
			<linearGradient id="SVGID_27_" gradientUnits="userSpaceOnUse" x1="0" y1="841.8893" x2="1" y2="841.8893" gradientTransform="matrix(31.719 377.1833 377.1833 -31.719 -317206.625 27146.7441)">
			<stop  offset="0" style="stop-color:#FFFFFF"/>
			<stop  offset="5.615230e-03" style="stop-color:#FFFFFF"/>
			<stop  offset="1" style="stop-color:#B7B8BA"/>
		</linearGradient>
		<polygon clip-path="url(#SVGID_26_)" fill="url(#SVGID_27_)" points="507.7,401.9 544.5,838.5 204.4,867.1 167.7,430.5 		"/>
	</g>
	<g clip-path="url(#SVGID_2_)">
		<defs>
			<rect id="SVGID_28_" width="595.3" height="841.9"/>
		</defs>
		<clipPath id="SVGID_29_">
			<use xlink:href="#SVGID_28_"  overflow="visible"/>
		</clipPath>
		<g clip-path="url(#SVGID_29_)">
			<g>
				<defs>
					<rect id="SVGID_30_" x="347.9" y="454.6" width="147.6" height="188.9"/>
				</defs>
				<clipPath id="SVGID_31_">
					<use xlink:href="#SVGID_30_"  overflow="visible"/>
				</clipPath>
				<g clip-path="url(#SVGID_31_)">
					<defs>
						<path id="SVGID_32_" d="M372.5,454.6l123,4.4c0,0-25.1,76.3-147.6,184.5C347.9,643.5,372.5,547.9,372.5,454.6"/>
					</defs>
					<clipPath id="SVGID_33_">
						<use xlink:href="#SVGID_32_"  overflow="visible"/>
					</clipPath>
					
						<linearGradient id="SVGID_34_" gradientUnits="userSpaceOnUse" x1="0" y1="841.89" x2="1" y2="841.89" gradientTransform="matrix(0 -147.6476 -147.6476 0 124724.75 595.7162)">
						<stop  offset="0" style="stop-color:#FFFFFF"/>
						<stop  offset="5.615230e-03" style="stop-color:#FFFFFF"/>
						<stop  offset="1" style="stop-color:#B7B8BA"/>
					</linearGradient>
					<rect x="347.9" y="454.6" clip-path="url(#SVGID_33_)" fill="url(#SVGID_34_)" width="147.6" height="188.9"/>
				</g>
			</g>
		</g>
	</g>
	<g clip-path="url(#SVGID_2_)">
		<defs>
			<polygon id="SVGID_35_" points="525.2,302.9 520.5,461.5 525.6,456.4 529.7,298.4 			"/>
		</defs>
		<clipPath id="SVGID_36_">
			<use xlink:href="#SVGID_35_"  overflow="visible"/>
		</clipPath>
		
			<radialGradient id="SVGID_37_" cx="0" cy="841.89" r="1" gradientTransform="matrix(149.6908 0 0 -149.6908 613.7832 126319.75)" gradientUnits="userSpaceOnUse">
			<stop  offset="0" style="stop-color:#FFFFFF"/>
			<stop  offset="1" style="stop-color:#B2B2B2"/>
		</radialGradient>
		<rect x="520.5" y="298.4" clip-path="url(#SVGID_36_)" fill="url(#SVGID_37_)" width="9.2" height="163.1"/>
	</g>
	<g clip-path="url(#SVGID_2_)">
		<defs>
			<polygon id="SVGID_38_" points="364.7,300 365.9,431.9 369.9,432.1 367.6,296.3 			"/>
		</defs>
		<clipPath id="SVGID_39_">
			<use xlink:href="#SVGID_38_"  overflow="visible"/>
		</clipPath>
		
			<radialGradient id="SVGID_40_" cx="0" cy="841.89" r="1" gradientTransform="matrix(117.2999 0 0 -117.2999 416.7119 99048.4219)" gradientUnits="userSpaceOnUse">
			<stop  offset="0" style="stop-color:#FFFFFF"/>
			<stop  offset="1" style="stop-color:#B2B2B2"/>
		</radialGradient>
		<rect x="364.7" y="296.3" clip-path="url(#SVGID_39_)" fill="url(#SVGID_40_)" width="5.1" height="135.8"/>
	</g>
	<g clip-path="url(#SVGID_2_)">
		<defs>
			<path id="SVGID_41_" d="M414.7,182.1c0,10,8.1,18.2,18.2,18.2c1.8,0,3.5-0.3,5.2-0.8c-7.5-2.2-13-9.2-13-17.4
				c0-8.2,5.5-15.2,13-17.4c-1.6-0.5-3.4-0.8-5.2-0.8C422.9,163.9,414.7,172.1,414.7,182.1"/>
		</defs>
		<clipPath id="SVGID_42_">
			<use xlink:href="#SVGID_41_"  overflow="visible"/>
		</clipPath>
		
			<linearGradient id="SVGID_43_" gradientUnits="userSpaceOnUse" x1="-1.007455e-05" y1="841.89" x2="1" y2="841.89" gradientTransform="matrix(0 36.3501 36.3501 0 -30176.3828 163.9374)">
			<stop  offset="0" style="stop-color:#DCDDDE"/>
			<stop  offset="5.615230e-03" style="stop-color:#DCDDDE"/>
			<stop  offset="1" style="stop-color:#747577"/>
		</linearGradient>
		<rect x="414.7" y="163.9" clip-path="url(#SVGID_42_)" fill="url(#SVGID_43_)" width="23.3" height="36.4"/>
	</g>
	<g clip-path="url(#SVGID_2_)">
		<defs>
			<path id="SVGID_44_" d="M414.9,244.5c0,9.9,8.1,18,18,18c1.8,0,3.5-0.3,5.1-0.8c-7.4-2.2-12.9-9.1-12.9-17.3
				c0-8.2,5.4-15.1,12.9-17.3c-1.6-0.5-3.3-0.8-5.1-0.8C423,226.5,414.9,234.6,414.9,244.5"/>
		</defs>
		<clipPath id="SVGID_45_">
			<use xlink:href="#SVGID_44_"  overflow="visible"/>
		</clipPath>
		
			<linearGradient id="SVGID_46_" gradientUnits="userSpaceOnUse" x1="-6.776721e-06" y1="841.89" x2="1" y2="841.89" gradientTransform="matrix(0 36.0264 36.0264 0 -29903.7324 226.5023)">
			<stop  offset="0" style="stop-color:#DCDDDE"/>
			<stop  offset="5.615230e-03" style="stop-color:#DCDDDE"/>
			<stop  offset="1" style="stop-color:#747577"/>
		</linearGradient>
		<rect x="414.9" y="226.5" clip-path="url(#SVGID_45_)" fill="url(#SVGID_46_)" width="23.1" height="36"/>
	</g>
	<g clip-path="url(#SVGID_2_)">
		<defs>
			<rect id="SVGID_47_" width="595.3" height="841.9"/>
		</defs>
		<clipPath id="SVGID_48_">
			<use xlink:href="#SVGID_47_"  overflow="visible"/>
		</clipPath>
		<g clip-path="url(#SVGID_48_)">
			<g>
				<defs>
					<rect id="SVGID_49_" x="348.7" y="12.4" width="115.2" height="208.9"/>
				</defs>
				<clipPath id="SVGID_50_">
					<use xlink:href="#SVGID_49_"  overflow="visible"/>
				</clipPath>
				<g clip-path="url(#SVGID_50_)">
					<defs>
						<path id="SVGID_51_" d="M348.7,129.1c0,0,15.8,60.9,15.8,92.1c0,0,44.5-140.2,99.5-167.6c0,0-16-45-54.9-41
							C370.2,16.7,348.7,129.1,348.7,129.1"/>
					</defs>
					<clipPath id="SVGID_52_">
						<use xlink:href="#SVGID_51_"  overflow="visible"/>
					</clipPath>
					
						<linearGradient id="SVGID_53_" gradientUnits="userSpaceOnUse" x1="0" y1="841.8457" x2="1" y2="841.8457" gradientTransform="matrix(-55.8839 -88.0867 -88.0867 55.8839 74559.5703 -46934.1016)">
						<stop  offset="0" style="stop-color:#FFFFFF"/>
						<stop  offset="5.615230e-03" style="stop-color:#FFFFFF"/>
						<stop  offset="1" style="stop-color:#B2B2B2"/>
					</linearGradient>
					<polygon clip-path="url(#SVGID_52_)" fill="url(#SVGID_53_)" points="381.8,273.4 252.5,69.7 430.9,-43.5 560.1,160.3 					"/>
				</g>
			</g>
		</g>
	</g>
	<g clip-path="url(#SVGID_2_)">
		<defs>
			<path id="SVGID_54_" d="M235.8,0C123.6,56.8,109.3,290.3,109.3,290.3L299,314.5C359.5,27,429.5,10,429.5,10L235.8,0z"/>
		</defs>
		<clipPath id="SVGID_55_">
			<use xlink:href="#SVGID_54_"  overflow="visible"/>
		</clipPath>
		
			<linearGradient id="SVGID_56_" gradientUnits="userSpaceOnUse" x1="0" y1="841.8875" x2="1" y2="841.8875" gradientTransform="matrix(30.1039 -305.9118 -305.9118 -30.1039 257797.7812 25653.709)">
			<stop  offset="0" style="stop-color:#FFFFFF"/>
			<stop  offset="1.686100e-02" style="stop-color:#FFFFFF"/>
			<stop  offset="1" style="stop-color:#DCDDDE"/>
		</linearGradient>
		<polygon clip-path="url(#SVGID_55_)" fill="url(#SVGID_56_)" points="78.7,311.5 112.4,-31.2 460.2,3 426.5,345.7 		"/>
	</g>
	<g clip-path="url(#SVGID_2_)">
		<defs>
			<rect id="SVGID_57_" width="595.3" height="841.9"/>
		</defs>
		<clipPath id="SVGID_58_">
			<use xlink:href="#SVGID_57_"  overflow="visible"/>
		</clipPath>
		<g clip-path="url(#SVGID_58_)">
			<g>
				<defs>
					<rect id="SVGID_59_" x="224.2" y="9.8" width="177.5" height="218"/>
				</defs>
				<clipPath id="SVGID_60_">
					<use xlink:href="#SVGID_59_"  overflow="visible"/>
				</clipPath>
				<g clip-path="url(#SVGID_60_)">
					<defs>
						<path id="SVGID_61_" d="M328.3,9.8c-12,14.9-81.4,91.5-104.2,218h74.3c0,0,45.4-169.3,103.2-215L328.3,9.8z"/>
					</defs>
					<clipPath id="SVGID_62_">
						<use xlink:href="#SVGID_61_"  overflow="visible"/>
					</clipPath>
					
						<linearGradient id="SVGID_63_" gradientUnits="userSpaceOnUse" x1="0" y1="841.8942" x2="1" y2="841.8942" gradientTransform="matrix(86.5395 155.1754 155.1754 -86.5395 -130402.2109 72843.4219)">
						<stop  offset="0" style="stop-color:#FFFFFF"/>
						<stop  offset="5.615230e-03" style="stop-color:#FFFFFF"/>
						<stop  offset="1" style="stop-color:#000000"/>
					</linearGradient>
					<polygon clip-path="url(#SVGID_62_)" fill="url(#SVGID_63_)" points="359.6,-65.7 494.4,176.1 266.3,303.3 131.4,61.5 					"/>
				</g>
			</g>
		</g>
		<g clip-path="url(#SVGID_58_)">
			<g>
				<defs>
					<rect id="SVGID_64_" x="122.5" y="1.1" width="158.3" height="254.9"/>
				</defs>
				<clipPath id="SVGID_65_">
					<use xlink:href="#SVGID_64_"  overflow="visible"/>
				</clipPath>
				<g clip-path="url(#SVGID_65_)">
					<defs>
						<path id="SVGID_66_" d="M122.5,250.8c0,0,12.6-184.2,140-249.7l18.3,0.8c0,0-96.8,39.9-96.8,254.1L122.5,250.8z"/>
					</defs>
					<clipPath id="SVGID_67_">
						<use xlink:href="#SVGID_66_"  overflow="visible"/>
					</clipPath>
					
						<linearGradient id="SVGID_68_" gradientUnits="userSpaceOnUse" x1="0" y1="841.89" x2="1" y2="841.89" gradientTransform="matrix(-1.530000e-05 291.4322 291.4322 1.530000e-05 -245152.125 91.968)">
						<stop  offset="0" style="stop-color:#FFFFFF"/>
						<stop  offset="5.615230e-03" style="stop-color:#FFFFFF"/>
						<stop  offset="1" style="stop-color:#B7B8BA"/>
					</linearGradient>
					<rect x="122.5" y="1.1" clip-path="url(#SVGID_67_)" fill="url(#SVGID_68_)" width="158.3" height="254.9"/>
				</g>
			</g>
		</g>
		<g clip-path="url(#SVGID_58_)">
			<g>
				<defs>
					<rect id="SVGID_69_" x="113.7" y="141.2" width="223.1" height="125.3"/>
				</defs>
				<clipPath id="SVGID_70_">
					<use xlink:href="#SVGID_69_"  overflow="visible"/>
				</clipPath>
				<g clip-path="url(#SVGID_70_)">
					<defs>
						<path id="SVGID_71_" d="M113.7,250l193.1,16.4c0,0,9.9-64.4,30-125.3C336.8,141.2,204.2,174.5,113.7,250"/>
					</defs>
					<clipPath id="SVGID_72_">
						<use xlink:href="#SVGID_71_"  overflow="visible"/>
					</clipPath>
					
						<linearGradient id="SVGID_73_" gradientUnits="userSpaceOnUse" x1="0" y1="841.8885" x2="1" y2="841.8885" gradientTransform="matrix(5.7901 178.5275 178.5275 -5.7901 -150076.1406 5042.8906)">
						<stop  offset="0" style="stop-color:#FFFFFF"/>
						<stop  offset="5.615230e-03" style="stop-color:#FFFFFF"/>
						<stop  offset="1" style="stop-color:#B2B2B2"/>
					</linearGradient>
					<polygon clip-path="url(#SVGID_72_)" fill="url(#SVGID_73_)" points="336.6,134 340.9,266.3 113.9,273.7 109.7,141.3 					"/>
				</g>
			</g>
		</g>
	</g>
	<g clip-path="url(#SVGID_2_)">
		<defs>
			<path id="SVGID_74_" d="M413.9,14c-22.5,11.7-46.2,51.6-72.2,121.1c-23.7,63.5-40.4,129.3-40.5,130c-0.8,3.1,1.1,6.2,4.2,7
				c3.1,0.8,6.2-1.1,7-4.2c22.1-87.5,69.9-221.2,107.5-246c5-3.3,8.8-4.5,12.2-3.1l2.1-0.7c3.1,0.6,2.4,2.3,3-0.8
				c0.6-3.1-1.5-6.2-4.6-6.8c-1.6-0.3-3.2-0.5-4.8-0.5c0,0,0,0-0.1,0C423.2,10,418.6,11.5,413.9,14"/>
		</defs>
		<clipPath id="SVGID_75_">
			<use xlink:href="#SVGID_74_"  overflow="visible"/>
		</clipPath>
		
			<linearGradient id="SVGID_76_" gradientUnits="userSpaceOnUse" x1="0" y1="841.8878" x2="1" y2="841.8878" gradientTransform="matrix(136.2891 0 0 -136.2891 301.0391 114881.5156)">
			<stop  offset="0" style="stop-color:#DCDDDE"/>
			<stop  offset="5.615230e-03" style="stop-color:#DCDDDE"/>
			<stop  offset="1" style="stop-color:#747577"/>
		</linearGradient>
		<rect x="300.4" y="10" clip-path="url(#SVGID_75_)" fill="url(#SVGID_76_)" width="137.4" height="262.9"/>
	</g>
	<g clip-path="url(#SVGID_2_)">
		<defs>
			<rect id="SVGID_77_" width="595.3" height="841.9"/>
		</defs>
		<clipPath id="SVGID_78_">
			<use xlink:href="#SVGID_77_"  overflow="visible"/>
		</clipPath>
		<g clip-path="url(#SVGID_78_)">
			<g>
				<defs>
					<rect id="SVGID_79_" x="310.6" y="631.3" width="172" height="209"/>
				</defs>
				<clipPath id="SVGID_80_">
					<use xlink:href="#SVGID_79_"  overflow="visible"/>
				</clipPath>
				<g clip-path="url(#SVGID_80_)">
					<defs>
						<path id="SVGID_81_" d="M316.5,716.6c0,0,124.4,11.3,166.1-85.3c0,0-29.1,175.7-113.5,209
							C369.1,840.3,288.4,771.7,316.5,716.6"/>
					</defs>
					<clipPath id="SVGID_82_">
						<use xlink:href="#SVGID_81_"  overflow="visible"/>
					</clipPath>
					
						<linearGradient id="SVGID_83_" gradientUnits="userSpaceOnUse" x1="0" y1="841.8844" x2="1" y2="841.8844" gradientTransform="matrix(-29.9656 152.6824 152.6824 29.9656 -128149.4688 -24521.7891)">
						<stop  offset="0" style="stop-color:#FFFFFF"/>
						<stop  offset="5.615230e-03" style="stop-color:#FFFFFF"/>
						<stop  offset="1" style="stop-color:#8C8C8C"/>
					</linearGradient>
					<polygon clip-path="url(#SVGID_82_)" fill="url(#SVGID_83_)" points="522.1,639.1 475.4,877 248.9,832.6 295.6,594.6 					"/>
				</g>
			</g>
		</g>
	</g>
	<g clip-path="url(#SVGID_2_)">
		<defs>
			<path id="SVGID_84_" d="M182.4,825l189.9,16.5c0,0-85.9-95.8-85.9-294.3l-191.1-3.7C95.3,543.4,78.8,758.1,182.4,825"/>
		</defs>
		<clipPath id="SVGID_85_">
			<use xlink:href="#SVGID_84_"  overflow="visible"/>
		</clipPath>
		
			<linearGradient id="SVGID_86_" gradientUnits="userSpaceOnUse" x1="0" y1="841.9166" x2="1" y2="841.9166" gradientTransform="matrix(-10.3019 282.0762 -306.383 -14.0988 258179.8281 12415.1377)">
			<stop  offset="0" style="stop-color:#FFFFFF"/>
			<stop  offset="1.686100e-02" style="stop-color:#FFFFFF"/>
			<stop  offset="1" style="stop-color:#DCDDDE"/>
		</linearGradient>
		<polygon clip-path="url(#SVGID_85_)" fill="url(#SVGID_86_)" points="79.3,530 67.9,841 371.8,854.9 383.1,543.9 		"/>
	</g>
	<g clip-path="url(#SVGID_2_)">
		<defs>
			<rect id="SVGID_87_" width="595.3" height="841.9"/>
		</defs>
		<clipPath id="SVGID_88_">
			<use xlink:href="#SVGID_87_"  overflow="visible"/>
		</clipPath>
		<g clip-path="url(#SVGID_88_)">
			<g>
				<defs>
					<rect id="SVGID_89_" x="100.7" y="559.4" width="108.7" height="260"/>
				</defs>
				<clipPath id="SVGID_90_">
					<use xlink:href="#SVGID_89_"  overflow="visible"/>
				</clipPath>
				<g clip-path="url(#SVGID_90_)">
					<defs>
						<path id="SVGID_91_" d="M101.1,559.4c0,0-10.7,197.1,86.9,260c0,0-52-148.2,21.4-243.8L101.1,559.4z"/>
					</defs>
					<clipPath id="SVGID_92_">
						<use xlink:href="#SVGID_91_"  overflow="visible"/>
					</clipPath>
					
						<linearGradient id="SVGID_93_" gradientUnits="userSpaceOnUse" x1="0" y1="841.9305" x2="1" y2="841.9305" gradientTransform="matrix(-41.9773 -386.4836 -386.4836 41.9773 325554.9062 -34535.7617)">
						<stop  offset="0" style="stop-color:#FFFFFF"/>
						<stop  offset="5.615230e-03" style="stop-color:#FFFFFF"/>
						<stop  offset="1" style="stop-color:#B7B8BA"/>
					</linearGradient>
					<polygon clip-path="url(#SVGID_92_)" fill="url(#SVGID_93_)" points="91.7,832.2 62.4,562.4 208,546.6 237.3,816.4 					"/>
				</g>
			</g>
		</g>
		<g clip-path="url(#SVGID_88_)">
			<g>
				<defs>
					<rect id="SVGID_94_" x="109.1" y="559.5" width="245.8" height="282.4"/>
				</defs>
				<clipPath id="SVGID_95_">
					<use xlink:href="#SVGID_94_"  overflow="visible"/>
				</clipPath>
				<g clip-path="url(#SVGID_95_)">
					<defs>
						<path id="SVGID_96_" d="M287.5,587.2l-178.4-27.7c0,0,16.8,158,245.8,282.4C354.9,841.9,304.8,724.3,287.5,587.2"/>
					</defs>
					<clipPath id="SVGID_97_">
						<use xlink:href="#SVGID_96_"  overflow="visible"/>
					</clipPath>
					
						<linearGradient id="SVGID_98_" gradientUnits="userSpaceOnUse" x1="0" y1="841.89" x2="1" y2="841.89" gradientTransform="matrix(-48.1469 -443.2864 -443.2864 48.1469 373445.0312 -39698.9883)">
						<stop  offset="0" style="stop-color:#FFFFFF"/>
						<stop  offset="5.615230e-03" style="stop-color:#FFFFFF"/>
						<stop  offset="1" style="stop-color:#B2B2B2"/>
					</linearGradient>
					<polygon clip-path="url(#SVGID_97_)" fill="url(#SVGID_98_)" points="111.9,868.3 78.8,562.8 352,533.1 385.2,838.6 					"/>
				</g>
			</g>
		</g>
	</g>
	<g clip-path="url(#SVGID_2_)">
		<defs>
			<path id="SVGID_99_" d="M502.5,416.7c-13.7,265.9-68.2,362.1-100.9,396.3c-9.1,9.5-18.5,15.2-24.4,18.2c-3.7,1.9-7,1.6-10-0.6
				c-34.5-25.4-62.4-169.6-71-261.7c-0.3-3.2-3.1-5.5-6.3-5.2c-3.2,0.3-5.5,3.1-5.2,6.3c0.1,0.7,6.5,68.2,20.1,134.6
				c16.6,80.8,36.2,125.3,59.6,135c6,2.5,11.8,2.5,17.7-0.1c24.4-10.8,114.1-73.7,132-422.2c0.2-3.2-2.3-5.9-5.5-6.1
				c-0.1,0-0.2,0-0.3,0C505.2,411.2,502.7,413.6,502.5,416.7"/>
		</defs>
		<clipPath id="SVGID_100_">
			<use xlink:href="#SVGID_99_"  overflow="visible"/>
		</clipPath>
		
			<linearGradient id="SVGID_101_" gradientUnits="userSpaceOnUse" x1="0" y1="841.89" x2="1" y2="841.89" gradientTransform="matrix(-3.050000e-05 649.7623 649.7623 3.050000e-05 -546629.0625 600.421)">
			<stop  offset="0" style="stop-color:#DCDDDE"/>
			<stop  offset="5.615230e-03" style="stop-color:#DCDDDE"/>
			<stop  offset="1" style="stop-color:#747577"/>
		</linearGradient>
		<rect x="284.4" y="411.2" clip-path="url(#SVGID_100_)" fill="url(#SVGID_101_)" width="229.8" height="430.9"/>
	</g>
	<g clip-path="url(#SVGID_2_)">
		<defs>
			<polygon id="SVGID_102_" points="514.7,298.4 510.2,302.9 525.2,302.9 529.7,298.4 			"/>
		</defs>
		<clipPath id="SVGID_103_">
			<use xlink:href="#SVGID_102_"  overflow="visible"/>
		</clipPath>
		
			<radialGradient id="SVGID_104_" cx="0" cy="841.89" r="1" gradientTransform="matrix(33.6677 0 0 -33.6677 536.0947 28637.6543)" gradientUnits="userSpaceOnUse">
			<stop  offset="0" style="stop-color:#FFFFFF"/>
			<stop  offset="1" style="stop-color:#B2B2B2"/>
		</radialGradient>
		<rect x="510.2" y="298.4" clip-path="url(#SVGID_103_)" fill="url(#SVGID_104_)" width="19.5" height="4.5"/>
	</g>
	<g clip-path="url(#SVGID_2_)">
		<defs>
			<polygon id="SVGID_105_" points="354.3,296.3 350.8,299.8 364.7,300 367.6,296.3 			"/>
		</defs>
		<clipPath id="SVGID_106_">
			<use xlink:href="#SVGID_105_"  overflow="visible"/>
		</clipPath>
		
			<radialGradient id="SVGID_107_" cx="0" cy="841.89" r="1" gradientTransform="matrix(15.3947 0 0 -15.3947 355.3652 13255.999)" gradientUnits="userSpaceOnUse">
			<stop  offset="0" style="stop-color:#FFFFFF"/>
			<stop  offset="1" style="stop-color:#B2B2B2"/>
		</radialGradient>
		<rect x="350.8" y="296.3" clip-path="url(#SVGID_106_)" fill="url(#SVGID_107_)" width="16.8" height="3.7"/>
	</g>
	<g clip-path="url(#SVGID_2_)">
		<defs>
			<path id="SVGID_108_" d="M428.9,10c-3.2,0.2,2.8,8.6,2.8,8.6c3.2,1.3,100.9,46.4,61.2,431.3c-0.3,3.2,2,6,5.2,6.3
				c3.2,0.3,6-2,6.4-5.2C538,125.7,472.8,38.3,446.5,16.8c-5.4-4.4-14.4-6.8-17.4-6.8C429.1,10,429,10,428.9,10"/>
		</defs>
		<clipPath id="SVGID_109_">
			<use xlink:href="#SVGID_108_"  overflow="visible"/>
		</clipPath>
		
			<linearGradient id="SVGID_110_" gradientUnits="userSpaceOnUse" x1="0" y1="841.8951" x2="1" y2="841.8951" gradientTransform="matrix(-49.1159 -424.7111 -424.7111 49.1159 358066 -40927.3164)">
			<stop  offset="0" style="stop-color:#DCDDDE"/>
			<stop  offset="5.615230e-03" style="stop-color:#DCDDDE"/>
			<stop  offset="1" style="stop-color:#747577"/>
		</linearGradient>
		<polygon clip-path="url(#SVGID_109_)" fill="url(#SVGID_110_)" points="427.2,469.4 374.8,15.9 536.5,-2.8 589,450.7 		"/>
	</g>
	<g clip-path="url(#SVGID_2_)">
		<defs>
			<polygon id="SVGID_111_" points="351.1,454.7 520.5,461.5 525.2,302.9 510.2,302.9 506,437 365.9,431.9 364.7,300 350.8,299.8 
							"/>
		</defs>
		<clipPath id="SVGID_112_">
			<use xlink:href="#SVGID_111_"  overflow="visible"/>
		</clipPath>
		
			<radialGradient id="SVGID_113_" cx="0" cy="841.89" r="1" gradientTransform="matrix(269.7715 0 0 -298.6641 452.623 251749.4688)" gradientUnits="userSpaceOnUse">
			<stop  offset="0" style="stop-color:#FFFFFF"/>
			<stop  offset="1" style="stop-color:#B2B2B2"/>
		</radialGradient>
		<rect x="350.8" y="299.8" clip-path="url(#SVGID_112_)" fill="url(#SVGID_113_)" width="174.5" height="161.7"/>
	</g>
	<g clip-path="url(#SVGID_2_)">
		<defs>
			<path id="SVGID_114_" d="M84.5,247.7c-0.9,0-1.8,0.1-2.7,0.2c-0.9,0.1-1.7,0.3-2.6,0.6c-0.8,0.2-1.7,0.5-2.4,0.8
				c-8.4,3.5-16.7,6.9-25.1,10.4c0.8-0.3,1.6-0.6,2.5-0.9c0.9-0.2,1.7-0.4,2.6-0.6c0.9-0.1,1.8-0.2,2.7-0.2c0.9,0,1.9,0,2.8,0.1
				l242.4,21.3c4,0.3,7.7,1.5,11.2,3.3c3.4,1.8,6.5,4.3,9.1,7.2c2.6,2.9,4.6,6.3,6,10.1c1.4,3.7,2.1,7.7,2,11.8l-5.7,253.8
				c0,1.7-0.2,3.3-0.6,4.9c-0.3,1.6-0.8,3-1.4,4.4c-0.6,1.4-1.3,2.7-2.1,4c-0.8,1.2-1.8,2.4-2.8,3.4c6.2-6.3,12.4-12.5,18.5-18.8
				c1-1,1.9-2.1,2.7-3.3c0.8-1.2,1.5-2.5,2.1-3.9c0.6-1.4,1-2.8,1.4-4.3c0.3-1.5,0.5-3.1,0.5-4.7l6.2-247.7c0.1-4-0.6-7.9-1.9-11.5
				c-1.3-3.6-3.3-6.9-5.8-9.8c-2.5-2.9-5.5-5.3-8.8-7c-3.3-1.8-7-2.9-10.9-3.2L87.3,247.8c-0.5,0-0.9-0.1-1.4-0.1
				c-0.2,0-0.4,0-0.6,0C85.1,247.7,84.8,247.7,84.5,247.7"/>
		</defs>
		<clipPath id="SVGID_115_">
			<use xlink:href="#SVGID_114_"  overflow="visible"/>
		</clipPath>
		
			<linearGradient id="SVGID_116_" gradientUnits="userSpaceOnUse" x1="0" y1="841.6568" x2="1" y2="841.6568" gradientTransform="matrix(182.0357 276.3434 276.3434 -182.0357 -232481.7031 153478.7188)">
			<stop  offset="0" style="stop-color:#666666"/>
			<stop  offset="0.5506" style="stop-color:#FFFFFF"/>
			<stop  offset="1" style="stop-color:#8C8C8C"/>
		</linearGradient>
		<polygon clip-path="url(#SVGID_115_)" fill="url(#SVGID_116_)" points="261.2,109.7 505.9,481 142.6,720.3 -102,349 		"/>
	</g>
	<g clip-path="url(#SVGID_2_)">
		<defs>
			<path id="SVGID_117_" d="M52.3,259.5c-3.1,1.2-5.8,3-8.1,5.3c-2.3,2.4-4.1,5.2-5.3,8.5c-1.2,3.3-1.9,6.9-1.8,10.8L42,524.5
				c0.1,3.6,0.8,7.2,2.2,10.5c1.3,3.3,3.2,6.4,5.5,9.1c2.3,2.7,5,5,8,6.8c3,1.8,6.3,3,9.7,3.5L299.2,589c3.8,0.6,7.4,0.3,10.7-0.5
				c3.3-0.9,6.3-2.5,8.9-4.6c2.6-2.1,4.7-4.8,6.1-7.9c1.5-3.1,2.3-6.6,2.4-10.4l5.7-253.8c0.1-4.1-0.6-8.1-2-11.8
				c-1.4-3.7-3.4-7.1-6-10.1c-2.6-2.9-5.6-5.4-9.1-7.2c-3.4-1.8-7.2-3-11.2-3.3L62.4,258.2c-0.7-0.1-1.4-0.1-2.1-0.1
				C57.5,258.1,54.8,258.6,52.3,259.5"/>
		</defs>
		<clipPath id="SVGID_118_">
			<use xlink:href="#SVGID_117_"  overflow="visible"/>
		</clipPath>
		
			<radialGradient id="SVGID_119_" cx="0" cy="841.89" r="1" gradientTransform="matrix(361.6597 0 0 -361.6597 95.2153 304775.1562)" gradientUnits="userSpaceOnUse">
			<stop  offset="0" style="stop-color:#FFFFFF"/>
			<stop  offset="1" style="stop-color:#B2B2B2"/>
		</radialGradient>
		<rect x="37" y="258.1" clip-path="url(#SVGID_118_)" fill="url(#SVGID_119_)" width="296.2" height="331.5"/>
	</g>
	<g clip-path="url(#SVGID_2_)">
		<defs>
			<rect id="SVGID_120_" width="595.3" height="841.9"/>
		</defs>
		<clipPath id="SVGID_121_">
			<use xlink:href="#SVGID_120_"  overflow="visible"/>
		</clipPath>
		<g clip-path="url(#SVGID_121_)">
			<g>
				<defs>
					<rect id="SVGID_122_" x="45.8" y="272.3" width="270.8" height="310.9"/>
				</defs>
				<clipPath id="SVGID_123_">
					<use xlink:href="#SVGID_122_"  overflow="visible"/>
				</clipPath>
				<g clip-path="url(#SVGID_123_)">
					<defs>
						<path id="SVGID_124_" d="M81.6,542.7c-3.5-0.5-6.8-1.8-9.9-3.6c-3-1.8-5.8-4.1-8.1-6.9c-2.3-2.7-4.2-5.9-5.5-9.2
							c-1.3-3.4-2.1-7-2.2-10.6L51,272.3c-1.4,1.9-2.6,4-3.5,6.3c-1.2,3.1-1.8,6.6-1.7,10.4l4.7,231.8c0.1,3.5,0.8,6.9,2.1,10.1
							c1.3,3.2,3.1,6.2,5.3,8.8c2.2,2.6,4.8,4.8,7.7,6.5c2.9,1.7,6,2.9,9.4,3.4l222.8,33.4c3.6,0.5,7.1,0.3,10.3-0.5
							c3.2-0.9,6.1-2.4,8.5-4.4c-0.1,0-0.1,0-0.2,0L81.6,542.7z"/>
					</defs>
					<clipPath id="SVGID_125_">
						<use xlink:href="#SVGID_124_"  overflow="visible"/>
					</clipPath>
					
						<linearGradient id="SVGID_126_" gradientUnits="userSpaceOnUse" x1="0" y1="841.895" x2="1" y2="841.895" gradientTransform="matrix(-149.5768 88.7818 88.7818 149.5768 -74598.1719 -125479.7031)">
						<stop  offset="0" style="stop-color:#FFFFFF"/>
						<stop  offset="5.615230e-03" style="stop-color:#FFFFFF"/>
						<stop  offset="1" style="stop-color:#B2B2B2"/>
					</linearGradient>
					<polygon clip-path="url(#SVGID_125_)" fill="url(#SVGID_126_)" points="453.1,502.4 116.2,702.3 -90.9,353.4 246,153.4 					
						"/>
				</g>
			</g>
		</g>
		<g clip-path="url(#SVGID_121_)">
			<g>
				<defs>
					<rect id="SVGID_127_" x="54.6" y="265.3" width="269.9" height="302.6"/>
				</defs>
				<clipPath id="SVGID_128_">
					<use xlink:href="#SVGID_127_"  overflow="visible"/>
				</clipPath>
				<g clip-path="url(#SVGID_128_)">
					<defs>
						<path id="SVGID_129_" d="M322.5,303.9c-1.3-3.4-3.2-6.5-5.5-9.2c-2.4-2.7-5.2-5-8.3-6.6c-3.1-1.7-6.6-2.7-10.3-3.1L75.7,265.4
							c-3.3-0.3-6.4,0.2-9.3,1.2c-2.8,1.1-5.3,2.8-7.5,4.9c-1.9,1.9-3.4,4.2-4.5,6.8c0.1-0.1,0.3-0.1,0.4-0.2c2.8-1.1,6-1.5,9.3-1.2
							l222.7,19.5c3.7,0.3,7.1,1.4,10.3,3.1c3.1,1.7,6,3.9,8.3,6.6c2.4,2.7,4.2,5.8,5.5,9.2c1.3,3.4,1.9,7.1,1.9,10.8l-5.2,233.1
							c-0.1,3.1-0.7,5.9-1.8,8.5c2-0.8,3.8-1.9,5.4-3.2c2.4-1.9,4.3-4.4,5.6-7.2c1.4-2.8,2.1-6.1,2.2-9.6l5.2-233.1
							C324.5,310.9,323.8,307.3,322.5,303.9"/>
					</defs>
					<clipPath id="SVGID_130_">
						<use xlink:href="#SVGID_129_"  overflow="visible"/>
					</clipPath>
					
						<linearGradient id="SVGID_131_" gradientUnits="userSpaceOnUse" x1="0" y1="841.8971" x2="1" y2="841.8971" gradientTransform="matrix(-194.6899 235.2201 235.2201 194.6899 -197622.8438 -163756.5938)">
						<stop  offset="0" style="stop-color:#FFFFFF"/>
						<stop  offset="5.615230e-03" style="stop-color:#FFFFFF"/>
						<stop  offset="1" style="stop-color:#000000"/>
					</linearGradient>
					<polygon clip-path="url(#SVGID_130_)" fill="url(#SVGID_131_)" points="473.2,388.2 214.7,700.5 -94.2,444.8 164.3,132.5 					
						"/>
				</g>
			</g>
		</g>
	</g>
	<g clip-path="url(#SVGID_2_)">
		<defs>
			<path id="SVGID_132_" d="M65.6,295.8c-0.9,0.4-1.8,0.9-2.5,1.7c-0.8,0.8-1.5,1.9-1.9,3.1c-0.5,1.4-0.8,3-0.8,4.7l4.3,211.6
				c0,1.6,0.4,3.2,1,4.8c0.6,1.6,1.6,3.1,2.7,4.5c1.1,1.3,2.4,2.4,3.8,3.2c1.3,0.8,2.7,1.3,4,1.5l204,30.5c0.6,0.1,1.2,0.1,1.7,0.1
				c0.9,0,1.7-0.1,2.5-0.3c1.1-0.3,2.2-0.8,3-1.5c0.8-0.7,1.5-1.6,2-2.6c0.6-1.2,0.9-2.5,0.9-3.9l5-223.3c0-1.9-0.3-3.8-1-5.6
				c-0.7-1.8-1.7-3.5-3-4.9c-1.3-1.4-2.7-2.6-4.3-3.5c-1.6-0.8-3.3-1.3-5-1.5L68.9,295.4h0c-0.2,0-0.5,0-0.7,0
				C67.2,295.3,66.4,295.5,65.6,295.8"/>
		</defs>
		<clipPath id="SVGID_133_">
			<use xlink:href="#SVGID_132_"  overflow="visible"/>
		</clipPath>
		
			<radialGradient id="SVGID_134_" cx="2.310012e-05" cy="841.89" r="1.0001" gradientTransform="matrix(125.5045 0 0 -125.5045 177.9336 106089.3672)" gradientUnits="userSpaceOnUse">
			<stop  offset="0" style="stop-color:#FFFFFF"/>
			<stop  offset="1" style="stop-color:#B2B2B2"/>
		</radialGradient>
		<rect x="60.4" y="295.3" clip-path="url(#SVGID_133_)" fill="url(#SVGID_134_)" width="235.1" height="266"/>
	</g>
	<g clip-path="url(#SVGID_2_)">
		<defs>
			<path id="SVGID_135_" d="M86.5,495.1c0,1.6,0.4,3.2,1,4.8c0.6,1.6,1.6,3.1,2.7,4.5c1.1,1.3,2.4,2.4,3.8,3.2
				c1.3,0.8,2.6,1.3,4,1.5l192.9,28.8l4.6-208.2c0-1.9-0.3-3.8-1-5.6c-0.7-1.8-1.7-3.5-3-4.9c-1.3-1.4-2.7-2.6-4.3-3.5
				c-1.6-0.8-3.3-1.3-5-1.5L82.4,296.6L86.5,495.1z"/>
		</defs>
		<clipPath id="SVGID_136_">
			<use xlink:href="#SVGID_135_"  overflow="visible"/>
		</clipPath>
		
			<radialGradient id="SVGID_137_" cx="0" cy="841.89" r="1" gradientTransform="matrix(283.3271 0 0 -283.3271 80.1279 239030.4219)" gradientUnits="userSpaceOnUse">
			<stop  offset="0" style="stop-color:#00A0C6"/>
			<stop  offset="5.615230e-03" style="stop-color:#00A0C6"/>
			<stop  offset="1" style="stop-color:#000000"/>
		</radialGradient>
		<rect x="82.4" y="296.6" clip-path="url(#SVGID_136_)" fill="url(#SVGID_137_)" width="213.1" height="241.3"/>
	</g>
	<g clip-path="url(#SVGID_2_)">
		<defs>
			<polygon id="SVGID_138_" points="273.7,354.7 187.6,407.2 190.2,411.8 282.4,363.4 292.2,351.1 			"/>
		</defs>
		<clipPath id="SVGID_139_">
			<use xlink:href="#SVGID_138_"  overflow="visible"/>
		</clipPath>
		
			<linearGradient id="SVGID_140_" gradientUnits="userSpaceOnUse" x1="0" y1="841.847" x2="1" y2="841.847" gradientTransform="matrix(12.5578 22.6548 22.6548 -12.5578 -18837.5762 10943.1426)">
			<stop  offset="0" style="stop-color:#666666"/>
			<stop  offset="0.5506" style="stop-color:#FFFFFF"/>
			<stop  offset="1" style="stop-color:#8C8C8C"/>
		</linearGradient>
		<polygon clip-path="url(#SVGID_139_)" fill="url(#SVGID_140_)" points="267.6,306.7 318,397.6 212.2,456.2 161.8,365.4 		"/>
	</g>
	<g clip-path="url(#SVGID_2_)">
		<defs>
			<polygon id="SVGID_141_" points="159.8,348.8 173.3,419.5 177.5,419.6 168.9,347 162.6,336.6 			"/>
		</defs>
		<clipPath id="SVGID_142_">
			<use xlink:href="#SVGID_141_"  overflow="visible"/>
		</clipPath>
		
			<linearGradient id="SVGID_143_" gradientUnits="userSpaceOnUse" x1="0" y1="841.8877" x2="1" y2="841.8877" gradientTransform="matrix(20.7507 0.6252 -3.2892 -18.2805 2930.614 15768.0508)">
			<stop  offset="0" style="stop-color:#666666"/>
			<stop  offset="0.6067" style="stop-color:#FFFFFF"/>
			<stop  offset="1" style="stop-color:#FFFFFF"/>
		</linearGradient>
		<polygon clip-path="url(#SVGID_142_)" fill="url(#SVGID_143_)" points="144.7,335.6 177.5,336.6 192.6,420.6 159.8,419.6 		"/>
	</g>
	<g clip-path="url(#SVGID_2_)">
		<defs>
			<path id="SVGID_144_" d="M162.2,416.7c0,8,6.5,14.5,14.5,14.5c8,0,14.5-6.5,14.5-14.5c0-8-6.5-14.5-14.5-14.5
				C168.6,402.2,162.2,408.7,162.2,416.7"/>
		</defs>
		<clipPath id="SVGID_145_">
			<use xlink:href="#SVGID_144_"  overflow="visible"/>
		</clipPath>
		
			<radialGradient id="SVGID_146_" cx="0" cy="841.89" r="1" gradientTransform="matrix(27.4307 0 0 -27.4307 166.979 23500.6719)" gradientUnits="userSpaceOnUse">
			<stop  offset="0" style="stop-color:#FFFFFF"/>
			<stop  offset="5.615230e-03" style="stop-color:#FFFFFF"/>
			<stop  offset="1" style="stop-color:#8C8C8C"/>
		</radialGradient>
		<rect x="162.2" y="402.2" clip-path="url(#SVGID_145_)" fill="url(#SVGID_146_)" width="29" height="29"/>
	</g>
	<g clip-path="url(#SVGID_2_)">
		<defs>
			<rect id="SVGID_147_" width="595.3" height="841.9"/>
		</defs>
		<clipPath id="SVGID_148_">
			<use xlink:href="#SVGID_147_"  overflow="visible"/>
		</clipPath>
		<g clip-path="url(#SVGID_148_)">
			<g>
				<defs>
					<rect id="SVGID_149_" x="162.2" y="403.3" width="25.9" height="26.8"/>
				</defs>
				<clipPath id="SVGID_150_">
					<use xlink:href="#SVGID_149_"  overflow="visible"/>
				</clipPath>
				<g clip-path="url(#SVGID_150_)">
					<defs>
						<path id="SVGID_151_" d="M188.1,416.7c0,7.4-5.8,13.4-13,13.4c-7.2,0-13-6-13-13.4s5.8-13.4,13-13.4
							C182.3,403.3,188.1,409.3,188.1,416.7"/>
					</defs>
					<clipPath id="SVGID_152_">
						<use xlink:href="#SVGID_151_"  overflow="visible"/>
					</clipPath>
					
						<radialGradient id="SVGID_153_" cx="0" cy="841.89" r="1" gradientTransform="matrix(24.5731 0 0 -25.3488 166.4761 21748.666)" gradientUnits="userSpaceOnUse">
						<stop  offset="0" style="stop-color:#FFFFFF"/>
						<stop  offset="5.615230e-03" style="stop-color:#FFFFFF"/>
						<stop  offset="1" style="stop-color:#8C8C8C"/>
					</radialGradient>
					<rect x="162.2" y="403.3" clip-path="url(#SVGID_152_)" fill="url(#SVGID_153_)" width="25.9" height="26.8"/>
				</g>
			</g>
		</g>
	</g>
	<g clip-path="url(#SVGID_2_)">
		<defs>
			<path id="SVGID_154_" d="M177.3,513.9l6.5,0.4v-21.7l-6.5-0.4V513.9z M259.4,417.9l28.6,1.7l-0.1-8.5l-28.6-1.7L259.4,417.9z
				 M91.3,403.6l26.2,1.6l-0.1-7.8l-26.2-1.6L91.3,403.6z M176.6,334.9l7.8,0.4V309l-7.8-0.4V334.9z"/>
		</defs>
		<clipPath id="SVGID_155_">
			<use xlink:href="#SVGID_154_"  overflow="visible"/>
		</clipPath>
		
			<linearGradient id="SVGID_156_" gradientUnits="userSpaceOnUse" x1="1.047551e-06" y1="841.89" x2="1" y2="841.89" gradientTransform="matrix(196.6431 0 0 -196.6431 91.2798 165963.2812)">
			<stop  offset="0" style="stop-color:#666666"/>
			<stop  offset="0.5506" style="stop-color:#FFFFFF"/>
			<stop  offset="1" style="stop-color:#8C8C8C"/>
		</linearGradient>
		<rect x="91.3" y="308.6" clip-path="url(#SVGID_155_)" fill="url(#SVGID_156_)" width="196.6" height="205.6"/>
	</g>
	<g clip-path="url(#SVGID_2_)">
		<defs>
			<rect id="SVGID_157_" width="595.3" height="841.9"/>
		</defs>
		<clipPath id="SVGID_158_">
			<use xlink:href="#SVGID_157_"  overflow="visible"/>
		</clipPath>
		<g opacity="0.5" clip-path="url(#SVGID_158_)">
			<g>
				<defs>
					<rect id="SVGID_159_" x="61.3" y="302.7" width="234.7" height="249.8"/>
				</defs>
				<clipPath id="SVGID_160_">
					<use xlink:href="#SVGID_159_"  overflow="visible"/>
				</clipPath>
				<g clip-path="url(#SVGID_160_)">
					<defs>
						<path id="SVGID_161_" d="M272.6,310.6l9.4,1.9L64.1,506v-20.2L272.6,310.6z M80.1,531.3l57.1,8.5l158.5-158.5l0.3-13.6
							L80.1,531.3z M157.3,542.8l64.7,9.7l70.5-65.8l2.2-57.9L157.3,542.8z M61.3,347.7l1.7,83l164.8-123l-57.1-5L61.3,347.7z"/>
					</defs>
					<clipPath id="SVGID_162_">
						<use xlink:href="#SVGID_161_"  overflow="visible"/>
					</clipPath>
					
						<radialGradient id="SVGID_163_" cx="0" cy="841.89" r="1" gradientTransform="matrix(292.0022 0 0 -292.0022 31.7681 246110.5312)" gradientUnits="userSpaceOnUse">
						<stop  offset="0" style="stop-color:#9FF1FF"/>
						<stop  offset="0.3146" style="stop-color:#9FF1FF"/>
						<stop  offset="1" style="stop-color:#000000"/>
					</radialGradient>
					<rect x="61.3" y="302.7" clip-path="url(#SVGID_162_)" fill="url(#SVGID_163_)" width="234.7" height="249.8"/>
				</g>
			</g>
		</g>
	</g>
	<g clip-path="url(#SVGID_2_)">
		<defs>
			<path id="SVGID_164_" d="M426.7,354.1c-0.1,21.1-2.1,65.8-3.2,88.8c-0.3,9.9,20.2,9.6,20.3,1.4l3.1-78.7
				c-1.9-7.2-7.9-12.5-15-12.5C430.1,353.1,428.3,353.4,426.7,354.1"/>
		</defs>
		<clipPath id="SVGID_165_">
			<use xlink:href="#SVGID_164_"  overflow="visible"/>
		</clipPath>
		
			<linearGradient id="SVGID_166_" gradientUnits="userSpaceOnUse" x1="0" y1="841.8376" x2="1" y2="841.8376" gradientTransform="matrix(22.0845 0.3855 0.3855 -22.0845 99.6339 18994.2969)">
			<stop  offset="0" style="stop-color:#A7A7A7"/>
			<stop  offset="0.5506" style="stop-color:#FFFFFF"/>
			<stop  offset="1" style="stop-color:#B2B2B2"/>
		</linearGradient>
		<polygon clip-path="url(#SVGID_165_)" fill="url(#SVGID_166_)" points="423.1,352.7 448.6,353.1 446.9,453.2 421.4,452.7 		"/>
	</g>
</g>
</svg>
