<svg xmlns="http://www.w3.org/2000/svg" viewBox="0 0 2000 2000"><path fill="#C6461F" d="M816.7 1650c-.5-16.2-12.2-28.2-35.8-36.9-6.4-2.2-14.4-4.3-23.6-6-9.2-1.8-22.2-3.1-38.6-4-16.1-.9-32.8.5-49.5 4-16.4 3.5-30.1 9.5-40.9 17.8-13.1 10.2-20.8 22.8-23.5 38.6-7.7 58.8-7.7 108.4 0 147.5v.2c2.7 18.3 8.8 34 18.2 46.6 10.1 13.9 23.8 20.6 42.1 20.6h.5c13.3 1.4 24.7-.8 33.9-6.7 21.2-13.1 27.2-42.6 18.1-87.7l-1.1-5.7 5.8-.3c18.7-1 33.6-6.9 44.4-17.7 5.1-5.1 7.5-12.2 7.5-21.8 0-4.7-1.4-9-4.2-13.2l-.1-.1c-6.2-9.6-19.8-16.2-40.3-19.6l1-9.9c25.7.8 46.4-2.3 61.5-8.9 17.2-8.2 25.3-20.2 24.6-36.8zm114.6 149.1c0 12.9 1.3 24.3 3.7 33.7 4.8 18.6 13.6 31.5 26.1 38.3l-.1.1c7.9 4.8 17.9 7.5 28.9 8.1v-208.8c-4-13.4-10-25.3-17.5-35.4-17.1-23.5-38.7-34-66.4-32.4-22.2 3.2-36.8 13.1-44.7 30.3-2.2 4.6-3.7 9.9-4.7 16.1-1 6.1-.6 14.6 1 25.2 1.6 10.4 6.3 21.2 14.2 32.2 14.2 20 34.7 35.8 60.8 47.1l3.7 1.6-.8 4c-2.7 13.5-4.2 26.9-4.2 39.9z"/><path fill="#2E6A6D" d="M1117.9 1671c1.9-11.1 2-19.9.3-26.2-1.8-6.6-3.8-12-5.7-15.8-7.1-13.1-20.6-20.8-41.5-23.5-2.2-.3-4.4-.4-6.5-.4-16.1 0-30.9 7.8-44.7 23.7-7.7 8.9-13.7 22.8-19.7 41.4v209c17-1.1 28.8-7.9 37.9-20.6 4.9-7.8 8.9-16.9 11.6-27 6.2-24.2 5.4-49.2-2.6-74.5l-1.3-4.1 3.8-1.9c10.5-5.3 20.4-11.9 29.4-19.6 20.4-17.2 33.5-37.5 39-60.5zm281.5 161.4c1.4-6.1 1.8-12.6 1.2-19.2-.6-6.5-1.9-11.9-4-16-4.4-8.5-10.1-14.4-17.1-17.6-11.9-5.3-25.7-7.2-41.1-5.4-3.6.4-7.1.6-10.3.6-16.9 0-29.2-5.1-36.5-15.1l-.1-.2c-3.4-5.3-5-12.2-4.5-20.6.5-8.8 3.7-15.5 9.7-19.8 5.3-3.8 11.4-6.3 18.1-7.5 2.5-.4 5.2-.6 8.2-.6 5 0 11 .6 17.7 1.8 9.4 1.7 17.8 1.6 25-.3 7.3-1.9 12.9-4.4 16.8-7.3 8.4-6.3 13.4-15.6 15.3-28.4 3.1-21.3-3.8-37.7-21.2-50.1-21.7-12.9-48.2-19.1-78.7-18.3-29.3.5-54.4 6.3-74.7 17.4-18.7 10.2-33 23.2-42.7 38.5-14.3 22.5-21.6 48.5-21.9 77v.1c-1.3 36.4 6.8 66.3 24 89 15.1 19.9 34.1 33.6 56.4 40.8 22.4 6.1 42 9.4 58.5 9.9 32.1 1 57.3-3.4 75.2-13.1 13.9-7.5 22.6-19.1 26.7-35.6z"/><path fill="#F15A23" d="M614 901.3c-36.2-11-71-26.9-103.6-47.4-11.2 41.8-16.9 86.2-16.9 131.9 0 29.7 2.9 59.7 8.8 91.8 38 47.8 86.3 87.2 139.8 114 56.8 28.4 118.2 42.9 182.5 42.9 57.4 0 111.5-11.6 165.4-35.3V835.9c-74.3 54.7-161.4 83.6-252.4 83.6-42.2.1-83.8-6.1-123.6-18.2z"/><path fill="#F7921E" d="M579.4 700.5c-29.8 44-52.5 92.2-67.4 143.4 32.6 20.8 67.4 36.9 103.7 47.9 38.9 11.8 79.5 17.8 120.7 17.8 92.2 0 179.8-29.8 253.7-86.1V480c-54.9.5-108.7 9.8-159.9 27.6-51 17.7-98.5 43.5-141.4 76.6-42.5 32.7-79.2 71.9-109.4 116.3z"/><path fill="#FAA03A" d="M773.5 521c25.4-12.4 51.7-22.6 78.5-30.5 44.6-13.2 91-20.1 138-20.5v-29c-43.6-19.4-86.7-30.7-131.8-34.3C836.8 450.2 808 489 773.5 521z"/><path fill="#FAAF3A" d="M990 154.4c-15.5-12.2-28-21.6-43.2-30.4l-4.6-2.6c-4.2-1.7-8.4-2.6-12.9-2.6-20.7 0-37.6 17-37.6 37.9 0 2.8.5 5.7 1.1 8.3v.1c.1.7.3 1.4.4 2.1.2 1.1.4 2.1.6 3.2 3.9 22.2 5.9 44.8 5.9 67.1 0 55.7-11.7 109.3-34.6 159.5 42.6 4.1 83.5 14.8 124.8 32.8V154.4z"/><path fill="#C6461F" d="M636 1200.6c-50.4-24.9-96-60-132.9-102.2 24.3 107 83.3 204 167.5 275 44.4 37.5 94.4 66.7 148.6 86.9 54.6 20.3 112 30.9 170.8 31.5v-281.6c-53.8 23.2-108 34.4-165.2 34.4-66.2-.1-129.7-14.9-188.8-44z"/><path fill="#4F9D4B" d="M1070 762.1c-17 21.3-40.3 43-70 66.3v366.2c69.1-32.7 127.6-83.4 170.1-147.1 45.2-67.8 68.9-146.5 68.9-227.7v-4.1s-2.2.8 0 0c.6-.2 0 .3 0 0 0-50.7-38.5-94.6-89.2-94.6-29.7 0-62.5 16.7-79.8 41z"/><path fill="#6BCE21" d="M1109.4 684.5c29.6-54.8 45.9-113.8 48.4-175.5-47.3-15.7-97.5-23-157.7-23v329.6c44.9-36.6 82.6-81.8 109.3-131.1z"/><path fill="#2E6A6D" d="M1249.4 819.8c0 83.1-24.5 163.7-70.8 233.2-44.4 66.5-106.1 119.2-178.6 152.6V1498c68.2 0 134.5-13.5 196.9-40.2 60.2-25.8 114.3-62.6 160.8-109.5 46.4-46.8 82.9-101.3 108.4-161.9 26.4-62.7 39.8-129.1 39.8-197.4 0-87.6-22.6-174.2-65.4-250.5-41.1-73.3-99.6-135.4-169.4-179.8l-3.8-2.3c-8.1-6.7-18.5-10.4-29-10.4-25.1 0-45.6 20.5-45.6 45.6 0 8.8 2.5 17.4 7.4 24.8l2.1 3.8c31.3 58.9 47.2 126 47.2 199.6z"/><path fill="#A0F30F" d="M1000 476c4.2 0 8.4 0 12.5-.1h11.8c9 0 18.4.1 28.2.8-18.6-12.7-36.4-23.2-52.4-31.1V476z"/><path fill="#B0FCB9" d="M1076 480.4c29.7 3.6 57.3 9.5 83.2 17.8-.5-2.6-1-5.2-1-7.7 0-65.1-15.8-130.6-45.7-189.2-27.2-53.4-66-101.2-112.5-138.9v271.7c28 13.1 56.1 31.9 74.9 45.5l1.1.8z"/><path fill="#F15A23" d="M614 901.3c-36.2-11-71-26.9-103.6-47.4-11.2 41.8-16.9 86.2-16.9 131.9 0 29.7 2.9 59.7 8.8 91.8 38 47.8 86.3 87.2 139.8 114 56.8 28.4 118.2 42.9 182.5 42.9 57.4 0 111.5-11.6 165.4-35.3V835.9c-74.3 54.7-161.4 83.6-252.4 83.6-42.2.1-83.8-6.1-123.6-18.2z"/><path fill="#F7921E" d="M579.4 700.5c-29.8 44-52.5 92.2-67.4 143.4 32.6 20.8 67.4 36.9 103.7 47.9 38.9 11.8 79.5 17.8 120.7 17.8 92.2 0 179.8-29.8 253.7-86.1V480c-54.9.5-108.7 9.8-159.9 27.6-51 17.7-98.5 43.5-141.4 76.6-42.5 32.7-79.2 71.9-109.4 116.3z"/><path fill="#FAA03A" d="M773.5 521c25.4-12.4 51.7-22.6 78.5-30.5 44.6-13.2 91-20.1 138-20.5v-29c-43.6-19.4-86.7-30.7-131.8-34.3C836.8 450.2 808 489 773.5 521z"/><path fill="#FAAF3A" d="M990 154.4c-15.5-12.2-28-21.6-43.2-30.4l-4.6-2.6c-4.2-1.7-8.4-2.6-12.9-2.6-20.7 0-37.6 17-37.6 37.9 0 2.8.5 5.7 1.1 8.3v.1c.1.7.3 1.4.4 2.1.2 1.1.4 2.1.6 3.2 3.9 22.2 5.9 44.8 5.9 67.1 0 55.7-11.7 109.3-34.6 159.5 42.6 4.1 83.5 14.8 124.8 32.8V154.4z"/><path fill="#C6461F" d="M636 1200.6c-50.4-24.9-96-60-132.9-102.2 24.3 107 83.3 204 167.5 275 44.4 37.5 94.4 66.7 148.6 86.9 54.6 20.3 112 30.9 170.8 31.5v-281.6c-53.8 23.2-108 34.4-165.2 34.4-66.2-.1-129.7-14.9-188.8-44z"/><path fill="#4F9D4B" d="M1070 762.1c-17 21.3-40.3 43-70 66.3v366.2c69.1-32.7 127.6-83.4 170.1-147.1 45.2-67.8 68.9-146.5 68.9-227.7v-4.1s-2.2.8 0 0c.6-.2 0 .3 0 0 0-50.7-38.5-94.6-89.2-94.6-29.7 0-62.5 16.7-79.8 41z"/><path fill="#6BCE21" d="M1109.4 684.5c29.6-54.8 45.9-113.8 48.4-175.5-47.3-15.7-97.5-23-157.7-23v329.6c44.9-36.6 82.6-81.8 109.3-131.1z"/><path fill="#2E6A6D" d="M1249.4 819.8c0 83.1-24.5 163.7-70.8 233.2-44.4 66.5-106.1 119.2-178.6 152.6V1498c68.2 0 134.5-13.5 196.9-40.2 60.2-25.8 114.3-62.6 160.8-109.5 46.4-46.8 82.9-101.3 108.4-161.9 26.4-62.7 39.8-129.1 39.8-197.4 0-87.6-22.6-174.2-65.4-250.5-41.1-73.3-99.6-135.4-169.4-179.8l-.4.4-3.4-2.7c-8.1-6.7-18.5-10.4-29-10.4-25.1 0-45.6 20.5-45.6 45.6 0 8.8 2.5 17.4 7.4 24.8l2.3 3.6-.3.2c31.4 58.9 47.3 126 47.3 199.6z"/><path fill="#A0F30F" d="M1000 476c4.2 0 8.4 0 12.5-.1h11.8c9 0 18.4.1 28.2.8-18.6-12.7-36.4-23.2-52.4-31.1V476z"/><path fill="#B0FCB9" d="M1076 480.4c29.7 3.6 57.3 9.5 83.2 17.8-.5-2.6-1-5.2-1-7.7 0-65.1-15.8-130.6-45.7-189.2-27.2-53.4-66-101.2-112.5-138.9v271.7c28 13.1 56.1 31.9 74.9 45.5l1.1.8z"/></svg>